<svg width="175" height="55" viewBox="0 0 175 55" fill="none" xmlns="http://www.w3.org/2000/svg">
<g clip-path="url(#clip0_1773_1432)">
<path d="M42.3626 18.2899C42.1696 18.9327 42.1331 19.6123 42.2562 20.2721C42.3794 20.9318 42.6585 21.5526 43.0703 22.0825C43.4822 22.6124 44.0148 23.0361 44.6237 23.3183C45.2327 23.6004 45.9003 23.7329 46.5708 23.7045C47.2775 23.7376 47.9817 23.5977 48.6221 23.2971C49.2625 22.9964 49.8199 22.544 50.246 21.9791L53.0514 24.0131C52.3364 25.0514 51.3655 25.8874 50.2326 26.4403C49.0997 26.9933 47.8432 27.2444 46.5848 27.1693C37.8738 27.1693 36.1765 16.1437 42.587 12.4826C44.1848 11.5864 46.0365 11.2506 47.8473 11.5287C52.6727 12.2441 52.9533 16.4804 51.0175 17.4062C50.0917 14.1098 43.3866 13.703 42.3626 18.2899Z" fill="#0094FF"/>
<path d="M66.5031 25.2192C62.0984 29.6238 54.706 26.6219 54.706 19.2715C54.6532 18.2631 54.8033 17.2543 55.1474 16.305C55.4916 15.3556 56.0227 14.485 56.7094 13.7446C57.3962 13.0043 58.2245 12.4093 59.1453 11.9949C60.0662 11.5804 61.0608 11.355 62.0704 11.332C65.7877 11.4863 66.4049 14.8108 65.7035 16.0733C65.3109 15.6386 64.8228 15.3008 64.2776 15.0866C63.7324 14.8724 63.1449 14.7876 62.5614 14.8389C57.1748 14.8389 57.0766 23.7743 62.5614 23.7743C65.6334 23.7743 66.5031 20.6603 66.5031 17.953V11.7388H70.2905V26.8744H66.5031V25.2192Z" fill="#0094FF"/>
<path d="M77.4317 14.9143C77.2821 14.9395 77.1418 15.0034 77.0245 15.0997C76.9073 15.1959 76.8172 15.3211 76.7633 15.4629C76.7095 15.6047 76.6936 15.7582 76.7173 15.908C76.7411 16.0578 76.8036 16.1988 76.8987 16.317C77.9507 17.5093 83.183 18.2247 83.183 22.5031C83.183 27.5109 75.8606 28.9277 72.5642 24.5651L74.8787 22.0402C77.8245 25.519 81.8924 22.8678 78.0068 20.904C75.524 19.6415 73.0832 18.3791 73.0832 15.6577C73.1165 15.0263 73.28 14.4086 73.5635 13.8434C73.8469 13.2782 74.2441 12.7777 74.7301 12.3733C75.2162 11.9689 75.7806 11.6694 76.3879 11.4935C76.9953 11.3176 77.6324 11.2692 78.2593 11.3513C82.72 11.6038 82.8182 15.4193 80.5739 16.3451C80.3073 15.7706 79.844 15.3105 79.2676 15.0481C78.6913 14.7857 78.04 14.7382 77.4317 14.9143Z" fill="#0094FF"/>
<path d="M89.1863 13.8005C89.8035 12.3978 91.8375 11.7946 93.1841 11.7385C93.9286 11.6787 94.6772 11.7848 95.3758 12.0492C96.0744 12.3136 96.7056 12.7297 97.224 13.2675C98.1392 14.3367 98.602 15.7203 98.5145 17.125V26.846H94.8814C95.0049 23.5291 94.9252 20.2077 94.6429 16.9006C94.5316 16.3907 94.2501 15.9338 93.8448 15.605C93.4395 15.2762 92.9345 15.0949 92.4126 15.091C92.1471 15.0581 91.8776 15.0835 91.623 15.1655C91.3683 15.2475 91.1347 15.3841 90.9383 15.5658C90.7419 15.7475 90.5876 15.9698 90.4861 16.2173C90.3846 16.4648 90.3383 16.7315 90.3505 16.9988C89.8123 16.7656 89.3851 16.3333 89.1582 15.7924V26.846H85.4971V9.36786C85.4971 7.48819 86.8998 6.33794 89.1582 6.38002V13.8005H89.1863Z" fill="#0094FF"/>
<path d="M101.431 26.8761V9.42604C101.431 7.85498 102.834 6.46627 105.092 6.41016V18.1932C105.092 20.8443 105.962 23.8041 108.978 23.8041C114.336 23.8041 114.21 15.0931 108.978 15.0931C108.412 15.0495 107.844 15.1355 107.317 15.3446C106.789 15.5536 106.316 15.8802 105.934 16.2995C105.247 15.0651 105.653 11.8247 109.469 11.6845C110.453 11.7093 111.423 11.9313 112.32 12.3374C113.217 12.7434 114.024 13.3253 114.692 14.0485C115.36 14.7718 115.877 15.6217 116.211 16.548C116.545 17.4744 116.69 18.4583 116.637 19.4416C116.637 26.5816 109.399 29.4993 105.092 25.2209V26.82L101.431 26.8761Z" fill="#FF7000"/>
<path d="M130.44 25.2192C126.035 29.6238 118.643 26.6219 118.643 19.2715C118.59 18.2631 118.74 17.2543 119.084 16.305C119.429 15.3556 119.96 14.485 120.646 13.7446C121.333 13.0043 122.161 12.4093 123.082 11.9949C124.003 11.5804 124.998 11.355 126.007 11.332C129.725 11.4863 130.342 14.8108 129.641 16.0733C129.248 15.6386 128.76 15.3008 128.215 15.0866C127.669 14.8724 127.082 14.7876 126.498 14.8389C121.112 14.8389 121.014 23.7743 126.498 23.7743C129.57 23.7743 130.44 20.6603 130.44 17.953V11.7388H134.227V26.8744H130.44V25.2192Z" fill="#FF7000"/>
<path d="M137.118 26.8761V9.42604C137.118 7.85498 138.52 6.46627 140.779 6.41016V18.1932C140.779 20.8443 141.648 23.8041 144.664 23.8041C150.023 23.8041 149.897 15.0931 144.664 15.0931C144.099 15.0506 143.531 15.1371 143.004 15.346C142.476 15.555 142.003 15.881 141.62 16.2995C140.947 15.0651 141.34 11.8247 145.169 11.6845C146.154 11.7093 147.123 11.9313 148.02 12.3374C148.917 12.7434 149.724 13.3253 150.392 14.0485C151.061 14.7718 151.577 15.6217 151.911 16.548C152.245 17.4744 152.39 18.4583 152.337 19.4416C152.337 26.5816 145.099 29.4993 140.793 25.2209V26.82L137.118 26.8761Z" fill="#FF7000"/>
<path d="M166.14 25.2192C161.75 29.6238 154.357 26.6219 154.357 19.2715C154.302 18.2603 154.452 17.2485 154.797 16.2964C155.142 15.3444 155.676 14.4717 156.366 13.7305C157.056 12.9894 157.888 12.395 158.813 11.9829C159.739 11.5708 160.737 11.3494 161.75 11.332C165.481 11.4863 166.098 14.8108 165.383 16.0733C164.993 15.6388 164.507 15.3011 163.964 15.0868C163.421 14.8726 162.836 14.7877 162.255 14.8389C156.854 14.8389 156.77 23.7743 162.255 23.7743C165.327 23.7743 166.182 20.6603 166.182 17.953V11.7388H169.97V26.8744H166.182L166.14 25.2192Z" fill="#FF7000"/>
<path d="M6.64909 3.01562C4.61411 4.79503 2.97197 6.9787 1.82723 9.42757C0.682493 11.8764 0.0602403 14.5369 9.7853e-05 17.2394C-0.0291324 21.5007 1.53255 25.6197 4.37963 28.7904C7.22672 31.9612 11.1544 33.9557 15.3942 34.3837C19.6341 34.8117 23.8811 33.6425 27.3045 31.1047C30.7279 28.567 33.0813 24.8433 33.9043 20.6621L26.9748 20.4797C26.212 22.8354 24.6322 24.8408 22.5206 26.1339C20.409 27.4271 17.9047 27.9229 15.4597 27.5317C13.0147 27.1406 10.79 25.8883 9.18725 24.001C7.58446 22.1136 6.70912 19.7155 6.71922 17.2394L6.64909 3.01562Z" fill="#0094FF"/>
<path d="M8.2623 1.92068C9.93032 1.00492 11.7592 0.419121 13.6488 0.195312V0.531967V17.7716C13.6745 18.6101 14.0285 19.4049 14.6346 19.9847C15.2407 20.5646 16.0504 20.8831 16.8891 20.8717C17.3128 20.9002 17.7379 20.8414 18.1379 20.6989C18.538 20.5564 18.9045 20.3332 19.2147 20.0432C19.5249 19.7532 19.7722 19.4026 19.9413 19.013C20.1104 18.6235 20.1976 18.2033 20.1976 17.7787C20.1976 17.354 20.1104 16.9339 19.9413 16.5443C19.7722 16.1548 19.5249 15.8041 19.2147 15.5141C18.9045 15.2241 18.538 15.0009 18.1379 14.8584C17.7379 14.7159 17.3128 14.6571 16.8891 14.6856C16.2118 14.6795 15.5513 14.8964 15.0095 15.3028V9.06063C15.6268 8.92208 16.2566 8.84688 16.8891 8.83619C19.1474 8.83619 21.3131 9.73327 22.9099 11.3301C24.5067 12.9269 25.4038 15.0926 25.4038 17.3508C25.4038 19.609 24.5067 21.7748 22.9099 23.3716C21.3131 24.9684 19.1474 25.8655 16.8891 25.8655C15.7627 25.8862 14.6435 25.6805 13.5979 25.2607C12.5524 24.8408 11.6018 24.2153 10.8025 23.4213C10.0032 22.6272 9.37149 21.6807 8.94478 20.638C8.51807 19.5952 8.30507 18.4774 8.31841 17.3508L8.22021 2.52386V1.97679L8.2623 1.92068Z" fill="#FF7000"/>
<path d="M15.0231 0V7.0137C15.7162 6.87517 16.4205 6.80005 17.1272 6.78926C19.389 6.80625 21.5838 7.55854 23.3804 8.93257C25.1771 10.3066 26.4779 12.2278 27.0867 14.4061H33.9742C33.3216 10.4037 31.2733 6.76146 28.1923 4.12464C25.1113 1.48783 21.1965 0.0266606 17.1413 0C16.4259 0 15.7385 2.09025e-07 15.0372 0.126247" fill="#0094FF"/>
<path d="M132.811 54.3299C143.515 52.9649 154.285 52.1923 165.074 52.0154C168.132 51.9312 171.246 52.0995 174.318 52.0154C174.921 52.0154 174.837 50.6126 174.234 50.6126C164.808 50.2327 155.366 50.4576 145.969 51.2859C142.939 51.5525 135.673 52.5344 132.643 52.8851C132.054 52.8851 132.138 54.2878 132.741 54.2878" fill="#FF7000"/>
<path d="M109.091 42.6036C108.782 42.8421 108.502 43.0385 108.235 43.2629C107.969 43.4873 107.927 43.2629 107.814 43.2629C107.6 43.1012 107.425 42.8944 107.3 42.657C107.175 42.4197 107.104 42.1577 107.092 41.8898C107.08 41.6219 107.127 41.3546 107.23 41.107C107.333 40.8595 107.49 40.6376 107.688 40.4574C108.179 40.0798 108.78 39.875 109.399 39.875C110.019 39.875 110.62 40.0798 111.111 40.4574C111.554 40.892 111.831 41.4675 111.895 42.0846C111.959 42.7017 111.806 43.3218 111.462 43.838C110.999 44.3642 110.37 44.7158 109.68 44.834C109.955 44.924 110.223 45.0366 110.48 45.1706C111.055 45.4792 111.602 45.8159 112.163 46.1245C112.373 46.2367 112.359 46.3209 112.163 46.4471C111.896 46.6996 111.672 47.1064 111.363 47.1625C111.055 47.2186 110.746 46.8539 110.438 46.6716L108.909 45.7598C108.431 45.462 107.895 45.2706 107.337 45.1987C107.169 45.1987 107.099 45.1987 107.099 44.9322C107.099 43.9502 107.099 43.9502 108.025 43.9362C108.607 43.9696 109.188 43.8486 109.708 43.5855C109.982 43.4444 110.203 43.2167 110.334 42.9377C110.466 42.6588 110.503 42.3441 110.438 42.0425C110.418 41.9002 110.369 41.7636 110.293 41.6417C110.217 41.5199 110.116 41.4157 109.997 41.3361C109.877 41.2564 109.742 41.2032 109.6 41.1798C109.459 41.1565 109.314 41.1637 109.175 41.2009C109.036 41.2221 108.907 41.2863 108.807 41.3844C108.706 41.4825 108.639 41.6096 108.614 41.7479C108.58 41.8857 108.589 42.0305 108.639 42.1632C108.689 42.296 108.778 42.4104 108.895 42.4914L109.091 42.6317" fill="white"/>
<path d="M84.5985 39.3226C84.3881 39.3226 84.304 39.2384 84.304 38.986C84.304 38.0601 84.304 38.0601 85.2298 38.0601H91.6122C91.8492 38.0337 92.0892 38.0575 92.3164 38.13C92.5436 38.2026 92.7529 38.3221 92.9308 38.481C92.8331 38.0185 92.7675 37.5498 92.7344 37.0782C92.7344 36.8117 92.8326 36.7416 93.0711 36.7556C93.3095 36.7696 93.6602 36.7556 93.9408 36.7556C94.2213 36.7556 94.1792 36.7556 94.1512 36.966V37.0782C94.1512 37.3868 94.0249 37.8217 94.1512 37.976C94.2774 38.1303 94.7544 38.0601 95.063 37.976C95.3716 37.8918 95.4698 37.976 95.4698 38.3688C95.4698 39.2104 95.4698 39.2104 94.6141 39.2104H94.4177C94.1652 39.2104 94.0951 39.2805 94.0951 39.533C94.0951 41.7073 94.0951 43.8675 94.0951 46.0417C94.0951 46.2942 94.0951 46.4205 93.7584 46.3784C93.4218 46.3363 92.9027 46.5467 92.6923 46.3784C92.4819 46.2101 92.6923 45.677 92.6923 45.3123V40.5711C92.6929 40.3532 92.6646 40.1362 92.6082 39.9258C92.5772 39.763 92.4927 39.6153 92.3682 39.506C92.2437 39.3967 92.0862 39.3322 91.9208 39.3226C91.5421 39.3226 91.1634 39.3226 90.7986 39.3226C90.4339 39.3226 90.5321 39.3226 90.5321 39.5611C90.5321 41.4314 90.5321 43.3017 90.5321 45.172C90.5321 45.4386 90.7145 45.4947 90.8828 45.5788C91.0511 45.663 91.1213 45.8033 90.8828 45.9716C90.6443 46.1399 90.4059 46.6589 90.0832 46.673C89.7606 46.687 89.4941 46.3503 89.1855 46.168L85.3139 43.7974C85.221 43.7473 85.144 43.6721 85.0919 43.5803C85.0398 43.4885 85.0147 43.3838 85.0194 43.2783C84.9701 42.974 85.0149 42.6619 85.1478 42.3836C85.2806 42.1054 85.4952 41.8744 85.7628 41.7213C86.6735 40.976 87.7023 40.3881 88.8067 39.9819C89.1434 39.8697 89.0592 39.6452 89.0592 39.4348C89.0592 39.2244 88.8208 39.2946 88.7086 39.2946H84.9492H84.6266M89.0031 41.3005C88.1393 41.6307 87.3377 42.105 86.6325 42.7032C86.5343 42.7874 86.6325 42.8435 86.6325 42.8996L89.1013 44.4146C88.9706 43.3632 88.9237 42.3031 88.9611 41.2444" fill="white"/>
<path d="M97.2238 41.7872L96.8732 41.7031C96.4636 41.6256 96.0959 41.4026 95.8381 41.0751C95.5802 40.7476 95.4496 40.3379 95.4704 39.9216C95.4675 39.5063 95.6042 39.1022 95.8586 38.774C96.113 38.4458 96.4703 38.2127 96.8732 38.112C97.5117 37.9575 98.1821 38.0015 98.7949 38.2383C98.9632 38.2383 99.0755 38.3786 98.9492 38.589C98.9431 38.6214 98.9431 38.6547 98.9492 38.6872C98.8942 38.9368 98.7943 39.1744 98.6546 39.3885C98.4723 39.5849 98.2338 39.2903 97.9954 39.3885C97.7569 39.4867 97.7008 39.3885 97.5605 39.3885C97.4115 39.3889 97.2673 39.4408 97.1522 39.5354C97.0372 39.63 96.9584 39.7615 96.9293 39.9075C96.8807 40.0667 96.8891 40.2379 96.9532 40.3915C97.0172 40.5451 97.1327 40.6716 97.28 40.7492C97.5186 40.8729 97.7809 40.9445 98.0494 40.959C98.3179 40.9735 98.5864 40.9307 98.837 40.8333C99.9592 40.4686 100.001 40.4125 100.001 39.2483V38.3926C100.001 38.2102 100.001 38.1401 100.24 38.1401H102.751C103.123 38.1288 103.488 38.2424 103.789 38.4627C103.789 37.9998 103.704 37.593 103.662 37.1862C103.62 36.7794 103.662 36.8355 103.971 36.8636C104.28 36.8917 104.757 36.7514 104.995 36.8636C105.233 36.9758 104.995 37.5089 104.995 37.8315C104.995 38.1541 105.093 38.098 105.276 38.098H109.849C110.325 38.098 110.059 37.7333 110.101 37.5369C110.143 37.3405 109.905 37.3686 109.792 37.3966C108.857 37.6326 107.869 37.5487 106.987 37.1582C106.71 37.0425 106.473 36.8478 106.306 36.5983C106.139 36.3488 106.049 36.0557 106.047 35.7554C106.009 35.4485 106.061 35.1372 106.195 34.8587C106.329 34.5802 106.541 34.3461 106.805 34.1844C107.424 33.8351 108.128 33.6651 108.839 33.6934C110.468 33.6061 112.075 34.1036 113.369 35.0961C113.795 35.4188 114.152 35.8232 114.42 36.2857C114.687 36.7482 114.859 37.2594 114.926 37.7894C114.926 38.07 115.081 38.1261 115.333 38.112C118.279 38.0138 121.225 38.112 124.17 38.112C124.521 38.112 124.591 38.2102 124.591 38.5329C124.591 39.3324 124.591 39.3464 123.792 39.3464C123.259 39.3464 123.259 39.3464 123.259 39.9075C123.259 41.9836 123.259 44.1158 123.259 46.1497C123.259 46.4443 123.175 46.5285 122.894 46.5004C122.618 46.4864 122.342 46.4864 122.066 46.5004C121.8 46.5004 121.744 46.4303 121.744 46.1778C121.712 45.1813 121.412 44.2119 120.874 43.3723C120.639 42.9855 120.318 42.6588 119.934 42.4185C119.662 42.2567 119.353 42.1696 119.036 42.166C118.856 42.1412 118.672 42.174 118.511 42.2596C118.35 42.3452 118.219 42.4793 118.139 42.6429C118.06 42.8186 118.035 43.0139 118.067 43.2038C118.1 43.3937 118.188 43.5696 118.321 43.709L118.475 43.8773C118.069 44.0456 117.676 44.1999 117.297 44.3823C116.918 44.5646 117.031 44.3823 116.946 44.214C116.77 43.966 116.648 43.6836 116.589 43.3853C116.529 43.0869 116.533 42.7794 116.601 42.4827C116.668 42.1861 116.798 41.9071 116.981 41.6639C117.163 41.4208 117.396 41.219 117.662 41.0718C118.289 40.7827 118.993 40.7071 119.667 40.8566C120.341 41.0061 120.947 41.3724 121.393 41.8994C121.533 42.0537 121.646 42.2221 121.842 42.4605C121.842 41.9555 121.842 41.5487 121.758 41.142C121.674 40.7352 121.758 40.146 121.758 39.641C121.758 39.4727 121.758 39.4026 121.547 39.4026H116.329C116.002 39.4235 115.674 39.4235 115.347 39.4026C115.053 39.4026 114.969 39.4727 114.969 39.7813C114.969 41.8994 114.969 43.9895 114.969 46.1357C114.969 46.5144 114.884 46.6547 114.506 46.5986C114.127 46.5425 113.79 46.7249 113.594 46.5986C113.397 46.4724 113.594 45.9954 113.524 45.6868C113.524 43.737 113.524 41.7872 113.524 39.8374C113.524 39.5288 113.425 39.4587 113.131 39.4587H106.117C105.851 39.4587 105.57 39.4587 105.29 39.4587C105.009 39.4587 104.967 39.5428 104.967 39.7953C104.967 41.9415 104.967 44.1017 104.967 46.262C104.967 46.5565 104.967 46.6687 104.602 46.6407C104.238 46.6126 103.789 46.7529 103.578 46.6407C103.368 46.5285 103.578 45.9533 103.578 45.5886C103.578 44.0176 103.578 42.4325 103.578 40.8474C103.578 40.5942 103.536 40.3429 103.452 40.1039C103.415 39.953 103.328 39.8188 103.206 39.7223C103.085 39.6258 102.934 39.5726 102.779 39.5709C102.414 39.5709 102.035 39.5709 101.657 39.5709C101.278 39.5709 101.418 39.5709 101.418 39.8234C101.418 41.661 101.418 43.4986 101.418 45.3361C101.418 45.5746 101.558 45.6307 101.713 45.6728C101.867 45.7149 102.021 45.9253 101.811 46.1497C101.6 46.3742 101.446 46.795 101.152 46.8511C100.857 46.9072 100.576 46.6267 100.282 46.4864L95.9333 44.3683C95.8238 44.3296 95.7295 44.2571 95.6639 44.1613C95.5983 44.0655 95.565 43.9513 95.5686 43.8352C95.5282 43.6906 95.5169 43.5394 95.5354 43.3904C95.5538 43.2414 95.6015 43.0975 95.6759 42.9671C95.7502 42.8367 95.8497 42.7223 95.9685 42.6305C96.0873 42.5387 96.2232 42.4714 96.3682 42.4325C96.6444 42.3115 96.9116 42.1708 97.1677 42.0117M111.349 36.9898C111.349 37.2704 111.349 37.5369 111.349 37.8034C111.349 38.07 111.349 38.0279 111.574 38.0279H113.243C113.454 38.0279 113.552 38.0279 113.51 37.7473C113.43 37.2932 113.248 36.8629 112.979 36.4888C112.709 36.1147 112.358 35.8065 111.953 35.5871C110.954 35.0587 109.825 34.8252 108.698 34.9138C108.333 34.9066 107.972 35.004 107.66 35.1943C107.567 35.2344 107.487 35.3009 107.432 35.3857C107.376 35.4705 107.346 35.5697 107.346 35.6713C107.346 35.7728 107.376 35.8721 107.432 35.9569C107.487 36.0416 107.567 36.1082 107.66 36.1482C107.837 36.2293 108.027 36.2768 108.221 36.2885C109.13 36.373 110.046 36.2728 110.915 35.9939C111.167 35.9939 111.307 35.9939 111.279 36.2744C111.251 36.555 111.279 36.7654 111.279 37.0039M100.029 41.675L97.2238 43.218L100.113 44.6208C100.01 43.6329 99.9636 42.6401 99.9732 41.6469" fill="white"/>
<path d="M164.331 44.2717C163.952 44.426 163.615 44.5522 163.293 44.7205C162.97 44.8889 162.9 44.7205 162.76 44.5662C162.572 44.2863 162.453 43.966 162.412 43.6315C162.371 43.2969 162.41 42.9574 162.524 42.6405C162.639 42.3236 162.827 42.0382 163.072 41.8074C163.318 41.5765 163.615 41.4068 163.938 41.3119C164.587 41.1152 165.281 41.1316 165.92 41.3589C166.559 41.5861 167.108 42.0121 167.487 42.5743C167.487 42.5743 167.487 42.7286 167.655 42.7707C167.655 42.5743 167.655 42.3779 167.655 42.1956C167.655 41.4802 167.655 40.7929 167.655 40.0634C167.655 39.9091 167.655 39.7969 167.431 39.7969H162.156C160.67 39.7969 159.169 39.7969 157.682 39.7969C157.415 39.7969 157.317 39.7969 157.317 40.1616C157.317 40.9892 157.317 41.8169 157.317 42.6585C157.457 42.6585 157.499 42.5463 157.555 42.4761C158.218 41.8143 158.98 41.2605 159.814 40.8349C159.903 40.774 160.008 40.7414 160.115 40.7414C160.223 40.7414 160.328 40.774 160.417 40.8349C160.684 41.0313 161.09 41.1155 161.231 41.3539C161.371 41.5924 161.104 41.9712 161.048 42.2938C160.817 43.6838 160.737 45.0948 160.81 46.502C160.81 46.8387 160.726 46.9509 160.389 46.9088C160.052 46.8667 159.589 47.0631 159.393 46.9088C159.197 46.7545 159.393 46.2495 159.393 45.9129C159.305 44.7943 159.414 43.669 159.716 42.5884C159.505 42.5884 159.421 42.7006 159.309 42.7847C158.588 43.3701 157.959 44.0605 157.443 44.8327C157.331 45.0011 157.233 45.0572 157.036 44.959C156.84 44.8608 156.167 44.7486 155.928 44.468C155.69 44.1875 155.928 43.6825 155.928 43.2897C155.928 42.2423 155.928 41.1903 155.928 40.1336C155.928 39.8951 155.928 39.8109 155.62 39.8109C155.311 39.8109 154.848 39.8109 154.469 39.8109C154.343 39.8109 154.259 39.8109 154.203 39.9512C153.446 41.2149 153.163 42.7063 153.403 44.1594C153.472 44.5474 153.636 44.9122 153.881 45.2208C154.126 45.5293 154.444 45.772 154.806 45.9269C155.016 46.0251 155.045 46.1092 154.904 46.3056C154.756 46.5123 154.63 46.7331 154.526 46.9649C154.413 47.2595 154.259 47.2314 154.021 47.1192C153.376 46.787 152.838 46.2812 152.466 45.659C152.094 45.0368 151.904 44.323 151.916 43.5983C151.848 42.3947 152.084 41.1933 152.604 40.1055C152.744 39.825 152.688 39.7689 152.393 39.7689C151.79 39.7689 151.201 39.7689 150.612 39.7689C150.345 39.7689 150.261 39.7689 150.275 40.1055C150.275 42.2517 150.275 44.3979 150.275 46.5441C150.275 46.8387 150.275 46.993 149.882 46.9509C149.617 46.9159 149.348 46.9159 149.083 46.9509C148.802 46.9509 148.746 46.8527 148.746 46.6002C148.728 45.454 148.345 44.3434 147.652 43.43C147.477 43.1659 147.243 42.9469 146.967 42.7908C146.692 42.6348 146.383 42.5462 146.067 42.5322C145.884 42.5044 145.697 42.5356 145.533 42.6214C145.369 42.7072 145.237 42.843 145.155 43.0092C145.073 43.1866 145.046 43.3847 145.079 43.5775C145.111 43.7703 145.202 43.9487 145.338 44.0893L145.478 44.2436C145.099 44.4119 144.748 44.5382 144.426 44.7065C144.386 44.7315 144.341 44.7481 144.294 44.7553C144.247 44.7625 144.199 44.7601 144.153 44.7483C144.107 44.7365 144.064 44.7155 144.027 44.6866C143.989 44.6578 143.958 44.6216 143.935 44.5803C143.741 44.3013 143.616 43.9806 143.569 43.6441C143.523 43.3076 143.556 42.9649 143.667 42.6438C143.777 42.3226 143.962 42.0321 144.206 41.7958C144.45 41.5595 144.747 41.3841 145.071 41.2838C145.771 41.0797 146.52 41.1167 147.196 41.3889C147.873 41.6611 148.439 42.1526 148.802 42.7847C148.844 42.5811 148.844 42.3711 148.802 42.1675C148.802 41.4662 148.802 40.7648 148.802 40.0494C148.802 39.839 148.802 39.7689 148.536 39.7689C146.782 39.7689 145.015 39.7689 143.262 39.7689H142.111C141.859 39.7689 141.789 39.7689 141.803 40.0915C141.803 42.2377 141.803 44.3839 141.803 46.516C141.803 46.8667 141.704 46.9649 141.382 46.9368C141.059 46.9088 140.582 47.035 140.4 46.8667C140.218 46.6984 140.33 46.1934 140.33 45.8567C140.33 44.8889 140.33 43.921 140.33 42.9531C140.347 42.7538 140.289 42.5555 140.167 42.3971C140.044 42.2387 139.868 42.1318 139.671 42.0974C139.473 42.0491 139.264 42.0684 139.079 42.1523C138.893 42.2362 138.741 42.3799 138.647 42.5603C138.535 42.8211 138.492 43.1058 138.52 43.3879C138.52 43.5562 138.52 43.6264 138.296 43.6264C138.071 43.6264 137.665 43.6264 137.356 43.6264C137.047 43.6264 137.146 43.5563 137.146 43.4019C137.146 43.2476 137.146 43.1074 137.146 42.9671C137.154 42.7641 137.084 42.5655 136.952 42.4118C136.819 42.2581 136.632 42.1607 136.43 42.1395C136.204 42.105 135.974 42.1565 135.784 42.2838C135.595 42.411 135.46 42.6048 135.406 42.8268C135.33 43.072 135.322 43.3335 135.384 43.5827C135.446 43.832 135.575 44.0595 135.757 44.2403C135.94 44.4212 136.168 44.5486 136.418 44.6085C136.668 44.6685 136.929 44.6587 137.174 44.5803C137.51 44.4961 137.58 44.5803 137.594 44.9029C137.574 45.0847 137.574 45.2682 137.594 45.4499C137.594 45.7305 137.594 45.8427 137.286 45.8988C136.673 46.061 136.023 46.0105 135.442 45.7558C134.861 45.501 134.384 45.057 134.088 44.4961C133.864 44.0537 133.765 43.5585 133.802 43.064C133.839 42.5696 134.011 42.0947 134.298 41.6906C134.495 41.399 134.761 41.1613 135.073 40.9992C135.385 40.8372 135.733 40.7559 136.085 40.7629C136.436 40.7699 136.78 40.8648 137.086 41.0392C137.391 41.2135 137.648 41.4616 137.833 41.7607C137.904 41.5217 138.038 41.306 138.22 41.1358C138.403 40.9657 138.627 40.8473 138.871 40.7929C139.113 40.7424 139.364 40.7437 139.605 40.7969C139.847 40.8501 140.075 40.9539 140.274 41.1015C140.274 40.6666 140.274 40.3019 140.274 39.9231C140.274 39.5444 140.161 39.7689 140.049 39.7689H139.306C137.3 39.7689 135.308 39.7689 133.302 39.7689C133.071 39.734 132.835 39.7865 132.64 39.9162C132.446 40.0459 132.307 40.2434 132.25 40.4702C131.746 41.5755 131.566 42.8015 131.731 44.0051C131.785 44.4139 131.942 44.8024 132.187 45.1337C132.433 45.465 132.758 45.7283 133.134 45.8988C133.358 46.011 133.386 46.1092 133.246 46.3056C133.106 46.502 133.05 46.6423 132.951 46.8106C132.685 47.2735 132.685 47.2735 132.222 47.021C131.702 46.7443 131.258 46.3435 130.93 45.8541C130.602 45.3646 130.4 44.8018 130.342 44.2155C130.124 42.304 130.548 40.3742 131.549 38.7308C131.633 38.5625 131.759 38.5625 131.899 38.5625C132.615 38.5625 133.302 38.5625 134.046 38.5625H170.026C170.376 38.5625 170.517 38.5625 170.503 39.0254C170.503 39.7829 170.503 39.7829 169.745 39.7829C168.988 39.7829 169.17 39.7829 169.17 40.3861C169.17 42.4621 169.17 44.5241 169.17 46.6002C169.17 46.8948 169.086 46.9789 168.805 46.9509C168.53 46.9368 168.254 46.9368 167.978 46.9509C167.711 46.9509 167.655 46.9509 167.655 46.6283C167.642 45.5443 167.305 44.489 166.687 43.5983C166.507 43.2929 166.254 43.0369 165.95 42.8533C165.647 42.6697 165.302 42.5642 164.948 42.5463C164.767 42.5193 164.582 42.5511 164.421 42.637C164.259 42.7228 164.129 42.8582 164.05 43.0232C163.969 43.1985 163.943 43.3942 163.976 43.5846C164.008 43.7749 164.098 43.9509 164.232 44.0893L164.387 44.2576" fill="white"/>
</g>
<defs>
<clipPath id="clip0_1773_1432">
<rect width="174.795" height="54.3281" fill="white"/>
</clipPath>
</defs>
</svg>
