<svg width="20" height="21" viewBox="0 0 20 21" fill="none" xmlns="http://www.w3.org/2000/svg">
<path d="M9.99063 2.19922C7.39688 2.19922 5.32188 4.27422 5.32188 6.86797V8.94297C4.44 8.94297 3.76562 9.61734 3.76562 10.4992V17.243C3.76562 18.1248 4.44 18.7992 5.32188 18.7992H14.6594C15.5413 18.7992 16.2156 18.1248 16.2156 17.243V10.4992C16.2156 9.61734 15.5413 8.94297 14.6594 8.94297V6.86797C14.6594 4.27422 12.5844 2.19922 9.99063 2.19922ZM15.1781 10.4992V17.243C15.1781 17.5542 14.9706 17.7617 14.6594 17.7617H5.32188C5.01063 17.7617 4.80313 17.5542 4.80313 17.243V10.4992C4.80313 10.188 5.01063 9.98047 5.32188 9.98047H5.84063H14.1406H14.6594C14.9706 9.98047 15.1781 10.188 15.1781 10.4992ZM6.35938 8.94297V6.86797C6.35938 4.84484 7.9675 3.23672 9.99063 3.23672C12.0138 3.23672 13.6219 4.84484 13.6219 6.86797V8.94297H6.35938Z" fill="black"/>
<path d="M9.99058 11.5371C9.1087 11.5371 8.43433 12.2115 8.43433 13.0934C8.43433 13.7677 8.84933 14.3384 9.47183 14.5459V15.6871C9.47183 15.9984 9.67933 16.2059 9.99058 16.2059C10.3018 16.2059 10.5093 15.9984 10.5093 15.6871V14.5459C11.1318 14.3384 11.5468 13.7677 11.5468 13.0934C11.5468 12.2115 10.8725 11.5371 9.99058 11.5371ZM9.99058 13.6121C9.67933 13.6121 9.47183 13.4046 9.47183 13.0934C9.47183 12.7821 9.67933 12.5746 9.99058 12.5746C10.3018 12.5746 10.5093 12.7821 10.5093 13.0934C10.5093 13.4046 10.3018 13.6121 9.99058 13.6121Z" fill="black"/>
</svg>
