<svg width="25" height="25" viewBox="0 0 25 25" fill="none" xmlns="http://www.w3.org/2000/svg">
<g id="Bank">
<path id="Vector" d="M23.75 19.9731C23.75 20.172 23.671 20.3628 23.5303 20.5035C23.3897 20.6441 23.1989 20.7231 23 20.7231H2C1.80109 20.7231 1.61032 20.6441 1.46967 20.5035C1.32902 20.3628 1.25 20.172 1.25 19.9731C1.25 19.7742 1.32902 19.5834 1.46967 19.4428C1.61032 19.3021 1.80109 19.2231 2 19.2231H23C23.1989 19.2231 23.3897 19.3021 23.5303 19.4428C23.671 19.5834 23.75 19.7742 23.75 19.9731ZM2.02812 9.6775C1.98352 9.52022 1.99152 9.35267 2.05093 9.20035C2.11033 9.04804 2.21787 8.91931 2.35719 8.83375L12.1072 2.83375C12.2253 2.76111 12.3613 2.72266 12.5 2.72266C12.6387 2.72266 12.7747 2.76111 12.8928 2.83375L22.6428 8.83375C22.7822 8.9192 22.8898 9.04784 22.9493 9.20009C23.0088 9.35235 23.017 9.51987 22.9725 9.67717C22.928 9.83448 22.8334 9.97294 22.7029 10.0715C22.5725 10.17 22.4135 10.2233 22.25 10.2231H20V16.2231H21.5C21.6989 16.2231 21.8897 16.3021 22.0303 16.4428C22.171 16.5834 22.25 16.7742 22.25 16.9731C22.25 17.172 22.171 17.3628 22.0303 17.5035C21.8897 17.6441 21.6989 17.7231 21.5 17.7231H3.5C3.30109 17.7231 3.11032 17.6441 2.96967 17.5035C2.82902 17.3628 2.75 17.172 2.75 16.9731C2.75 16.7742 2.82902 16.5834 2.96967 16.4428C3.11032 16.3021 3.30109 16.2231 3.5 16.2231H5V10.2231H2.75C2.58668 10.2232 2.4278 10.1699 2.29751 10.0714C2.16721 9.97296 2.07263 9.83464 2.02812 9.6775ZM14 15.4731C14 15.672 14.079 15.8628 14.2197 16.0035C14.3603 16.1441 14.5511 16.2231 14.75 16.2231C14.9489 16.2231 15.1397 16.1441 15.2803 16.0035C15.421 15.8628 15.5 15.672 15.5 15.4731V10.9731C15.5 10.7742 15.421 10.5834 15.2803 10.4428C15.1397 10.3021 14.9489 10.2231 14.75 10.2231C14.5511 10.2231 14.3603 10.3021 14.2197 10.4428C14.079 10.5834 14 10.7742 14 10.9731V15.4731ZM9.5 15.4731C9.5 15.672 9.57902 15.8628 9.71967 16.0035C9.86032 16.1441 10.0511 16.2231 10.25 16.2231C10.4489 16.2231 10.6397 16.1441 10.7803 16.0035C10.921 15.8628 11 15.672 11 15.4731V10.9731C11 10.7742 10.921 10.5834 10.7803 10.4428C10.6397 10.3021 10.4489 10.2231 10.25 10.2231C10.0511 10.2231 9.86032 10.3021 9.71967 10.4428C9.57902 10.5834 9.5 10.7742 9.5 10.9731V15.4731Z" fill="#0094FE"/>
</g>
</svg>
