<svg width="65" height="76" viewBox="0 0 65 76" fill="none" xmlns="http://www.w3.org/2000/svg">
<path d="M63.8369 75.4999C63.9571 74.0331 64.0082 72.6591 63.9083 71.7198C63.5536 68.3783 47.3728 64.0671 45.3276 62.5742C43.2824 61.0813 43.3233 57.1691 43.3233 57.1691L43.3192 57.1692L43.3123 51.8715L23.0251 51.105L23.3418 59.3436C23.1846 60.0799 22.7905 61.0163 22.1218 61.6438C20.6195 63.0538 2.54112 68.9605 1.1913 71.8219C0.867452 72.5083 0.842668 73.9131 0.956536 75.5L63.8369 75.4999Z" fill="#FBC7B5"/>
<path d="M51.978 20.163C51.978 20.163 52.2247 17.7492 51.9041 16.2675C51.8451 15.9947 50.8681 13.7342 50.2761 13.7342C50.2761 13.7342 51.2874 12.1091 50.72 11.2726C50.1527 10.4362 48.6235 8.85888 48.6235 8.85888C48.6235 8.85888 48.6235 8.71554 47.8835 8.14191C47.1435 7.56828 45.2196 6.34949 45.0962 6.34949C45.0962 6.34949 43.4682 3.48163 38.2883 4.31812C38.2883 4.31812 36.167 1.25911 34.8597 0.805004C33.6697 0.391684 30.2393 0.220935 29.0737 1.4726C28.8529 1.42811 28.6492 1.40245 28.4712 1.40245C26.3006 1.40245 24.4259 3.93573 24.4259 3.93573C24.4259 3.93573 19.4434 5.27405 18.0128 6.89922C16.5821 8.5244 14.2141 12.2526 14.2634 12.9217C14.3128 13.5909 14.6581 13.9733 14.6581 13.9733C14.6581 13.9733 12.5369 17.2713 13.0302 18.4184C13.3759 19.2223 13.5274 19.2513 13.5873 19.1968C13.3969 19.5371 12.4414 21.3265 12.9314 22.1466C13.4742 23.0547 13.9181 23.5327 13.9181 23.5327C13.9181 23.5327 13.6301 24.9654 13.951 26.4165C14.2963 27.9778 15.4474 31.7539 15.4474 31.7539L49.7828 32.0407L51.2135 30.8457C51.2135 30.8457 52.4715 25.9226 51.9041 24.8232C51.9534 24.6321 52.2 24.632 52.2988 22.6245C52.3974 20.6171 51.978 20.163 51.978 20.163Z" fill="#3B2B27"/>
<path d="M51.9042 16.2676C51.8704 16.1118 51.5372 15.3085 51.1474 14.6475C49.3714 15.5741 44.7875 18.3913 42.7941 23.6371C40.2946 30.2148 47.8589 30.0175 47.8589 30.0175C47.8589 30.0175 48.6449 27.2922 51.9049 24.8249C51.9047 24.8244 51.9045 24.8238 51.9043 24.8234C51.9536 24.6322 52.2002 24.6322 52.299 22.6247C52.3976 20.6172 51.9783 20.1631 51.9783 20.1631C51.9783 20.1631 52.2249 17.7493 51.9042 16.2676Z" fill="#483531"/>
<path d="M18.4071 27.8961C18.4071 27.8961 23.1199 32.7055 21.3177 23.3082C20.209 17.5275 15.7981 15.498 14.0988 14.9214C13.5088 15.9866 12.7056 17.6648 13.0297 18.4184C13.3754 19.2223 13.5269 19.2513 13.5868 19.1968C13.3964 19.5371 12.4409 21.3265 12.931 22.1466C13.2419 22.667 13.5172 23.041 13.6984 23.2698C16.7235 24.9897 18.4071 27.8961 18.4071 27.8961Z" fill="#483531"/>
<path d="M13.6045 15.8818C13.1597 16.821 12.7928 17.8671 13.03 18.4185C13.3757 19.2224 13.5273 19.2514 13.5872 19.197C13.4952 19.3614 13.2254 19.8645 13.0255 20.4325C16.9096 22.7078 19.4432 26.0709 19.4432 26.0709C19.4432 26.0709 22.2716 25.742 20.4956 21.9927C19.0121 18.8605 14.9143 16.5561 13.6045 15.8818Z" fill="#57403B"/>
<path d="M52.2875 21.3644C52.2088 20.4149 51.9781 20.1631 51.9781 20.1631C51.9781 20.1631 52.1931 18.0566 51.9599 16.5713C50.2136 17.5744 47.1977 19.5969 45.9694 22.1899C44.1934 25.9392 47.0218 26.2681 47.0218 26.2681C47.0218 26.2681 49.0643 23.5639 52.2875 21.3644Z" fill="#57403B"/>
<path d="M42.8269 15.2503C42.8269 15.2503 46.9558 16.4401 51.4344 15.1755C51.0868 14.4863 50.6177 13.7341 50.2762 13.7341C50.2762 13.7341 50.7686 12.9409 50.8725 12.1775C47.978 12.083 44.1973 12.8641 42.8269 15.2503Z" fill="#291D1A"/>
<path d="M52.2988 22.6247C52.3974 20.6172 51.9782 20.1631 51.9782 20.1631C49.8486 17.9718 44.7017 17.0923 44.7017 17.0923C44.7017 17.0923 48.8127 18.2763 50.523 20.0523C52.1587 21.7508 51.9043 24.8234 51.9043 24.8234C51.9534 24.6321 52.2 24.6322 52.2988 22.6247Z" fill="#291D1A"/>
<path d="M51.2134 30.8458C51.2134 30.8458 52.0943 27.3971 52.0486 25.6283C51.5733 27.8229 50.3108 28.2931 49.2072 27.2218C48.089 26.1365 47.497 22.157 47.497 22.157C46.7406 18.9011 44.4055 26.3338 44.4055 26.3338C44.4055 26.3338 45.7869 30.8395 45.8197 30.9382C45.8451 31.0145 49.0925 31.2871 50.596 31.3614L51.2134 30.8458Z" fill="#291D1A"/>
<path d="M20.0024 14.2305C21.1074 14.4314 24.2121 14.7568 25.4291 14.5266C25.7966 14.3405 24.5454 14.3048 24.9478 14.1715C24.8339 14.1452 24.7196 14.1196 24.6066 14.0902C23.2497 13.7373 21.956 13.1325 20.5769 12.8637C18.5864 12.4759 16.5228 12.3812 14.4694 12.2607C14.3336 12.562 14.2542 12.7975 14.2634 12.9215C14.3128 13.5907 14.6581 13.973 14.6581 13.973C14.6581 13.973 13.9166 15.129 13.4124 16.3102C13.9754 15.3256 15.6496 13.4391 20.0024 14.2305Z" fill="#291D1A"/>
<path d="M17.5445 30.3456C18.309 28.4046 19.8516 29.5832 20.397 27.2544C20.4841 26.8824 19.1376 22.9978 19.2379 22.6138C18.9558 22.7627 18.8758 22.7713 18.8758 22.7713C18.8758 22.7713 17.2396 28.0108 15.5623 27.8464C14.5005 27.7423 14.0195 26.3349 13.8088 25.315C13.8257 25.6645 13.8675 26.0395 13.9508 26.4163C14.2961 27.9776 15.4472 31.7536 15.4472 31.7536L17.3409 31.7694C17.2981 31.3119 17.352 30.8346 17.5445 30.3456Z" fill="#291D1A"/>
<path d="M21.4174 16.7595C21.4461 16.7149 21.4774 16.6739 21.507 16.6304L21.0218 16.6974C21.0218 16.6974 16.4831 15.6119 13.5871 19.1965C13.3967 19.5368 12.4412 21.3262 12.9312 22.1463C13.4739 23.0544 13.9179 23.5324 13.9179 23.5324C13.9179 23.5324 13.0104 16.3817 21.4174 16.7595Z" fill="#291D1A"/>
<path d="M48.4248 30.7959C48.4248 30.7959 51.8703 29.0093 52.3599 30.3408C52.8494 31.6723 52.3177 37.2774 50.2207 39.5504C48.1235 41.8232 46.9771 39.3788 46.9771 39.3788L48.4248 30.7959Z" fill="#FBC7B5"/>
<path d="M52.36 30.3408C51.9748 29.293 49.7644 30.1743 48.8379 30.5981C49.9732 30.238 51.7067 29.8532 52.0312 30.7354C52.4963 32.0006 52.0384 37.1218 50.1929 39.5792C50.2024 39.5691 50.2114 39.5606 50.2209 39.5504C52.3178 37.2774 52.8495 31.6723 52.36 30.3408Z" fill="#FFE3DB"/>
<path d="M49.055 32.865C49.055 32.865 51.1957 30.514 51.2001 32.556C51.2067 35.6073 49.3648 39.1263 48.5763 38.4012C47.7877 37.6761 48.15 36.2209 48.15 36.2209C48.15 36.2209 50.0383 33.8634 49.055 32.865Z" fill="#E3977D"/>
<path d="M17.7814 30.7964C17.7814 30.7964 14.3359 29.0098 13.8464 30.3413C13.3569 31.6728 13.8885 37.2778 15.9856 39.5509C18.0827 41.8237 19.2292 39.3793 19.2292 39.3793L17.7814 30.7964Z" fill="#FBC7B5"/>
<path d="M16.4295 39.97C14.3325 37.6971 13.8008 32.0919 14.2903 30.7604C14.6323 29.8305 16.4301 30.2899 17.4848 30.6518C16.6417 30.2562 14.2485 29.2475 13.8464 30.3411C13.3569 31.6726 13.8885 37.2778 15.9856 39.5507C16.1447 39.7232 16.2977 39.8655 16.4458 39.9867C16.4403 39.981 16.435 39.976 16.4295 39.97Z" fill="#FFE3DB"/>
<path d="M17.1515 32.8655C17.1515 32.8655 15.0108 30.5145 15.0064 32.5565C14.9997 35.6078 16.8416 39.1268 17.6302 38.4017C18.4188 37.6765 18.0565 36.2214 18.0565 36.2214C18.0565 36.2214 16.1682 33.8639 17.1515 32.8655Z" fill="#E3977D"/>
<path d="M45.3276 62.5742C44.9192 62.2761 44.5952 61.881 44.3363 61.4404C44.3041 61.4689 44.274 61.4951 44.2411 61.5244C37.4002 67.6417 23.2583 63.695 23.2583 63.695C26.021 68.8256 42.8598 67.9047 42.8598 67.9047C42.8598 67.9047 44.6563 65.1741 45.8712 62.8903C45.638 62.7724 45.4541 62.6665 45.3276 62.5742Z" fill="#F2AE96"/>
<path d="M63.5542 75.4996C63.6972 73.7457 63.7606 72.5143 63.7111 72.0483C63.366 68.7984 48.2897 64.3392 45.5304 62.7046C43.5328 63.8132 40.8263 65.9663 33.8484 65.9804C25.6756 65.9969 22.4261 63.2993 20.7529 62.4116C16.1721 64.5478 2.36455 69.3344 1.19133 71.8214C1.02331 72.1776 1.02809 73.5189 1.15172 75.4995L63.5542 75.4996Z" fill="#AA9261"/>
<path d="M26.3242 75.4999C26.295 71.6288 26.4037 68.9225 26.7444 68.5625C29.0465 66.1288 36.9398 66.5234 39.834 68.7599C40.0715 68.9434 39.9819 71.577 39.7124 75.5H55.0082C54.7844 71.2151 54.5993 68.2613 54.5021 67.9048C54.4179 67.5962 54.1474 66.9207 53.7751 66.0518C50.1203 64.6141 46.6778 63.3849 45.5302 62.7051C43.5326 63.8136 40.8261 65.9668 33.8482 65.9808C25.6754 65.9973 22.4259 63.2998 20.7527 62.4121C19.9993 62.7634 18.9933 63.1874 17.8381 63.6601C17.5668 65.7545 17.3249 67.5629 17.2724 67.7733C17.2283 67.9495 17.4057 71.1966 17.661 75.5L26.3242 75.4999Z" fill="#947642"/>
<path d="M24.2986 75.4996C23.9816 70.9082 23.7106 66.8199 23.5378 63.8591C23.3877 61.2888 23.1431 54.1899 23.1431 54.1899C21.9681 54.8806 21.2075 56.6682 19.5418 58.3339C17.1739 60.7019 12.0809 62.4284 11.2732 63.2836C10.9008 63.6777 10.8419 64.3507 10.8851 64.9625C7.95351 66.2177 1.17921 69.2986 0.406041 71.2788C0.173426 71.8746 0.2187 73.3606 0.424481 75.4996H24.2986Z" fill="#5B311B"/>
<path d="M64.4186 75.5C64.6632 73.3753 64.7285 71.925 64.4913 71.2792C63.7637 69.2991 57.3883 66.2181 54.6294 64.963C54.6701 64.3512 54.6145 63.6782 54.2641 63.284C53.5039 62.4289 48.711 60.7022 46.4824 58.3343C44.9148 56.6687 44.4259 54.9798 43.3201 54.2891C43.3201 54.2891 42.8629 61.2893 42.7219 63.8596C42.5592 66.8204 42.304 70.9087 42.0059 75.5001L64.4186 75.5Z" fill="#5B311B"/>
<path d="M43.3134 52.8895L43.3122 51.8713L23.0291 51.105L23.0429 51.5717L23.3415 59.3412C24.3291 59.4285 37.1884 60.4103 43.3134 52.8895Z" fill="#D38772"/>
<path d="M33.207 14.5941C33.207 14.5941 24.0312 13.1124 21.0218 16.6972C18.0126 20.2821 19.0485 25.1096 18.9992 25.8265C18.9499 26.5435 15.6447 27.2605 17.8646 37.059C17.8646 37.059 18.0619 44.9934 19.5912 47.67C21.1206 50.3468 26.7774 55.5567 29.6386 55.9869C32.4999 56.4171 32.5163 55.716 36.3149 55.955C40.1136 56.1939 45.7211 50.1237 46.9708 46.6185C48.3117 42.8578 48.3521 36.5332 48.3521 36.5332C48.3521 36.5332 50.1774 30.0805 47.3655 26.4001C47.3655 26.4001 50.2761 11.6785 33.207 14.5941Z" fill="#FBC7B5"/>
<path d="M33.207 14.594C33.207 14.594 27.7676 13.7178 23.8911 14.9506C25.3138 15.3677 30.435 16.7322 31.2831 15.036C31.2831 15.036 33.0591 15.5232 33.2893 15.2632L33.6181 15.2791C33.6181 15.2791 35.1638 15.4636 36.4136 15.1018C36.4136 15.1018 37.5318 15.2004 38.2883 14.8715C38.2883 14.8715 40.16 15.8009 43.0307 15.4092C40.8864 14.2932 37.7567 13.8169 33.207 14.594Z" fill="#E3977D"/>
<path d="M36.9043 26.3584C36.9043 26.3584 35.5266 29.3519 35.7342 34.0563C35.7342 34.0563 35.3531 27.544 41.9356 27.0049C42.648 26.9467 36.9043 26.3584 36.9043 26.3584Z" fill="#E3977D"/>
<path d="M29.5234 26.4253C29.5234 26.4253 30.9967 29.2833 30.7891 33.9877C30.7891 33.9877 30.7862 27.1582 24.1793 26.9177C23.4642 26.8918 29.5234 26.4253 29.5234 26.4253Z" fill="#E3977D"/>
<g opacity="0.5">
<path d="M34.5523 55.9062C33.956 55.9119 33.4957 55.9492 33.094 55.9927C33.5012 55.9514 33.9623 55.9148 34.5523 55.9062Z" fill="#FFE3DB"/>
<path d="M30.1753 56.0587C30.3342 56.0769 30.4837 56.0913 30.6248 56.102C30.6295 56.1024 30.6341 56.1026 30.6388 56.103C30.7798 56.1135 30.9132 56.1207 31.04 56.125C31.0431 56.1251 31.0462 56.1252 31.0494 56.1253C31.1779 56.1294 31.3003 56.1307 31.4179 56.1294H31.418C30.9942 56.1285 30.5041 56.0915 29.8565 55.9874C27.1796 55.5572 21.8876 50.3473 20.457 47.6705C19.0262 44.9939 18.8416 37.0595 18.8416 37.0595C15.99 29.5074 18.9253 26.2452 18.9992 25.8868C19.0046 25.8605 19.0035 25.8395 18.9993 25.8213C18.9992 25.8229 18.9993 25.8254 18.9992 25.827C18.9686 26.2729 17.6793 26.7202 17.2421 29.3499C17.0114 31.1023 17.0801 33.5971 17.8645 37.0595C17.8645 37.0595 18.0618 44.9939 19.5912 47.6705C21.1205 50.3472 26.7773 55.5572 29.6386 55.9874C29.8241 56.0153 29.9973 56.0382 30.1605 56.0571C30.1656 56.0577 30.1703 56.0581 30.1753 56.0587Z" fill="#F2AE96"/>
<path d="M47.3654 26.4004C49.5113 30.1287 47.3631 36.5334 47.3631 36.5334C47.3631 36.5334 47.3253 42.8581 46.0709 46.6188C44.9411 50.006 40.0048 55.7871 36.467 55.957C40.2616 56.0304 45.7375 50.0779 46.9707 46.6188C48.3115 42.8581 48.352 36.5334 48.352 36.5334C48.352 36.5334 50.1773 30.0808 47.3654 26.4004Z" fill="#F2AE96"/>
</g>
<path d="M30.1648 49.2324C30.1648 49.2324 33.544 50.7571 37.4907 49.2617C37.4907 49.2617 34.2101 52.1938 30.1648 49.2324Z" fill="#E3977D"/>
<path d="M32.2548 40.6369C32.2548 40.6369 30.7911 41.0211 30.3663 40.5333C29.9415 40.0455 31.5988 39.5041 32.2548 40.6369Z" fill="#5E3021"/>
<path d="M34.9545 40.7759C34.9071 40.8262 36.1076 41.1229 36.4601 40.885C36.5521 40.823 37.016 38.5454 34.9545 40.7759Z" fill="#5E3021"/>
<path d="M37.7292 38.5207C37.7292 38.5207 38.0378 39.5139 37.1845 39.7159C36.3312 39.9178 36.3894 38.6389 35.9627 38.8408C35.536 39.0428 35.1215 40.1563 33.5434 40.1197C32.3313 40.0917 31.5991 39.2671 31.2694 38.7511C30.9397 38.235 30.6294 39.6485 30.1059 39.8954C29.5822 40.1423 28.771 39.6098 29.3608 38.5186C29.3608 38.5186 28.5253 39.6823 29.3544 40.2376C30.1834 40.793 30.4889 40.6247 30.4889 40.6247C30.4889 40.6247 30.4962 40.0188 30.8307 39.9937C31.1653 39.9684 32.3798 40.9108 32.9179 41.1548C33.4561 41.3988 34.6125 41.0623 35.3106 40.4816C36.0088 39.9011 36.6492 40.0177 36.4599 40.8849C36.4599 40.8849 37.6276 40.8815 37.9796 40.0946C38.2997 39.3793 37.7292 38.5207 37.7292 38.5207Z" fill="#E3977D"/>
<path d="M29.3609 38.5186C29.1983 38.7438 29.066 39.0062 29.0056 39.2995C28.9427 39.5896 28.9895 39.9285 29.1647 40.1695C29.3333 40.4168 29.5771 40.5589 29.8136 40.6771C30.0587 40.7818 30.3142 40.8897 30.6186 40.7759C30.6517 40.7636 30.6708 40.7246 30.6637 40.6862L30.6608 40.6697C30.6309 40.5081 30.6168 40.3292 30.6716 40.216C30.7191 40.1052 30.8485 40.0779 30.9856 40.0962C31.1223 40.1134 31.2644 40.1673 31.3932 40.2385C31.5165 40.3021 31.6262 40.4252 31.7548 40.5315C32.2423 40.9832 32.8651 41.3023 33.5084 41.3259C33.8259 41.3459 34.1528 41.3071 34.462 41.186C34.7718 41.0637 35.0428 40.8487 35.2906 40.6449C35.5343 40.4485 35.8067 40.2518 36.0686 40.2133C36.3351 40.1515 36.4124 40.5481 36.3769 40.8695L36.3763 40.8749C36.3705 40.9272 36.4026 40.9751 36.4476 40.9817L36.4664 40.982C36.7332 40.9509 37.0007 40.8996 37.259 40.7994C37.5127 40.6964 37.7719 40.5403 37.9347 40.2704C38.1003 40.0007 38.1198 39.6538 38.0597 39.3547C38.0002 39.0512 37.8809 38.7706 37.7292 38.521C37.8663 38.7811 37.9679 39.069 38.0084 39.3658C38.0498 39.6603 38.0097 39.9743 37.8507 40.199C37.6928 40.4223 37.46 40.5617 37.2163 40.6466C36.9705 40.7303 36.7124 40.7691 36.4536 40.788L36.5431 40.9004C36.5646 40.707 36.5708 40.5181 36.5098 40.3181C36.4778 40.2222 36.4261 40.1161 36.3346 40.0548C36.2475 39.9927 36.1432 39.9734 36.055 39.9845C35.6997 40.0363 35.4338 40.2454 35.1714 40.4429C34.9155 40.6471 34.6681 40.8346 34.3899 40.9395C34.1123 41.0407 33.816 41.0746 33.5181 41.063C32.9198 41.0453 32.3583 40.7701 31.8789 40.3393C31.7558 40.2414 31.6401 40.1108 31.4801 40.0273C31.3301 39.9479 31.1746 39.8896 31.0042 39.8699C30.847 39.8496 30.6092 39.8892 30.5116 40.1195C30.4268 40.3337 30.4672 40.5343 30.5018 40.7142L30.5439 40.6082C30.3589 40.6891 30.0848 40.628 29.8626 40.5315C29.6321 40.4289 29.4043 40.3012 29.2409 40.0951C29.0731 39.8923 29.0111 39.5946 29.0545 39.3108C29.0963 39.0258 29.2113 38.7551 29.3609 38.5186Z" fill="#9E503B"/>
<path d="M32.6161 41.5911C32.6161 41.5911 32.4601 42.9598 32.7522 43.2723C33.0444 43.5848 34.1258 43.5908 34.4316 43.2012C34.7373 42.8117 34.5103 41.4585 34.5103 41.4585C34.5103 41.4585 34.5878 42.9097 33.8979 43.0717C33.5148 43.1615 32.6234 42.9649 32.6161 41.5911Z" fill="#F2AE96"/>
<path d="M50.7201 11.2726C50.1528 10.4362 48.6235 8.85888 48.6235 8.85888C48.6235 8.85888 48.6235 8.71554 47.8835 8.14191C47.1435 7.56828 45.2196 6.34949 45.0962 6.34949C45.0962 6.34949 43.4682 3.48163 38.2884 4.31812C38.2884 4.31812 36.167 1.25911 34.8598 0.805004C33.6698 0.391684 30.2393 0.220935 29.0738 1.4726C28.853 1.42811 28.6492 1.40245 28.4713 1.40245C26.3006 1.40245 24.426 3.93573 24.426 3.93573C24.426 3.93573 19.4434 5.27405 18.0128 6.89922C16.5822 8.5244 14.2142 12.2526 14.2635 12.9217C14.3128 13.5909 14.6581 13.9733 14.6581 13.9733C14.6581 13.9733 16.3437 13.2404 17.4948 13.2085C18.6458 13.1766 27.5669 15.1681 29.2113 15.1681C30.7003 15.1681 31.1901 14.9076 31.2697 14.8583C32.0339 15.075 32.7632 15.242 33.2895 15.2638C33.2895 15.2638 34.284 15.0702 34.8679 14.2864C34.6348 14.6248 34.2228 15.0877 33.6184 15.2797C33.6184 15.2797 34.8561 15.2581 36.1825 14.7214C36.6315 14.689 37.3518 14.596 38.2922 14.3486C38.7097 14.4925 39.5434 14.7619 39.9413 14.7619C40.0303 14.7619 40.2546 14.7456 40.5644 14.7186C40.6218 14.8919 40.8755 15.1014 41.7172 15.192C43.2711 15.3592 44.9516 15.4409 46.0091 15.2637C47.7309 14.975 49.1955 14.3802 50.3529 13.7514C50.3271 13.7437 50.3012 13.7341 50.2764 13.7341C50.2761 13.7342 51.2874 12.1091 50.7201 11.2726ZM35.0389 14.0097C35.0589 13.9713 35.0802 13.9341 35.0981 13.8935C35.0981 13.8935 35.0779 13.9381 35.0389 14.0097Z" fill="#483531"/>
<path d="M36.3478 10.2182C43.198 10.8043 47.4658 12.6568 49.7832 14.0427C49.9795 13.9469 50.1711 13.8499 50.3526 13.7513C50.3268 13.7436 50.3008 13.7341 50.2761 13.7341C50.2761 13.7341 50.5096 13.3566 50.6895 12.873C49.0566 10.7932 42.8481 4.29834 28.9808 4.29834C25.4465 4.29834 22.1256 4.98282 19.085 6.05358C18.6456 6.32201 18.2707 6.60566 18.0126 6.89896C16.5819 8.52414 14.2139 12.2523 14.2632 12.9215C14.3126 13.5906 14.6579 13.973 14.6579 13.973C14.6579 13.973 16.3435 13.2401 17.4945 13.2082C17.4945 13.2082 24.0475 9.16577 36.3478 10.2182Z" fill="#57403B"/>
<path d="M14.469 12.2608C26.3339 4.23935 47.135 10.9419 47.135 10.9419C34.4457 3.05559 20.6894 6.12671 18.1014 6.80865C18.0721 6.8389 18.039 6.86875 18.0123 6.8991C16.8478 8.22199 15.0626 10.9377 14.4653 12.2634C14.4667 12.2624 14.4678 12.2616 14.469 12.2608Z" fill="#6B4F48"/>
<path opacity="0.8" d="M35.6442 48.8855C34.774 48.977 33.5934 49.1574 32.1362 48.9732C30.6791 48.7891 31.575 49.6572 34.0791 49.5608C36.5832 49.4642 36.4292 48.803 35.6442 48.8855Z" fill="#FFE3DB"/>
<path d="M45.9347 28.0523C45.9347 28.0523 42.3578 25.9958 36.5614 27.4926C36.5614 27.4926 36.4924 26.0331 36.7488 25.09C36.8623 24.6725 37.0806 25.5637 37.0806 25.5637C37.0806 25.5637 37.0575 24.7934 37.5151 24.5051C37.9727 24.2167 41.5413 23.8363 43.9111 25.4429C45.8196 26.7368 46.1024 28.2343 45.9347 28.0523Z" fill="#3B2B27"/>
<path d="M44.6507 26.0235C43.4673 27.0661 38.0839 26.46 37.8935 25.4704C37.7823 24.8923 38.1929 24.5159 38.6767 24.2754C38.0835 24.3216 37.6543 24.4172 37.5151 24.5049C37.0575 24.7932 37.0806 25.5635 37.0806 25.5635C37.0806 25.5635 36.8624 24.6723 36.7488 25.0898C36.4924 26.0329 36.5614 27.4924 36.5614 27.4924C42.3577 25.9955 45.9346 28.0521 45.9346 28.0521C46.0777 28.2072 45.8895 27.1424 44.6507 26.0235Z" fill="#291D1A"/>
<path d="M20.2817 27.9531C20.2817 27.9531 23.9091 26.0181 29.8859 27.3674C29.8859 27.3674 30.0898 25.7804 29.8135 24.8439C29.6913 24.4293 29.4789 25.3259 29.4789 25.3259C29.4789 25.3259 29.4923 24.5551 29.0182 24.2784C28.5441 24.0018 25.0998 23.5132 22.4576 25.3788C20.2852 26.9127 20.1117 28.1394 20.2817 27.9531Z" fill="#3B2B27"/>
<path d="M29.8136 24.8441C29.6914 24.4295 29.4789 25.3261 29.4789 25.3261C29.4789 25.3261 29.4916 24.5614 29.0228 24.2822C29.3963 26.0877 23.198 26.95 22.2057 26.6049C21.7916 26.4608 21.7012 26.1983 21.7512 25.9233C20.249 27.1904 20.1323 28.1169 20.2816 27.9533C20.2816 27.9533 23.909 26.0182 29.8858 27.3676C29.886 27.3675 30.0898 25.7805 29.8136 24.8441Z" fill="#291D1A"/>
<path d="M34.6377 54.8481C33.9539 54.8318 33.1905 54.8481 31.9901 55.5387C30.7897 56.2293 33.7825 55.3414 34.9336 55.5716C36.0848 55.8018 35.3289 54.8646 34.6377 54.8481Z" fill="#F2AE96"/>
<path opacity="0.4" d="M23.0443 36.7427C23.0443 37.165 22.4701 37.5074 21.7617 37.5074C21.0533 37.5074 20.479 37.165 20.479 36.7427C20.479 36.3204 21.0533 35.978 21.7617 35.978C22.4701 35.978 23.0443 36.3204 23.0443 36.7427Z" fill="#FFE3DB"/>
<path opacity="0.4" d="M44.4795 37.2364C45.1879 37.2364 45.7622 36.894 45.7622 36.4717C45.7622 36.0494 45.1879 35.707 44.4795 35.707C43.7711 35.707 43.1968 36.0494 43.1968 36.4717C43.1968 36.894 43.7711 37.2364 44.4795 37.2364Z" fill="#FFE3DB"/>
<path opacity="0.4" d="M35.5995 38.4571C35.5995 39.2132 34.705 39.8261 33.6015 39.8261C32.4981 39.8261 31.6035 39.2131 31.6035 38.4571C31.6035 37.7011 32.4487 32.8291 33.5521 32.8291C34.6557 32.8291 35.5995 37.7011 35.5995 38.4571Z" fill="#FFE3DB"/>
<path d="M24.8142 43.3594C24.7408 43.2184 24.8791 43.0595 25.0285 43.1137C25.8665 43.4178 28.0711 44.0046 32.5022 43.9464C38.4715 43.8682 41.0403 43.2426 42.2742 42.7882C42.4218 42.7339 42.5607 42.8843 42.4934 43.0264C41.8816 44.3169 39.4764 48.5672 33.7249 48.7142C28.013 48.8602 25.5023 44.6808 24.8142 43.3594Z" fill="#C67560"/>
<path d="M25.1814 43.5422C25.1206 43.4319 25.2275 43.3067 25.346 43.3492C26.0992 43.6189 28.2241 44.1926 32.6197 44.165C38.4875 44.1283 40.9407 43.5588 42.0984 43.1556C42.2145 43.1152 42.3198 43.2333 42.2657 43.3436C41.7269 44.4397 39.4839 48.1677 33.8582 48.2683C28.2757 48.3681 25.8084 44.6796 25.1814 43.5422Z" fill="#5E0900"/>
<path d="M25.7607 44.4415C26.8785 45.9635 29.3537 48.349 33.8583 48.2684C37.8108 48.1978 40.0887 46.3384 41.2839 44.8573C41.3034 44.6084 41.1237 44.5075 41.1237 44.5075C41.5027 43.9456 41.3098 43.4057 41.3052 43.3931C39.9112 43.7521 37.3976 44.1353 32.6198 44.1652C28.7586 44.1894 26.6503 43.7497 25.6841 43.4596C25.7238 44.0417 26.0534 44.2787 26.0534 44.2787C25.8898 44.2888 25.8047 44.3592 25.7607 44.4415Z" fill="#D6C6BD"/>
<path d="M40.9966 44.9639C40.7194 44.5784 38.8737 45.7538 39.5429 45.2808C40.2122 44.8078 42.0461 43.4218 40.1467 43.839C37.9771 44.3154 34.1608 44.4583 32.5988 44.4146C27.8958 44.283 25.9436 43.5318 26.0869 43.9377C26.2303 44.3435 29.0964 45.6635 28.6799 45.4676C28.2906 45.2844 25.8794 44.3831 26.5978 45.4289C27.9478 46.8171 30.2524 48.333 33.8583 48.2685C35.5474 48.2383 36.9262 47.8777 38.0508 47.3629C39.8304 46.388 41.1574 45.1876 40.9966 44.9639Z" fill="white"/>
<path d="M13.2509 75.5H24.2986C23.9817 70.9086 23.7105 66.8203 23.5378 63.8596C23.3877 61.2893 23.1431 54.1904 23.1431 54.1904C21.9681 54.8811 21.2076 56.6687 19.5418 58.3344C17.1738 60.7024 12.081 62.429 11.2732 63.2841C10.9009 63.6783 10.842 64.3512 10.8852 64.9631C10.6729 65.0539 10.4385 65.1555 10.1897 65.2644C10.933 67.7546 12.0255 71.4107 13.2509 75.5Z" fill="#7E482C"/>
<path d="M52.4318 75.4996L55.5467 65.3865C55.2118 65.2294 54.9023 65.0867 54.6294 64.9625C54.6701 64.3507 54.6145 63.6777 54.2642 63.2835C53.5039 62.4284 48.711 60.7019 46.4824 58.3339C44.9148 56.6682 44.4259 54.9793 43.3201 54.2886C43.3201 54.2886 42.863 61.2888 42.7219 63.8591C42.5592 66.8198 42.3039 70.9088 42.0059 75.4996H52.4318Z" fill="#7E482C"/>
<path d="M18.4072 10.9748C20.4299 10.0375 23.0445 11.4681 24.3271 12.7014C25.4596 13.7903 30.2341 14.6451 31.2695 14.8582C31.2221 14.8814 31.3818 14.8241 31.2695 14.8582C28.9715 14.2892 25.6321 13.168 24.5738 11.8628C23.0938 10.0375 21.1205 9.05083 19.8379 9.34687C18.5552 9.6429 16.5326 11.0241 15.4473 12.1095C14.362 13.1949 14.6579 13.9732 14.6579 13.9732C15.0034 12.6794 16.3846 11.9121 18.4072 10.9748Z" fill="#352624"/>
<path d="M33.7628 15.2236C33.7218 15.2404 33.681 15.2577 33.6379 15.2718C33.908 15.2729 33.8918 15.2512 33.7628 15.2236Z" fill="#352624"/>
<path d="M24.4258 3.93585C24.4258 3.93585 26.1031 3.8218 26.8924 4.85783C27.6818 5.89386 32.2245 12.2705 33.2933 15.2176C33.2933 15.2176 33.503 10.3337 32.319 8.50842C31.135 6.68312 28.9644 4.56178 27.8297 4.1671C26.6951 3.77251 24.4258 3.93585 24.4258 3.93585Z" fill="#352624"/>
<path d="M29.0735 1.47266C29.0735 1.47266 31.3322 1.89777 32.3682 2.63777C33.4042 3.37776 36.1175 5.6964 36.4628 7.02837C36.8081 8.36034 36.5368 10.3459 35.8461 12.3193C35.1555 14.2926 34.6704 14.6513 33.618 15.2797C33.618 15.2797 35.7722 14.9215 36.8575 12.1097C37.9428 9.29772 37.4002 6.48576 36.9068 5.79504C36.4135 5.10442 32.7629 2.19371 32.0229 1.89778C31.2828 1.60174 29.0735 1.47266 29.0735 1.47266Z" fill="#352624"/>
<path d="M38.2881 4.31787C38.2881 4.31787 40.4094 9.1494 40.3107 10.6788C40.212 12.208 36.1819 14.7212 36.1819 14.7212C36.1819 14.7212 40.4586 12.7013 41.4946 10.6294C42.5308 8.55732 38.2881 4.31787 38.2881 4.31787Z" fill="#352624"/>
<path d="M45.0962 6.34961C45.0962 6.34961 46.4776 7.42311 45.0962 9.88975C43.7149 12.3564 38.292 14.3487 38.292 14.3487C38.292 14.3487 39.2387 15.0586 40.5642 14.7188C41.8897 14.379 46.527 12.307 46.7243 9.79111C46.9216 7.27509 45.0962 6.34961 45.0962 6.34961Z" fill="#352624"/>
<path d="M29.1767 33.2333C29.1767 33.2333 24.9094 31.8923 21.0962 33.6356C21.0962 33.6356 22.163 30.743 25.3105 30.5552C28.458 30.3676 29.1767 33.2333 29.1767 33.2333Z" fill="#E3977D"/>
<path d="M29.1767 33.2335C29.1767 33.2335 25.091 30.5246 21.0962 33.6358C21.0962 33.6358 22.5493 31.2427 25.5753 31.4365C28.0872 31.5975 29.1767 33.2335 29.1767 33.2335Z" fill="#2E1609"/>
<path d="M37.075 33.2332C37.075 33.2332 41.2458 31.8922 44.9729 33.6355C44.9729 33.6355 43.8625 30.7519 40.7862 30.564C37.7099 30.3763 37.075 33.2332 37.075 33.2332Z" fill="#E3977D"/>
<path d="M37.075 33.2335C37.075 33.2335 41.0683 30.5246 44.9729 33.6358C44.9729 33.6358 43.5525 31.2427 40.595 31.4365C38.1399 31.5975 37.075 33.2335 37.075 33.2335Z" fill="#2E1609"/>
<path d="M42.6783 75.5C43.5136 67.6213 44.3862 60.3665 44.8002 60.0116C45.7211 59.2223 48.1218 62.9057 50.2268 63.4321C52.3316 63.9583 54.1076 63.3005 54.5022 64.4845C54.5379 64.5915 54.5846 64.6582 54.6396 64.6929C54.6468 64.1611 54.5636 63.6209 54.2642 63.284C53.504 62.4289 48.711 60.7023 46.4825 58.3343C44.9149 56.6687 44.426 54.9798 43.3202 54.2891C43.3202 54.2891 42.863 61.2893 42.722 63.8596C42.5593 66.8203 42.304 70.9096 42.0059 75.5001L42.6783 75.5Z" fill="#6D3B24"/>
<path d="M15.7596 62.5112C18.2591 63.0374 19.7391 59.3868 20.9231 59.5183C21.4546 59.5773 22.5037 67.1519 23.5018 75.5H24.2985C23.9817 70.9094 23.7104 66.8201 23.5377 63.8596C23.3877 61.2893 23.1431 54.1904 23.1431 54.1904C21.9681 54.8811 21.2075 56.6687 19.5417 58.3344C17.1737 60.7024 12.0809 62.429 11.2732 63.2841C11.2732 63.2841 13.2601 61.985 15.7596 62.5112Z" fill="#6D3B24"/>
<path d="M53.2653 75.4994C54.6972 71.4506 56.014 68.0974 57.0509 66.1108C56.1247 65.6529 55.2769 65.257 54.6294 64.9624C54.6294 64.9624 53.3583 69.3235 51.5801 75.4995L53.2653 75.4994Z" fill="#311709"/>
<path d="M14.1394 75.4994C12.2468 69.3241 10.885 64.9624 10.885 64.9624C10.2081 65.2522 9.3254 65.64 8.36011 66.0885C9.01268 67.7094 10.2944 71.1557 11.8628 75.4995L14.1394 75.4994Z" fill="#311709"/>
</svg>
