<svg width="38" height="38" viewBox="0 0 38 38" fill="none" xmlns="http://www.w3.org/2000/svg">
<path d="M10.3217 3.66406C9.24673 3.66406 8.36719 4.5436 8.36719 5.6186V32.9821C8.36719 34.0571 9.24673 34.9366 10.3217 34.9366H29.8671C30.9421 34.9366 31.8216 34.0571 31.8216 32.9821V11.4822L24.0035 3.66406H10.3217Z" fill="#EBE6E2"/>
<path d="M25.9621 11.4826L31.827 11.4787L24.002 3.66406L24.0059 9.52897C24.0066 10.6042 24.8869 11.4833 25.9621 11.4826Z" fill="#FFF2EA"/>
<path d="M28.5791 28.0675C28.5791 28.6967 28.0643 29.2114 27.4352 29.2114H2.26892C1.63976 29.2114 1.125 28.6967 1.125 28.0675V16.6283C1.125 15.9991 1.63976 15.4844 2.26892 15.4844H27.4352C28.0643 15.4844 28.5791 15.9991 28.5791 16.6283V28.0675Z" fill="#FFF2EA"/>
<path d="M5.98366 25.8516V18.5788H8.8956C9.43063 18.5788 9.87689 18.6581 10.2344 18.8168C10.5919 18.9754 10.8606 19.1955 11.0405 19.4773C11.2204 19.7566 11.3104 20.0786 11.3104 20.4432C11.3104 20.7273 11.2536 20.977 11.1399 21.1925C11.0263 21.4055 10.87 21.5807 10.6712 21.718C10.4747 21.853 10.2498 21.9489 9.99645 22.0057V22.0767C10.2734 22.0885 10.5327 22.1667 10.7741 22.3111C11.018 22.4555 11.2157 22.6579 11.3672 22.9183C11.5187 23.1764 11.5945 23.4841 11.5945 23.8416C11.5945 24.2275 11.4986 24.572 11.3068 24.875C11.1174 25.1757 10.8369 25.4136 10.4652 25.5888C10.0935 25.764 9.63542 25.8516 9.09091 25.8516H5.98366ZM7.52131 24.5945H8.77486C9.20336 24.5945 9.51586 24.5128 9.71236 24.3494C9.90885 24.1837 10.0071 23.9635 10.0071 23.6889C10.0071 23.4877 9.95857 23.3101 9.86151 23.1562C9.76444 23.0024 9.62595 22.8816 9.44602 22.794C9.26847 22.7064 9.05658 22.6626 8.81037 22.6626H7.52131V24.5945ZM7.52131 21.6222H8.66122C8.87192 21.6222 9.05895 21.5855 9.2223 21.5121C9.38802 21.4363 9.51823 21.3298 9.61293 21.1925C9.70999 21.0552 9.75852 20.8906 9.75852 20.6989C9.75852 20.4361 9.66501 20.2242 9.47798 20.0632C9.29332 19.9022 9.03054 19.8217 8.68963 19.8217H7.52131V21.6222ZM14.9326 18.5788V25.8516H13.395V18.5788H14.9326ZM23.0808 18.5788V25.8516H21.7527L18.5886 21.2741H18.5354V25.8516H16.9977V18.5788H18.3472L21.4864 23.1527H21.5503V18.5788H23.0808Z" fill="#DB631A"/>
</svg>
