<svg width="20" height="21" viewBox="0 0 20 21" fill="none" xmlns="http://www.w3.org/2000/svg">
<g id="icnSearch">
<path id="Union" fill-rule="evenodd" clip-rule="evenodd" d="M14.5 8.5C14.5 11.5376 12.0376 14 9 14C5.96243 14 3.5 11.5376 3.5 8.5C3.5 5.46243 5.96243 3 9 3C12.0376 3 14.5 5.46243 14.5 8.5ZM12.8997 14.314C11.7853 15.063 10.4437 15.5 9 15.5C5.13401 15.5 2 12.366 2 8.5C2 4.63401 5.13401 1.5 9 1.5C12.866 1.5 16 4.63401 16 8.5C16 10.2002 15.3938 11.7589 14.3858 12.9716L18.2071 16.7929C18.5976 17.1834 18.5976 17.8166 18.2071 18.2071C17.8166 18.5976 17.1834 18.5976 16.7929 18.2071L12.8997 14.314Z" fill="#888B92"/>
</g>
</svg>
