<svg width="38" height="38" viewBox="0 0 38 38" fill="none" xmlns="http://www.w3.org/2000/svg">
<path d="M9.32172 1.66406C8.24673 1.66406 7.36719 2.5436 7.36719 3.6186V30.9821C7.36719 32.0571 8.24673 32.9366 9.32172 32.9366H28.8671C29.9421 32.9366 30.8216 32.0571 30.8216 30.9821V9.4822L23.0035 1.66406H9.32172Z" fill="#EBE6E2"/>
<path d="M24.9621 9.48263L30.827 9.47872L23.002 1.66406L23.0059 7.52897C23.0066 8.6042 23.8869 9.48335 24.9621 9.48263Z" fill="#FFF2EA"/>
<path d="M28.5791 28.0675C28.5791 28.6967 28.0643 29.2114 27.4352 29.2114H2.26892C1.63976 29.2114 1.125 28.6967 1.125 28.0675V16.6283C1.125 15.9991 1.63976 15.4844 2.26892 15.4844H27.4352C28.0643 15.4844 28.5791 15.9991 28.5791 16.6283V28.0675Z" fill="#FFF2EA"/>
<path d="M5.70668 19.8466V18.5788H11.6797V19.8466H9.45312V25.8516H7.93324V19.8466H5.70668ZM13.4634 25.8516V18.5788H16.3327C16.8819 18.5788 17.3507 18.6771 17.7389 18.8736C18.1295 19.0677 18.4267 19.3435 18.6303 19.701C18.8362 20.0561 18.9392 20.474 18.9392 20.9545C18.9392 21.4375 18.835 21.853 18.6267 22.201C18.4184 22.5466 18.1165 22.8118 17.7212 22.9964C17.3282 23.1811 16.8523 23.2734 16.2936 23.2734H14.3724V22.0376H16.045C16.3386 22.0376 16.5824 21.9974 16.7766 21.9169C16.9707 21.8364 17.1151 21.7157 17.2098 21.5547C17.3069 21.3937 17.3554 21.1937 17.3554 20.9545C17.3554 20.7131 17.3069 20.5095 17.2098 20.3438C17.1151 20.178 16.9695 20.0526 16.773 19.9673C16.5789 19.8797 16.3339 19.8359 16.0379 19.8359H15.001V25.8516H13.4634ZM17.3909 22.5419L19.1984 25.8516H17.501L15.7325 22.5419H17.3909ZM20.8259 25.8516V18.5788H22.3635V24.5838H25.4814V25.8516H20.8259Z" fill="#DB631A"/>
</svg>
