<svg width="18" height="19" viewBox="0 0 18 19" fill="none" xmlns="http://www.w3.org/2000/svg">
<path d="M14.4425 2.66168V8.97946C14.4425 9.35312 14.1393 9.65637 13.7656 9.65637C13.392 9.65637 13.0887 9.35312 13.0887 8.97946V2.66168C13.0887 2.03983 12.5824 1.5335 11.9605 1.5335H2.93511C2.31326 1.5335 1.80694 2.03983 1.80694 2.66168V14.3947C1.80694 15.0166 2.31326 15.5229 2.93511 15.5229H8.35036C8.72401 15.5229 9.02727 15.8261 9.02727 16.1998C9.02727 16.5734 8.72401 16.8767 8.35036 16.8767H2.93511C1.56596 16.8767 0.453125 15.7639 0.453125 14.3947V2.66168C0.453125 1.29252 1.56596 0.179688 2.93511 0.179688H11.9605C13.3297 0.179688 14.4425 1.29252 14.4425 2.66168ZM11.058 2.88731H3.83766C3.464 2.88731 3.16075 3.19057 3.16075 3.56422C3.16075 3.93787 3.464 4.24112 3.83766 4.24112H11.058C11.4316 4.24112 11.7349 3.93787 11.7349 3.56422C11.7349 3.19057 11.4316 2.88731 11.058 2.88731ZM8.12473 6.27184C8.12473 5.89819 7.82147 5.59494 7.44782 5.59494H3.83766C3.464 5.59494 3.16075 5.89819 3.16075 6.27184C3.16075 6.64549 3.464 6.94875 3.83766 6.94875H7.44782C7.82147 6.94875 8.12473 6.64549 8.12473 6.27184ZM3.83766 8.30256C3.464 8.30256 3.16075 8.60581 3.16075 8.97946C3.16075 9.35312 3.464 9.65637 3.83766 9.65637H4.7402C5.11385 9.65637 5.4171 9.35312 5.4171 8.97946C5.4171 8.60581 5.11385 8.30256 4.7402 8.30256H3.83766Z" fill="#EB762F"/>
<path d="M12.2476 18.1276C9.60159 18.1276 7.44922 15.9753 7.44922 13.3296C7.45057 12.0574 7.95655 10.8377 8.85613 9.93816C9.7557 9.03858 10.9754 8.53261 12.2476 8.53125C14.8932 8.53125 17.046 10.6836 17.046 13.3296C17.046 15.9756 14.8932 18.1276 12.2476 18.1276ZM12.2476 10.2877C11.646 10.2877 11.0578 10.4661 10.5576 10.8003C10.0573 11.1346 9.66745 11.6097 9.43721 12.1655C9.20697 12.7214 9.14673 13.333 9.26411 13.9231C9.38148 14.5131 9.6712 15.0552 10.0966 15.4806C10.522 15.906 11.0641 16.1957 11.6541 16.3131C12.2442 16.4305 12.8558 16.3702 13.4117 16.14C13.9675 15.9098 14.4426 15.5199 14.7769 15.0196C15.1111 14.5194 15.2895 13.9313 15.2895 13.3296C15.2886 12.5231 14.9679 11.7499 14.3976 11.1796C13.8273 10.6093 13.0541 10.2886 12.2476 10.2877Z" fill="#EB762F" stroke="white" stroke-width="0.329992"/>
<path d="M13.8006 14.5338H12.1689C11.9579 14.5337 11.7556 14.4497 11.6064 14.3005C11.4572 14.1513 11.3732 13.949 11.373 13.738V11.7803C11.373 11.5692 11.4569 11.3667 11.6062 11.2175C11.7554 11.0682 11.9579 10.9844 12.1689 10.9844C12.38 10.9844 12.5825 11.0682 12.7317 11.2175C12.881 11.3667 12.9648 11.5692 12.9648 11.7803V12.9421H13.8006C14.0117 12.9421 14.2141 13.0259 14.3634 13.1752C14.5126 13.3244 14.5965 13.5269 14.5965 13.738C14.5965 13.949 14.5126 14.1515 14.3634 14.3007C14.2141 14.45 14.0117 14.5338 13.8006 14.5338Z" fill="#EB762F" stroke="white" stroke-width="0.329992"/>
</svg>
