<svg width="16" height="17" viewBox="0 0 16 17" fill="none" xmlns="http://www.w3.org/2000/svg">
<path d="M14.2948 5.66406L13.7218 14.1698C13.6872 14.6876 13.4575 15.1729 13.079 15.5279C12.7005 15.8829 12.2015 16.0811 11.6826 16.0824H4.79187C4.27298 16.0811 3.77392 15.8829 3.39545 15.5279C3.01697 15.1729 2.78727 14.6876 2.7527 14.1698L2.17969 5.66406H14.2948Z" fill="#F35454"/>
<path d="M10.5539 3.43078H5.92179C5.71545 3.43073 5.51208 3.38167 5.32841 3.28764C5.14474 3.19362 4.98603 3.05732 4.86533 2.88997C4.74463 2.72262 4.6654 2.52899 4.63416 2.32503C4.60292 2.12107 4.62056 1.91261 4.68564 1.7168L4.93493 0.971893C5.02096 0.712545 5.1866 0.486938 5.40827 0.327174C5.62994 0.167409 5.89635 0.0816268 6.16959 0.0820327H10.3061C10.5795 0.0817173 10.846 0.167611 11.0678 0.327501C11.2896 0.48739 11.4553 0.713135 11.5415 0.972637L11.7893 1.71606C11.8546 1.91185 11.8725 2.12037 11.8414 2.32443C11.8103 2.52848 11.7312 2.72223 11.6105 2.8897C11.4899 3.05717 11.3312 3.19356 11.1474 3.28764C10.9637 3.38171 10.7603 3.43078 10.5539 3.43078ZM6.16959 1.19828C6.13064 1.19815 6.09265 1.21035 6.06106 1.23313C6.02947 1.25591 6.0059 1.2881 5.99373 1.3251L5.74444 2.07001C5.73532 2.09802 5.73295 2.12779 5.73754 2.15689C5.74213 2.18599 5.75353 2.2136 5.77083 2.23744C5.78813 2.26129 5.81082 2.28071 5.83705 2.29411C5.86329 2.3075 5.89233 2.3145 5.92179 2.31453H10.5539C10.5834 2.31455 10.6125 2.30754 10.6388 2.29408C10.6651 2.28063 10.6878 2.26112 10.705 2.23716C10.7223 2.21319 10.7336 2.18547 10.738 2.15628C10.7424 2.12709 10.7398 2.09726 10.7305 2.06926L10.4827 1.32584C10.4704 1.28869 10.4467 1.25637 10.415 1.23346C10.3833 1.21056 10.3452 1.19825 10.3061 1.19828H6.16959Z" fill="#F35454"/>
<path d="M6.74952 11.6164C6.60151 11.6163 6.45958 11.5575 6.35492 11.4528C6.25026 11.3482 6.19145 11.2062 6.19141 11.0582V8.08156C6.19141 7.93354 6.25021 7.79158 6.35488 7.68691C6.45954 7.58224 6.6015 7.52344 6.74952 7.52344C6.89755 7.52344 7.0395 7.58224 7.14417 7.68691C7.24884 7.79158 7.30764 7.93354 7.30764 8.08156V11.0582C7.3076 11.2062 7.24879 11.3482 7.14413 11.4528C7.03947 11.5575 6.89753 11.6163 6.74952 11.6164Z" fill="white"/>
<path d="M9.72804 11.6164C9.58003 11.6163 9.43809 11.5575 9.33343 11.4528C9.22878 11.3482 9.16996 11.2062 9.16992 11.0582V8.08156C9.16992 7.93354 9.22872 7.79158 9.33339 7.68691C9.43806 7.58224 9.58002 7.52344 9.72804 7.52344C9.87606 7.52344 10.018 7.58224 10.1227 7.68691C10.2274 7.79158 10.2862 7.93354 10.2862 8.08156V11.0582C10.2861 11.2062 10.2273 11.3482 10.1226 11.4528C10.018 11.5575 9.87605 11.6163 9.72804 11.6164Z" fill="white"/>
<path d="M14.1912 2.31445H2.2847C1.93931 2.31445 1.60807 2.45166 1.36385 2.69589C1.11963 2.94011 0.982422 3.27136 0.982422 3.61675C0.982422 3.96213 1.11963 4.29338 1.36385 4.53761C1.60807 4.78183 1.93931 4.91904 2.2847 4.91904H14.1912C14.5366 4.91904 14.8678 4.78183 15.112 4.53761C15.3563 4.29338 15.4935 3.96213 15.4935 3.61675C15.4935 3.27136 15.3563 2.94011 15.112 2.69589C14.8678 2.45166 14.5366 2.31445 14.1912 2.31445Z" fill="#F35454"/>
</svg>
