<svg width="31" height="25" viewBox="0 0 31 25" fill="none" xmlns="http://www.w3.org/2000/svg">
<path d="M0.730086 9.86689C0.669456 9.65311 0.680338 9.42538 0.761076 9.21836C0.841814 9.01134 0.987986 8.83637 1.17734 8.72009L14.4293 0.565061C14.5898 0.466332 14.7747 0.414062 14.9632 0.414062C15.1517 0.414062 15.3365 0.466332 15.4971 0.565061L28.749 8.72009C28.9384 8.83623 29.0847 9.01107 29.1656 9.21801C29.2464 9.42494 29.2575 9.65264 29.197 9.86644C29.1366 10.0802 29.008 10.2684 28.8307 10.4024C28.6534 10.5363 28.4373 10.6087 28.2151 10.6085H25.1569V18.7635H27.1957C27.4661 18.7635 27.7253 18.8709 27.9165 19.0621C28.1077 19.2533 28.2151 19.5125 28.2151 19.7829C28.2151 20.0532 28.1077 20.3125 27.9165 20.5037C27.7253 20.6949 27.4661 20.8023 27.1957 20.8023H2.73062C2.46026 20.8023 2.20098 20.6949 2.00981 20.5037C1.81864 20.3125 1.71124 20.0532 1.71124 19.7829C1.71124 19.5125 1.81864 19.2533 2.00981 19.0621C2.20098 18.8709 2.46026 18.7635 2.73062 18.7635H4.76937V10.6085H1.71124C1.48925 10.6086 1.27331 10.5362 1.09622 10.4023C0.919134 10.2685 0.790577 10.0805 0.730086 9.86689ZM17.0019 17.7441C17.0019 18.0145 17.1093 18.2738 17.3005 18.4649C17.4917 18.6561 17.7509 18.7635 18.0213 18.7635C18.2916 18.7635 18.5509 18.6561 18.7421 18.4649C18.9333 18.2738 19.0407 18.0145 19.0407 17.7441V11.6279C19.0407 11.3575 18.9333 11.0982 18.7421 10.9071C18.5509 10.7159 18.2916 10.6085 18.0213 10.6085C17.7509 10.6085 17.4917 10.7159 17.3005 10.9071C17.1093 11.0982 17.0019 11.3575 17.0019 11.6279V17.7441ZM10.8856 17.7441C10.8856 18.0145 10.993 18.2738 11.1842 18.4649C11.3754 18.6561 11.6347 18.7635 11.905 18.7635C12.1754 18.7635 12.4347 18.6561 12.6258 18.4649C12.817 18.2738 12.9244 18.0145 12.9244 17.7441V11.6279C12.9244 11.3575 12.817 11.0982 12.6258 10.9071C12.4347 10.7159 12.1754 10.6085 11.905 10.6085C11.6347 10.6085 11.3754 10.7159 11.1842 10.9071C10.993 11.0982 10.8856 11.3575 10.8856 11.6279V17.7441Z" fill="#097AFF"/>
<path d="M30.5814 23.8631C30.5814 24.1335 30.474 24.3928 30.2828 24.5839C30.0916 24.7751 29.8323 24.8825 29.562 24.8825H1.01938C0.749022 24.8825 0.48974 24.7751 0.298569 24.5839C0.107398 24.3928 0 24.1335 0 23.8631C0 23.5928 0.107398 23.3335 0.298569 23.1423C0.48974 22.9511 0.749022 22.8438 1.01938 22.8438H29.562C29.8323 22.8438 30.0916 22.9511 30.2828 23.1423C30.474 23.3335 30.5814 23.5928 30.5814 23.8631Z" fill="#FF932E"/>
</svg>
