<svg width="25" height="25" viewBox="0 0 25 25" fill="none" xmlns="http://www.w3.org/2000/svg">
<g clip-path="url(#clip0_1608_44314)">
<path fill-rule="evenodd" clip-rule="evenodd" d="M9 1.5C7.067 1.5 5.5 3.067 5.5 5C5.5 5.5368 5.62085 6.04537 5.83682 6.5H3.5C2.94772 6.5 2.5 6.94772 2.5 7.5V11.5C2.5 12.0523 2.94772 12.5 3.5 12.5V19.5C3.5 21.1569 4.84315 22.5 6.5 22.5H12.5H18.5C20.1569 22.5 21.5 21.1569 21.5 19.5V12.5C22.0523 12.5 22.5 12.0523 22.5 11.5V7.5C22.5 6.94772 22.0523 6.5 21.5 6.5H19.1632C19.3792 6.04537 19.5 5.5368 19.5 5C19.5 3.067 17.933 1.5 16 1.5C14.5864 1.5 13.325 2.15183 12.5 3.17134C11.675 2.15183 10.4136 1.5 9 1.5ZM13.5 20.5H18.5C19.0523 20.5 19.5 20.0523 19.5 19.5V12.5H13.5V20.5ZM11.5 12.5V20.5H6.5C5.94772 20.5 5.5 20.0523 5.5 19.5V12.5H11.5ZM16 6.5C16.8284 6.5 17.5 5.82843 17.5 5C17.5 4.17157 16.8284 3.5 16 3.5C14.6193 3.5 13.5 4.61929 13.5 6V6.5H16ZM11.5 6.5V6C11.5 4.61929 10.3807 3.5 9 3.5C8.17157 3.5 7.5 4.17157 7.5 5C7.5 5.82843 8.17157 6.5 9 6.5H11.5Z" fill="#147FFD"/>
</g>
<defs>
<clipPath id="clip0_1608_44314">
<rect width="24" height="24" fill="white" transform="translate(0.5 0.5)"/>
</clipPath>
</defs>
</svg>
