<svg width="13" height="12" viewBox="0 0 13 12" fill="none" xmlns="http://www.w3.org/2000/svg">
<path d="M11.9205 1.71776H10.4211C10.4011 1.71081 10.3802 1.70629 10.3591 1.70421H8.76269V0.380215C8.76278 0.280716 8.72377 0.18519 8.65425 0.114126C8.58464 0.0430685 8.49001 0.00207565 8.39061 0H4.61515C4.5143 0 4.4176 0.0399989 4.34636 0.111327C4.27503 0.182655 4.23494 0.279355 4.23494 0.380213V1.70421H2.64666C2.62553 1.70629 2.60467 1.7108 2.58463 1.71776H1.08528C0.949399 1.71776 0.823887 1.79017 0.756001 1.90782C0.688104 2.02546 0.688104 2.17037 0.756001 2.28802C0.823899 2.40567 0.949402 2.47817 1.08528 2.47817H2.30682L3.29386 11.6602C3.30442 11.7537 3.34903 11.8399 3.41918 11.9027C3.48925 11.9653 3.57999 11.9999 3.67406 12H9.33702C9.4301 11.9986 9.51949 11.9633 9.58857 11.9009C9.65755 11.8383 9.70134 11.7528 9.71181 11.6602L10.6988 2.49157H11.9204C12.0563 2.49157 12.1818 2.41916 12.2497 2.30151C12.3176 2.18386 12.3176 2.03887 12.2497 1.92131C12.1818 1.80366 12.0563 1.73116 11.9204 1.73116L11.9205 1.71776ZM5.00356 0.760418H8.00215V1.70421H5.00356V0.760418ZM8.9919 11.2341H4.01382L3.07002 2.49166H9.9356L8.9919 11.2341Z" fill="#4A4A4A"/>
<path d="M6.5013 10.3455C6.60215 10.3455 6.69885 10.3054 6.77018 10.2342C6.84151 10.1629 6.88151 10.0662 6.88151 9.96529V3.76309C6.88151 3.6272 6.8091 3.50169 6.69145 3.4338C6.5738 3.36582 6.42881 3.36582 6.31115 3.4338C6.19351 3.5017 6.12109 3.6272 6.12109 3.76309V9.96529C6.12109 10.0661 6.16109 10.1628 6.23242 10.2342C6.30375 10.3054 6.40045 10.3455 6.50131 10.3455H6.5013Z" fill="#4A4A4A"/>
<path d="M5.00617 10.3358H5.02234C5.12274 10.3316 5.21736 10.2879 5.28563 10.2141C5.3538 10.1403 5.39009 10.0425 5.38639 9.94213L5.15715 3.73992L5.15724 3.73983C5.15516 3.63826 5.11173 3.54183 5.03688 3.47303C4.96194 3.40432 4.86226 3.36919 4.76078 3.37579C4.66038 3.38003 4.56576 3.42382 4.49758 3.49759C4.42933 3.57135 4.39312 3.66914 4.39673 3.76955L4.62598 9.97175C4.63076 10.0695 4.67284 10.1618 4.74362 10.2295C4.81432 10.2971 4.90831 10.3353 5.00618 10.3358L5.00617 10.3358Z" fill="#4A4A4A"/>
<path d="M7.98639 10.3397H7.99984C8.10006 10.3419 8.19713 10.3047 8.27025 10.2362C8.3433 10.1676 8.38664 10.073 8.39088 9.9729L8.62013 3.77069H8.62004C8.62374 3.67029 8.58744 3.57251 8.51927 3.49873C8.45101 3.42496 8.35639 3.38117 8.25598 3.37693C8.15332 3.36637 8.05093 3.3995 7.97392 3.4683C7.8969 3.53701 7.85248 3.63507 7.85149 3.73837L7.61954 9.94057H7.61963C7.61448 10.0423 7.65041 10.1419 7.7194 10.2169C7.78829 10.292 7.88453 10.3362 7.98639 10.3397L7.98639 10.3397Z" fill="#4A4A4A"/>
</svg>
