<svg width="20" height="16" viewBox="0 0 20 16" fill="none" xmlns="http://www.w3.org/2000/svg">
<g id="CREDIT CARD">
<path id="Vector" d="M19.6691 4.08081C19.3754 2.49605 17.9137 1.12222 16.3242 0.87535C15.3594 0.714022 11.7871 0.511679 10.0004 0.532773C8.21367 0.511679 4.64102 0.714022 3.67657 0.87535C2.08673 1.12222 0.625016 2.49605 0.331267 4.08081C0.162126 5.0394 0.00197035 6.34643 1.72259e-05 8.1351C-0.0019359 9.92377 0.162517 11.2308 0.331267 12.1894C0.624625 13.7742 2.08634 15.1484 3.67618 15.3949C4.64063 15.5562 8.21328 15.7585 10 15.7374C11.7867 15.7585 15.359 15.5562 16.3238 15.3949C17.9133 15.1484 19.375 13.7742 19.6687 12.1894C19.8379 11.2308 19.9976 9.92377 20 8.1351C20.0023 6.34643 19.8383 5.0394 19.6691 4.08081Z" fill="#4193D2"/>
<path id="Vector_2" d="M10.0012 0.532773C8.21444 0.511679 4.64179 0.714022 3.67734 0.87535C2.0875 1.12222 0.62578 2.49605 0.332031 4.0812C0.199043 4.841 0.107761 5.60751 0.0585938 6.37729L0.0585938 9.89291C0.107824 10.6624 0.199106 11.4287 0.332031 12.1882C0.377518 12.4302 0.448486 12.6667 0.543749 12.8937C1.87577 13.4518 3.30579 13.7383 4.74999 13.7367C10.7613 13.7367 15.6347 8.86322 15.6347 2.85191C15.6351 2.15366 15.5685 1.45699 15.4359 0.771444C13.9648 0.640194 11.4203 0.517929 10.0012 0.532773Z" fill="#48A4DF"/>
<path id="Vector_3" d="M9.21376 12.3484C9.21649 12.7988 8.8622 13.1621 8.42509 13.1578C7.02874 13.1448 5.63278 13.1137 4.23721 13.0644C3.79893 13.0484 3.4169 12.6785 3.3919 12.2406C3.36612 11.8023 3.71143 11.4566 4.15674 11.4664C5.57236 11.4992 6.98785 11.5202 8.40321 11.5293C8.61921 11.5317 8.82556 11.6191 8.97746 11.7727C9.12936 11.9263 9.21455 12.1336 9.21454 12.3496L9.21376 12.3484ZM13.3118 9.28437C13.3087 9.50055 13.2212 9.70694 13.0679 9.85938C12.9146 10.0118 12.7077 10.0982 12.4915 10.1C9.70504 10.1151 6.91988 10.1042 4.13604 10.0672C3.6876 10.0605 3.31377 9.69961 3.30674 9.26133C3.29971 8.82305 3.66377 8.46836 4.11416 8.46875C6.90947 8.47552 9.70491 8.47747 12.5005 8.47461C12.6071 8.47394 12.7128 8.49441 12.8114 8.53484C12.9101 8.57527 12.9998 8.63486 13.0752 8.71017C13.1507 8.78547 13.2105 8.87499 13.2512 8.97355C13.2919 9.07211 13.3126 9.17775 13.3122 9.28437H13.3118Z" fill="white"/>
<path id="Vector_4" d="M3.39971 4.46406C3.46338 3.67148 4.14893 3.00547 4.94033 2.95703C5.08174 2.94883 5.23799 2.9418 5.41142 2.93672C5.58486 2.93164 5.74111 2.92969 5.88213 2.92969C6.67119 2.92969 7.28837 3.57226 7.29658 4.38359C7.29658 4.52773 7.29658 4.68789 7.29306 4.86523C7.28955 5.04257 7.28525 5.20273 7.279 5.34726C7.26175 5.73995 7.09713 6.11171 6.81796 6.38842C6.53879 6.66513 6.16558 6.82645 5.77275 6.84023C5.62783 6.84491 5.46728 6.84843 5.28955 6.8496C5.11182 6.85077 4.95127 6.8496 4.80635 6.84726C3.99346 6.83046 3.34815 6.19843 3.35752 5.40703C3.35752 5.26562 3.36338 5.10898 3.37119 4.93554C3.37901 4.76211 3.38877 4.60547 3.39971 4.46406Z" fill="white"/>
</g>
</svg>
