<svg width="22" height="18" viewBox="0 0 22 18" fill="none" xmlns="http://www.w3.org/2000/svg">
<path id="Subtract" fill-rule="evenodd" clip-rule="evenodd" d="M0.307068 1.78027C0.307068 1.22799 0.754783 0.780273 1.30707 0.780273H20.7907C21.3429 0.780273 21.7907 1.22799 21.7907 1.78027V6.10996V14.9342C21.7907 16.591 20.4475 17.9342 18.7907 17.9342H3.30707C1.65022 17.9342 0.307068 16.591 0.307068 14.9342V7.10966H1.30706H11.0489H20.7907H21.7907V5.10966H20.7907H11.0489H1.30706H0.307068V1.78027ZM3.27962 10.4393C3.27962 9.88706 3.72734 9.43935 4.27962 9.43935H7.52689C8.07917 9.43935 8.52689 9.88706 8.52689 10.4393C8.52689 10.9916 8.07917 11.4393 7.52689 11.4393H4.27962C3.72734 11.4393 3.27962 10.9916 3.27962 10.4393Z" fill="#0094FE"/>
</svg>
