<svg width="25" height="24" viewBox="0 0 25 24" fill="none" xmlns="http://www.w3.org/2000/svg">
<g id="Icon Frame">
<g id="Group">
<g id="Group_2">
<g id="Group_3">
<g id="Group_4">
<g id="Group_5">
<g id="Group_6">
<path id="Vector" d="M10.1595 11.623H4.46592C3.65815 11.623 3.00098 10.9658 3.00098 10.158V4.46446C3.00098 3.65669 3.65815 2.99951 4.46592 2.99951H10.1595C10.9673 2.99951 11.6245 3.65669 11.6245 4.46446V10.1581C11.6244 10.9658 10.9673 11.623 10.1595 11.623Z" fill="#FF7000"/>
</g>
</g>
<g id="Group_7">
<g id="Group_8">
<path id="Vector_2" d="M20.5324 8.26614H18.4181C17.6103 8.26614 16.9531 7.60897 16.9531 6.8012V4.46446C16.9531 3.65669 17.6103 2.99951 18.4181 2.99951H20.5324C21.3402 2.99951 21.9973 3.65669 21.9973 4.46446V6.8012C21.9973 7.60897 21.3402 8.26614 20.5324 8.26614Z" fill="#FF7000"/>
</g>
</g>
<g id="Group_9">
<g id="Group_10">
<path id="Vector_3" d="M21.2666 11.6235H15.0099C14.2021 11.6235 13.5449 10.9663 13.5449 10.1585V3.73247C13.5449 3.32795 13.8729 3 14.2774 3C14.6819 3 15.0099 3.32795 15.0099 3.73247V10.1586H21.2666C21.6711 10.1586 21.9991 10.4865 21.9991 10.891C21.9991 11.2956 21.6711 11.6235 21.2666 11.6235Z" fill="#FF7000"/>
</g>
</g>
</g>
<g id="Group_11">
<g id="Group_12">
<g id="Group_13">
<path id="Vector_4" d="M20.5336 22.0243H14.8399C14.0322 22.0243 13.375 21.3672 13.375 20.5594V14.8658C13.375 14.0581 14.0322 13.4009 14.8399 13.4009H20.5336C21.3413 13.4009 21.9985 14.0581 21.9985 14.8658V20.5594C21.9985 21.3672 21.3413 22.0243 20.5336 22.0243Z" fill="#FF7000"/>
</g>
</g>
<g id="Group_14">
<g id="Group_15">
<path id="Vector_5" d="M6.58023 22.0249H4.46592C3.65815 22.0249 3.00098 21.3678 3.00098 20.56V18.2232C3.00098 17.4155 3.65815 16.7583 4.46592 16.7583H6.58023C7.38801 16.7583 8.04518 17.4155 8.04518 18.2232V20.56C8.04518 21.3678 7.38801 22.0249 6.58023 22.0249Z" fill="#FF7000"/>
</g>
</g>
<g id="Group_16">
<g id="Group_17">
<path id="Vector_6" d="M10.7227 22.0243C10.3181 22.0243 9.99019 21.6964 9.99019 21.2919V14.8658H3.73345C3.32893 14.8658 3.00098 14.5379 3.00098 14.1334C3.00098 13.7288 3.32893 13.4009 3.73345 13.4009H9.99019C10.798 13.4009 11.4551 14.0581 11.4551 14.8658V21.2919C11.4551 21.6964 11.1272 22.0243 10.7227 22.0243Z" fill="#FF7000"/>
</g>
</g>
</g>
</g>
</g>
</g>
</g>
</svg>
