<svg width="38" height="38" viewBox="0 0 38 38" fill="none" xmlns="http://www.w3.org/2000/svg">
<path d="M9.32172 2.66406C8.24673 2.66406 7.36719 3.5436 7.36719 4.6186V31.9821C7.36719 33.0571 8.24673 33.9366 9.32172 33.9366H28.8671C29.9421 33.9366 30.8216 33.0571 30.8216 31.9821V10.4822L23.0035 2.66406H9.32172Z" fill="#EBE6E2"/>
<path d="M24.9621 10.4826L30.827 10.4787L23.002 2.66406L23.0059 8.52897C23.0066 9.6042 23.8869 10.4833 24.9621 10.4826Z" fill="#FFF2EA"/>
<path d="M28.5791 28.0675C28.5791 28.6967 28.0643 29.2114 27.4352 29.2114H2.26892C1.63976 29.2114 1.125 28.6967 1.125 28.0675V16.6283C1.125 15.9991 1.63976 15.4844 2.26892 15.4844H27.4352C28.0643 15.4844 28.5791 15.9991 28.5791 16.6283V28.0675Z" fill="#FFF2EA"/>
<path d="M5.70668 19.8466V18.5788H11.6797V19.8466H9.45312V25.8516H7.93324V19.8466H5.70668ZM15.001 18.5788V25.8516H13.4634V18.5788H15.001ZM23.1492 18.5788V25.8516H21.8211L18.657 21.2741H18.6037V25.8516H17.0661V18.5788H18.4155L21.5547 23.1527H21.6186V18.5788H23.1492Z" fill="#DB631A"/>
</svg>
