<svg width="40" height="41" viewBox="0 0 40 41" fill="none" xmlns="http://www.w3.org/2000/svg">
<rect y="0.617188" width="40" height="40" rx="20" fill="#FCFCFC"/>
<path d="M22.2018 27.6676C22.2016 28.3645 21.9948 29.0457 21.6075 29.625C21.2202 30.2044 20.6698 30.6559 20.0259 30.9225C19.382 31.1891 18.6736 31.2588 17.9901 31.1228C17.3066 30.9868 16.6788 30.6512 16.186 30.1584C15.6932 29.6656 15.3576 29.0378 15.2216 28.3543C15.0856 27.6708 15.1553 26.9623 15.4219 26.3185C15.6885 25.6746 16.14 25.1242 16.7194 24.7369C17.2987 24.3496 17.9799 24.1428 18.6768 24.1426C19.1398 24.1424 19.5982 24.2335 20.0259 24.4106C20.4537 24.5877 20.8423 24.8474 21.1697 25.1747C21.497 25.5021 21.7567 25.8907 21.9338 26.3185C22.1109 26.7462 22.2019 27.2046 22.2018 27.6676Z" fill="#BEBEBE"/>
<path d="M24.8501 20.5479C23.9088 20.4151 23.0111 20.066 22.2274 19.528C21.4436 18.99 20.7952 18.2777 20.333 17.447C19.8707 16.6163 19.6073 15.6899 19.5632 14.7403C19.5192 13.7907 19.6958 12.8438 20.0791 11.9739C19.1744 11.7584 18.2325 11.7511 17.3246 11.9524C16.4166 12.1537 15.5661 12.5584 14.8372 13.1361C14.1083 13.7137 13.52 14.4492 13.1165 15.2872C12.7131 16.1252 12.5051 17.0438 12.5081 17.9739V20.4309C12.509 21.2923 12.3215 22.1435 11.9587 22.9248C11.596 23.7061 11.0667 24.3986 10.4081 24.9539C10.1691 25.1587 9.9984 25.4318 9.9191 25.7365C9.8398 26.0411 9.85566 26.3628 9.96454 26.6582C10.0734 26.9536 10.2701 27.2086 10.5282 27.3889C10.7862 27.5692 11.0933 27.6662 11.4081 27.6669H25.9441C26.2603 27.6669 26.5688 27.5697 26.8279 27.3886C27.087 27.2074 27.2842 26.9509 27.3927 26.654C27.5012 26.357 27.5157 26.0339 27.4344 25.7283C27.3531 25.4228 27.1799 25.1496 26.9381 24.9459C26.297 24.4033 25.779 23.7302 25.4189 22.9714C25.0589 22.2126 24.8649 21.3856 24.8501 20.5459V20.5479Z" fill="#EBEBEB"/>
<path d="M30.1309 14.4509C30.1309 15.3224 29.8724 16.1743 29.3882 16.8989C28.9041 17.6235 28.2159 18.1882 27.4107 18.5216C26.6056 18.8551 25.7196 18.9423 24.8649 18.7722C24.0102 18.6021 23.2251 18.1824 22.609 17.5661C21.9928 16.9498 21.5733 16.1646 21.4034 15.3099C21.2335 14.4551 21.3209 13.5692 21.6545 12.7641C21.9882 11.9591 22.553 11.271 23.2777 10.787C24.0024 10.303 24.8544 10.0447 25.7259 10.0449C26.8942 10.0452 28.0147 10.5095 28.8407 11.3358C29.6668 12.162 30.1309 13.2826 30.1309 14.4509Z" fill="#BEBEBE"/>
</svg>
