<svg width="20" height="20" viewBox="0 0 20 20" fill="none" xmlns="http://www.w3.org/2000/svg">
<path d="M5.83693 11.3897C6.29188 11.3897 6.66068 11.0209 6.66068 10.5659C6.66068 10.111 6.29188 9.74219 5.83693 9.74219C5.38199 9.74219 5.01318 10.111 5.01318 10.5659C5.01318 11.0209 5.38199 11.3897 5.83693 11.3897Z" fill="black"/>
<path d="M8.83107 11.3897C9.28602 11.3897 9.65482 11.0209 9.65482 10.5659C9.65482 10.111 9.28602 9.74219 8.83107 9.74219C8.37613 9.74219 8.00732 10.111 8.00732 10.5659C8.00732 11.0209 8.37613 11.3897 8.83107 11.3897Z" fill="black"/>
<path d="M11.825 11.3897C12.2799 11.3897 12.6487 11.0209 12.6487 10.5659C12.6487 10.111 12.2799 9.74219 11.825 9.74219C11.37 9.74219 11.0012 10.111 11.0012 10.5659C11.0012 11.0209 11.37 11.3897 11.825 11.3897Z" fill="black"/>
<path d="M15.7937 10.7209C15.4831 10.7209 15.2313 10.9727 15.2313 11.2834V14.0209C15.2313 14.789 14.6031 15.414 13.8312 15.414H10.875C10.7244 15.414 10.5806 15.4746 10.475 15.5815L8.92875 17.1465C8.86563 17.2121 8.805 17.2134 8.7375 17.144L7.19375 15.5815C7.08812 15.4746 6.94438 15.414 6.79375 15.414H3.83125C3.06313 15.414 2.4375 14.789 2.4375 14.0209V7.10836C2.4375 6.33648 3.0625 5.70898 3.83125 5.70898H8.99375C9.30438 5.70898 9.55625 5.45711 9.55625 5.14648C9.55625 4.83586 9.30438 4.58398 8.99375 4.58398H3.83125C2.4425 4.58398 1.3125 5.71711 1.3125 7.10898V14.0221C1.3125 15.4109 2.4425 16.5409 3.83125 16.5409H6.55875L7.935 17.934C8.16875 18.1727 8.49625 18.3102 8.83437 18.3102C9.1725 18.3102 9.50062 18.1727 9.73125 17.9365L11.11 16.5415H13.8312C15.2237 16.5415 16.3562 15.4109 16.3562 14.0227V11.2852C16.3556 10.9734 16.1044 10.7209 15.7937 10.7209Z" fill="black"/>
<path d="M18.0924 4.14258L16.2349 2.28508C15.4667 1.51695 14.1274 1.51695 13.3599 2.28508L11.5017 4.1432C11.118 4.52695 10.9067 5.03758 10.9067 5.5807C10.9067 6.12383 11.118 6.63445 11.5024 7.0182L13.3599 8.8757V8.87633C13.7436 9.26008 14.2542 9.47133 14.7974 9.47133C15.3405 9.47133 15.8511 9.26008 16.2349 8.87633L18.0924 7.0182C18.4761 6.63445 18.688 6.12383 18.688 5.5807C18.688 5.03758 18.4767 4.52695 18.0924 4.14258ZM17.2967 6.22195L15.4392 8.08008C15.0961 8.42383 14.498 8.42258 14.1555 8.0807L12.2974 6.22195C12.1261 6.05133 12.0317 5.82258 12.0317 5.5807C12.0317 5.33758 12.1261 5.11008 12.2974 4.93883L14.1555 3.0807C14.3267 2.91008 14.5549 2.81508 14.7974 2.81508C15.0399 2.81508 15.268 2.90945 15.4392 3.08133L17.2967 4.93883C17.468 5.11008 17.5624 5.3382 17.5624 5.5807C17.563 5.82258 17.4686 6.0507 17.2967 6.22195Z" fill="black"/>
<path d="M14.7974 3.55273C14.4867 3.55273 14.2349 3.80461 14.2349 4.11523V5.44836C14.2349 5.75898 14.4867 6.01086 14.7974 6.01086C15.108 6.01086 15.3599 5.75898 15.3599 5.44836V4.11523C15.3599 3.80461 15.108 3.55273 14.7974 3.55273Z" fill="black"/>
<path d="M14.7976 6.37109C14.487 6.37109 14.2351 6.62297 14.2351 6.93359V7.04609C14.2351 7.35672 14.487 7.60859 14.7976 7.60859C15.1082 7.60859 15.3601 7.35672 15.3601 7.04609V6.93359C15.3601 6.62359 15.1082 6.37109 14.7976 6.37109Z" fill="black"/>
</svg>
