<svg width="20" height="21" viewBox="0 0 20 21" fill="none" xmlns="http://www.w3.org/2000/svg">
<g clip-path="url(#clip0_1707_1484)">
<path d="M2.1 11C2.1 6.64408 5.64403 3.1 10 3.1C14.356 3.1 17.9 6.64408 17.9 11C17.9 15.356 14.356 18.9 10 18.9C5.64403 18.9 2.1 15.356 2.1 11ZM3.35455 11C3.35455 14.6644 6.33556 17.6455 10 17.6455C13.6644 17.6455 16.6455 14.6644 16.6455 11C16.6455 7.33566 13.6644 4.35455 10 4.35455C6.33556 4.35455 3.35455 7.33566 3.35455 11Z" fill="black" stroke="#F7F7F7" stroke-width="0.2"/>
<path d="M9.08052 7.36466C9.08052 6.85731 9.49307 6.44453 10 6.44453C10.507 6.44453 10.9195 6.85731 10.9195 7.36466C10.9195 7.87149 10.507 8.28393 10 8.28393C9.49303 8.28393 9.08052 7.87149 9.08052 7.36466Z" fill="black" stroke="white" stroke-width="0.1"/>
<path d="M9.32271 10.5144C9.32271 10.1403 9.62594 9.83711 9.99998 9.83711C10.374 9.83711 10.6773 10.1403 10.6773 10.5144V14.878C10.6773 15.2521 10.374 15.5553 9.99998 15.5553C9.62594 15.5553 9.32271 15.2521 9.32271 14.878V10.5144Z" fill="black" stroke="white" stroke-width="0.1"/>
</g>
<defs>
<clipPath id="clip0_1707_1484">
<rect width="16" height="16" fill="white" transform="translate(2 3)"/>
</clipPath>
</defs>
</svg>
