<svg width="335" height="126" viewBox="0 0 335 126" fill="none" xmlns="http://www.w3.org/2000/svg">
<mask id="mask0_93_4921" style="mask-type:alpha" maskUnits="userSpaceOnUse" x="0" y="0" width="335" height="126">
<rect y="0.472656" width="335" height="125" rx="12" fill="white"/>
</mask>
<g mask="url(#mask0_93_4921)">
<path d="M220.954 96.9289C185.141 119.766 186.699 84.9912 132.721 147.274L353.822 159.212L357.975 40.3563C363.684 31.879 372.337 -1.09076 341.317 25.1559C299.973 60.1387 290.94 34.1281 264.989 40.3563C239.038 46.5845 256.766 74.0919 220.954 96.9289Z" fill="#EDF5FF"/>
<path d="M67.9697 22.0501C119.714 29.5081 82.3471 -17.3235 82.4107 -28.1499L2.18089 -7.97849L-64.2391 48.0087C-50.6059 61.884 -15.1409 95.1362 -6.07173 74.5844C5.26469 48.8945 25.5178 90.9315 43.493 81.7356C74.239 66.0063 16.2253 14.5921 67.9697 22.0501Z" fill="#FFDCD2"/>
</g>
</svg>
