<svg width="20" height="21" viewBox="0 0 20 21" fill="none" xmlns="http://www.w3.org/2000/svg">
<path d="M9.99063 2.19922C7.39688 2.19922 5.32188 4.27422 5.32188 6.86797V8.94297C4.44 8.94297 3.76562 9.61734 3.76562 10.4992V17.243C3.76562 18.1248 4.44 18.7992 5.32188 18.7992H14.6594C15.5413 18.7992 16.2156 18.1248 16.2156 17.243V10.4992C16.2156 9.61734 15.5413 8.94297 14.6594 8.94297V6.86797C14.6594 4.27422 12.5844 2.19922 9.99063 2.19922ZM15.1781 10.4992V17.243C15.1781 17.5542 14.9706 17.7617 14.6594 17.7617H5.32188C5.01063 17.7617 4.80313 17.5542 4.80313 17.243V10.4992C4.80313 10.188 5.01063 9.98047 5.32188 9.98047H5.84063H14.1406H14.6594C14.9706 9.98047 15.1781 10.188 15.1781 10.4992ZM6.35938 8.94297V6.86797C6.35938 4.84484 7.9675 3.23672 9.99063 3.23672C12.0138 3.23672 13.6219 4.84484 13.6219 6.86797V8.94297H6.35938Z" fill="black"/>
<path d="M13.9572 15.0173C14.3449 15.0173 14.6592 14.703 14.6592 14.3153C14.6592 13.9276 14.3449 13.6133 13.9572 13.6133C13.5694 13.6133 13.2551 13.9276 13.2551 14.3153C13.2551 14.703 13.5694 15.0173 13.9572 15.0173Z" fill="black"/>
<path d="M8.65686 15.0173C9.04457 15.0173 9.35888 14.703 9.35888 14.3153C9.35888 13.9276 9.04457 13.6133 8.65686 13.6133C8.26914 13.6133 7.95483 13.9276 7.95483 14.3153C7.95483 14.703 8.26914 15.0173 8.65686 15.0173Z" fill="black"/>
<path d="M6.02429 15.0173C6.41201 15.0173 6.72631 14.703 6.72631 14.3153C6.72631 13.9276 6.41201 13.6133 6.02429 13.6133C5.63657 13.6133 5.32227 13.9276 5.32227 14.3153C5.32227 14.703 5.63657 15.0173 6.02429 15.0173Z" fill="black"/>
<path d="M11.2894 15.0173C11.6771 15.0173 11.9914 14.703 11.9914 14.3153C11.9914 13.9276 11.6771 13.6133 11.2894 13.6133C10.9017 13.6133 10.5874 13.9276 10.5874 14.3153C10.5874 14.703 10.9017 15.0173 11.2894 15.0173Z" fill="black"/>
</svg>
