<svg width="359" height="75" viewBox="0 0 359 75" fill="none" xmlns="http://www.w3.org/2000/svg">
<g filter="url(#filter0_d_442_1614)">
<rect x="12" y="6.5" width="335" height="50" rx="10" fill="white" shape-rendering="crispEdges"/>
<rect x="12.75" y="7.25" width="333.5" height="48.5" rx="9.25" stroke="#0094FE" stroke-width="1.5" stroke-dasharray="4 3" shape-rendering="crispEdges"/>
<path d="M112.619 36.5V26.3182H114.155V35.1776H118.768V36.5H112.619ZM120.402 36.5V28.8636H121.888V36.5H120.402ZM121.152 27.6854C120.894 27.6854 120.672 27.5992 120.486 27.4268C120.304 27.2512 120.213 27.0424 120.213 26.8004C120.213 26.5552 120.304 26.3464 120.486 26.174C120.672 25.9983 120.894 25.9105 121.152 25.9105C121.411 25.9105 121.631 25.9983 121.814 26.174C121.999 26.3464 122.092 26.5552 122.092 26.8004C122.092 27.0424 121.999 27.2512 121.814 27.4268C121.631 27.5992 121.411 27.6854 121.152 27.6854ZM125.374 31.9659V36.5H123.888V28.8636H125.315V30.1065H125.409C125.585 29.7022 125.86 29.3774 126.235 29.1321C126.612 28.8868 127.088 28.7642 127.661 28.7642C128.182 28.7642 128.637 28.8736 129.029 29.0923C129.42 29.3078 129.723 29.6293 129.938 30.0568C130.154 30.4844 130.262 31.013 130.262 31.6428V36.5H128.775V31.8217C128.775 31.2682 128.631 30.8357 128.343 30.5241C128.054 30.2093 127.658 30.0518 127.154 30.0518C126.81 30.0518 126.503 30.1264 126.235 30.2756C125.969 30.4247 125.759 30.6435 125.603 30.9318C125.451 31.2169 125.374 31.5616 125.374 31.9659ZM133.622 33.9098L133.612 32.0952H133.871L136.914 28.8636H138.693L135.223 32.5426H134.99L133.622 33.9098ZM132.255 36.5V26.3182H133.742V36.5H132.255ZM137.078 36.5L134.343 32.8707L135.367 31.8317L138.902 36.5H137.078ZM145.975 36.669C145.492 36.669 145.054 36.5795 144.663 36.4006C144.272 36.2183 143.962 35.9548 143.733 35.6101C143.508 35.2654 143.395 34.8428 143.395 34.3423C143.395 33.9115 143.478 33.5568 143.644 33.2784C143.81 33 144.033 32.7796 144.315 32.6172C144.597 32.4548 144.912 32.3321 145.26 32.2493C145.608 32.1664 145.962 32.1035 146.324 32.0604C146.781 32.0073 147.152 31.9643 147.437 31.9311C147.722 31.8946 147.929 31.8366 148.059 31.7571C148.188 31.6776 148.252 31.5483 148.252 31.3693V31.3345C148.252 30.9003 148.13 30.5639 147.885 30.3253C147.643 30.0866 147.281 29.9673 146.801 29.9673C146.3 29.9673 145.906 30.0784 145.618 30.3004C145.333 30.5192 145.135 30.7628 145.026 31.0312L143.629 30.7131C143.795 30.2491 144.037 29.8745 144.355 29.5895C144.676 29.3011 145.046 29.0923 145.463 28.9631C145.881 28.8305 146.32 28.7642 146.781 28.7642C147.086 28.7642 147.409 28.8007 147.75 28.8736C148.095 28.9432 148.417 29.0724 148.715 29.2614C149.016 29.4503 149.263 29.7204 149.456 30.0717C149.648 30.4197 149.744 30.8722 149.744 31.429V36.5H148.292V35.456H148.233C148.136 35.6482 147.992 35.8371 147.8 36.0227C147.608 36.2083 147.361 36.3625 147.059 36.4851C146.758 36.6077 146.396 36.669 145.975 36.669ZM146.299 35.4759C146.71 35.4759 147.061 35.3946 147.353 35.2322C147.648 35.0698 147.871 34.8577 148.024 34.5959C148.18 34.3307 148.257 34.0473 148.257 33.7457V32.7614C148.204 32.8144 148.102 32.8641 147.949 32.9105C147.8 32.9536 147.629 32.9917 147.437 33.0249C147.245 33.0547 147.058 33.0829 146.875 33.1094C146.693 33.1326 146.541 33.1525 146.418 33.169C146.13 33.2055 145.866 33.2668 145.627 33.353C145.392 33.4392 145.203 33.5634 145.061 33.7259C144.922 33.8849 144.852 34.0971 144.852 34.3622C144.852 34.7301 144.988 35.0085 145.26 35.1974C145.531 35.383 145.878 35.4759 146.299 35.4759ZM155.548 36.5V26.3182H159.277C160 26.3182 160.598 26.4375 161.072 26.6761C161.546 26.9115 161.9 27.2313 162.136 27.6357C162.371 28.0367 162.489 28.4891 162.489 28.9929C162.489 29.4171 162.411 29.7751 162.255 30.0668C162.099 30.3551 161.89 30.5871 161.629 30.7628C161.37 30.9351 161.085 31.0611 160.773 31.1406V31.2401C161.112 31.2566 161.441 31.366 161.763 31.5682C162.088 31.767 162.356 32.0504 162.568 32.4183C162.78 32.7862 162.886 33.2337 162.886 33.7607C162.886 34.281 162.764 34.7483 162.518 35.1626C162.277 35.5736 161.902 35.9001 161.395 36.142C160.888 36.3807 160.24 36.5 159.451 36.5H155.548ZM157.085 35.1825H159.302C160.038 35.1825 160.565 35.04 160.883 34.755C161.201 34.4699 161.36 34.1136 161.36 33.6861C161.36 33.3646 161.279 33.0696 161.116 32.8011C160.954 32.5327 160.722 32.3189 160.42 32.1598C160.122 32.0007 159.768 31.9212 159.357 31.9212H157.085V35.1825ZM157.085 30.723H159.143C159.487 30.723 159.797 30.6567 160.072 30.5241C160.351 30.3916 160.571 30.206 160.734 29.9673C160.899 29.7254 160.982 29.4403 160.982 29.1122C160.982 28.6913 160.835 28.3383 160.54 28.0533C160.245 27.7682 159.792 27.6257 159.183 27.6257H157.085V30.723ZM166.811 36.669C166.328 36.669 165.89 36.5795 165.499 36.4006C165.108 36.2183 164.798 35.9548 164.569 35.6101C164.344 35.2654 164.231 34.8428 164.231 34.3423C164.231 33.9115 164.314 33.5568 164.48 33.2784C164.645 33 164.869 32.7796 165.151 32.6172C165.433 32.4548 165.748 32.3321 166.096 32.2493C166.444 32.1664 166.798 32.1035 167.159 32.0604C167.617 32.0073 167.988 31.9643 168.273 31.9311C168.558 31.8946 168.765 31.8366 168.895 31.7571C169.024 31.6776 169.088 31.5483 169.088 31.3693V31.3345C169.088 30.9003 168.966 30.5639 168.721 30.3253C168.479 30.0866 168.117 29.9673 167.637 29.9673C167.136 29.9673 166.742 30.0784 166.453 30.3004C166.168 30.5192 165.971 30.7628 165.862 31.0312L164.465 30.7131C164.631 30.2491 164.873 29.8745 165.191 29.5895C165.512 29.3011 165.882 29.0923 166.299 28.9631C166.717 28.8305 167.156 28.7642 167.617 28.7642C167.922 28.7642 168.245 28.8007 168.586 28.8736C168.931 28.9432 169.252 29.0724 169.551 29.2614C169.852 29.4503 170.099 29.7204 170.292 30.0717C170.484 30.4197 170.58 30.8722 170.58 31.429V36.5H169.128V35.456H169.069C168.972 35.6482 168.828 35.8371 168.636 36.0227C168.444 36.2083 168.197 36.3625 167.895 36.4851C167.594 36.6077 167.232 36.669 166.811 36.669ZM167.135 35.4759C167.546 35.4759 167.897 35.3946 168.189 35.2322C168.484 35.0698 168.707 34.8577 168.86 34.5959C169.016 34.3307 169.093 34.0473 169.093 33.7457V32.7614C169.04 32.8144 168.938 32.8641 168.785 32.9105C168.636 32.9536 168.465 32.9917 168.273 33.0249C168.081 33.0547 167.894 33.0829 167.711 33.1094C167.529 33.1326 167.377 33.1525 167.254 33.169C166.966 33.2055 166.702 33.2668 166.463 33.353C166.228 33.4392 166.039 33.5634 165.897 33.7259C165.757 33.8849 165.688 34.0971 165.688 34.3622C165.688 34.7301 165.824 35.0085 166.096 35.1974C166.367 35.383 166.714 35.4759 167.135 35.4759ZM174.046 31.9659V36.5H172.56V28.8636H173.987V30.1065H174.081C174.257 29.7022 174.532 29.3774 174.906 29.1321C175.284 28.8868 175.76 28.7642 176.333 28.7642C176.854 28.7642 177.309 28.8736 177.7 29.0923C178.092 29.3078 178.395 29.6293 178.61 30.0568C178.826 30.4844 178.933 31.013 178.933 31.6428V36.5H177.447V31.8217C177.447 31.2682 177.303 30.8357 177.014 30.5241C176.726 30.2093 176.33 30.0518 175.826 30.0518C175.481 30.0518 175.175 30.1264 174.906 30.2756C174.641 30.4247 174.431 30.6435 174.275 30.9318C174.123 31.2169 174.046 31.5616 174.046 31.9659ZM182.294 33.9098L182.284 32.0952H182.543L185.585 28.8636H187.365L183.895 32.5426H183.661L182.294 33.9098ZM180.927 36.5V26.3182H182.414V36.5H180.927ZM185.749 36.5L183.015 32.8707L184.039 31.8317L187.574 36.5H185.749ZM193.404 36.5H191.774L195.438 26.3182H197.213L200.877 36.5H199.246L196.368 28.1676H196.288L193.404 36.5ZM193.678 32.5128H198.968V33.8054H193.678V32.5128ZM205.321 36.6541C204.582 36.6541 203.946 36.4867 203.412 36.152C202.882 35.8139 202.474 35.3482 202.189 34.755C201.904 34.1617 201.762 33.4822 201.762 32.7166C201.762 31.9411 201.908 31.2566 202.199 30.6634C202.491 30.0668 202.902 29.6011 203.432 29.2663C203.962 28.9316 204.587 28.7642 205.306 28.7642C205.886 28.7642 206.404 28.8719 206.858 29.0874C207.312 29.2995 207.678 29.5978 207.956 29.9822C208.238 30.3667 208.405 30.8158 208.458 31.3295H207.012C206.932 30.9716 206.75 30.6634 206.465 30.4048C206.183 30.1463 205.805 30.017 205.331 30.017C204.917 30.017 204.554 30.1264 204.243 30.3452C203.934 30.5606 203.694 30.8688 203.522 31.2699C203.349 31.6676 203.263 32.1383 203.263 32.6818C203.263 33.2386 203.348 33.7192 203.517 34.1236C203.686 34.5279 203.924 34.8411 204.233 35.0632C204.544 35.2853 204.91 35.3963 205.331 35.3963C205.613 35.3963 205.868 35.3449 206.097 35.2422C206.329 35.1361 206.523 34.9853 206.679 34.7898C206.838 34.5942 206.949 34.3589 207.012 34.0838H208.458C208.405 34.5777 208.245 35.0185 207.976 35.4062C207.708 35.794 207.348 36.099 206.897 36.321C206.45 36.5431 205.925 36.6541 205.321 36.6541ZM213.265 36.6541C212.526 36.6541 211.889 36.4867 211.356 36.152C210.825 35.8139 210.418 35.3482 210.133 34.755C209.848 34.1617 209.705 33.4822 209.705 32.7166C209.705 31.9411 209.851 31.2566 210.143 30.6634C210.434 30.0668 210.845 29.6011 211.376 29.2663C211.906 28.9316 212.531 28.7642 213.25 28.7642C213.83 28.7642 214.347 28.8719 214.801 29.0874C215.255 29.2995 215.621 29.5978 215.9 29.9822C216.181 30.3667 216.349 30.8158 216.402 31.3295H214.955C214.876 30.9716 214.693 30.6634 214.408 30.4048C214.126 30.1463 213.749 30.017 213.275 30.017C212.86 30.017 212.497 30.1264 212.186 30.3452C211.878 30.5606 211.637 30.8688 211.465 31.2699C211.293 31.6676 211.206 32.1383 211.206 32.6818C211.206 33.2386 211.291 33.7192 211.46 34.1236C211.629 34.5279 211.868 34.8411 212.176 35.0632C212.488 35.2853 212.854 35.3963 213.275 35.3963C213.556 35.3963 213.812 35.3449 214.04 35.2422C214.272 35.1361 214.466 34.9853 214.622 34.7898C214.781 34.5942 214.892 34.3589 214.955 34.0838H216.402C216.349 34.5777 216.188 35.0185 215.92 35.4062C215.651 35.794 215.291 36.099 214.841 36.321C214.393 36.5431 213.868 36.6541 213.265 36.6541ZM221.208 36.6541C220.492 36.6541 219.867 36.4901 219.334 36.1619C218.8 35.8338 218.386 35.3748 218.091 34.7848C217.796 34.1948 217.648 33.5054 217.648 32.7166C217.648 31.9245 217.796 31.2318 218.091 30.6385C218.386 30.0452 218.8 29.5845 219.334 29.2564C219.867 28.9283 220.492 28.7642 221.208 28.7642C221.924 28.7642 222.549 28.9283 223.082 29.2564C223.616 29.5845 224.03 30.0452 224.325 30.6385C224.62 31.2318 224.768 31.9245 224.768 32.7166C224.768 33.5054 224.62 34.1948 224.325 34.7848C224.03 35.3748 223.616 35.8338 223.082 36.1619C222.549 36.4901 221.924 36.6541 221.208 36.6541ZM221.213 35.4062C221.677 35.4062 222.062 35.2836 222.366 35.0384C222.671 34.7931 222.897 34.4666 223.043 34.0589C223.192 33.6513 223.266 33.2022 223.266 32.7116C223.266 32.2244 223.192 31.777 223.043 31.3693C222.897 30.9583 222.671 30.6286 222.366 30.38C222.062 30.1314 221.677 30.0071 221.213 30.0071C220.746 30.0071 220.358 30.1314 220.05 30.38C219.745 30.6286 219.518 30.9583 219.369 31.3693C219.223 31.777 219.15 32.2244 219.15 32.7116C219.15 33.2022 219.223 33.6513 219.369 34.0589C219.518 34.4666 219.745 34.7931 220.05 35.0384C220.358 35.2836 220.746 35.4062 221.213 35.4062ZM231.264 33.3331V28.8636H232.756V36.5H231.294V35.1776H231.215C231.039 35.5852 230.757 35.925 230.369 36.1967C229.985 36.4652 229.506 36.5994 228.933 36.5994C228.442 36.5994 228.008 36.4917 227.63 36.2763C227.256 36.0575 226.961 35.7344 226.745 35.3068C226.533 34.8793 226.427 34.3506 226.427 33.7209V28.8636H227.914V33.5419C227.914 34.0623 228.058 34.4766 228.346 34.7848C228.634 35.093 229.009 35.2472 229.47 35.2472C229.748 35.2472 230.025 35.1776 230.3 35.0384C230.578 34.8991 230.809 34.6887 230.991 34.407C231.177 34.1252 231.268 33.7673 231.264 33.3331ZM236.24 31.9659V36.5H234.753V28.8636H236.18V30.1065H236.275C236.45 29.7022 236.725 29.3774 237.1 29.1321C237.478 28.8868 237.953 28.7642 238.527 28.7642C239.047 28.7642 239.503 28.8736 239.894 29.0923C240.285 29.3078 240.588 29.6293 240.804 30.0568C241.019 30.4844 241.127 31.013 241.127 31.6428V36.5H239.64V31.8217C239.64 31.2682 239.496 30.8357 239.208 30.5241C238.919 30.2093 238.523 30.0518 238.02 30.0518C237.675 30.0518 237.368 30.1264 237.1 30.2756C236.835 30.4247 236.624 30.6435 236.468 30.9318C236.316 31.2169 236.24 31.5616 236.24 31.9659ZM246.685 28.8636V30.0568H242.514V28.8636H246.685ZM243.632 27.0341H245.119V34.2578C245.119 34.5462 245.162 34.7633 245.248 34.9091C245.334 35.0516 245.445 35.1494 245.581 35.2024C245.721 35.2521 245.871 35.277 246.034 35.277C246.153 35.277 246.257 35.2687 246.347 35.2521C246.436 35.2356 246.506 35.2223 246.556 35.2124L246.824 36.4403C246.738 36.4735 246.615 36.5066 246.456 36.5398C246.297 36.5762 246.098 36.5961 245.86 36.5994C245.469 36.6061 245.104 36.5365 244.766 36.3906C244.428 36.2448 244.154 36.0194 243.946 35.7145C243.737 35.4096 243.632 35.0268 243.632 34.5661V27.0341Z" fill="#0094FE"/>
</g>
<defs>
<filter id="filter0_d_442_1614" x="0" y="0.5" width="359" height="74" filterUnits="userSpaceOnUse" color-interpolation-filters="sRGB">
<feFlood flood-opacity="0" result="BackgroundImageFix"/>
<feColorMatrix in="SourceAlpha" type="matrix" values="0 0 0 0 0 0 0 0 0 0 0 0 0 0 0 0 0 0 127 0" result="hardAlpha"/>
<feOffset dy="6"/>
<feGaussianBlur stdDeviation="6"/>
<feComposite in2="hardAlpha" operator="out"/>
<feColorMatrix type="matrix" values="0 0 0 0 0 0 0 0 0 0 0 0 0 0 0 0 0 0 0.06 0"/>
<feBlend mode="normal" in2="BackgroundImageFix" result="effect1_dropShadow_442_1614"/>
<feBlend mode="normal" in="SourceGraphic" in2="effect1_dropShadow_442_1614" result="shape"/>
</filter>
</defs>
</svg>
