<svg width="25" height="25" viewBox="0 0 25 25" fill="none" xmlns="http://www.w3.org/2000/svg">
<g clip-path="url(#clip0_1629_300)">
<path fill-rule="evenodd" clip-rule="evenodd" d="M2.5 12.5C2.5 6.97715 6.97715 2.5 12.5 2.5C18.0228 2.5 22.5 6.97715 22.5 12.5C22.5 18.0228 18.0228 22.5 12.5 22.5C6.97715 22.5 2.5 18.0228 2.5 12.5ZM12.5 8.5C12.5 7.94772 12.0523 7.5 11.5 7.5C10.9477 7.5 10.5 7.94772 10.5 8.5V13.5C10.5 14.0523 10.9477 14.5 11.5 14.5H16.5C17.0523 14.5 17.5 14.0523 17.5 13.5C17.5 12.9477 17.0523 12.5 16.5 12.5H12.5V8.5Z" fill="#147FFD"/>
</g>
<defs>
<clipPath id="clip0_1629_300">
<rect width="24" height="24" fill="white" transform="translate(0.5 0.5)"/>
</clipPath>
</defs>
</svg>
