<svg width="25" height="25" viewBox="0 0 25 25" fill="none" xmlns="http://www.w3.org/2000/svg">
<g id="Icon Frame">
<path id="Subtract" fill-rule="evenodd" clip-rule="evenodd" d="M4.5 3.47266C4.5 2.92037 4.94772 2.47266 5.5 2.47266H19.5C20.0523 2.47266 20.5 2.92037 20.5 3.47266V21.4727C20.5 21.8632 20.2727 22.218 19.9179 22.3812C19.5631 22.5444 19.1457 22.4861 18.8492 22.2319L17.8175 21.3476C17.443 21.0266 16.8904 21.0266 16.5159 21.3476L15.4841 22.2319C15.1096 22.5529 14.557 22.5529 14.1825 22.2319L13.1508 21.3476C12.7763 21.0266 12.2237 21.0266 11.8492 21.3476L10.8175 22.2319C10.443 22.5529 9.89036 22.5529 9.51588 22.2319L8.48412 21.3476C8.10963 21.0266 7.55703 21.0266 7.18254 21.3476L6.15079 22.2319C5.85428 22.4861 5.43694 22.5444 5.08214 22.3812C4.72734 22.218 4.5 21.8632 4.5 21.4727V3.47266ZM9.5 6.47266C8.94772 6.47266 8.5 6.92037 8.5 7.47266C8.5 8.02494 8.94772 8.47266 9.5 8.47266H15.5C16.0523 8.47266 16.5 8.02494 16.5 7.47266C16.5 6.92037 16.0523 6.47266 15.5 6.47266H9.5ZM9.5 10.4727C8.94772 10.4727 8.5 10.9204 8.5 11.4727C8.5 12.0249 8.94772 12.4727 9.5 12.4727H15.5C16.0523 12.4727 16.5 12.0249 16.5 11.4727C16.5 10.9204 16.0523 10.4727 15.5 10.4727H9.5ZM10.5 15.4727C10.5 14.9204 10.9477 14.4727 11.5 14.4727H15.5C16.0523 14.4727 16.5 14.9204 16.5 15.4727C16.5 16.0249 16.0523 16.4727 15.5 16.4727H11.5C10.9477 16.4727 10.5 16.0249 10.5 15.4727Z" fill="#0094FE"/>
</g>
</svg>
