<svg width="25" height="25" viewBox="0 0 25 25" fill="none" xmlns="http://www.w3.org/2000/svg">
<g id="Icon Frame">
<path id="Subtract" fill-rule="evenodd" clip-rule="evenodd" d="M2.5 5.47266C2.5 4.92037 2.94772 4.47266 3.5 4.47266H21.5C22.0523 4.47266 22.5 4.92037 22.5 5.47266V8.47266H21.5H12.5H3.5H2.5V5.47266ZM2.5 10.4727V17.4727C2.5 19.1295 3.84315 20.4727 5.5 20.4727H19.5C21.1569 20.4727 22.5 19.1295 22.5 17.4727V10.4727H21.5H12.5H3.5H2.5ZM6.5 13.4727C6.5 12.9204 6.94772 12.4727 7.5 12.4727H10.5C11.0523 12.4727 11.5 12.9204 11.5 13.4727C11.5 14.0249 11.0523 14.4727 10.5 14.4727H7.5C6.94772 14.4727 6.5 14.0249 6.5 13.4727Z" fill="#0094FE"/>
</g>
</svg>
