<svg width="13" height="12" viewBox="0 0 13 12" fill="none" xmlns="http://www.w3.org/2000/svg">
<g clip-path="url(#clip0_1773_1521)">
<path fill-rule="evenodd" clip-rule="evenodd" d="M11.4964 6.00391C11.4964 8.76533 9.25782 11.0039 6.4964 11.0039C3.73498 11.0039 1.4964 8.76533 1.4964 6.00391C1.4964 3.24248 3.73498 1.00391 6.4964 1.00391C9.25782 1.00391 11.4964 3.24248 11.4964 6.00391ZM12.4964 6.00391C12.4964 9.31761 9.81011 12.0039 6.4964 12.0039C3.18269 12.0039 0.496399 9.31761 0.496399 6.00391C0.496399 2.6902 3.18269 0.00390625 6.4964 0.00390625C9.81011 0.00390625 12.4964 2.6902 12.4964 6.00391ZM7.36009 7.68501C7.71929 7.56022 8.02913 7.32376 8.24428 7.01021L9.3653 7.77896C9.10405 8.15984 8.76216 8.47853 8.36389 8.71241C7.96563 8.94629 7.52076 9.08963 7.06087 9.13224C6.60098 9.17486 6.13735 9.11571 5.70289 8.95899C5.26843 8.80227 4.8738 8.55183 4.54701 8.22545C3.321 6.99943 3.321 5.0049 4.54701 3.77889C5.77303 2.55287 7.76756 2.55287 8.99358 3.77889C9.13087 3.91606 9.25523 4.0656 9.36506 4.22561L8.24428 4.99459C8.02913 4.68105 7.71929 4.44458 7.36009 4.31979C7.00088 4.19501 6.61117 4.18845 6.24797 4.30108C5.88477 4.4137 5.56715 4.63961 5.34157 4.94573C5.11599 5.25186 4.9943 5.62214 4.9943 6.0024C4.9943 6.38266 5.11599 6.75295 5.34157 7.05907C5.56715 7.3652 5.88477 7.5911 6.24797 7.70373C6.61117 7.81636 7.00088 7.8098 7.36009 7.68501Z" fill="#888B92"/>
</g>
<defs>
<clipPath id="clip0_1773_1521">
<rect width="12" height="12" fill="white" transform="translate(0.5)"/>
</clipPath>
</defs>
</svg>
