<svg width="60" height="61" viewBox="0 0 60 61" fill="none" xmlns="http://www.w3.org/2000/svg">
<path d="M30 60.5156C46.5685 60.5156 60 47.0842 60 30.5156C60 13.9471 46.5685 0.515625 30 0.515625C13.4315 0.515625 0 13.9471 0 30.5156C0 47.0842 13.4315 60.5156 30 60.5156Z" fill="url(#paint0_linear_2432_1870)"/>
<path d="M40.7426 18.6727V18.6668H35.8207V17.052C35.8207 16.7424 35.7597 16.4358 35.6412 16.1498C35.5227 15.8638 35.349 15.604 35.13 15.3851C34.9111 15.1663 34.6512 14.9927 34.3651 14.8744C34.079 14.756 33.7725 14.6952 33.4629 14.6953H26.5371C25.9121 14.6953 25.3127 14.9436 24.8707 15.3856C24.4288 15.8275 24.1805 16.4269 24.1805 17.052V18.6668H19.2586V18.6727C18.4581 18.721 17.7063 19.0731 17.1566 19.657C16.6069 20.2409 16.3008 21.0125 16.3008 21.8145V21.9117C16.3008 22.7136 16.6069 23.4853 17.1566 24.0692C17.7063 24.6531 18.4581 25.0051 19.2586 25.0535V41.7563C19.2586 42.9707 19.7409 44.1353 20.5995 44.9942C21.4581 45.853 22.6227 46.3356 23.8371 46.3359H36.1629C37.3775 46.3359 38.5424 45.8534 39.4012 44.9946C40.2601 44.1357 40.7426 42.9709 40.7426 41.7563V25.0535C41.543 25.0051 42.2949 24.6531 42.8446 24.0692C43.3942 23.4853 43.7004 22.7136 43.7004 21.9117V21.8145C43.7004 21.0125 43.3942 20.2409 42.8446 19.657C42.2949 19.0731 41.543 18.721 40.7426 18.6727ZM27.4477 39.2379C27.4478 39.4196 27.4122 39.5995 27.3427 39.7674C27.2733 39.9353 27.1715 40.0879 27.0431 40.2164C26.9146 40.345 26.7621 40.4469 26.5943 40.5165C26.4264 40.5861 26.2465 40.6219 26.0648 40.6219C25.6978 40.6219 25.3458 40.4761 25.0862 40.2165C24.8267 39.957 24.6809 39.6049 24.6809 39.2379V28.691C24.6809 28.324 24.8267 27.9719 25.0862 27.7124C25.3458 27.4528 25.6978 27.307 26.0648 27.307C26.2465 27.307 26.4264 27.3428 26.5943 27.4124C26.7621 27.482 26.9146 27.5839 27.0431 27.7125C27.1715 27.841 27.2733 27.9936 27.3427 28.1615C27.4122 28.3294 27.4478 28.5093 27.4477 28.691V39.2379ZM35.3191 39.2379C35.3191 39.6049 35.1733 39.957 34.9138 40.2165C34.6542 40.4761 34.3022 40.6219 33.9352 40.6219C33.7535 40.6219 33.5736 40.5861 33.4057 40.5165C33.2379 40.4469 33.0854 40.345 32.9569 40.2164C32.8285 40.0879 32.7267 39.9353 32.6573 39.7674C32.5878 39.5995 32.5522 39.4196 32.5523 39.2379V28.691C32.5522 28.5093 32.5878 28.3294 32.6573 28.1615C32.7267 27.9936 32.8285 27.841 32.9569 27.7125C33.0854 27.5839 33.2379 27.482 33.4057 27.4124C33.5736 27.3428 33.7535 27.307 33.9352 27.307C34.3022 27.307 34.6542 27.4528 34.9138 27.7124C35.1733 27.9719 35.3191 28.324 35.3191 28.691V39.2379Z" fill="white"/>
<defs>
<linearGradient id="paint0_linear_2432_1870" x1="8.78672" y1="9.30234" x2="51.2133" y2="51.7289" gradientUnits="userSpaceOnUse">
<stop stop-color="#FF6432"/>
<stop offset="1" stop-color="#F44336"/>
</linearGradient>
</defs>
</svg>
