<svg width="18" height="15" viewBox="0 0 18 15" fill="none" xmlns="http://www.w3.org/2000/svg">
<g id="eye">
<path id="Vector" fill-rule="evenodd" clip-rule="evenodd" d="M2.1197 0L1.02051 1.08126L15.1652 15L16.2644 13.9184L2.1197 0Z" fill="black" fill-opacity="0.6"/>
<path id="Vector_2" d="M3.34278 3.3662L4.37737 4.38424C3.24482 5.33314 2.34297 6.51428 1.76019 7.54769L1.75841 7.55118C3.38146 10.2215 5.95677 12.7451 9.20713 12.3624C10.0845 12.259 10.9029 11.9639 11.6508 11.5416L12.6981 12.5719C11.2405 13.4925 9.56951 13.9801 7.75906 13.7391C4.4945 13.3046 1.82514 10.6699 0.142456 7.57563C0.93251 6.01137 2.01324 4.51486 3.34278 3.3662ZM5.6959 1.85747C6.60876 1.45723 7.5965 1.22184 8.65133 1.20508C8.70989 1.20473 9.40518 1.23721 9.72035 1.2882C9.91804 1.32033 10.115 1.36049 10.3092 1.41044C13.4059 2.20427 15.7001 4.78029 17.1425 7.43419C16.5373 8.63663 15.7448 9.81009 14.7996 10.8156L13.7963 9.82825C14.4944 9.08785 15.0765 8.26364 15.5247 7.46422C15.5247 7.46422 15.074 6.75106 14.7322 6.30334C14.5125 6.01556 14.2814 5.73616 14.0387 5.4669C13.847 5.25456 13.1027 4.53337 12.9256 4.3832C11.7374 3.37772 10.3422 2.58878 8.66872 2.60205C8.02063 2.61218 7.39739 2.73791 6.80574 2.94955L5.6959 1.85747Z" fill="black" fill-opacity="0.6"/>
<path id="Vector_3" fill-rule="evenodd" clip-rule="evenodd" d="M6.15908 6.13802L6.95776 6.9236L10.032 9.94862C9.62098 10.1756 9.1468 10.3048 8.64246 10.3048C7.07193 10.3048 5.79706 9.05036 5.79706 7.50496C5.79706 7.00869 5.92873 6.54245 6.15908 6.13802ZM8.58993 4.70578C8.60732 4.70543 8.62507 4.70508 8.64246 4.70508C10.213 4.70508 11.4879 5.95991 11.4879 7.50496C11.4879 7.52242 11.4879 7.53954 11.4875 7.55665L8.58993 4.70578Z" fill="black" fill-opacity="0.6"/>
</g>
</svg>
