<svg width="56" height="57" viewBox="0 0 56 57" fill="none" xmlns="http://www.w3.org/2000/svg">
<rect y="0.78125" width="56" height="56" rx="9.33333" fill="#0094FE"/>
<path d="M32.7551 33.1641C32.3476 34.0067 31.8772 34.8174 31.3479 35.5894C31.8154 36.9436 32.5872 38.1726 33.6039 39.1819C34.4857 40.0638 35.5338 40.7622 36.6873 41.2364C37.1635 40.7612 37.6 40.2479 37.9927 39.7017C36.5724 39.2497 35.3174 38.388 34.3854 37.2247C33.4535 36.0615 32.8863 34.6488 32.7551 33.1641V33.1641Z" fill="white"/>
<path d="M36.5063 32.5217V24.9863C36.5063 22.7304 35.6101 20.5669 34.015 18.9718C32.4198 17.3766 30.2563 16.4805 28.0005 16.4805C25.7446 16.4805 23.5811 17.3766 21.9859 18.9718C20.3908 20.5669 19.4946 22.7304 19.4946 24.9863C19.4921 25.987 19.0926 26.9457 18.3839 27.6522C17.6753 28.3587 16.7153 28.7551 15.7146 28.7545V30.6386C17.2156 30.6395 18.6557 30.0448 19.7188 28.9852C20.7819 27.9255 21.3812 26.4873 21.3852 24.9863C21.3852 23.2317 22.0822 21.5489 23.3229 20.3082C24.5636 19.0675 26.2464 18.3705 28.001 18.3705C29.7556 18.3705 31.4384 19.0675 32.6791 20.3082C33.9198 21.5489 34.6168 23.2317 34.6168 24.9863V32.5217C34.6201 33.7997 35.0554 35.0391 35.8519 36.0385C36.6484 37.038 37.7594 37.7388 39.0045 38.0272C39.2915 37.4538 39.5327 36.8585 39.7258 36.247C38.8324 36.1135 38.0164 35.6643 37.4258 34.9809C36.8351 34.2974 36.5089 33.425 36.5063 32.5217Z" fill="white"/>
<path d="M32.2674 40.5104C31.6361 39.882 31.0807 39.1817 30.6127 38.4237L29.9836 37.4023L29.0844 38.3058C26.951 40.4397 24.3357 42.0292 21.459 42.94C22.1962 43.4047 22.9809 43.7895 23.7997 44.0878C25.946 43.1854 27.9246 41.9274 29.6524 40.3668C30.0419 40.8897 30.4692 41.3833 30.931 41.8436C31.6225 42.5327 32.3877 43.1437 33.2127 43.6656C33.8716 43.3569 34.5017 42.9903 35.0958 42.5703C34.0523 42.0338 33.0982 41.3389 32.2674 40.5104Z" fill="white"/>
<path d="M28.001 12.7383C24.749 12.7366 21.629 14.0249 19.3257 16.3206C17.0223 18.6163 15.7237 21.7319 15.7146 24.9839L15.7146 26.8681C16.215 26.8683 16.695 26.6701 17.0495 26.3169C17.4039 25.9637 17.6037 25.4843 17.6051 24.9839C17.6051 22.2268 18.7004 19.5826 20.65 17.633C22.5996 15.6834 25.2438 14.5881 28.001 14.5881C30.7581 14.5881 33.4024 15.6834 35.352 17.633C37.3016 19.5826 38.3968 22.2268 38.3968 24.9839V32.5193C38.398 32.996 38.5794 33.4545 38.9046 33.8029C39.2298 34.1514 39.6748 34.364 40.1502 34.3981C40.2402 33.7971 40.2853 33.1902 40.2852 32.5826V24.9839C40.2761 21.7323 38.9778 18.617 36.6749 16.3214C34.372 14.0257 31.2526 12.7371 28.001 12.7383Z" fill="white"/>
<path d="M28.001 20.2773C26.7502 20.2768 25.5502 20.7724 24.6644 21.6554C23.7785 22.5385 23.2791 23.7368 23.2757 24.9876C23.27 26.9888 22.4708 28.9061 21.0533 30.3188C19.6358 31.7314 17.7158 32.5241 15.7146 32.523V32.5862C15.7145 33.1961 15.76 33.8051 15.8507 34.4082C18.3098 34.3814 20.6606 33.3923 22.399 31.6528C23.2789 30.7807 23.9766 29.7423 24.4515 28.598C24.9264 27.4538 25.169 26.2265 25.1652 24.9876C25.1652 24.2357 25.4639 23.5145 25.9956 22.9828C26.5273 22.4511 27.2485 22.1523 28.0005 22.1523C28.7524 22.1523 29.4736 22.4511 30.0053 22.9828C30.537 23.5145 30.8357 24.2357 30.8357 24.9876C30.826 28.5717 29.5426 32.0356 27.2149 34.7608C24.8872 37.4861 21.6666 39.2953 18.1282 39.8655C18.5662 40.4517 19.0554 40.998 19.59 41.4977C22.6794 40.7846 25.506 39.217 27.747 36.9739C29.3296 35.4055 30.5848 33.5382 31.4395 31.4805C32.2943 29.4228 32.7317 27.2158 32.7263 24.9876C32.7229 23.7368 32.2235 22.5385 31.3376 21.6554C30.4517 20.7724 29.2518 20.2768 28.001 20.2773Z" fill="white"/>
<path d="M29.5941 43.1775L29.4227 43.0039C28.5665 43.6534 27.665 44.2407 26.7251 44.7616C27.1492 44.8049 27.5752 44.8264 28.0015 44.8259C29.0269 44.8266 30.0483 44.6991 31.0421 44.4465C30.5333 44.0542 30.0497 43.6304 29.5941 43.1775Z" fill="white"/>
<path d="M28.0001 24.0391C27.8761 24.0388 27.7533 24.0629 27.6387 24.1101C27.5241 24.1573 27.42 24.2267 27.3322 24.3142C27.2444 24.4017 27.1747 24.5056 27.1271 24.62C27.0795 24.7345 27.0549 24.8572 27.0548 24.9811C27.0469 27.8841 25.9254 30.6735 23.9216 32.774C21.9177 34.8745 19.1843 36.1261 16.2849 36.2708C16.4846 36.9015 16.7355 37.5147 17.0351 38.1045C20.074 37.8108 22.9158 36.4687 25.0732 34.3084C26.3043 33.0884 27.2807 31.6358 27.9457 30.0352C28.6106 28.4345 28.9508 26.7176 28.9464 24.9843C28.9467 24.86 28.9224 24.7369 28.8749 24.622C28.8275 24.5071 28.7577 24.4028 28.6698 24.3149C28.5819 24.2271 28.4774 24.1575 28.3625 24.1101C28.2475 24.0628 28.1244 24.0386 28.0001 24.0391Z" fill="white"/>
</svg>
