<svg width="25" height="24" viewBox="0 0 25 24" fill="none" xmlns="http://www.w3.org/2000/svg">
<g id="Icon Frame">
<path id="Union" fill-rule="evenodd" clip-rule="evenodd" d="M13.2071 2.29289C12.8166 1.90237 12.1834 1.90237 11.7929 2.29289L4.79325 9.29254L4.79254 9.29325L2.79289 11.2929C2.40237 11.6834 2.40237 12.3166 2.79289 12.7071C3.18342 13.0976 3.81658 13.0976 4.20711 12.7071L4.5 12.4142V19C4.5 20.6569 5.84315 22 7.5 22H17.5C19.1569 22 20.5 20.6569 20.5 19V12.4142L20.7929 12.7071C21.1834 13.0976 21.8166 13.0976 22.2071 12.7071C22.5976 12.3166 22.5976 11.6834 22.2071 11.2929L13.2071 2.29289Z" fill="#147FFD"/>
</g>
</svg>
