<svg width="21" height="5" viewBox="0 0 21 5" fill="none" xmlns="http://www.w3.org/2000/svg">
<path id="Union" fill-rule="evenodd" clip-rule="evenodd" d="M4.74499 2.46777C4.74499 1.22513 3.73763 0.217773 2.49499 0.217773H2.48499C1.24234 0.217773 0.234985 1.22513 0.234985 2.46777V2.47777C0.234985 3.72041 1.24234 4.72777 2.48499 4.72777L2.49499 4.72777C3.73763 4.72777 4.74499 3.72041 4.74499 2.47777L4.74499 2.46777ZM10.505 0.217773C11.7476 0.217773 12.755 1.22513 12.755 2.46777V2.47777C12.755 3.72041 11.7476 4.72777 10.505 4.72777L10.495 4.72777C9.25236 4.72777 8.245 3.72041 8.245 2.47777V2.46777C8.245 1.22513 9.25236 0.217773 10.495 0.217773H10.505ZM18.515 0.217773C19.7577 0.217773 20.765 1.22513 20.765 2.46777V2.47777C20.765 3.72041 19.7577 4.72777 18.515 4.72777L18.505 4.72777C17.2624 4.72777 16.255 3.72041 16.255 2.47777V2.46777C16.255 1.22513 17.2624 0.217773 18.505 0.217773H18.515Z" fill="#0094FE"/>
</svg>
