<svg width="25" height="24" viewBox="0 0 25 24" fill="none" xmlns="http://www.w3.org/2000/svg">
<g id="Icon Frame">
<path id="Union" fill-rule="evenodd" clip-rule="evenodd" d="M9 1C7.067 1 5.5 2.567 5.5 4.5C5.5 5.0368 5.62085 5.54537 5.83682 6H3.5C2.94772 6 2.5 6.44772 2.5 7V11C2.5 11.5523 2.94772 12 3.5 12V19C3.5 20.6569 4.84315 22 6.5 22H12.5H18.5C20.1569 22 21.5 20.6569 21.5 19V12C22.0523 12 22.5 11.5523 22.5 11V7C22.5 6.44772 22.0523 6 21.5 6H19.1632C19.3792 5.54537 19.5 5.0368 19.5 4.5C19.5 2.567 17.933 1 16 1C14.5864 1 13.325 1.65183 12.5 2.67134C11.675 1.65183 10.4136 1 9 1ZM13.5 20H18.5C19.0523 20 19.5 19.5523 19.5 19V12H13.5V20ZM11.5 12V20H6.5C5.94772 20 5.5 19.5523 5.5 19V12H11.5ZM16 6C16.8284 6 17.5 5.32843 17.5 4.5C17.5 3.67157 16.8284 3 16 3C14.6193 3 13.5 4.11929 13.5 5.5V6H16ZM11.5 6V5.5C11.5 4.11929 10.3807 3 9 3C8.17157 3 7.5 3.67157 7.5 4.5C7.5 5.32843 8.17157 6 9 6H11.5Z" fill="#888B92"/>
</g>
</svg>
