<svg width="29" height="27" viewBox="0 0 29 27" fill="none" xmlns="http://www.w3.org/2000/svg">
<g id="GlobeHemisphereWest">
<path id="Vector" d="M13.5 2.91016C11.4109 2.91016 9.36879 3.52964 7.63179 4.69026C5.8948 5.85088 4.54098 7.50052 3.74153 9.43056C2.94208 11.3606 2.7329 13.4844 3.14046 15.5333C3.54802 17.5822 4.554 19.4643 6.03119 20.9415C7.50838 22.4187 9.39044 23.4246 11.4394 23.8322C13.4883 24.2398 15.6121 24.0306 17.5421 23.2311C19.4721 22.4317 21.1218 21.0779 22.2824 19.3409C23.443 17.6039 24.0625 15.5617 24.0625 13.4727C24.0595 10.6722 22.9458 7.98732 20.9656 6.00711C18.9853 4.02689 16.3004 2.91311 13.5 2.91016ZM22.4375 13.4727C22.4384 14.6193 22.2177 15.7553 21.7875 16.8181L17.2477 14.0262C17.0546 13.9071 16.8387 13.8299 16.6139 13.7997L14.2963 13.4869C13.9769 13.4452 13.6523 13.4988 13.3633 13.6408C13.0742 13.7828 12.8335 14.0069 12.6713 14.2852H11.7856L11.3997 13.4869C11.293 13.2646 11.1368 13.0697 10.9432 12.9171C10.7496 12.7644 10.5236 12.6581 10.2825 12.6063L9.47 12.4306L10.2642 11.0352H11.9613C12.236 11.0346 12.506 10.9647 12.7464 10.832L13.9906 10.1455C14.0999 10.0845 14.202 10.0116 14.2952 9.92812L17.0283 7.45609C17.3023 7.21053 17.4844 6.87889 17.5446 6.5159C17.6048 6.15291 17.5395 5.78024 17.3594 5.45937L17.3228 5.39336C18.8521 6.11851 20.1445 7.26251 21.0498 8.69257C21.9551 10.1226 22.4363 11.7801 22.4375 13.4727ZM4.5625 13.4727C4.56115 12.1442 4.85752 10.8324 5.42985 9.63359L6.58157 12.7079C6.67755 12.9624 6.83589 13.1888 7.04209 13.3662C7.24828 13.5437 7.49572 13.6665 7.76172 13.7235L9.93821 14.1917L10.3252 14.9961C10.4595 15.2697 10.6676 15.5002 10.926 15.6618C11.1844 15.8233 11.4829 15.9093 11.7877 15.9102H11.938L11.2037 17.5585C11.0743 17.8488 11.0329 18.1706 11.0845 18.4841C11.1361 18.7977 11.2785 19.0892 11.4941 19.3227L11.5084 19.3369L13.5 21.3884L13.303 22.4041C10.9689 22.3497 8.74846 21.3854 7.1155 19.7167C5.48254 18.0481 4.56638 15.8074 4.5625 13.4727Z" fill="#0094FE"/>
<g id="Group 36709">
<path id="Vector_2" d="M20.2364 10.3814L23.3277 13.4727M23.3277 13.4727L26.419 10.3814M23.3277 13.4727V4.82044" stroke="#E1EFFF" stroke-width="5" stroke-linecap="round" stroke-linejoin="round"/>
<path id="Vector_3" d="M20.2364 10.3814L23.3277 13.4727M23.3277 13.4727L26.419 10.3814M23.3277 13.4727V4.82044" stroke="#0094FE" stroke-width="2" stroke-linecap="round" stroke-linejoin="round"/>
</g>
</g>
</svg>
