<svg width="20" height="18" viewBox="0 0 20 18" fill="none" xmlns="http://www.w3.org/2000/svg">
<g id="ESSENTIAL UI">
<path id="Vector" d="M19.8468 6.22728C19.7058 4.98113 18.4089 3.80843 17.0779 3.66507C16.3303 3.59189 15.5823 3.53056 14.8341 3.48107C14.4806 2.84824 14.1278 2.21032 13.7813 1.57006C13.4766 1.00988 12.9426 0.625883 12.3938 0.595413C11.2914 0.509862 8.70847 0.509862 7.60608 0.595413C7.05723 0.626273 6.52283 1.01105 6.21853 1.57201C5.89586 2.16761 5.56915 2.76151 5.23841 3.35373C5.21743 3.39199 5.18743 3.42455 5.15101 3.44858C5.11459 3.47262 5.07285 3.48739 5.02942 3.49162C4.32626 3.5398 3.62376 3.59814 2.92191 3.66663C1.591 3.80999 0.294071 4.98231 0.15305 6.22884C-0.139075 9.0006 -0.0125234 11.8005 0.528456 14.5346C0.645648 15.139 1.03629 15.7597 1.57459 16.2714C2.11289 16.7832 2.75081 17.1355 3.35513 17.2285C7.75883 17.9094 12.241 17.9094 16.6447 17.2285C17.249 17.1355 17.8862 16.7796 18.4253 16.2699C18.9643 15.7601 19.3526 15.137 19.4714 14.5331C20.0124 11.799 20.1389 8.99903 19.8468 6.22728Z" fill="#4193D2"/>
<path id="Vector_2" d="M13.7815 1.57006C13.4768 1.00988 12.9428 0.625883 12.3939 0.595413C11.2915 0.509862 8.70862 0.509862 7.60623 0.595413C7.05738 0.626273 6.52298 1.01105 6.21867 1.57201C5.89601 2.16761 5.5693 2.76151 5.23856 3.35373C5.21758 3.39199 5.18758 3.42455 5.15116 3.44858C5.11474 3.47261 5.073 3.48739 5.02956 3.49162C4.32641 3.5398 3.62391 3.59814 2.92206 3.66663C1.59115 3.80999 0.294221 4.98231 0.1532 6.22884C-0.116619 8.78402 -0.0297149 11.3643 0.411414 13.8955C1.76386 14.4778 3.22115 14.7772 4.69361 14.7753C10.6751 14.7753 15.5237 9.92625 15.5237 3.94516C15.5237 3.80661 15.5211 3.66871 15.5159 3.53147C15.2886 3.51428 15.0613 3.498 14.8342 3.48264C14.4807 2.84824 14.128 2.21032 13.7815 1.57006Z" fill="#48A4DF"/>
<path id="Vector_3" d="M9.96712 15.1816C7.66234 15.1714 5.60249 13.1093 5.55288 10.7431C5.53257 8.37664 7.59359 6.35469 9.96712 6.34375C12.3395 6.35469 14.4005 8.37508 14.3814 10.7431C14.3317 13.1093 12.2703 15.1711 9.96712 15.1816Z" fill="#F9F9F9"/>
<path id="Vector_4" d="M16.0255 7.39667C15.8254 7.3805 15.6341 7.30739 15.4742 7.18596C15.3143 7.06454 15.1925 6.89988 15.1232 6.71144C15.0539 6.523 15.04 6.31867 15.0831 6.12258C15.1263 5.92649 15.2246 5.74685 15.3666 5.60488C15.5086 5.46291 15.6882 5.36455 15.8843 5.32142C16.0804 5.2783 16.2847 5.2922 16.4732 5.3615C16.6616 5.4308 16.8263 5.55259 16.9477 5.71248C17.0691 5.87238 17.1422 6.06369 17.1584 6.26381C17.1701 6.41557 17.1489 6.56807 17.0961 6.71084C17.0433 6.8536 16.9602 6.98325 16.8526 7.09088C16.745 7.19851 16.6153 7.28157 16.4726 7.33435C16.3298 7.38714 16.1773 7.4084 16.0255 7.39667Z" fill="white"/>
<path id="Vector_5" d="M8.29311 10.342C8.09299 10.3258 7.90167 10.2527 7.74178 10.1313C7.58189 10.0099 7.46009 9.84519 7.3908 9.65675C7.3215 9.46832 7.30759 9.26398 7.35072 9.06789C7.39385 8.87181 7.49221 8.69216 7.63418 8.5502C7.77615 8.40823 7.95579 8.30987 8.15188 8.26674C8.34797 8.22361 8.5523 8.23751 8.74074 8.30681C8.92917 8.37611 9.09383 8.4979 9.21526 8.6578C9.33669 8.81769 9.4098 9.009 9.42597 9.20912C9.43769 9.36088 9.41644 9.51338 9.36365 9.65615C9.31087 9.79891 9.22781 9.92857 9.12018 10.0362C9.01255 10.1438 8.8829 10.2269 8.74013 10.2797C8.59737 10.3325 8.44487 10.3537 8.29311 10.342Z" fill="#4193D2"/>
</g>
</svg>
