<svg width="65" height="76" viewBox="0 0 65 76" fill="none" xmlns="http://www.w3.org/2000/svg">
<path d="M63.8369 75.4999C63.9571 74.0331 64.0081 72.6591 63.9083 71.7198C63.5535 68.3783 47.3728 64.0671 45.3276 62.5742C43.2824 61.0813 43.3232 57.1691 43.3232 57.1691L43.3191 57.1692L43.3123 51.8715L23.0251 51.105L23.3417 59.3436C23.1846 60.0798 22.7905 61.0163 22.1218 61.6438C20.6195 63.0537 2.54122 68.9605 1.1913 71.8218C0.867452 72.5083 0.842668 73.913 0.956536 75.4999H63.8369Z" fill="#FBC7B5"/>
<path d="M51.9782 20.163C51.9782 20.163 52.2248 17.7492 51.9042 16.2675C51.8452 15.9947 50.8682 13.7342 50.2762 13.7342C50.2762 13.7342 51.2875 12.1091 50.7201 11.2726C50.1529 10.4362 48.6236 8.85888 48.6236 8.85888C48.6236 8.85888 48.6236 8.71554 47.8836 8.14191C47.1436 7.56838 45.2197 6.3495 45.0963 6.3495C45.0963 6.3495 43.4683 3.48163 38.2885 4.31812C38.2885 4.31812 36.1671 1.25911 34.8598 0.805005C33.6698 0.391686 30.2394 0.220934 29.0739 1.4726C28.8531 1.42811 28.6493 1.40244 28.4713 1.40244C26.3007 1.40244 24.4261 3.93573 24.4261 3.93573C24.4261 3.93573 19.4435 5.27414 18.0129 6.89922C16.5823 8.5243 14.2143 12.2526 14.2635 12.9217C14.3129 13.5909 14.6582 13.9733 14.6582 13.9733C14.6582 13.9733 12.537 17.2713 13.0303 18.4184C13.376 19.2223 13.5275 19.2513 13.5875 19.1968C13.397 19.5371 12.4416 21.3265 12.9316 22.1466C13.4743 23.0548 13.9182 23.5327 13.9182 23.5327C13.9182 23.5327 13.6302 24.9655 13.9511 26.4165C14.2964 27.9778 15.4475 31.7539 15.4475 31.7539L49.783 32.0407L51.2136 30.8457C51.2136 30.8457 52.4716 25.9225 51.9042 24.8232C51.9535 24.632 52.2001 24.632 52.2989 22.6245C52.3975 20.6171 51.9782 20.163 51.9782 20.163Z" fill="#3B2B27"/>
<path d="M51.9039 16.2676C51.8702 16.1118 51.537 15.3085 51.1472 14.6475C49.3711 15.5741 44.7873 18.3913 42.7938 23.6371C40.2943 30.2148 47.8587 30.0174 47.8587 30.0174C47.8587 30.0174 48.6446 27.292 51.9046 24.8248C51.9044 24.8243 51.9042 24.8237 51.904 24.8233C51.9533 24.6321 52.2 24.6321 52.2987 22.6245C52.3974 20.6171 51.9781 20.163 51.9781 20.163C51.9781 20.163 52.2247 17.7493 51.9039 16.2676Z" fill="#483531"/>
<path d="M18.4071 27.8962C18.4071 27.8962 23.1199 32.7056 21.3177 23.3082C20.209 17.5275 15.7981 15.498 14.0988 14.9214C13.5088 15.9866 12.7056 17.6648 13.0297 18.4184C13.3754 19.2223 13.5269 19.2513 13.5868 19.1968C13.3964 19.5371 12.4409 21.3265 12.931 22.1466C13.2419 22.667 13.5172 23.041 13.6984 23.2698C16.7235 24.9897 18.4071 27.8962 18.4071 27.8962Z" fill="#483531"/>
<path d="M13.6044 15.8818C13.1596 16.821 12.7927 17.8671 13.0299 18.4185C13.3756 19.2224 13.5271 19.2514 13.587 19.197C13.495 19.3614 13.2252 19.8645 13.0254 20.4325C16.9095 22.7078 19.4431 26.0709 19.4431 26.0709C19.4431 26.0709 22.2714 25.742 20.4955 21.9927C19.012 18.8605 14.9141 16.5561 13.6044 15.8818Z" fill="#57403B"/>
<path d="M52.2873 21.3644C52.2085 20.4149 51.9778 20.1631 51.9778 20.1631C51.9778 20.1631 52.1929 18.0566 51.9597 16.5713C50.2133 17.5743 47.1975 19.5969 45.9691 22.1899C44.1932 25.9392 47.0215 26.2681 47.0215 26.2681C47.0215 26.2681 49.064 23.564 52.2873 21.3644Z" fill="#57403B"/>
<path d="M42.8269 15.2503C42.8269 15.2503 46.9558 16.4401 51.4344 15.1755C51.0868 14.4863 50.6177 13.7341 50.2762 13.7341C50.2762 13.7341 50.7686 12.9408 50.8725 12.1774C47.978 12.0831 44.1973 12.8642 42.8269 15.2503Z" fill="#291D1A"/>
<path d="M52.2988 22.6247C52.3974 20.6172 51.9782 20.1631 51.9782 20.1631C49.8486 17.9718 44.7017 17.0923 44.7017 17.0923C44.7017 17.0923 48.8127 18.2762 50.523 20.0523C52.1587 21.7508 51.9043 24.8234 51.9043 24.8234C51.9534 24.6322 52.2 24.6322 52.2988 22.6247Z" fill="#291D1A"/>
<path d="M51.2134 30.8454C51.2134 30.8454 52.0943 27.3967 52.0486 25.6278C51.5733 27.8225 50.3108 28.2927 49.2072 27.2213C48.089 26.136 47.497 22.1565 47.497 22.1565C46.7406 18.9006 44.4055 26.3333 44.4055 26.3333C44.4055 26.3333 45.7869 30.839 45.8197 30.9377C45.8451 31.014 49.0925 31.2866 50.596 31.3609L51.2134 30.8454Z" fill="#291D1A"/>
<path d="M20.0022 14.2305C21.1071 14.4314 24.2119 14.7568 25.4288 14.5266C25.7964 14.3405 24.5452 14.3048 24.9476 14.1715C24.8336 14.1452 24.7194 14.1196 24.6064 14.0902C23.2494 13.7373 21.9558 13.1325 20.5767 12.8637C18.5861 12.4758 16.5225 12.3812 14.4691 12.2607C14.3334 12.562 14.254 12.7975 14.2631 12.9215C14.3125 13.5907 14.6578 13.9731 14.6578 13.9731C14.6578 13.9731 13.9164 15.1291 13.4121 16.3102C13.9751 15.3256 15.6494 13.4391 20.0022 14.2305Z" fill="#291D1A"/>
<path d="M17.5444 30.3461C18.3089 28.4051 19.8515 29.5837 20.3968 27.2549C20.484 26.8829 19.1375 22.9982 19.2378 22.6143C18.9557 22.7632 18.8757 22.7718 18.8757 22.7718C18.8757 22.7718 17.2395 28.0113 15.5622 27.8469C14.5004 27.7428 14.0194 26.3354 13.8087 25.3155C13.8256 25.665 13.8674 26.0399 13.9507 26.4168C14.296 27.9781 15.4471 31.7542 15.4471 31.7542L17.3408 31.77C17.2979 31.3124 17.3519 30.8351 17.5444 30.3461Z" fill="#291D1A"/>
<path d="M21.4177 16.76C21.4463 16.7153 21.4777 16.6743 21.5072 16.6309L21.022 16.6979C21.022 16.6979 16.4834 15.6124 13.5873 19.197C13.397 19.5373 12.4414 21.3267 12.9314 22.1468C13.4741 23.0549 13.9181 23.5329 13.9181 23.5329C13.9181 23.5329 13.0107 16.3822 21.4177 16.76Z" fill="#291D1A"/>
<path d="M48.4248 30.7964C48.4248 30.7964 51.8703 29.0098 52.3599 30.3412C52.8494 31.6727 52.3177 37.2778 50.2207 39.5508C48.1235 41.8236 46.9771 39.3792 46.9771 39.3792L48.4248 30.7964Z" fill="#FBC7B5"/>
<path d="M52.3597 30.3413C51.9745 29.2935 49.7642 30.1748 48.8376 30.5986C49.9729 30.2385 51.7065 29.8537 52.0309 30.7359C52.4961 32.001 52.0381 37.1223 50.1926 39.5796C50.2021 39.5696 50.2112 39.5611 50.2206 39.5509C52.3176 37.2779 52.8493 31.6728 52.3597 30.3413Z" fill="#FFE3DB"/>
<path d="M49.0547 32.8655C49.0547 32.8655 51.1955 30.5145 51.1999 32.5565C51.2065 35.6078 49.3646 39.1268 48.576 38.4016C47.7874 37.6765 48.1497 36.2213 48.1497 36.2213C48.1497 36.2213 50.0381 33.8639 49.0547 32.8655Z" fill="#E3977D"/>
<path d="M17.7817 30.7959C17.7817 30.7959 14.3362 29.0093 13.8466 30.3407C13.3571 31.6722 13.8888 37.2773 15.9858 39.5504C18.083 41.8231 19.2294 39.3787 19.2294 39.3787L17.7817 30.7959Z" fill="#FBC7B5"/>
<path d="M16.4299 39.97C14.3329 37.6971 13.8012 32.0919 14.2907 30.7604C14.6327 29.8304 16.4305 30.2899 17.4852 30.6518C16.642 30.2562 14.2489 29.2475 13.8468 30.3411C13.3572 31.6726 13.8889 37.2777 15.9859 39.5508C16.1451 39.7233 16.2981 39.8656 16.4462 39.9868C16.4406 39.981 16.4354 39.976 16.4299 39.97Z" fill="#FFE3DB"/>
<path d="M17.1516 32.865C17.1516 32.865 15.0109 30.514 15.0065 32.556C14.9999 35.6073 16.8417 39.1263 17.6303 38.4011C18.4189 37.676 18.0566 36.2208 18.0566 36.2208C18.0566 36.2208 16.1683 33.8634 17.1516 32.865Z" fill="#E3977D"/>
<path d="M45.3274 62.5742C44.9191 62.2761 44.5951 61.881 44.3362 61.4404C44.304 61.469 44.2738 61.4951 44.241 61.5244C37.4001 67.6417 23.2582 63.695 23.2582 63.695C26.0209 68.8256 42.8597 67.9047 42.8597 67.9047C42.8597 67.9047 44.6561 65.1741 45.871 62.8903C45.6378 62.7725 45.454 62.6666 45.3274 62.5742Z" fill="#F2AE96"/>
<path d="M63.5541 75.4996C63.6971 73.7457 63.7605 72.5143 63.7109 72.0483C63.3658 68.7984 48.2896 64.3392 45.5303 62.7046C43.5326 63.8132 40.8262 65.9663 33.8482 65.9804C25.6755 65.9968 22.4259 63.2993 20.7528 62.4116C16.172 64.5477 2.36443 69.3344 1.19121 71.8214C1.02319 72.1777 1.02797 73.5188 1.1516 75.4995H63.5541V75.4996Z" fill="#AA9261"/>
<path d="M26.3245 75.4995C26.2953 71.6284 26.404 68.9221 26.7446 68.5621C29.0467 66.1284 36.94 66.5231 39.8342 68.7595C40.0717 68.943 39.9821 71.5767 39.7126 75.4996H55.0084C54.7847 71.2148 54.5996 68.2609 54.5024 67.9044C54.4182 67.5958 54.1476 66.9203 53.7754 66.0513C50.1206 64.6136 46.678 63.3844 45.5304 62.7046C43.5328 63.8132 40.8263 65.9663 33.8484 65.9804C25.6757 65.9968 22.4261 63.2993 20.7529 62.4116C19.9996 62.7629 18.9935 63.1869 17.8383 63.6596C17.5671 65.754 17.3252 67.5624 17.2726 67.7728C17.2285 67.949 17.406 71.1961 17.6612 75.4995H26.3245Z" fill="#947642"/>
<path d="M24.2987 75.4996C23.9818 70.9082 23.7107 66.8199 23.5379 63.8591C23.3878 61.2888 23.1432 54.1899 23.1432 54.1899C21.9682 54.8806 21.2077 56.6682 19.5419 58.3339C17.174 60.7019 12.0811 62.4284 11.2734 63.2836C10.9009 63.6777 10.842 64.3507 10.8852 64.9625C7.95363 66.2177 1.17933 69.2986 0.406163 71.2788C0.173548 71.8746 0.218822 73.3606 0.424603 75.4996H24.2987Z" fill="#5B311B"/>
<path d="M64.4188 75.5C64.6634 73.3753 64.7287 71.925 64.4915 71.2792C63.7639 69.2991 57.3885 66.218 54.6296 64.963C54.6703 64.3512 54.6148 63.6782 54.2643 63.284C53.5041 62.4289 48.7112 60.7022 46.4827 58.3343C44.915 56.6687 44.4261 54.9798 43.3203 54.2891C43.3203 54.2891 42.8632 61.2892 42.7221 63.8596C42.5594 66.8204 42.3043 70.9087 42.0061 75.5001L64.4188 75.5Z" fill="#5B311B"/>
<path d="M43.3137 52.8896L43.3124 51.8714L23.0293 51.105L23.0432 51.5717L23.3417 59.3412C24.3294 59.4287 37.1886 60.4104 43.3137 52.8896Z" fill="#D38772"/>
<path d="M33.207 14.5941C33.207 14.5941 24.0312 13.1124 21.0218 16.6972C18.0126 20.2821 19.0485 25.1096 18.9992 25.8266C18.9499 26.5435 15.6447 27.2605 17.8646 37.059C17.8646 37.059 18.0619 44.9934 19.5912 47.67C21.1206 50.3468 26.7774 55.5567 29.6386 55.9869C32.4999 56.4171 32.5163 55.716 36.3149 55.9551C40.1136 56.194 45.7211 50.1237 46.9708 46.6186C48.3116 42.8579 48.3521 36.5333 48.3521 36.5333C48.3521 36.5333 50.1774 30.0806 47.3655 26.4002C47.3655 26.4002 50.2761 11.6785 33.207 14.5941Z" fill="#FBC7B5"/>
<path d="M33.207 14.594C33.207 14.594 27.7676 13.7178 23.8911 14.9507C25.3138 15.3677 30.435 16.7323 31.2831 15.0361C31.2831 15.0361 33.0591 15.5233 33.2893 15.2633L33.6181 15.2792C33.6181 15.2792 35.1638 15.4637 36.4136 15.1019C36.4136 15.1019 37.5318 15.2006 38.2883 14.8716C38.2883 14.8716 40.16 15.801 43.0307 15.4095C40.8864 14.2932 37.7567 13.8169 33.207 14.594Z" fill="#E3977D"/>
<path d="M36.9043 25.7153C36.9043 25.7153 35.5267 28.9591 35.7342 34.0567C35.7342 34.0567 34.9576 27.1242 41.9357 26.4159C42.6473 26.3438 36.9043 25.7153 36.9043 25.7153Z" fill="#E3977D"/>
<path d="M29.5236 25.7871C29.5236 25.7871 30.9969 28.884 30.7894 33.9817C30.7894 33.9817 31.1217 26.8103 24.5148 26.5497C23.7997 26.5215 29.5236 25.7871 29.5236 25.7871Z" fill="#E3977D"/>
<g opacity="0.5">
<path d="M34.5523 55.9062C33.956 55.9119 33.4957 55.9492 33.094 55.9927C33.5012 55.9514 33.9623 55.9148 34.5523 55.9062Z" fill="#FFE3DB"/>
<path d="M30.1754 56.0587C30.3343 56.0769 30.4838 56.0913 30.625 56.102C30.6297 56.1024 30.6342 56.1026 30.6389 56.103C30.7799 56.1135 30.9133 56.1208 31.0401 56.125C31.0433 56.1251 31.0463 56.1252 31.0495 56.1253C31.178 56.1294 31.3005 56.1307 31.418 56.1294H31.4181C30.9943 56.1285 30.5042 56.0915 29.8566 55.9874C27.1798 55.5572 21.8877 50.3472 20.4571 47.6705C19.0264 44.9939 18.8418 37.0595 18.8418 37.0595C15.9901 29.5074 18.9254 26.2452 18.9993 25.8868C19.0047 25.8605 19.0036 25.8395 18.9994 25.8213C18.9993 25.8229 18.9994 25.8254 18.9993 25.827C18.9687 26.2729 17.6795 26.7202 17.2422 29.3499C17.0115 31.1023 17.0803 33.5971 17.8647 37.0595C17.8647 37.0595 18.0619 44.9939 19.5913 47.6705C21.1207 50.3472 26.7775 55.5572 29.6387 55.9874C29.8242 56.0153 29.9974 56.0382 30.1606 56.0571C30.1657 56.0577 30.1704 56.0582 30.1754 56.0587Z" fill="#F2AE96"/>
<path d="M47.3654 26.4004C49.5113 30.1287 47.3631 36.5335 47.3631 36.5335C47.3631 36.5335 47.3253 42.8582 46.0709 46.6189C44.9411 50.006 40.0048 55.7871 36.467 55.9571C40.2616 56.0305 45.7375 50.078 46.9707 46.6189C48.3115 42.8582 48.352 36.5335 48.352 36.5335C48.352 36.5335 50.1773 30.0808 47.3654 26.4004Z" fill="#F2AE96"/>
</g>
<path d="M30.1648 49.2324C30.1648 49.2324 33.544 50.7571 37.4907 49.2617C37.4907 49.2617 34.2101 52.1938 30.1648 49.2324Z" fill="#E3977D"/>
<path d="M32.2548 40.6369C32.2548 40.6369 30.7911 41.0211 30.3663 40.5333C29.9415 40.0455 31.5988 39.5041 32.2548 40.6369Z" fill="#5E3021"/>
<path d="M34.9542 40.7758C34.9068 40.8262 36.1074 41.1229 36.4599 40.885C36.5518 40.8231 37.0158 38.5454 34.9542 40.7758Z" fill="#5E3021"/>
<path d="M37.7292 38.5207C37.7292 38.5207 38.0378 39.5139 37.1845 39.7159C36.3312 39.9178 36.3894 38.6389 35.9627 38.8408C35.536 39.0428 35.1215 40.1563 33.5434 40.1197C32.3313 40.0917 31.5991 39.2671 31.2694 38.7511C30.9397 38.235 30.6294 39.6486 30.1059 39.8954C29.5822 40.1423 28.771 39.6098 29.3608 38.5186C29.3608 38.5186 28.5253 39.6823 29.3544 40.2376C30.1834 40.793 30.4889 40.6247 30.4889 40.6247C30.4889 40.6247 30.4962 40.0188 30.8307 39.9937C31.1653 39.9684 32.3798 40.9108 32.9179 41.1548C33.4561 41.3988 34.6125 41.0623 35.3106 40.4816C36.0088 39.9011 36.6492 40.0177 36.4599 40.8849C36.4599 40.8849 37.6276 40.8815 37.9796 40.0946C38.2997 39.3792 37.7292 38.5207 37.7292 38.5207Z" fill="#E3977D"/>
<path d="M29.3609 38.5186C29.1983 38.7438 29.066 39.0062 29.0056 39.2995C28.9427 39.5895 28.9895 39.9285 29.1647 40.1695C29.3333 40.4168 29.5771 40.5589 29.8136 40.6771C30.0587 40.7818 30.3142 40.8897 30.6186 40.7759C30.6517 40.7636 30.6708 40.7246 30.6637 40.6862L30.6608 40.6697C30.6309 40.508 30.6168 40.3292 30.6716 40.216C30.7191 40.1052 30.8485 40.0779 30.9856 40.0962C31.1223 40.1134 31.2644 40.1673 31.3932 40.2385C31.5165 40.3021 31.6262 40.4252 31.7548 40.5315C32.2423 40.9831 32.865 41.3023 33.5084 41.3259C33.8259 41.3459 34.1528 41.3071 34.462 41.186C34.7718 41.0636 35.0428 40.8487 35.2906 40.6449C35.5343 40.4485 35.8067 40.2518 36.0686 40.2133C36.3351 40.1515 36.4124 40.5481 36.3769 40.8695L36.3763 40.8749C36.3705 40.9272 36.4026 40.975 36.4476 40.9817L36.4664 40.982C36.7332 40.9509 37.0007 40.8996 37.259 40.7993C37.5127 40.6963 37.7719 40.5402 37.9347 40.2703C38.1003 40.0006 38.1198 39.6537 38.0597 39.3546C38.0002 39.0511 37.8809 38.7705 37.7292 38.5209C37.8663 38.781 37.9679 39.0689 38.0084 39.3657C38.0498 39.6602 38.0097 39.9742 37.8507 40.1989C37.6928 40.4222 37.46 40.5616 37.2163 40.6465C36.9705 40.7302 36.7124 40.769 36.4536 40.7879L36.5431 40.9002C36.5646 40.7068 36.5708 40.5179 36.5098 40.3179C36.4778 40.222 36.4261 40.1159 36.3346 40.0546C36.2475 39.9925 36.1432 39.9732 36.055 39.9843C35.6997 40.0361 35.4338 40.2452 35.1714 40.4427C34.9155 40.6469 34.6681 40.8345 34.3899 40.9393C34.1123 41.0405 33.816 41.0744 33.5181 41.0628C32.9198 41.0451 32.3583 40.7699 31.8789 40.3391C31.7558 40.2412 31.6401 40.1106 31.4801 40.0271C31.3301 39.9477 31.1746 39.8894 31.0042 39.8697C30.847 39.8494 30.6092 39.889 30.5116 40.1193C30.4268 40.3335 30.4672 40.5341 30.5018 40.714L30.5439 40.608C30.3589 40.6889 30.0848 40.6278 29.8626 40.5313C29.6321 40.4287 29.4043 40.301 29.2409 40.0949C29.0731 39.8921 29.0111 39.5944 29.0545 39.3107C29.0963 39.0257 29.2113 38.755 29.3609 38.5186Z" fill="#9E503B"/>
<path d="M32.6161 41.5911C32.6161 41.5911 32.4601 42.9598 32.7522 43.2723C33.0444 43.5848 34.1258 43.5908 34.4316 43.2013C34.7373 42.8117 34.5103 41.4585 34.5103 41.4585C34.5103 41.4585 34.5878 42.9097 33.8979 43.0717C33.5148 43.1615 32.6234 42.9649 32.6161 41.5911Z" fill="#F2AE96"/>
<path d="M50.7199 11.2726C50.1526 10.4362 48.6234 8.85888 48.6234 8.85888C48.6234 8.85888 48.6234 8.71554 47.8834 8.14191C47.1434 7.56838 45.2195 6.3495 45.0961 6.3495C45.0961 6.3495 43.4681 3.48163 38.2882 4.31812C38.2882 4.31812 36.1669 1.25911 34.8596 0.805005C33.6696 0.391686 30.2392 0.220934 29.0736 1.4726C28.8528 1.42811 28.6491 1.40244 28.4711 1.40244C26.3005 1.40244 24.4259 3.93573 24.4259 3.93573C24.4259 3.93573 19.4433 5.27414 18.0127 6.89922C16.5821 8.5243 14.2141 12.2526 14.2633 12.9217C14.3127 13.5909 14.658 13.9733 14.658 13.9733C14.658 13.9733 16.3436 13.2404 17.4947 13.2085C18.6457 13.1766 27.5667 15.1682 29.2111 15.1682C30.7002 15.1682 31.19 14.9077 31.2695 14.8584C32.0338 15.0751 32.7631 15.2421 33.2894 15.2639C33.2894 15.2639 34.2839 15.0704 34.8677 14.2866C34.6346 14.625 34.2227 15.0878 33.6183 15.2798C33.6183 15.2798 34.856 15.2582 36.1823 14.7215C36.6314 14.6891 37.3516 14.5961 38.2921 14.3487C38.7096 14.4926 39.5432 14.762 39.9411 14.762C40.0302 14.762 40.2544 14.7457 40.5642 14.7187C40.6217 14.892 40.8754 15.1015 41.7171 15.1921C43.271 15.3594 44.9515 15.441 46.009 15.2638C47.7308 14.9752 49.1954 14.3803 50.3528 13.7516C50.327 13.7439 50.3011 13.7343 50.2763 13.7343C50.276 13.7342 51.2873 12.1091 50.7199 11.2726ZM35.0388 14.0097C35.0588 13.9713 35.0801 13.9341 35.098 13.8936C35.098 13.8936 35.0778 13.9381 35.0388 14.0097Z" fill="#483531"/>
<path d="M36.3478 10.2181C43.198 10.8042 47.4657 12.6567 49.7832 14.0426C49.9795 13.9468 50.1711 13.8498 50.3525 13.7512C50.3268 13.7435 50.3008 13.7339 50.276 13.7339C50.276 13.7339 50.5096 13.3565 50.6895 12.8729C49.0566 10.7931 42.8481 4.29834 28.9808 4.29834C25.4465 4.29834 22.1256 4.98282 19.085 6.05358C18.6456 6.32201 18.2707 6.60565 18.0125 6.89895C16.5819 8.52413 14.2139 12.2523 14.2632 12.9215C14.3126 13.5906 14.6579 13.973 14.6579 13.973C14.6579 13.973 16.3435 13.2401 17.4945 13.2082C17.4945 13.2082 24.0475 9.16567 36.3478 10.2181Z" fill="#57403B"/>
<path d="M14.4693 12.2608C26.3342 4.23937 47.1353 10.942 47.1353 10.942C34.4459 3.05561 20.6897 6.12672 18.1016 6.80856C18.0724 6.83881 18.0393 6.86857 18.0126 6.89901C16.848 8.22191 15.0628 10.9377 14.4656 12.2633C14.4669 12.2624 14.468 12.2617 14.4693 12.2608Z" fill="#6B4F48"/>
<path opacity="0.8" d="M35.6442 48.8855C34.774 48.977 33.5934 49.1574 32.1362 48.9733C30.6791 48.7891 31.575 49.6572 34.0791 49.5608C36.5832 49.4643 36.4291 48.803 35.6442 48.8855Z" fill="#FFE3DB"/>
<path d="M45.935 27.6657C45.935 27.6657 42.358 25.6092 36.5617 27.1059C36.5617 27.1059 36.4926 25.6464 36.749 24.7034C36.8625 24.2859 37.0809 25.177 37.0809 25.177C37.0809 25.177 37.0578 24.4067 37.5154 24.1183C37.973 23.83 41.5415 23.4496 43.9114 25.0562C45.8198 26.3502 46.1027 27.8478 45.935 27.6657Z" fill="#3B2B27"/>
<path d="M44.6507 25.6368C43.4673 26.6794 38.0839 26.0733 37.8935 25.0836C37.7823 24.5055 38.1929 24.1292 38.6767 23.8887C38.0835 23.9349 37.6543 24.0304 37.5151 24.1181C37.0575 24.4064 37.0806 25.1767 37.0806 25.1767C37.0806 25.1767 36.8624 24.2855 36.7488 24.7031C36.4924 25.6462 36.5614 27.1057 36.5614 27.1057C42.3577 25.6088 45.9346 27.6654 45.9346 27.6654C46.0777 27.8206 45.8895 26.7558 44.6507 25.6368Z" fill="#291D1A"/>
<path d="M20.2818 27.567C20.2818 27.567 23.9092 25.6319 29.8861 26.9813C29.8861 26.9813 30.0899 25.3942 29.8137 24.4577C29.6914 24.0431 29.479 24.9397 29.479 24.9397C29.479 24.9397 29.4924 24.1689 29.0183 23.8922C28.5442 23.6156 25.0999 23.1269 22.4577 24.9925C20.2854 26.5266 20.1119 27.7533 20.2818 27.567Z" fill="#3B2B27"/>
<path d="M29.8137 24.4578C29.6915 24.0432 29.4791 24.9398 29.4791 24.9398C29.4791 24.9398 29.4918 24.1752 29.0229 23.896C29.3964 25.7015 23.1981 26.5637 22.2058 26.2185C21.7917 26.0745 21.7013 25.812 21.7513 25.537C20.2491 26.8041 20.1324 27.7306 20.2817 27.567C20.2817 27.567 23.9091 25.6319 29.8859 26.9813C29.8861 26.9813 30.0899 25.3942 29.8137 24.4578Z" fill="#291D1A"/>
<path d="M36.0083 33.1199C35.9959 33.2547 36.2257 33.3827 36.4989 33.3499C36.4989 33.3499 37.2791 34.5523 40.267 34.6642C43.1912 34.7736 44.4935 34.4411 44.8669 33.1199C45.2941 31.6085 43.5199 27.7313 40.1027 27.9942C36.4656 28.2739 36.3043 32.8241 36.3043 32.8241C36.3043 32.8241 36.0284 32.9008 36.0083 33.1199Z" fill="#F2AE96"/>
<path d="M37.4014 34.0376C37.4014 34.0376 38.5697 34.7306 39.1334 34.7628C40.4723 34.8395 42.4387 34.8603 43.11 34.6263C43.6603 34.4343 40.4187 34.8141 39.1195 34.5564C38.2011 34.3743 37.4014 34.0376 37.4014 34.0376Z" fill="#E3977D"/>
<path d="M36.3044 32.8245C36.3044 32.8245 37.2321 29.4074 40.2148 29.4731C43.2381 29.5397 44.0784 32.2824 44.1195 32.4384C44.1605 32.5946 44.0455 33.6817 41.9427 34.0379C39.8399 34.3941 37.0717 33.4405 36.6856 33.2023C36.2996 32.9642 36.3044 32.8245 36.3044 32.8245Z" fill="#C46E51"/>
<path d="M36.3044 32.8245C36.3044 32.8245 37.2196 29.9085 40.2023 29.9742C43.2256 30.0408 44.0785 32.2824 44.1195 32.4384C44.1605 32.5946 44.0291 33.4346 41.9263 33.7908C39.8234 34.1471 37.0717 33.4406 36.6857 33.2023C36.2996 32.9642 36.3044 32.8245 36.3044 32.8245Z" fill="#6E3E2D"/>
<path d="M36.3045 32.8244C36.3045 32.8244 36.1028 33.038 36.2258 33.1365C36.3489 33.2351 36.6857 33.2023 36.6857 33.2023C36.6857 33.2023 37.4617 33.6349 40.1184 33.6568C42.7752 33.6787 43.8813 33.1122 44.0347 32.5318C44.188 31.9513 41.8961 29.75 39.3361 30.3053C37.0142 30.8091 36.3045 32.8244 36.3045 32.8244Z" fill="#E7F5F7"/>
<path d="M36.6856 33.2024C36.6856 33.2024 37.1459 33.4565 38.5578 33.5849C37.4699 33.4306 36.5297 33.0951 36.483 32.9664C36.4373 32.8404 36.5217 32.4865 36.5778 32.2803C36.3861 32.598 36.3045 32.8245 36.3045 32.8245C36.3045 32.8245 36.1028 33.0381 36.2258 33.1367C36.3488 33.2353 36.6856 33.2024 36.6856 33.2024Z" fill="#FFC5C5"/>
<mask id="mask0_2637_1459" style="mask-type:luminance" maskUnits="userSpaceOnUse" x="36" y="30" width="9" height="4">
<path d="M36.3045 32.8244C36.3045 32.8244 36.1028 33.038 36.2258 33.1365C36.3489 33.2351 36.6857 33.2023 36.6857 33.2023C36.6857 33.2023 37.4617 33.6349 40.1184 33.6568C42.7752 33.6787 43.8813 33.1122 44.0347 32.5318C44.188 31.9513 41.8961 29.75 39.3361 30.3053C37.0142 30.8091 36.3045 32.8244 36.3045 32.8244Z" fill="white"/>
</mask>
<g mask="url(#mask0_2637_1459)">
<path d="M41.9229 31.4417C41.8727 31.0587 41.6945 30.6866 41.4588 30.4153C40.7866 30.193 40.0424 30.1344 39.2566 30.3049C39.0004 30.3605 38.767 30.4369 38.5488 30.5246C38.2481 30.9108 38.0952 31.4117 38.164 31.9353C38.3003 32.9733 39.2523 33.7044 40.2903 33.568C41.3284 33.4316 42.0594 32.4797 41.9229 31.4417Z" fill="#483531"/>
<path d="M38.7265 31.9773C38.8134 32.6395 39.4208 33.1059 40.0831 33.0189C40.7453 32.9319 41.2116 32.3245 41.1246 31.6624C41.0376 31.0002 40.4302 30.5338 39.7681 30.6208C39.1059 30.7076 38.6395 31.3151 38.7265 31.9773Z" fill="#6B4F48"/>
<path d="M38.8667 31.9485C38.9484 32.5706 39.5188 33.0086 40.141 32.9269C40.763 32.8453 41.201 32.2747 41.1193 31.6527C41.0377 31.0308 40.4671 30.5927 39.8451 30.6743C39.2231 30.756 38.785 31.3264 38.8667 31.9485Z" fill="#150906"/>
<path opacity="0.7" d="M38.3927 32.5499C38.2729 31.6382 38.9151 30.8018 39.827 30.6821C40.7387 30.5623 41.575 31.2045 41.6947 32.1164C41.7185 32.2975 41.7047 32.4734 41.6722 32.6435C41.8784 32.2925 41.9803 31.8769 41.9231 31.442C41.7868 30.404 40.8348 29.6729 39.797 29.8093C38.7589 29.9456 38.0279 30.8977 38.1643 31.9356C38.1993 32.2019 38.2894 32.4469 38.4195 32.6634C38.4116 32.625 38.3979 32.5893 38.3927 32.5499Z" fill="#754836"/>
</g>
<path d="M40.542 31.623C40.5909 31.9952 40.9323 32.2573 41.3045 32.2084C41.6768 32.1595 41.9389 31.8181 41.89 31.4459C41.8411 31.0737 41.4997 30.8115 41.1274 30.8603C40.7552 30.9093 40.4931 31.2506 40.542 31.623Z" fill="white"/>
<path d="M39.71 32.2493C39.722 32.3411 39.806 32.4056 39.8978 32.3936C39.9895 32.3816 40.054 32.2974 40.042 32.2057C40.0299 32.1139 39.9459 32.0494 39.8542 32.0615C39.7624 32.0735 39.6979 32.1576 39.71 32.2493Z" fill="white"/>
<path opacity="0.5" d="M44.0347 32.5312C44.0481 32.4805 44.0366 32.4142 44.0141 32.3418C42.7666 34.288 37.7878 33.4418 37.634 33.464L37.6517 33.4677C38.1864 33.5618 38.9783 33.6468 40.1184 33.6563C42.7752 33.6781 43.8813 33.1116 44.0347 32.5312Z" fill="#C9D5D6"/>
<path d="M39.9802 33.6539C40.0272 33.6546 40.0702 33.6561 40.1183 33.6565C40.1453 33.6567 40.1698 33.6559 40.1965 33.656C40.1759 33.6494 40.1064 33.6485 39.9802 33.6539Z" fill="#F4E6EF"/>
<path d="M36.3478 33.0293C36.3478 33.0492 36.3268 33.0654 36.3008 33.0654C36.2749 33.0654 36.2539 33.0492 36.2539 33.0293C36.2539 33.0094 36.2749 32.9932 36.3008 32.9932C36.3268 32.9933 36.3478 33.0094 36.3478 33.0293Z" fill="white"/>
<path d="M36.4417 33.0936C36.4417 33.1024 36.4274 33.1096 36.4097 33.1096C36.392 33.1096 36.3777 33.1025 36.3777 33.0936C36.3777 33.0848 36.392 33.0776 36.4097 33.0776C36.4274 33.0776 36.4417 33.0848 36.4417 33.0936Z" fill="white"/>
<path opacity="0.5" d="M39.1736 30.734C41.4144 30.2478 43.5311 31.8543 44.0195 32.5721C44.0241 32.5586 44.0308 32.5452 44.0345 32.5318C44.1878 31.9513 41.8958 29.75 39.3359 30.3053C37.7012 30.66 36.8678 31.7617 36.5164 32.384C37.0593 31.7491 37.9294 31.0039 39.1736 30.734Z" fill="#C9D5D6"/>
<path opacity="0.5" d="M39.336 30.3054C37.0142 30.8092 36.3044 32.8244 36.3044 32.8244C36.3044 32.8244 38.9966 28.6516 44.0346 32.5318C44.1879 31.9512 41.896 29.7499 39.336 30.3054Z" fill="#C9D5D6"/>
<path d="M30.0248 33.1199C30.0372 33.2547 29.8074 33.3827 29.5343 33.3499C29.5343 33.3499 28.7541 34.5523 25.7662 34.6642C22.8419 34.7736 21.5396 34.4411 21.1662 33.1199C20.739 31.6085 22.5134 27.7313 25.9305 27.9942C29.5675 28.2739 29.7288 32.8241 29.7288 32.8241C29.7288 32.8241 30.0047 32.9008 30.0248 33.1199Z" fill="#F2AE96"/>
<path d="M28.6316 34.0376C28.6316 34.0376 27.4633 34.7306 26.8996 34.7628C25.5607 34.8395 23.5943 34.8603 22.923 34.6263C22.3727 34.4343 25.6143 34.8141 26.9135 34.5564C27.832 34.3743 28.6316 34.0376 28.6316 34.0376Z" fill="#E3977D"/>
<path d="M29.7287 32.8245C29.7287 32.8245 28.8011 29.4074 25.8184 29.4731C22.7951 29.5397 21.9547 32.2824 21.9137 32.4384C21.8726 32.5946 21.9876 33.6817 24.0904 34.0379C26.1932 34.3941 28.9615 33.4405 29.3476 33.2023C29.7336 32.9642 29.7287 32.8245 29.7287 32.8245Z" fill="#C46E51"/>
<path d="M29.7286 32.8245C29.7286 32.8245 28.8134 29.9085 25.8307 29.9742C22.8074 30.0408 21.9545 32.2824 21.9135 32.4384C21.8724 32.5946 22.0038 33.4346 24.1067 33.7908C26.2095 34.1471 28.9614 33.4406 29.3474 33.2023C29.7335 32.9642 29.7286 32.8245 29.7286 32.8245Z" fill="#6E3E2D"/>
<path d="M29.7286 32.8244C29.7286 32.8244 29.9303 33.038 29.8073 33.1365C29.6842 33.2351 29.3475 33.2023 29.3475 33.2023C29.3475 33.2023 28.5715 33.6349 25.9148 33.6568C23.2581 33.6787 22.1519 33.1122 21.9985 32.5318C21.8452 31.9513 24.1371 29.75 26.697 30.3053C29.0189 30.8091 29.7286 32.8244 29.7286 32.8244Z" fill="#E7F5F7"/>
<path d="M29.3476 33.2024C29.3476 33.2024 28.8872 33.4565 27.4753 33.5849C28.5633 33.4306 29.5035 33.0951 29.5501 32.9664C29.5958 32.8404 29.5115 32.4865 29.4554 32.2803C29.647 32.598 29.7287 32.8245 29.7287 32.8245C29.7287 32.8245 29.9304 33.0381 29.8073 33.1367C29.6844 33.2353 29.3476 33.2024 29.3476 33.2024Z" fill="#FFC5C5"/>
<mask id="mask1_2637_1459" style="mask-type:luminance" maskUnits="userSpaceOnUse" x="21" y="30" width="9" height="4">
<path d="M29.7286 32.8244C29.7286 32.8244 29.9303 33.038 29.8073 33.1365C29.6842 33.2351 29.3475 33.2023 29.3475 33.2023C29.3475 33.2023 28.5715 33.6349 25.9148 33.6568C23.2581 33.6787 22.1519 33.1122 21.9985 32.5318C21.8452 31.9513 24.1371 29.75 26.697 30.3053C29.0189 30.8091 29.7286 32.8244 29.7286 32.8244Z" fill="white"/>
</mask>
<g mask="url(#mask1_2637_1459)">
<path d="M24.1104 31.4417C24.1606 31.0587 24.3387 30.6866 24.5744 30.4153C25.2468 30.193 25.9909 30.1344 26.7766 30.3049C27.0329 30.3605 27.2663 30.4369 27.4844 30.5246C27.7852 30.9108 27.9381 31.4117 27.8693 31.9353C27.733 32.9733 26.7809 33.7044 25.743 33.568C24.7049 33.4316 23.974 32.4797 24.1104 31.4417Z" fill="#483531"/>
<path d="M27.1699 32.0134C27.083 32.6756 26.4756 33.142 25.8134 33.055C25.1511 32.968 24.6848 32.3607 24.7718 31.6985C24.8587 31.0363 25.4661 30.5699 26.1282 30.6569C26.7906 30.7438 27.257 31.3512 27.1699 32.0134Z" fill="#6B4F48"/>
<path d="M27.1663 31.9485C27.0846 32.5706 26.5142 33.0086 25.8921 32.9269C25.2701 32.8453 24.8321 32.2747 24.9137 31.6527C24.9954 31.0308 25.5659 30.5927 26.1879 30.6743C26.81 30.756 27.2481 31.3264 27.1663 31.9485Z" fill="#150906"/>
<path opacity="0.7" d="M27.6409 32.5499C27.7607 31.6382 27.1185 30.8018 26.2066 30.6821C25.2949 30.5623 24.4586 31.2045 24.3389 32.1164C24.3151 32.2975 24.3289 32.4734 24.3614 32.6435C24.1552 32.2925 24.0533 31.8769 24.1105 31.442C24.2468 30.404 25.1987 29.6729 26.2366 29.8093C27.2747 29.9456 28.0057 30.8977 27.8693 31.9356C27.8343 32.2019 27.7442 32.4469 27.6141 32.6634C27.6219 32.625 27.6357 32.5893 27.6409 32.5499Z" fill="#754836"/>
</g>
<path d="M26.4692 31.623C26.5181 31.9952 26.8595 32.2573 27.2318 32.2084C27.604 32.1595 27.8661 31.8181 27.8172 31.4459C27.7683 31.0737 27.4269 30.8115 27.0547 30.8603C26.6824 30.9093 26.4204 31.2506 26.4692 31.623Z" fill="white"/>
<path d="M25.6374 32.2493C25.6494 32.3411 25.7335 32.4056 25.8253 32.3936C25.917 32.3816 25.9815 32.2974 25.9695 32.2057C25.9574 32.1139 25.8734 32.0494 25.7817 32.0615C25.6898 32.0735 25.6253 32.1576 25.6374 32.2493Z" fill="white"/>
<path opacity="0.5" d="M21.9985 32.5312C21.9851 32.4805 21.9966 32.4142 22.0191 32.3418C23.2666 34.288 28.2454 33.4418 28.3993 33.464L28.3815 33.4677C27.8468 33.5618 27.055 33.6468 25.9148 33.6563C23.258 33.6781 22.1518 33.1116 21.9985 32.5312Z" fill="#C9D5D6"/>
<path d="M26.0527 33.6539C26.0058 33.6546 25.9628 33.6561 25.9147 33.6565C25.8877 33.6567 25.8632 33.6559 25.8364 33.656C25.8571 33.6494 25.9266 33.6485 26.0527 33.6539Z" fill="#F4E6EF"/>
<path d="M29.6853 33.0293C29.6853 33.0492 29.7063 33.0654 29.7322 33.0654C29.7581 33.0654 29.7791 33.0492 29.7791 33.0293C29.7791 33.0094 29.7581 32.9932 29.7322 32.9932C29.7063 32.9933 29.6853 33.0094 29.6853 33.0293Z" fill="white"/>
<path d="M29.5916 33.0936C29.5916 33.1024 29.6059 33.1096 29.6236 33.1096C29.6412 33.1096 29.6556 33.1025 29.6556 33.0936C29.6556 33.0848 29.6412 33.0776 29.6236 33.0776C29.6059 33.0776 29.5916 33.0848 29.5916 33.0936Z" fill="white"/>
<path opacity="0.5" d="M26.8594 30.734C24.6185 30.2478 22.5019 31.8543 22.0133 32.5721C22.0087 32.5586 22.002 32.5452 21.9985 32.5318C21.8451 31.9513 24.1371 29.75 26.697 30.3053C28.3318 30.66 29.1651 31.7617 29.5166 32.384C28.9737 31.7491 28.1035 31.0039 26.8594 30.734Z" fill="#C9D5D6"/>
<path opacity="0.5" d="M26.697 30.3054C29.0189 30.8092 29.7286 32.8244 29.7286 32.8244C29.7286 32.8244 27.0365 28.6516 21.9985 32.5318C21.8452 31.9512 24.1371 29.7499 26.697 30.3054Z" fill="#C9D5D6"/>
<path d="M34.6377 54.8481C33.9539 54.8318 33.1905 54.8481 31.9901 55.5387C30.7897 56.2293 33.7825 55.3414 34.9336 55.5716C36.0848 55.8019 35.3289 54.8646 34.6377 54.8481Z" fill="#F2AE96"/>
<path opacity="0.4" d="M23.0444 36.7427C23.0444 37.165 22.4702 37.5074 21.7618 37.5074C21.0534 37.5074 20.4791 37.1651 20.4791 36.7427C20.4791 36.3204 21.0534 35.978 21.7618 35.978C22.4702 35.978 23.0444 36.3204 23.0444 36.7427Z" fill="#FFE3DB"/>
<path opacity="0.4" d="M44.4797 37.2364C45.1881 37.2364 45.7624 36.894 45.7624 36.4717C45.7624 36.0494 45.1881 35.707 44.4797 35.707C43.7713 35.707 43.197 36.0494 43.197 36.4717C43.197 36.894 43.7713 37.2364 44.4797 37.2364Z" fill="#FFE3DB"/>
<path opacity="0.4" d="M35.5995 38.4576C35.5995 39.2137 34.705 39.8266 33.6015 39.8266C32.4981 39.8266 31.6035 39.2136 31.6035 38.4576C31.6035 37.7015 32.4487 32.8296 33.5521 32.8296C34.6557 32.8295 35.5995 37.7015 35.5995 38.4576Z" fill="#FFE3DB"/>
<path d="M24.8142 43.3594C24.7408 43.2184 24.8791 43.0595 25.0285 43.1137C25.8665 43.4178 28.0711 44.0046 32.5022 43.9464C38.4715 43.8682 41.0403 43.2426 42.2742 42.7882C42.4218 42.7339 42.5607 42.8843 42.4934 43.0264C41.8816 44.317 39.4764 48.5672 33.7249 48.7142C28.013 48.8602 25.5023 44.6809 24.8142 43.3594Z" fill="#C67560"/>
<path d="M25.1818 43.5427C25.121 43.4324 25.2278 43.3072 25.3464 43.3497C26.0996 43.6193 28.2245 44.1931 32.6201 44.1655C38.4878 44.1288 40.9411 43.5593 42.0988 43.156C42.2148 43.1157 42.3202 43.2339 42.266 43.3442C41.7272 44.4403 39.4842 48.1683 33.8586 48.2689C28.276 48.3686 25.8088 44.68 25.1818 43.5427Z" fill="#5E0900"/>
<path d="M32.6199 44.1656C29.3552 44.1861 27.345 43.8749 26.2172 43.6029C26.4176 44.0592 27.3603 45.7657 30.3727 46.0969C33.8563 46.4799 38.4321 46.1174 39.5938 45.4145C40.4497 44.8968 40.9472 43.9143 41.1507 43.4312C39.7284 43.7789 37.2309 44.1367 32.6199 44.1656Z" fill="#FDFFFF"/>
<path d="M33.7598 48.256C35.8556 48.2185 37.4806 47.677 38.7242 46.9563C38.5182 46.7378 37.7626 46.8791 37.1639 47.0589C36.4109 47.2851 33.4372 47.9581 29.9675 47.0701C29.1492 46.8608 28.7919 46.89 28.6556 47.0644C29.9502 47.7786 31.6269 48.2941 33.7598 48.256Z" fill="#FDFFFF"/>
<path opacity="0.5" d="M28.6558 47.0642C29.9503 47.7784 31.627 48.2939 33.7598 48.2557C35.8556 48.2183 37.4807 47.6767 38.7242 46.9561C38.7242 46.9561 34.5369 48.9591 28.6558 47.0642Z" fill="#D6C6BD"/>
<path opacity="0.5" d="M26.5923 44.2239C27.7408 44.4244 34.9018 45.5652 40.8797 43.9824C40.9969 43.7715 41.089 43.5774 41.1506 43.4312C39.7284 43.7788 37.2308 44.1367 32.6198 44.1655C29.3551 44.186 27.3449 43.8748 26.217 43.6028C26.2732 43.7306 26.3907 43.9579 26.5923 44.2239Z" fill="#D6C6BD"/>
<path d="M13.2509 75.5H24.2986C23.9817 70.9086 23.7105 66.8203 23.5378 63.8596C23.3877 61.2893 23.1431 54.1904 23.1431 54.1904C21.9681 54.8811 21.2076 56.6687 19.5418 58.3344C17.1738 60.7024 12.081 62.429 11.2732 63.284C10.9009 63.6782 10.842 64.3512 10.8852 64.963C10.6729 65.0538 10.4385 65.1553 10.1897 65.2643C10.933 67.7546 12.0255 71.4107 13.2509 75.5Z" fill="#7E482C"/>
<path d="M52.4321 75.4996L55.5469 65.3865C55.212 65.2294 54.9025 65.0867 54.6296 64.9625C54.6703 64.3507 54.6148 63.6777 54.2644 63.2835C53.5041 62.4284 48.7112 60.7019 46.4827 58.3339C44.915 56.6682 44.4261 54.9793 43.3203 54.2886C43.3203 54.2886 42.8633 61.2888 42.7221 63.8591C42.5594 66.8198 42.3042 70.9088 42.0061 75.4996H52.4321Z" fill="#7E482C"/>
<path d="M18.4072 10.9749C20.4299 10.0376 23.0445 11.4682 24.3271 12.7015C25.4596 13.7904 30.2341 14.6452 31.2695 14.8582C31.2221 14.8814 31.3818 14.8241 31.2695 14.8582C28.9715 14.2892 25.6321 13.168 24.5738 11.8628C23.0938 10.0375 21.1205 9.05083 19.8379 9.34687C18.5552 9.6429 16.5326 11.0241 15.4473 12.1096C14.362 13.1949 14.6579 13.9732 14.6579 13.9732C15.0034 12.6795 16.3846 11.9122 18.4072 10.9749Z" fill="#352624"/>
<path d="M33.7628 15.2241C33.7218 15.2409 33.681 15.2581 33.6379 15.2723C33.908 15.2734 33.8918 15.2518 33.7628 15.2241Z" fill="#352624"/>
<path d="M24.4258 3.93585C24.4258 3.93585 26.1031 3.82179 26.8924 4.85782C27.6818 5.89375 32.2245 12.2705 33.2933 15.2176C33.2933 15.2176 33.503 10.3337 32.319 8.50842C31.135 6.68312 28.9644 4.56178 27.8297 4.1671C26.6951 3.77251 24.4258 3.93585 24.4258 3.93585Z" fill="#352624"/>
<path d="M29.0736 1.47266C29.0736 1.47266 31.3323 1.89778 32.3684 2.63778C33.4043 3.37777 36.1176 5.6964 36.4629 7.02837C36.8082 8.36034 36.537 10.346 35.8462 12.3193C35.1556 14.2926 34.6705 14.6513 33.6181 15.2797C33.6181 15.2797 35.7723 14.9215 36.8576 12.1097C37.9429 9.29772 37.4003 6.48576 36.907 5.79504C36.4136 5.10442 32.763 2.19372 32.023 1.89778C31.283 1.60184 29.0736 1.47266 29.0736 1.47266Z" fill="#352624"/>
<path d="M38.2883 4.31787C38.2883 4.31787 40.4097 9.1494 40.3109 10.6788C40.2123 12.208 36.1821 14.7212 36.1821 14.7212C36.1821 14.7212 40.4589 12.7013 41.4949 10.6294C42.531 8.55742 38.2883 4.31787 38.2883 4.31787Z" fill="#352624"/>
<path d="M45.096 6.34961C45.096 6.34961 46.4773 7.42311 45.096 9.88976C43.7147 12.3564 38.2917 14.3487 38.2917 14.3487C38.2917 14.3487 39.2385 15.0586 40.5639 14.7188C41.8895 14.379 46.5267 12.307 46.724 9.79111C46.9214 7.27509 45.096 6.34961 45.096 6.34961Z" fill="#352624"/>
<path d="M42.6783 75.4996C43.5136 67.621 44.3862 60.3661 44.8002 60.0112C45.7211 59.2219 48.1218 62.9053 50.2268 63.4317C52.3316 63.9579 54.1076 63.3001 54.5022 64.4841C54.5379 64.5911 54.5846 64.6578 54.6396 64.6925C54.6468 64.1607 54.5636 63.6204 54.2642 63.2835C53.504 62.4284 48.711 60.7019 46.4825 58.3339C44.9149 56.6682 44.426 54.9793 43.3202 54.2886C43.3202 54.2886 42.863 61.2888 42.722 63.8591C42.5593 66.8198 42.304 70.9091 42.0059 75.4996H42.6783Z" fill="#6D3B24"/>
<path d="M15.7596 62.5112C18.2591 63.0374 19.7391 59.3868 20.9231 59.5183C21.4545 59.5773 22.5037 67.1519 23.5018 75.5H24.2985C23.9817 70.9094 23.7104 66.8201 23.5377 63.8596C23.3877 61.2893 23.1431 54.1904 23.1431 54.1904C21.9681 54.8811 21.2075 56.6687 19.5417 58.3344C17.1737 60.7024 12.0809 62.429 11.2732 63.284C11.2732 63.284 13.2601 61.985 15.7596 62.5112Z" fill="#6D3B24"/>
</svg>
