<svg width="27" height="25" viewBox="0 0 27 25" fill="none" xmlns="http://www.w3.org/2000/svg">
<path d="M3.64286 4.42311H16.1897C17.0246 4.42311 17.1129 3.39306 16.4058 3.22306H3.64286C3.46116 3.22306 3.27455 3.23306 3.09285 3.25806C3.3433 1.45298 4.98839 0.197919 6.75625 0.457931C6.80536 0.462931 6.84955 0.472932 6.89866 0.482932L19.3179 2.63803C19.4848 2.66303 19.6567 2.69303 19.8237 2.72803H19.8335C19.8973 2.73803 19.9562 2.75303 20.0201 2.76803C21.9205 3.23306 22.4754 4.97313 22.4754 6.02318V7.23324C22.4902 7.36324 22.5 7.49325 22.5 7.62325V17.2237C22.5 18.9888 21.0906 20.4238 19.3571 20.4238H3.64286C1.90937 20.4238 0.499998 18.9888 0.499998 17.2237V7.62325C0.499998 5.85817 1.90937 4.42311 3.64286 4.42311ZM5.97544 14.0235C6.84464 14.0235 7.54687 13.3085 7.54687 12.4235C7.54687 11.5384 6.84464 10.8234 5.97544 10.8234C5.10625 10.8234 4.40402 11.5384 4.40402 12.4235C4.40402 13.3085 5.10625 14.0235 5.97544 14.0235Z" fill="white"/>
<path d="M22.4001 16.0215H17.4501H15.2501C13.7313 16.0215 12.5001 17.2527 12.5001 18.7715V18.7715C12.5001 20.2903 13.7313 21.5215 15.2501 21.5215H16.3501" stroke="#097AFF" stroke-width="6" stroke-linecap="round"/>
<path d="M20.6501 13.2715L23.4001 16.0215L20.6501 18.7715" stroke="#097AFF" stroke-width="6" stroke-linecap="round" stroke-linejoin="round"/>
<path d="M23.4998 16.0215H17.4498H15.2498C13.731 16.0215 12.4998 17.2527 12.4998 18.7715V18.7715C12.4998 20.2903 13.731 21.5215 15.2498 21.5215H17.4498" stroke="white" stroke-width="1.8" stroke-linecap="round"/>
<path d="M20.7498 21.0635L14.1664 19.6885V18.3135H21.6665L20.7498 21.0635Z" fill="#097AFF"/>
<path d="M20.7501 13.2715L23.5001 16.0215L20.7501 18.7715" stroke="white" stroke-width="1.8" stroke-linecap="round" stroke-linejoin="round"/>
</svg>
