<svg width="26" height="27" viewBox="0 0 26 27" fill="none" xmlns="http://www.w3.org/2000/svg">
<path d="M25 8L19 8M19 8L19 2M19 8L25 2" stroke="white" stroke-width="2" stroke-linecap="round" stroke-linejoin="round"/>
<path d="M25 13.9727C25 20.6001 19.6274 25.9727 13 25.9727C6.37258 25.9727 1 20.6001 1 13.9727C1 7.34524 6.37258 1.97266 13 1.97266" stroke="white" stroke-width="2" stroke-linecap="round"/>
<path d="M16.7564 11.5269C17.0357 11.5269 17.2622 11.7534 17.2622 12.0328C17.2622 12.3121 17.0357 12.5386 16.7564 12.5386H12.4004V17.7375C12.4004 18.1778 12.4566 18.4776 12.5691 18.6368C12.6908 18.7961 12.925 18.8757 13.2716 18.8757C13.5527 18.8757 13.8337 18.8148 14.1147 18.693C14.4051 18.5712 14.9913 18.1684 15.2162 17.9623C15.4504 17.7562 15.6377 17.5221 15.7782 17.2598C15.9187 16.9881 15.989 16.7118 15.989 16.4307C15.989 16.2059 15.9234 16.0326 15.7923 15.9108C15.6705 15.7891 15.4691 15.7282 15.1881 15.7282C15.1316 15.7282 15.0761 15.7296 15.0215 15.7324C14.7321 15.7472 14.4487 15.562 14.4065 15.2753C14.3712 15.0354 14.518 14.8023 14.7583 14.7697C14.7889 14.7656 14.8197 14.7619 14.8508 14.7586C15.0382 14.7305 15.2255 14.7165 15.4129 14.7165C15.9094 14.7165 16.3122 14.8429 16.6213 15.0958C16.9398 15.3394 17.0991 15.7375 17.0991 16.2902C17.0991 16.7211 16.996 17.138 16.7899 17.5408C16.5932 17.9342 16.3262 18.2902 15.989 18.6087C15.6518 18.9178 14.9437 19.4003 14.5222 19.5782C14.1007 19.7562 13.6698 19.8452 13.2295 19.8452C12.8829 19.8452 12.5972 19.8078 12.3723 19.7328C12.1475 19.6485 11.9602 19.5361 11.8103 19.3956C11.7166 19.3019 11.6323 19.1989 11.5574 19.0864C11.4824 18.9647 11.4215 18.8054 11.3747 18.6087C11.3372 18.4026 11.3185 18.131 11.3185 17.7937V12.5386H9.68071C9.40134 12.5386 9.17486 12.3121 9.17486 12.0328C9.17486 11.7534 9.40134 11.5269 9.68071 11.5269H16.7564ZM10.6581 8C10.9297 8 11.1639 8.03747 11.3606 8.11241C11.5667 8.18735 11.74 8.29976 11.8805 8.44965C12.0492 8.62763 12.1756 8.87119 12.2599 9.18032C12.3536 9.48008 12.4004 9.90631 12.4004 10.459V11.879C12.4004 12.1777 12.1582 12.4199 11.8595 12.4199C11.5607 12.4199 11.3185 12.1777 11.3185 11.879V10.5152C11.3185 10.1873 11.2951 9.91567 11.2482 9.70022C11.2108 9.4754 11.1218 9.30678 10.9812 9.19437C10.8407 9.07259 10.63 9.0117 10.3489 9.0117C10.171 9.0117 9.99297 9.0398 9.81498 9.09601C9.56829 9.16454 9.29755 9.0486 9.19532 8.81386C9.08824 8.56796 9.19891 8.27534 9.45459 8.19435C9.57662 8.15569 9.69675 8.12369 9.81498 8.09836C10.0866 8.03279 10.3677 8 10.6581 8Z" fill="white" stroke="white" stroke-width="0.8"/>
</svg>
