<svg width="33" height="33" viewBox="0 0 33 33" fill="none" xmlns="http://www.w3.org/2000/svg">
<path d="M26.6187 10.576C26.1799 8.52384 25.0133 6.69982 23.3344 5.44081C21.6555 4.18181 19.5777 3.57286 17.4848 3.72644C15.3919 3.88003 13.4253 4.78577 11.9482 6.27638C10.4711 7.76698 9.58327 9.74176 9.44872 11.836C8.60432 11.8412 7.76922 12.0127 6.99111 12.3407C6.213 12.6687 5.5071 13.1468 4.91374 13.7476C3.71538 14.9609 3.04811 16.6006 3.05872 18.306C3.06933 20.0113 3.75695 21.6426 4.97031 22.8409C6.18367 24.0393 7.82338 24.7066 9.52872 24.696H11.7687C12.0339 24.696 12.2883 24.5906 12.4758 24.4031C12.6634 24.2155 12.7687 23.9612 12.7687 23.696C12.7687 23.4307 12.6634 23.1764 12.4758 22.9889C12.2883 22.8013 12.0339 22.696 11.7687 22.696H9.52872C8.35381 22.696 7.22702 22.2292 6.39624 21.3984C5.56545 20.5677 5.09872 19.4409 5.09872 18.266C5.09872 17.0911 5.56545 15.9643 6.39624 15.1335C7.22702 14.3027 8.35381 13.836 9.52872 13.836C9.78342 13.8408 10.0374 13.8642 10.2887 13.906C10.9585 14.0215 11.5921 14.292 12.1387 14.696C12.2444 14.7742 12.3644 14.8309 12.492 14.8627C12.6196 14.8945 12.7522 14.9008 12.8823 14.8813C13.0123 14.8618 13.1372 14.8169 13.2499 14.749C13.3625 14.6812 13.4607 14.5918 13.5387 14.486C13.6165 14.3797 13.6725 14.2591 13.7035 14.1311C13.7345 14.0032 13.74 13.8703 13.7195 13.7403C13.6991 13.6102 13.6532 13.4854 13.5844 13.3731C13.5156 13.2609 13.4253 13.1633 13.3187 13.086C12.7547 12.6462 12.1186 12.3078 11.4387 12.086C11.4202 10.3627 12.0685 8.69891 13.248 7.44239C14.4275 6.18588 16.047 5.43385 17.768 5.34347C19.489 5.2531 21.1784 5.83137 22.483 6.95743C23.7877 8.0835 24.6066 9.67021 24.7687 11.386C24.7938 11.5472 24.8579 11.6998 24.9556 11.8305C25.0532 11.9613 25.1813 12.0661 25.3287 12.136C26.4704 12.6799 27.3921 13.5975 27.9412 14.7368C28.4902 15.8761 28.6337 17.1687 28.3479 18.4006C28.0621 19.6326 27.3641 20.73 26.3695 21.5111C25.3749 22.2922 24.1433 22.7103 22.8787 22.696H21.7687C21.5035 22.696 21.2491 22.8013 21.0616 22.9889C20.8741 23.1764 20.7687 23.4307 20.7687 23.696C20.7687 23.9612 20.8741 24.2155 21.0616 24.4031C21.2491 24.5906 21.5035 24.696 21.7687 24.696H22.8787C24.5479 24.7004 26.1715 24.1516 27.4956 23.1353C28.8198 22.1191 29.7698 20.6927 30.1972 19.0791C30.6246 17.4656 30.5052 15.7559 29.8577 14.2174C29.2103 12.6789 28.0712 11.3984 26.6187 10.576Z" fill="#EB762F"/>
<path d="M20.9778 19.4881L17.4778 15.9881C17.3827 15.8971 17.2705 15.8257 17.1478 15.7781C16.9043 15.6781 16.6312 15.6781 16.3878 15.7781C16.265 15.8257 16.1529 15.8971 16.0578 15.9881L12.5578 19.4881C12.3695 19.6764 12.2637 19.9318 12.2637 20.1981C12.2637 20.4644 12.3695 20.7198 12.5578 20.9081C12.7461 21.0964 13.0015 21.2022 13.2678 21.2022C13.5341 21.2022 13.7895 21.0964 13.9778 20.9081L15.7678 19.1081V28.6981C15.7678 28.9634 15.8731 29.2177 16.0607 29.4052C16.2482 29.5928 16.5025 29.6981 16.7678 29.6981C17.033 29.6981 17.2873 29.5928 17.4749 29.4052C17.6624 29.2177 17.7678 28.9634 17.7678 28.6981V19.1081L19.5578 20.9081C19.6507 21.0019 19.7613 21.0763 19.8832 21.127C20.005 21.1778 20.1358 21.2039 20.2678 21.2039C20.3998 21.2039 20.5305 21.1778 20.6523 21.127C20.7742 21.0763 20.8848 21.0019 20.9778 20.9081C21.0715 20.8152 21.1459 20.7046 21.1967 20.5827C21.2474 20.4609 21.2736 20.3302 21.2736 20.1981C21.2736 20.0661 21.2474 19.9354 21.1967 19.8136C21.1459 19.6917 21.0715 19.5811 20.9778 19.4881Z" fill="#EB762F"/>
</svg>
