<svg width="25" height="25" viewBox="0 0 25 25" fill="none" xmlns="http://www.w3.org/2000/svg">
<path d="M19.9321 4.5H17.9321V3.5C17.9321 3.23478 17.8268 2.98043 17.6392 2.79289C17.4517 2.60536 17.1973 2.5 16.9321 2.5C16.6669 2.5 16.4126 2.60536 16.225 2.79289C16.0375 2.98043 15.9321 3.23478 15.9321 3.5V4.5H9.93213V3.5C9.93213 3.23478 9.82677 2.98043 9.63924 2.79289C9.4517 2.60536 9.19735 2.5 8.93213 2.5C8.66691 2.5 8.41256 2.60536 8.22502 2.79289C8.03749 2.98043 7.93213 3.23478 7.93213 3.5V4.5H5.93213C5.13648 4.5 4.37342 4.81607 3.81081 5.37868C3.2482 5.94129 2.93213 6.70435 2.93213 7.5V19.5C2.93213 20.2956 3.2482 21.0587 3.81081 21.6213C4.37342 22.1839 5.13648 22.5 5.93213 22.5H19.9321C20.7278 22.5 21.4908 22.1839 22.0534 21.6213C22.6161 21.0587 22.9321 20.2956 22.9321 19.5V7.5C22.9321 6.70435 22.6161 5.94129 22.0534 5.37868C21.4908 4.81607 20.7278 4.5 19.9321 4.5ZM20.9321 19.5C20.9321 19.7652 20.8268 20.0196 20.6392 20.2071C20.4517 20.3946 20.1973 20.5 19.9321 20.5H5.93213C5.66691 20.5 5.41256 20.3946 5.22502 20.2071C5.03749 20.0196 4.93213 19.7652 4.93213 19.5V12.5H20.9321V19.5ZM20.9321 10.5H4.93213V7.5C4.93213 7.23478 5.03749 6.98043 5.22502 6.79289C5.41256 6.60536 5.66691 6.5 5.93213 6.5H7.93213V7.5C7.93213 7.76522 8.03749 8.01957 8.22502 8.20711C8.41256 8.39464 8.66691 8.5 8.93213 8.5C9.19735 8.5 9.4517 8.39464 9.63924 8.20711C9.82677 8.01957 9.93213 7.76522 9.93213 7.5V6.5H15.9321V7.5C15.9321 7.76522 16.0375 8.01957 16.225 8.20711C16.4126 8.39464 16.6669 8.5 16.9321 8.5C17.1973 8.5 17.4517 8.39464 17.6392 8.20711C17.8268 8.01957 17.9321 7.76522 17.9321 7.5V6.5H19.9321C20.1973 6.5 20.4517 6.60536 20.6392 6.79289C20.8268 6.98043 20.9321 7.23478 20.9321 7.5V10.5Z" fill="#5D636D"/>
</svg>
