<svg width="25" height="25" viewBox="0 0 25 25" fill="none" xmlns="http://www.w3.org/2000/svg">
<path d="M16.2191 21.6489C15.914 21.648 15.612 21.5867 15.3305 21.4684C15.049 21.3501 14.7935 21.1772 14.5786 20.9596C14.3637 20.742 14.1936 20.4839 14.0781 20.2002C13.9626 19.9165 13.9039 19.6126 13.9054 19.3061V16.1879C13.9033 15.8812 13.9615 15.5771 14.0768 15.2931C14.1922 15.0091 14.3622 14.7508 14.5772 14.5331C14.7923 14.3153 15.048 14.1424 15.3298 14.0244C15.6116 13.9063 15.9138 13.8454 16.2191 13.8451H19.2962C19.6011 13.8464 19.9027 13.908 20.1839 14.0265C20.465 14.1449 20.7202 14.3179 20.9347 14.5355C21.1493 14.753 21.3191 15.011 21.4345 15.2945C21.5498 15.578 21.6084 15.8816 21.6069 16.1879V19.3061C21.6085 19.9246 21.366 20.5186 20.9324 20.9578C20.4988 21.3969 19.9096 21.6455 19.2939 21.6489H16.2191ZM5.70753 21.6489C5.09192 21.6453 4.50283 21.3967 4.0693 20.9575C3.63577 20.5184 3.39314 19.9246 3.39456 19.3061V16.1879C3.39306 15.8814 3.45172 15.5776 3.56719 15.2939C3.68265 15.0101 3.85265 14.7521 4.06747 14.5344C4.28229 14.3167 4.53771 14.1438 4.81913 14.0253C5.10054 13.9069 5.40243 13.8454 5.70753 13.8443H8.78238C9.0877 13.8446 9.38995 13.9056 9.67173 14.0237C9.95351 14.1418 10.2093 14.3148 10.4242 14.5326C10.6392 14.7504 10.8092 15.0088 10.9244 15.2929C11.0395 15.577 11.0976 15.8812 11.0953 16.1879V19.3061C11.0968 19.6126 11.0382 19.9163 10.9227 20.2C10.8072 20.4837 10.6372 20.7417 10.4224 20.9593C10.2076 21.1769 9.95213 21.3498 9.67072 21.4682C9.38931 21.5865 9.08744 21.6479 8.78238 21.6489H5.70753ZM16.2191 11.1554C15.9138 11.1552 15.6115 11.0943 15.3297 10.9763C15.0479 10.8583 14.7921 10.6854 14.577 10.4676C14.362 10.2499 14.1919 9.99154 14.0766 9.70749C13.9614 9.42345 13.9032 9.1193 13.9054 8.81255V5.69515C13.9039 5.38856 13.9625 5.08469 14.0781 4.80092C14.1936 4.51715 14.3636 4.25904 14.5785 4.04137C14.7934 3.82369 15.0489 3.65073 15.3305 3.53236C15.612 3.414 15.9139 3.35256 16.2191 3.35156L19.2962 3.35156C19.9116 3.35559 20.5004 3.6045 20.9335 4.04377C21.3666 4.48304 21.6087 5.07685 21.6069 5.69515V8.81332C21.6085 9.11983 21.5499 9.42364 21.4345 9.70737C21.319 9.9911 21.149 10.2492 20.9342 10.4668C20.7193 10.6844 20.4639 10.8573 20.1824 10.9756C19.9009 11.0939 19.599 11.1552 19.2939 11.1561L16.2191 11.1554ZM5.7098 11.1554C5.40462 11.1547 5.10256 11.0935 4.82094 10.9754C4.53931 10.8572 4.28365 10.6844 4.06859 10.4669C3.85353 10.2493 3.6833 9.99129 3.56764 9.70755C3.45198 9.4238 3.39316 9.11993 3.39456 8.81332V5.69515C3.39294 5.07652 3.63548 4.48248 4.06903 4.04319C4.50258 3.6039 5.09178 3.35519 5.70753 3.35156L8.78238 3.35156C9.0875 3.35256 9.38944 3.41401 9.6709 3.53238C9.95236 3.65075 10.2078 3.82373 10.4227 4.04141C10.6375 4.2591 10.8075 4.51721 10.9229 4.80098C11.0384 5.08475 11.0969 5.3886 11.0953 5.69515V8.81332C11.0974 9.11993 11.0392 9.42394 10.9239 9.70785C10.8086 9.99176 10.6386 10.25 10.4237 10.4676C10.2087 10.6853 9.95306 10.8581 9.67138 10.9761C9.3897 11.0942 9.08757 11.1551 8.78238 11.1554H5.7098Z" fill="#147FFD"/>
</svg>
