<svg width="121" height="80" viewBox="0 0 121 80" fill="none" xmlns="http://www.w3.org/2000/svg">
<g filter="url(#filter0_d_67_5039)">
<path d="M104.45 8H16.194C13.0493 8 10.5 10.6863 10.5 14V62C10.5 65.3137 13.0493 68 16.194 68H104.45C107.595 68 110.144 65.3137 110.144 62V14C110.144 10.6863 107.595 8 104.45 8Z" fill="white"/>
<path d="M10.856 29.375H110.5" stroke="#E2E3E8" stroke-width="0.731661"/>
<path d="M79.5391 12.5H41.105C39.9257 12.5 38.9697 13.5074 38.9697 14.75C38.9697 15.9926 39.9257 17 41.105 17H79.5391C80.7184 17 81.6744 15.9926 81.6744 14.75C81.6744 13.5074 80.7184 12.5 79.5391 12.5Z" fill="#E2E3E8"/>
<path d="M90.2153 20H30.4288C29.2496 20 28.2936 21.0074 28.2936 22.25C28.2936 23.4926 29.2496 24.5 30.4288 24.5H90.2153C91.3945 24.5 92.3505 23.4926 92.3505 22.25C92.3505 21.0074 91.3945 20 90.2153 20Z" fill="#E2E3E8"/>
<path d="M19.7527 46.2505H17.6175C17.2244 46.2505 16.9058 46.5863 16.9058 47.0005V62.0005C16.9058 62.4147 17.2244 62.7505 17.6175 62.7505H19.7527C20.1458 62.7505 20.4645 62.4147 20.4645 62.0005V47.0005C20.4645 46.5863 20.1458 46.2505 19.7527 46.2505Z" fill="#E2E3E8"/>
<path d="M24.7349 46.2505H22.5997C22.2066 46.2505 21.8879 46.5863 21.8879 47.0005V62.0005C21.8879 62.4147 22.2066 62.7505 22.5997 62.7505H24.7349C25.128 62.7505 25.4467 62.4147 25.4467 62.0005V47.0005C25.4467 46.5863 25.128 46.2505 24.7349 46.2505Z" fill="#E2E3E8"/>
<path d="M38.2581 46.2505H36.1229C35.7298 46.2505 35.4111 46.5863 35.4111 47.0005V62.0005C35.4111 62.4147 35.7298 62.7505 36.1229 62.7505H38.2581C38.6512 62.7505 38.9699 62.4147 38.9699 62.0005V47.0005C38.9699 46.5863 38.6512 46.2505 38.2581 46.2505Z" fill="#E2E3E8"/>
<path d="M46.0873 46.2505H41.1051C40.712 46.2505 40.3933 46.5863 40.3933 47.0005V62.0005C40.3933 62.4147 40.712 62.7505 41.1051 62.7505H46.0873C46.4803 62.7505 46.799 62.4147 46.799 62.0005V47.0005C46.799 46.5863 46.4803 46.2505 46.0873 46.2505Z" fill="#E2E3E8"/>
<path d="M99.4681 46.2505H48.9343C48.5412 46.2505 48.2225 46.5863 48.2225 47.0005V62.0005C48.2225 62.4147 48.5412 62.7505 48.9343 62.7505H99.4681C99.8612 62.7505 100.18 62.4147 100.18 62.0005V47.0005C100.18 46.5863 99.8612 46.2505 99.4681 46.2505Z" fill="#E2E3E8"/>
<path d="M28.2937 47.0005C28.2937 46.5863 27.9751 46.2505 27.582 46.2505C27.1889 46.2505 26.8702 46.5863 26.8702 47.0005V62.0005C26.8702 62.4147 27.1889 62.7505 27.582 62.7505C27.9751 62.7505 28.2937 62.4147 28.2937 62.0005V47.0005Z" fill="#E2E3E8"/>
<path d="M33.9877 47.0005C33.9877 46.5863 33.669 46.2505 33.276 46.2505C32.8829 46.2505 32.5642 46.5863 32.5642 47.0005V62.0005C32.5642 62.4147 32.8829 62.7505 33.276 62.7505C33.669 62.7505 33.9877 62.4147 33.9877 62.0005V47.0005Z" fill="#E2E3E8"/>
<path d="M31.1407 47.0005C31.1407 46.5863 30.822 46.2505 30.4289 46.2505C30.0358 46.2505 29.7172 46.5863 29.7172 47.0005V62.0005C29.7172 62.4147 30.0358 62.7505 30.4289 62.7505C30.822 62.7505 31.1407 62.4147 31.1407 62.0005V47.0005Z" fill="#E2E3E8"/>
<path d="M103.027 46.2505H102.315C101.922 46.2505 101.603 46.5863 101.603 47.0005V62.0005C101.603 62.4147 101.922 62.7505 102.315 62.7505H103.027C103.42 62.7505 103.739 62.4147 103.739 62.0005V47.0005C103.739 46.5863 103.42 46.2505 103.027 46.2505Z" fill="#E2E3E8"/>
<path d="M35.4111 36.5H19.041C17.8617 36.5 16.9058 37.5074 16.9058 38.75C16.9058 39.9926 17.8617 41 19.041 41H35.4111C36.5904 41 37.5463 39.9926 37.5463 38.75C37.5463 37.5074 36.5904 36.5 35.4111 36.5Z" fill="#E2E3E8"/>
<path d="M101.603 36.5H85.2331C84.0539 36.5 83.0979 37.5074 83.0979 38.75C83.0979 39.9926 84.0539 41 85.2331 41H101.603C102.782 41 103.738 39.9926 103.738 38.75C103.738 37.5074 102.782 36.5 101.603 36.5Z" fill="#E2E3E8"/>
</g>
<defs>
<filter id="filter0_d_67_5039" x="0.5" y="0" width="120" height="80" filterUnits="userSpaceOnUse" color-interpolation-filters="sRGB">
<feFlood flood-opacity="0" result="BackgroundImageFix"/>
<feColorMatrix in="SourceAlpha" type="matrix" values="0 0 0 0 0 0 0 0 0 0 0 0 0 0 0 0 0 0 127 0" result="hardAlpha"/>
<feOffset dy="2"/>
<feGaussianBlur stdDeviation="5"/>
<feComposite in2="hardAlpha" operator="out"/>
<feColorMatrix type="matrix" values="0 0 0 0 0 0 0 0 0 0 0 0 0 0 0 0 0 0 0.16 0"/>
<feBlend mode="normal" in2="BackgroundImageFix" result="effect1_dropShadow_67_5039"/>
<feBlend mode="normal" in="SourceGraphic" in2="effect1_dropShadow_67_5039" result="shape"/>
</filter>
</defs>
</svg>
