<svg width="51" height="51" viewBox="0 0 51 51" fill="none" xmlns="http://www.w3.org/2000/svg">
<rect x="1.3" y="1.3" width="48.4" height="48.4" rx="24.2" fill="white"/>
<rect x="1.3" y="1.3" width="48.4" height="48.4" rx="24.2" stroke="#FF7000" stroke-width="1.6"/>
<path d="M23.1585 25.1235H17.4649C16.6572 25.1235 16 24.4663 16 23.6585V17.9649C16 17.1572 16.6572 16.5 17.4649 16.5H23.1586C23.9663 16.5 24.6235 17.1572 24.6235 17.9649V23.6586C24.6235 24.4663 23.9663 25.1235 23.1585 25.1235Z" fill="#FF7000"/>
<path d="M33.5304 21.7666H31.4161C30.6083 21.7666 29.9512 21.1095 29.9512 20.3017V17.9649C29.9512 17.1572 30.6083 16.5 31.4161 16.5H33.5304C34.3382 16.5 34.9954 17.1572 34.9954 17.9649V20.3017C34.9954 21.1095 34.3382 21.7666 33.5304 21.7666Z" fill="#FF7000"/>
<path d="M34.2647 25.1235H28.0079C27.2001 25.1235 26.543 24.4663 26.543 23.6585V17.2325C26.543 16.828 26.8709 16.5 27.2754 16.5C27.68 16.5 28.0079 16.828 28.0079 17.2325V23.6586H34.2647C34.6692 23.6586 34.9971 23.9865 34.9971 24.391C34.9971 24.7956 34.6692 25.1235 34.2647 25.1235Z" fill="#FF7000"/>
<path d="M33.5336 35.5219H27.8399C27.0322 35.5219 26.375 34.8647 26.375 34.057V28.3634C26.375 27.5556 27.0322 26.8984 27.8399 26.8984H33.5336C34.3413 26.8984 34.9985 27.5556 34.9985 28.3634V34.057C34.9985 34.8647 34.3413 35.5219 33.5336 35.5219Z" fill="#FF7000"/>
<path d="M19.5793 35.5244H17.4649C16.6572 35.5244 16 34.8673 16 34.0595V31.7228C16 30.915 16.6572 30.2578 17.4649 30.2578H19.5793C20.387 30.2578 21.0442 30.915 21.0442 31.7228V34.0595C21.0442 34.8673 20.387 35.5244 19.5793 35.5244Z" fill="#FF7000"/>
<path d="M23.7217 35.5219C23.3172 35.5219 22.9892 35.1939 22.9892 34.7894V28.3634H16.7325C16.328 28.3634 16 28.0354 16 27.6309C16 27.2264 16.328 26.8984 16.7325 26.8984H22.9892C23.797 26.8984 24.4542 27.5556 24.4542 28.3634V34.7895C24.4542 35.194 24.1262 35.5219 23.7217 35.5219Z" fill="#FF7000"/>
</svg>
