<svg width="17" height="17" viewBox="0 0 17 17" fill="none" xmlns="http://www.w3.org/2000/svg">
<path d="M4.08333 15.7552C3.71667 15.7552 3.40267 15.6245 3.14133 15.3632C2.88 15.1019 2.74956 14.7881 2.75 14.4219V5.08854C2.75 4.72187 2.88067 4.40787 3.142 4.14654C3.40333 3.88521 3.71711 3.75476 4.08333 3.75521H4.75V2.42188H6.08333V3.75521H11.4167V2.42188H12.75V3.75521H13.4167C13.7833 3.75521 14.0973 3.88587 14.3587 4.14721C14.62 4.40854 14.7504 4.72232 14.75 5.08854V14.4219C14.75 14.7885 14.6193 15.1025 14.358 15.3639C14.0967 15.6252 13.7829 15.7557 13.4167 15.7552H4.08333ZM4.08333 14.4219H13.4167V7.75521H4.08333V14.4219ZM4.08333 6.42188H13.4167V5.08854H4.08333V6.42188Z" fill="black"/>
</svg>
