<svg width="34" height="29" viewBox="0 0 34 29" fill="none" xmlns="http://www.w3.org/2000/svg">
<g id="Group 36731">
<path id="Vector" d="M0.810418 9.70972C0.74939 9.49014 0.760344 9.25622 0.841611 9.04357C0.922879 8.83092 1.07001 8.6512 1.2606 8.53176L14.5994 0.155102C14.761 0.0536897 14.9471 0 15.1368 0C15.3266 0 15.5126 0.0536897 15.6742 0.155102L29.013 8.53176C29.2037 8.65105 29.3509 8.83065 29.4323 9.04321C29.5137 9.25577 29.5249 9.48965 29.464 9.70926C29.4032 9.92887 29.2737 10.1222 29.0953 10.2598C28.9168 10.3974 28.6993 10.4717 28.4756 10.4715H25.3974V21.6403H26.2004C26.4725 21.6403 26.7335 21.7507 26.9259 21.947C27.1183 22.1434 27.2264 22.4097 27.2264 22.6874C27.2264 22.9651 27.1183 23.2315 26.9259 23.4278C26.7335 23.6242 26.4725 23.7345 26.2004 23.7345H2.82407C2.55194 23.7345 2.29095 23.6242 2.09853 23.4278C1.90611 23.2315 1.798 22.9651 1.798 22.6874C1.798 22.4097 1.90611 22.1434 2.09853 21.947C2.29095 21.7507 2.55194 21.6403 2.82407 21.6403C3.09619 21.6403 4.87619 21.6403 4.87619 21.6403V10.4715H1.798C1.57456 10.4716 1.35721 10.3972 1.17896 10.2597C1.0007 10.1222 0.871305 9.92911 0.810418 9.70972ZM17.1889 19.1972C17.1889 19.4749 17.297 19.7412 17.4895 19.9376C17.6819 20.1339 17.9429 20.2442 18.215 20.2442C18.4871 20.2442 18.7481 20.1339 18.9405 19.9376C19.133 19.7412 19.2411 19.4749 19.2411 19.1972V11.5186C19.2411 11.2409 19.133 10.9745 18.9405 10.7782C18.7481 10.5818 18.4871 10.4715 18.215 10.4715C17.9429 10.4715 17.6819 10.5818 17.4895 10.7782C17.297 10.9745 17.1889 11.2409 17.1889 11.5186V19.1972ZM11.0326 19.1972C11.0326 19.4749 11.1407 19.7412 11.3331 19.9376C11.5255 20.1339 11.7865 20.2442 12.0586 20.2442C12.3308 20.2442 12.5917 20.1339 12.7842 19.9376C12.9766 19.7412 13.0847 19.4749 13.0847 19.1972V11.5186C13.0847 11.2409 12.9766 10.9745 12.7842 10.7782C12.5917 10.5818 12.3308 10.4715 12.0586 10.4715C11.7865 10.4715 11.5255 10.5818 11.3331 10.7782C11.1407 10.9745 11.0326 11.2409 11.0326 11.5186V19.1972Z" fill="#097AFF"/>
<g id="Group 36730">
<g id="Group 36728">
<g id="Group 36727">
<path id="Rectangle 5627" d="M30.6267 18.4297H24.4432H21.695C19.7978 18.4297 18.2598 19.9677 18.2598 21.865V21.865C18.2598 23.7622 19.7978 25.3002 21.695 25.3002H23.0691" stroke="white" stroke-width="6.05002" stroke-linecap="round"/>
<path id="Vector 1459" d="M27.1914 14.9922L30.6267 18.4275L27.1914 21.8627" stroke="white" stroke-width="2.01667" stroke-linecap="round" stroke-linejoin="round"/>
</g>
</g>
<g id="Group 36729">
<g id="Group 36727_2">
<path id="Rectangle 5627_2" d="M32.0008 18.4297H24.4432H21.695C19.7978 18.4297 18.2598 19.9677 18.2598 21.865V21.865C18.2598 23.7622 19.7978 25.3002 21.695 25.3002H24.4432" stroke="#FF8819" stroke-width="1.98" stroke-linecap="round"/>
<path id="Vector 1460" d="M28.5653 24.7243L22.8398 23.0067V21.2891H29.7104L28.5653 24.7243Z" fill="white"/>
<path id="Vector 1459_2" d="M28.5645 14.9922L31.9997 18.4275L28.5645 21.8627" stroke="#FF8819" stroke-width="1.98" stroke-linecap="round" stroke-linejoin="round"/>
</g>
</g>
</g>
</g>
</svg>
