<svg width="335" height="59" viewBox="0 0 335 59" fill="none" xmlns="http://www.w3.org/2000/svg">
<rect x="0.298828" y="0.6875" width="334.404" height="58.2812" rx="4" fill="#EB762F" fill-opacity="0.06"/>
<rect x="0.798828" y="1.1875" width="333.404" height="57.2812" rx="3.5" stroke="#EB762F" stroke-opacity="0.58" stroke-dasharray="3.76 3.76"/>
<path d="M46.6187 23.7088C46.1799 21.6566 45.0133 19.8326 43.3344 18.5736C41.6555 17.3146 39.5777 16.7057 37.4848 16.8593C35.3919 17.0128 33.4253 17.9186 31.9482 19.4092C30.4711 20.8998 29.5833 22.8746 29.4487 24.9688C28.6043 24.974 27.7692 25.1455 26.9911 25.4735C26.213 25.8015 25.5071 26.2796 24.9137 26.8804C23.7154 28.0937 23.0481 29.7334 23.0587 31.4388C23.0693 33.1441 23.7569 34.7754 24.9703 35.9738C26.1837 37.1721 27.8234 37.8394 29.5287 37.8288H31.7687C32.0339 37.8288 32.2883 37.7234 32.4758 37.5359C32.6634 37.3483 32.7687 37.094 32.7687 36.8288C32.7687 36.5636 32.6634 36.3092 32.4758 36.1217C32.2883 35.9341 32.0339 35.8288 31.7687 35.8288H29.5287C28.3538 35.8288 27.227 35.362 26.3962 34.5313C25.5654 33.7005 25.0987 32.5737 25.0987 31.3988C25.0987 30.2239 25.5654 29.0971 26.3962 28.2663C27.227 27.4355 28.3538 26.9688 29.5287 26.9688C29.7834 26.9736 30.0374 26.997 30.2887 27.0388C30.9585 27.1543 31.5921 27.4248 32.1387 27.8288C32.2444 27.907 32.3644 27.9637 32.492 27.9955C32.6196 28.0273 32.7522 28.0336 32.8823 28.0141C33.0123 27.9946 33.1372 27.9497 33.2499 27.8818C33.3625 27.814 33.4607 27.7246 33.5387 27.6188C33.6165 27.5125 33.6725 27.3919 33.7035 27.264C33.7345 27.136 33.74 27.0032 33.7195 26.8731C33.6991 26.743 33.6532 26.6182 33.5844 26.506C33.5156 26.3937 33.4253 26.2961 33.3187 26.2188C32.7547 25.779 32.1186 25.4406 31.4387 25.2188C31.4202 23.4955 32.0685 21.8317 33.248 20.5752C34.4275 19.3187 36.047 18.5667 37.768 18.4763C39.489 18.3859 41.1784 18.9642 42.483 20.0902C43.7877 21.2163 44.6066 22.803 44.7687 24.5188C44.7938 24.68 44.8579 24.8326 44.9556 24.9633C45.0532 25.0941 45.1813 25.1989 45.3287 25.2688C46.4704 25.8127 47.3921 26.7303 47.9412 27.8696C48.4902 29.0089 48.6337 30.3015 48.3479 31.5335C48.0621 32.7654 47.3641 33.8628 46.3695 34.6439C45.3749 35.4251 44.1433 35.8431 42.8787 35.8288H41.7687C41.5035 35.8288 41.2491 35.9341 41.0616 36.1217C40.8741 36.3092 40.7687 36.5636 40.7687 36.8288C40.7687 37.094 40.8741 37.3483 41.0616 37.5359C41.2491 37.7234 41.5035 37.8288 41.7687 37.8288H42.8787C44.5479 37.8332 46.1715 37.2844 47.4956 36.2682C48.8198 35.2519 49.7698 33.8255 50.1972 32.2119C50.6246 30.5984 50.5052 28.8887 49.8577 27.3502C49.2103 25.8117 48.0712 24.5312 46.6187 23.7088Z" fill="#EB762F"/>
<path d="M40.9778 32.621L37.4778 29.121C37.3827 29.0299 37.2705 28.9585 37.1478 28.911C36.9043 28.8109 36.6312 28.8109 36.3878 28.911C36.265 28.9585 36.1529 29.0299 36.0578 29.121L32.5578 32.621C32.3695 32.8093 32.2637 33.0646 32.2637 33.331C32.2637 33.5973 32.3695 33.8526 32.5578 34.041C32.7461 34.2293 33.0015 34.335 33.2678 34.335C33.5341 34.335 33.7895 34.2293 33.9778 34.041L35.7678 32.241V41.831C35.7678 42.0962 35.8731 42.3505 36.0607 42.5381C36.2482 42.7256 36.5025 42.831 36.7678 42.831C37.033 42.831 37.2873 42.7256 37.4749 42.5381C37.6624 42.3505 37.7678 42.0962 37.7678 41.831V32.241L39.5578 34.041C39.6507 34.1347 39.7613 34.2091 39.8832 34.2598C40.005 34.3106 40.1358 34.3367 40.2678 34.3367C40.3998 34.3367 40.5305 34.3106 40.6523 34.2598C40.7742 34.2091 40.8848 34.1347 40.9778 34.041C41.0715 33.948 41.1459 33.8374 41.1967 33.7155C41.2474 33.5937 41.2736 33.463 41.2736 33.331C41.2736 33.1989 41.2474 33.0682 41.1967 32.9464C41.1459 32.8245 41.0715 32.7139 40.9778 32.621Z" fill="#EB762F"/>
<path d="M71.3261 16.5837H72.9101V22.2966C72.9101 22.9229 72.7621 23.4736 72.4661 23.949C72.1729 24.4244 71.7601 24.7958 71.2279 25.0634C70.6956 25.3281 70.0736 25.4605 69.362 25.4605C68.6475 25.4605 68.0241 25.3281 67.4919 25.0634C66.9596 24.7958 66.5468 24.4244 66.2536 23.949C65.9604 23.4736 65.8139 22.9229 65.8139 22.2966V16.5837H67.3979V22.1643C67.3979 22.5286 67.4776 22.8531 67.637 23.1378C67.7993 23.4224 68.027 23.6459 68.3202 23.8081C68.6134 23.9675 68.9606 24.0472 69.362 24.0472C69.7633 24.0472 70.1106 23.9675 70.4038 23.8081C70.6998 23.6459 70.9276 23.4224 71.087 23.1378C71.2464 22.8531 71.3261 22.5286 71.3261 22.1643V16.5837ZM74.5636 27.7875V18.7698H76.0836V19.8544H76.1733C76.253 19.6949 76.3654 19.5256 76.5106 19.3463C76.6557 19.1641 76.8521 19.0089 77.0998 18.8809C77.3474 18.7499 77.6634 18.6844 78.0477 18.6844C78.5543 18.6844 79.0112 18.814 79.4182 19.073C79.8281 19.3292 80.1526 19.7092 80.3917 20.213C80.6337 20.714 80.7547 21.3288 80.7547 22.0575C80.7547 22.7777 80.6365 23.3897 80.4003 23.8935C80.164 24.3973 79.8424 24.7816 79.4353 25.0463C79.0283 25.311 78.5671 25.4434 78.0519 25.4434C77.6762 25.4434 77.3645 25.3808 77.1169 25.2555C76.8692 25.1303 76.67 24.9794 76.5191 24.803C76.3711 24.6236 76.2558 24.4543 76.1733 24.2949H76.1092V27.7875H74.5636ZM76.0793 22.049C76.0793 22.4731 76.1391 22.8446 76.2586 23.1634C76.381 23.4822 76.5561 23.7313 76.7838 23.9106C77.0144 24.0871 77.2933 24.1753 77.6207 24.1753C77.9623 24.1753 78.2483 24.0842 78.4789 23.902C78.7095 23.717 78.8831 23.4651 78.9998 23.1463C79.1194 22.8246 79.1791 22.4589 79.1791 22.049C79.1791 21.6419 79.1208 21.2804 79.0041 20.9645C78.8874 20.6485 78.7137 20.4009 78.4832 20.2215C78.2526 20.0422 77.9651 19.9526 77.6207 19.9526C77.2905 19.9526 77.0101 20.0394 76.7796 20.213C76.549 20.3866 76.3739 20.63 76.2544 20.9431C76.1377 21.2562 76.0793 21.6249 76.0793 22.049ZM83.6239 16.5837V25.3281H82.0783V16.5837H83.6239ZM88.074 25.4562C87.4336 25.4562 86.8785 25.3153 86.4088 25.0335C85.9392 24.7517 85.5748 24.3575 85.3158 23.8508C85.0596 23.3441 84.9315 22.7521 84.9315 22.0746C84.9315 21.3971 85.0596 20.8037 85.3158 20.2941C85.5748 19.7846 85.9392 19.389 86.4088 19.1072C86.8785 18.8254 87.4336 18.6844 88.074 18.6844C88.7145 18.6844 89.2695 18.8254 89.7392 19.1072C90.2089 19.389 90.5718 19.7846 90.828 20.2941C91.087 20.8037 91.2165 21.3971 91.2165 22.0746C91.2165 22.7521 91.087 23.3441 90.828 23.8508C90.5718 24.3575 90.2089 24.7517 89.7392 25.0335C89.2695 25.3153 88.7145 25.4562 88.074 25.4562ZM88.0826 24.218C88.4298 24.218 88.7202 24.1226 88.9536 23.9319C89.187 23.7384 89.3606 23.4793 89.4745 23.1548C89.5912 22.8303 89.6495 22.4688 89.6495 22.0703C89.6495 21.669 89.5912 21.3061 89.4745 20.9816C89.3606 20.6542 89.187 20.3938 88.9536 20.2002C88.7202 20.0066 88.4298 19.9099 88.0826 19.9099C87.7267 19.9099 87.4307 20.0066 87.1945 20.2002C86.961 20.3938 86.786 20.6542 86.6693 20.9816C86.5554 21.3061 86.4985 21.669 86.4985 22.0703C86.4985 22.4688 86.5554 22.8303 86.6693 23.1548C86.786 23.4793 86.961 23.7384 87.1945 23.9319C87.4307 24.1226 87.7267 24.218 88.0826 24.218ZM94.4156 25.4605C94 25.4605 93.6257 25.3865 93.2927 25.2385C92.9625 25.0876 92.7006 24.8656 92.507 24.5724C92.3163 24.2792 92.221 23.9177 92.221 23.4879C92.221 23.1178 92.2893 22.8118 92.4259 22.5699C92.5625 22.3279 92.749 22.1344 92.9853 21.9892C93.2215 21.844 93.4877 21.7344 93.7837 21.6604C94.0826 21.5836 94.3914 21.5281 94.7102 21.4939C95.0945 21.4541 95.4062 21.4185 95.6453 21.3872C95.8844 21.353 96.058 21.3018 96.1662 21.2335C96.2772 21.1623 96.3327 21.0527 96.3327 20.9047V20.8791C96.3327 20.5574 96.2373 20.3084 96.0466 20.1319C95.8559 19.9554 95.5812 19.8672 95.2226 19.8672C94.844 19.8672 94.5437 19.9497 94.3217 20.1148C94.1025 20.2799 93.9545 20.4749 93.8776 20.6998L92.4345 20.4948C92.5483 20.0963 92.7362 19.7633 92.9981 19.4957C93.2599 19.2253 93.5802 19.0232 93.9587 18.8894C94.3373 18.7528 94.7558 18.6844 95.214 18.6844C95.53 18.6844 95.8445 18.7215 96.1576 18.7955C96.4708 18.8695 96.7568 18.9919 97.0159 19.1627C97.2749 19.3306 97.4827 19.5597 97.6392 19.8501C97.7986 20.1404 97.8783 20.5033 97.8783 20.9389V25.3281H96.3925V24.4272H96.3412C96.2473 24.6094 96.115 24.7802 95.9442 24.9396C95.7762 25.0961 95.5642 25.2228 95.308 25.3196C95.0546 25.4135 94.7572 25.4605 94.4156 25.4605ZM94.817 24.3247C95.1272 24.3247 95.3962 24.2635 95.6239 24.1411C95.8517 24.0159 96.0267 23.8508 96.1491 23.6459C96.2744 23.4409 96.337 23.2175 96.337 22.9755V22.2027C96.2886 22.2425 96.206 22.2795 96.0893 22.3137C95.9755 22.3479 95.8474 22.3778 95.7051 22.4034C95.5627 22.429 95.4218 22.4518 95.2824 22.4717C95.1429 22.4916 95.0219 22.5087 94.9194 22.5229C94.6889 22.5542 94.4825 22.6055 94.3003 22.6766C94.1181 22.7478 93.9744 22.8474 93.8691 22.9755C93.7638 23.1008 93.7111 23.263 93.7111 23.4623C93.7111 23.7469 93.815 23.9618 94.0228 24.107C94.2306 24.2522 94.4953 24.3247 94.817 24.3247ZM101.866 25.4434C101.351 25.4434 100.89 25.311 100.483 25.0463C100.076 24.7816 99.7542 24.3973 99.5179 23.8935C99.2817 23.3897 99.1635 22.7777 99.1635 22.0575C99.1635 21.3288 99.2831 20.714 99.5222 20.213C99.7641 19.7092 100.09 19.3292 100.5 19.073C100.91 18.814 101.367 18.6844 101.871 18.6844C102.255 18.6844 102.571 18.7499 102.818 18.8809C103.066 19.0089 103.262 19.1641 103.408 19.3463C103.553 19.5256 103.665 19.6949 103.745 19.8544H103.809V16.5837H105.359V25.3281H103.839V24.2949H103.745C103.665 24.4543 103.55 24.6236 103.399 24.803C103.248 24.9794 103.049 25.1303 102.801 25.2555C102.554 25.3808 102.242 25.4434 101.866 25.4434ZM102.297 24.1753C102.625 24.1753 102.904 24.0871 103.134 23.9106C103.365 23.7313 103.54 23.4822 103.66 23.1634C103.779 22.8446 103.839 22.4731 103.839 22.049C103.839 21.6249 103.779 21.2562 103.66 20.9431C103.543 20.63 103.369 20.3866 103.139 20.213C102.911 20.0394 102.631 19.9526 102.297 19.9526C101.953 19.9526 101.666 20.0422 101.435 20.2215C101.204 20.4009 101.031 20.6485 100.914 20.9645C100.797 21.2804 100.739 21.6419 100.739 22.049C100.739 22.4589 100.797 22.8246 100.914 23.1463C101.034 23.4651 101.209 23.717 101.439 23.902C101.673 24.0842 101.959 24.1753 102.297 24.1753ZM110.057 25.3281V16.5837H115.659V17.9116H111.641V20.2856H115.274V21.6135H111.641V25.3281H110.057ZM116.939 25.3281V18.7698H118.438V19.8629H118.506C118.626 19.4843 118.831 19.1925 119.121 18.9876C119.414 18.7798 119.749 18.6759 120.125 18.6759C120.21 18.6759 120.305 18.6802 120.411 18.6887C120.519 18.6944 120.609 18.7044 120.68 18.7186V20.1404C120.614 20.1176 120.51 20.0977 120.368 20.0806C120.229 20.0607 120.093 20.0508 119.962 20.0508C119.681 20.0508 119.427 20.112 119.202 20.2344C118.98 20.3539 118.805 20.5204 118.677 20.7339C118.549 20.9474 118.485 21.1936 118.485 21.4726V25.3281H116.939ZM124.297 25.4562C123.657 25.4562 123.102 25.3153 122.632 25.0335C122.162 24.7517 121.798 24.3575 121.539 23.8508C121.283 23.3441 121.155 22.7521 121.155 22.0746C121.155 21.3971 121.283 20.8037 121.539 20.2941C121.798 19.7846 122.162 19.389 122.632 19.1072C123.102 18.8254 123.657 18.6844 124.297 18.6844C124.938 18.6844 125.493 18.8254 125.962 19.1072C126.432 19.389 126.795 19.7846 127.051 20.2941C127.31 20.8037 127.44 21.3971 127.44 22.0746C127.44 22.7521 127.31 23.3441 127.051 23.8508C126.795 24.3575 126.432 24.7517 125.962 25.0335C125.493 25.3153 124.938 25.4562 124.297 25.4562ZM124.306 24.218C124.653 24.218 124.943 24.1226 125.177 23.9319C125.41 23.7384 125.584 23.4793 125.698 23.1548C125.814 22.8303 125.873 22.4688 125.873 22.0703C125.873 21.669 125.814 21.3061 125.698 20.9816C125.584 20.6542 125.41 20.3938 125.177 20.2002C124.943 20.0066 124.653 19.9099 124.306 19.9099C123.95 19.9099 123.654 20.0066 123.418 20.2002C123.184 20.3938 123.009 20.6542 122.892 20.9816C122.779 21.3061 122.722 21.669 122.722 22.0703C122.722 22.4688 122.779 22.8303 122.892 23.1548C123.009 23.4793 123.184 23.7384 123.418 23.9319C123.654 24.1226 123.95 24.218 124.306 24.218ZM130.297 21.4854V25.3281H128.752V18.7698H130.229V19.8842H130.306C130.457 19.517 130.697 19.2253 131.027 19.0089C131.36 18.7926 131.772 18.6844 132.261 18.6844C132.714 18.6844 133.108 18.7812 133.444 18.9748C133.783 19.1684 134.045 19.4487 134.23 19.8159C134.417 20.1831 134.51 20.6286 134.507 21.1523V25.3281H132.962V21.3914C132.962 20.9531 132.848 20.6101 132.62 20.3624C132.395 20.1148 132.083 19.991 131.685 19.991C131.414 19.991 131.174 20.0508 130.963 20.1703C130.755 20.287 130.592 20.4564 130.472 20.6784C130.356 20.9004 130.297 21.1694 130.297 21.4854ZM139.353 18.7698V19.9654H135.583V18.7698H139.353ZM136.514 17.1986H138.06V23.3555C138.06 23.5633 138.091 23.7227 138.153 23.8337C138.219 23.9419 138.304 24.0159 138.41 24.0558C138.515 24.0956 138.632 24.1155 138.76 24.1155C138.857 24.1155 138.945 24.1084 139.025 24.0942C139.107 24.0799 139.17 24.0671 139.212 24.0558L139.473 25.2641C139.39 25.2925 139.272 25.3239 139.118 25.358C138.968 25.3922 138.783 25.4121 138.563 25.4178C138.176 25.4292 137.828 25.3708 137.517 25.2427C137.207 25.1118 136.961 24.9097 136.779 24.6364C136.599 24.3632 136.511 24.0216 136.514 23.6117V17.1986ZM146.489 25.4562C145.849 25.4562 145.294 25.3153 144.824 25.0335C144.354 24.7517 143.99 24.3575 143.731 23.8508C143.475 23.3441 143.347 22.7521 143.347 22.0746C143.347 21.3971 143.475 20.8037 143.731 20.2941C143.99 19.7846 144.354 19.389 144.824 19.1072C145.294 18.8254 145.849 18.6844 146.489 18.6844C147.13 18.6844 147.685 18.8254 148.154 19.1072C148.624 19.389 148.987 19.7846 149.243 20.2941C149.502 20.8037 149.632 21.3971 149.632 22.0746C149.632 22.7521 149.502 23.3441 149.243 23.8508C148.987 24.3575 148.624 24.7517 148.154 25.0335C147.685 25.3153 147.13 25.4562 146.489 25.4562ZM146.498 24.218C146.845 24.218 147.135 24.1226 147.369 23.9319C147.602 23.7384 147.776 23.4793 147.89 23.1548C148.006 22.8303 148.065 22.4688 148.065 22.0703C148.065 21.669 148.006 21.3061 147.89 20.9816C147.776 20.6542 147.602 20.3938 147.369 20.2002C147.135 20.0066 146.845 19.9099 146.498 19.9099C146.142 19.9099 145.846 20.0066 145.609 20.2002C145.376 20.3938 145.201 20.6542 145.084 20.9816C144.97 21.3061 144.914 21.669 144.914 22.0703C144.914 22.4688 144.97 22.8303 145.084 23.1548C145.201 23.4793 145.376 23.7384 145.609 23.9319C145.846 24.1226 146.142 24.218 146.498 24.218ZM154.265 18.7698V19.9654H150.388V18.7698H154.265ZM151.358 25.3281V18.1507C151.358 17.7095 151.449 17.3423 151.631 17.0491C151.816 16.756 152.064 16.5368 152.374 16.3916C152.684 16.2464 153.028 16.1739 153.407 16.1739C153.675 16.1739 153.912 16.1952 154.12 16.2379C154.328 16.2806 154.482 16.319 154.581 16.3532L154.274 17.5487C154.208 17.5288 154.126 17.5089 154.026 17.4889C153.927 17.4662 153.816 17.4548 153.693 17.4548C153.406 17.4548 153.202 17.5245 153.083 17.664C152.966 17.8006 152.907 17.997 152.907 18.2532V25.3281H151.358ZM165.712 16.5837V25.3281H164.303L160.183 19.3719H160.111V25.3281H158.526V16.5837H159.944L164.06 22.5443H164.137V16.5837H165.712ZM169.022 16.5837V25.3281H167.438V16.5837H169.022ZM173.701 25.3281H170.738V16.5837H173.761C174.629 16.5837 175.375 16.7588 175.998 17.1089C176.624 17.4562 177.105 17.9558 177.441 18.6076C177.777 19.2594 177.945 20.0394 177.945 20.9474C177.945 21.8583 177.776 22.6411 177.437 23.2957C177.101 23.9504 176.616 24.4528 175.981 24.803C175.349 25.1531 174.589 25.3281 173.701 25.3281ZM172.322 23.9575H173.624C174.233 23.9575 174.741 23.8465 175.148 23.6245C175.555 23.3996 175.861 23.0652 176.066 22.6211C176.271 22.1742 176.374 21.6163 176.374 20.9474C176.374 20.2785 176.271 19.7234 176.066 19.2822C175.861 18.8382 175.558 18.5065 175.157 18.2874C174.758 18.0653 174.263 17.9543 173.671 17.9543H172.322V23.9575Z" fill="#0F0F0F"/>
<path d="M69.6055 38.4094C69.5671 38.0849 69.4113 37.833 69.138 37.6537C68.8647 37.4743 68.5296 37.3847 68.1325 37.3847C67.8421 37.3847 67.5881 37.4316 67.3703 37.5256C67.1547 37.6195 66.9861 37.7487 66.8644 37.9131C66.7448 38.0774 66.685 38.2642 66.685 38.4735C66.685 38.6485 66.7267 38.799 66.8099 38.925C66.8953 39.0488 67.0042 39.1523 67.1366 39.2356C67.2689 39.3167 67.4077 39.384 67.5529 39.4373C67.698 39.4886 67.8315 39.5302 67.9531 39.5622L68.6192 39.7416C68.79 39.7864 68.98 39.8483 69.1892 39.9273C69.4006 40.0063 69.6023 40.1141 69.7945 40.2507C69.9887 40.3852 70.1488 40.5581 70.2748 40.7695C70.4008 40.9808 70.4637 41.2402 70.4637 41.5477C70.4637 41.902 70.3709 42.2223 70.1851 42.5083C70.0015 42.7944 69.7326 43.0218 69.3782 43.1904C69.0259 43.3591 68.5979 43.4434 68.094 43.4434C67.6244 43.4434 67.2177 43.3676 66.874 43.216C66.5324 43.0645 66.2634 42.8531 66.067 42.582C65.8727 42.3109 65.7628 41.996 65.7372 41.6373H66.557C66.5783 41.885 66.6616 42.0899 66.8067 42.2522C66.954 42.4123 67.1398 42.5318 67.3639 42.6108C67.5902 42.6877 67.8336 42.7261 68.094 42.7261C68.3972 42.7261 68.6694 42.677 68.9106 42.5788C69.1519 42.4785 69.3429 42.3397 69.4838 42.1625C69.6247 41.9832 69.6952 41.7739 69.6952 41.5348C69.6952 41.3171 69.6343 41.1399 69.5127 41.0033C69.391 40.8666 69.2309 40.7556 69.0323 40.6702C68.8338 40.5848 68.6192 40.5101 68.3887 40.4461L67.5817 40.2155C67.0693 40.0682 66.6637 39.8579 66.3648 39.5847C66.0659 39.3114 65.9165 38.9538 65.9165 38.5119C65.9165 38.1447 66.0158 37.8245 66.2143 37.5512C66.415 37.2758 66.684 37.0623 67.0213 36.9107C67.3607 36.757 67.7397 36.6802 68.1581 36.6802C68.5808 36.6802 68.9565 36.756 69.2853 36.9075C69.6141 37.057 69.8745 37.2619 70.0667 37.5224C70.2609 37.7828 70.3634 38.0785 70.3741 38.4094H69.6055ZM74.7668 41.3171V38.4094H75.5226V43.3281H74.7668V42.4955H74.7156C74.6003 42.7453 74.421 42.9577 74.1776 43.1328C73.9342 43.3057 73.6268 43.3922 73.2553 43.3922C72.9479 43.3922 72.6747 43.3249 72.4355 43.1904C72.1964 43.0538 72.0086 42.8488 71.8719 42.5756C71.7353 42.3002 71.667 41.9533 71.667 41.5348V38.4094H72.4227V41.4836C72.4227 41.8423 72.5231 42.1283 72.7238 42.3418C72.9266 42.5553 73.1849 42.662 73.4987 42.662C73.6866 42.662 73.8776 42.614 74.0719 42.5179C74.2683 42.4219 74.4327 42.2746 74.5651 42.076C74.6996 41.8775 74.7668 41.6245 74.7668 41.3171ZM76.9067 45.1726V38.4094H77.6369V39.1908H77.7265C77.782 39.1054 77.8589 38.9965 77.9571 38.8641C78.0574 38.7296 78.2005 38.6101 78.3862 38.5055C78.5741 38.3987 78.8281 38.3454 79.1483 38.3454C79.5625 38.3454 79.9276 38.4489 80.2435 38.656C80.5595 38.8631 80.8061 39.1566 80.9832 39.5366C81.1604 39.9166 81.249 40.3649 81.249 40.8816C81.249 41.4025 81.1604 41.854 80.9832 42.2361C80.8061 42.6162 80.5605 42.9108 80.2467 43.12C79.9329 43.3271 79.571 43.4306 79.1611 43.4306C78.8452 43.4306 78.5922 43.3783 78.4022 43.2737C78.2122 43.1669 78.066 43.0463 77.9635 42.9118C77.861 42.7752 77.782 42.662 77.7265 42.5724H77.6625V45.1726H76.9067ZM77.6497 40.8688C77.6497 41.2402 77.7041 41.5679 77.813 41.8519C77.9219 42.1337 78.0809 42.3546 78.2901 42.5147C78.4993 42.6727 78.7555 42.7517 79.0587 42.7517C79.3746 42.7517 79.6383 42.6685 79.8496 42.5019C80.0631 42.3333 80.2232 42.107 80.33 41.8231C80.4389 41.537 80.4933 41.2189 80.4933 40.8688C80.4933 40.5229 80.4399 40.2112 80.3332 39.9337C80.2286 39.654 80.0695 39.4331 79.856 39.2708C79.6447 39.1064 79.3789 39.0243 79.0587 39.0243C78.7513 39.0243 78.4929 39.1022 78.2837 39.258C78.0745 39.4117 77.9165 39.6274 77.8098 39.9049C77.703 40.1803 77.6497 40.5016 77.6497 40.8688ZM82.4019 45.1726V38.4094H83.132V39.1908H83.2216C83.2772 39.1054 83.354 38.9965 83.4522 38.8641C83.5525 38.7296 83.6956 38.6101 83.8813 38.5055C84.0692 38.3987 84.3232 38.3454 84.6435 38.3454C85.0576 38.3454 85.4227 38.4489 85.7386 38.656C86.0546 38.8631 86.3012 39.1566 86.4784 39.5366C86.6556 39.9166 86.7442 40.3649 86.7442 40.8816C86.7442 41.4025 86.6556 41.854 86.4784 42.2361C86.3012 42.6162 86.0557 42.9108 85.7418 43.12C85.428 43.3271 85.0662 43.4306 84.6563 43.4306C84.3403 43.4306 84.0873 43.3783 83.8973 43.2737C83.7073 43.1669 83.5611 43.0463 83.4586 42.9118C83.3561 42.7752 83.2772 42.662 83.2216 42.5724H83.1576V45.1726H82.4019ZM83.1448 40.8688C83.1448 41.2402 83.1992 41.5679 83.3081 41.8519C83.417 42.1337 83.576 42.3546 83.7852 42.5147C83.9945 42.6727 84.2506 42.7517 84.5538 42.7517C84.8698 42.7517 85.1334 42.6685 85.3448 42.5019C85.5582 42.3333 85.7184 42.107 85.8251 41.8231C85.934 41.537 85.9884 41.2189 85.9884 40.8688C85.9884 40.5229 85.935 40.2112 85.8283 39.9337C85.7237 39.654 85.5647 39.4331 85.3512 39.2708C85.1398 39.1064 84.874 39.0243 84.5538 39.0243C84.2464 39.0243 83.9881 39.1022 83.7788 39.258C83.5696 39.4117 83.4116 39.6274 83.3049 39.9049C83.1982 40.1803 83.1448 40.5016 83.1448 40.8688ZM89.8952 43.4306C89.4512 43.4306 89.0615 43.3249 88.7264 43.1136C88.3933 42.9022 88.1329 42.6065 87.945 42.2265C87.7593 41.8465 87.6664 41.4025 87.6664 40.8944C87.6664 40.382 87.7593 39.9348 87.945 39.5526C88.1329 39.1705 88.3933 38.8737 88.7264 38.6624C89.0615 38.451 89.4512 38.3454 89.8952 38.3454C90.3393 38.3454 90.7278 38.451 91.0608 38.6624C91.396 38.8737 91.6565 39.1705 91.8422 39.5526C92.0301 39.9348 92.124 40.382 92.124 40.8944C92.124 41.4025 92.0301 41.8465 91.8422 42.2265C91.6565 42.6065 91.396 42.9022 91.0608 43.1136C90.7278 43.3249 90.3393 43.4306 89.8952 43.4306ZM89.8952 42.7517C90.2325 42.7517 90.51 42.6653 90.7278 42.4923C90.9456 42.3194 91.1067 42.092 91.2113 41.8102C91.316 41.5284 91.3683 41.2232 91.3683 40.8944C91.3683 40.5656 91.316 40.2593 91.2113 39.9753C91.1067 39.6914 90.9456 39.4619 90.7278 39.2868C90.51 39.1118 90.2325 39.0243 89.8952 39.0243C89.5579 39.0243 89.2804 39.1118 89.0626 39.2868C88.8449 39.4619 88.6837 39.6914 88.5791 39.9753C88.4745 40.2593 88.4222 40.5656 88.4222 40.8944C88.4222 41.2232 88.4745 41.5284 88.5791 41.8102C88.6837 42.092 88.8449 42.3194 89.0626 42.4923C89.2804 42.6653 89.5579 42.7517 89.8952 42.7517ZM93.2776 43.3281V38.4094H94.0077V39.1523H94.059C94.1486 38.909 94.3109 38.7115 94.5457 38.5599C94.7806 38.4083 95.0453 38.3326 95.3399 38.3326C95.3954 38.3326 95.4648 38.3336 95.548 38.3358C95.6313 38.3379 95.6943 38.3411 95.737 38.3454V39.1139C95.7114 39.1075 95.6527 39.0979 95.5609 39.0851C95.4712 39.0702 95.3762 39.0627 95.2758 39.0627C95.0367 39.0627 94.8233 39.1128 94.6354 39.2132C94.4497 39.3114 94.3024 39.448 94.1935 39.6231C94.0867 39.796 94.0334 39.9935 94.0334 40.2155V43.3281H93.2776ZM99.0802 38.4094V39.0499H96.5311V38.4094H99.0802ZM97.2741 37.231H98.0298V41.9191C98.0298 42.1326 98.0608 42.2927 98.1227 42.3995C98.1867 42.5041 98.2679 42.5745 98.3661 42.6108C98.4664 42.645 98.5721 42.662 98.6831 42.662C98.7663 42.662 98.8347 42.6578 98.888 42.6492C98.9414 42.6386 98.9841 42.63 99.0161 42.6236L99.1698 43.3025C99.1186 43.3217 99.0471 43.3409 98.9553 43.3601C98.8635 43.3815 98.7471 43.3922 98.6062 43.3922C98.3927 43.3922 98.1835 43.3463 97.9786 43.2545C97.7758 43.1627 97.6071 43.0228 97.4726 42.835C97.3403 42.6471 97.2741 42.4101 97.2741 42.1241V37.231ZM102.226 43.4306C101.752 43.4306 101.344 43.326 101 43.1168C100.658 42.9054 100.395 42.6108 100.209 42.2329C100.025 41.8529 99.9336 41.411 99.9336 40.9072C99.9336 40.4034 100.025 39.9593 100.209 39.575C100.395 39.1886 100.653 38.8876 100.984 38.672C101.317 38.4542 101.706 38.3454 102.15 38.3454C102.406 38.3454 102.659 38.3881 102.908 38.4735C103.158 38.5589 103.386 38.6976 103.591 38.8898C103.796 39.0798 103.959 39.3317 104.081 39.6455C104.202 39.9593 104.263 40.3457 104.263 40.8047V41.125H100.472V40.4717H103.495C103.495 40.1942 103.439 39.9465 103.328 39.7288C103.219 39.511 103.063 39.3391 102.86 39.2132C102.66 39.0872 102.423 39.0243 102.15 39.0243C101.849 39.0243 101.588 39.099 101.368 39.2484C101.15 39.3957 100.983 39.5879 100.865 39.8248C100.748 40.0618 100.689 40.3158 100.689 40.587V41.0225C100.689 41.3939 100.753 41.7088 100.881 41.9672C101.012 42.2233 101.192 42.4187 101.423 42.5532C101.653 42.6855 101.921 42.7517 102.226 42.7517C102.425 42.7517 102.604 42.724 102.764 42.6685C102.927 42.6108 103.066 42.5254 103.184 42.4123C103.301 42.297 103.392 42.154 103.456 41.9832L104.186 42.1881C104.109 42.4358 103.98 42.6535 103.799 42.8414C103.617 43.0271 103.393 43.1723 103.126 43.2769C102.859 43.3794 102.559 43.4306 102.226 43.4306ZM107.27 43.4306C106.86 43.4306 106.498 43.3271 106.184 43.12C105.871 42.9108 105.625 42.6162 105.448 42.2361C105.271 41.854 105.182 41.4025 105.182 40.8816C105.182 40.3649 105.271 39.9166 105.448 39.5366C105.625 39.1566 105.872 38.8631 106.188 38.656C106.504 38.4489 106.869 38.3454 107.283 38.3454C107.603 38.3454 107.856 38.3987 108.042 38.5055C108.23 38.6101 108.373 38.7296 108.471 38.8641C108.571 38.9965 108.649 39.1054 108.705 39.1908H108.769V36.7698H109.524V43.3281H108.794V42.5724H108.705C108.649 42.662 108.57 42.7752 108.468 42.9118C108.365 43.0463 108.219 43.1669 108.029 43.2737C107.839 43.3783 107.586 43.4306 107.27 43.4306ZM107.372 42.7517C107.676 42.7517 107.932 42.6727 108.141 42.5147C108.35 42.3546 108.509 42.1337 108.618 41.8519C108.727 41.5679 108.781 41.2402 108.781 40.8688C108.781 40.5016 108.728 40.1803 108.621 39.9049C108.515 39.6274 108.357 39.4117 108.147 39.258C107.938 39.1022 107.68 39.0243 107.372 39.0243C107.052 39.0243 106.785 39.1064 106.572 39.2708C106.361 39.4331 106.202 39.654 106.095 39.9337C105.99 40.2112 105.938 40.5229 105.938 40.8688C105.938 41.2189 105.991 41.537 106.098 41.8231C106.207 42.107 106.367 42.3333 106.578 42.5019C106.792 42.6685 107.057 42.7517 107.372 42.7517ZM115.74 38.4094V39.0499H113.089V38.4094H115.74ZM113.883 43.3281V37.7305C113.883 37.4487 113.949 37.2139 114.081 37.026C114.214 36.8382 114.385 36.6973 114.597 36.6033C114.808 36.5094 115.031 36.4624 115.266 36.4624C115.452 36.4624 115.603 36.4774 115.721 36.5073C115.838 36.5371 115.926 36.5649 115.983 36.5905L115.766 37.2438C115.727 37.231 115.674 37.215 115.606 37.1957C115.539 37.1765 115.452 37.1669 115.343 37.1669C115.093 37.1669 114.913 37.2299 114.802 37.3559C114.693 37.4818 114.638 37.6665 114.638 37.9099V43.3281H113.883ZM118.595 43.4306C118.151 43.4306 117.761 43.3249 117.426 43.1136C117.093 42.9022 116.833 42.6065 116.645 42.2265C116.459 41.8465 116.366 41.4025 116.366 40.8944C116.366 40.382 116.459 39.9348 116.645 39.5526C116.833 39.1705 117.093 38.8737 117.426 38.6624C117.761 38.451 118.151 38.3454 118.595 38.3454C119.039 38.3454 119.427 38.451 119.761 38.6624C120.096 38.8737 120.356 39.1705 120.542 39.5526C120.73 39.9348 120.824 40.382 120.824 40.8944C120.824 41.4025 120.73 41.8465 120.542 42.2265C120.356 42.6065 120.096 42.9022 119.761 43.1136C119.427 43.3249 119.039 43.4306 118.595 43.4306ZM118.595 42.7517C118.932 42.7517 119.21 42.6653 119.427 42.4923C119.645 42.3194 119.806 42.092 119.911 41.8102C120.016 41.5284 120.068 41.2232 120.068 40.8944C120.068 40.5656 120.016 40.2593 119.911 39.9753C119.806 39.6914 119.645 39.4619 119.427 39.2868C119.21 39.1118 118.932 39.0243 118.595 39.0243C118.258 39.0243 117.98 39.1118 117.762 39.2868C117.545 39.4619 117.383 39.6914 117.279 39.9753C117.174 40.2593 117.122 40.5656 117.122 40.8944C117.122 41.2232 117.174 41.5284 117.279 41.8102C117.383 42.092 117.545 42.3194 117.762 42.4923C117.98 42.6653 118.258 42.7517 118.595 42.7517ZM121.977 43.3281V38.4094H122.707V39.1523H122.759C122.848 38.909 123.011 38.7115 123.245 38.5599C123.48 38.4083 123.745 38.3326 124.04 38.3326C124.095 38.3326 124.164 38.3336 124.248 38.3358C124.331 38.3379 124.394 38.3411 124.437 38.3454V39.1139C124.411 39.1075 124.352 39.0979 124.261 39.0851C124.171 39.0702 124.076 39.0627 123.976 39.0627C123.736 39.0627 123.523 39.1128 123.335 39.2132C123.149 39.3114 123.002 39.448 122.893 39.6231C122.786 39.796 122.733 39.9935 122.733 40.2155V43.3281H121.977ZM125.333 43.3281V38.4094H126.063V39.178H126.127C126.229 38.9154 126.395 38.7115 126.623 38.5663C126.851 38.419 127.126 38.3454 127.446 38.3454C127.771 38.3454 128.041 38.419 128.256 38.5663C128.474 38.7115 128.644 38.9154 128.765 39.178H128.817C128.943 38.9239 129.131 38.7222 129.383 38.5727C129.635 38.4212 129.937 38.3454 130.29 38.3454C130.729 38.3454 131.089 38.4831 131.369 38.7585C131.648 39.0317 131.788 39.4576 131.788 40.0362V43.3281H131.033V40.0362C131.033 39.6732 130.933 39.4139 130.735 39.258C130.536 39.1022 130.302 39.0243 130.033 39.0243C129.688 39.0243 129.42 39.1289 129.23 39.3381C129.04 39.5452 128.945 39.8077 128.945 40.1258V43.3281H128.176V39.9593C128.176 39.6797 128.085 39.4544 127.904 39.2836C127.722 39.1107 127.489 39.0243 127.203 39.0243C127.006 39.0243 126.823 39.0766 126.652 39.1812C126.483 39.2858 126.347 39.4309 126.242 39.6167C126.139 39.8003 126.088 40.0127 126.088 40.2539V43.3281H125.333ZM134.618 43.4434C134.306 43.4434 134.023 43.3847 133.769 43.2673C133.515 43.1477 133.313 42.9759 133.164 42.7517C133.014 42.5254 132.94 42.2522 132.94 41.9319C132.94 41.6501 132.995 41.4217 133.106 41.2466C133.217 41.0694 133.365 40.9307 133.551 40.8303C133.737 40.73 133.942 40.6553 134.166 40.6062C134.392 40.5549 134.62 40.5144 134.848 40.4845C135.147 40.4461 135.389 40.4172 135.575 40.398C135.763 40.3767 135.9 40.3415 135.985 40.2924C136.072 40.2433 136.116 40.1579 136.116 40.0362V40.0106C136.116 39.6946 136.03 39.4491 135.857 39.274C135.686 39.099 135.427 39.0114 135.079 39.0114C134.718 39.0114 134.435 39.0904 134.23 39.2484C134.025 39.4064 133.881 39.575 133.798 39.7544L133.08 39.4982C133.209 39.1993 133.379 38.9666 133.593 38.8001C133.808 38.6314 134.043 38.514 134.297 38.4478C134.553 38.3795 134.805 38.3454 135.053 38.3454C135.211 38.3454 135.392 38.3646 135.597 38.403C135.805 38.4393 136.004 38.5151 136.196 38.6304C136.391 38.7457 136.552 38.9196 136.68 39.1523C136.808 39.385 136.872 39.6967 136.872 40.0874V43.3281H136.116V42.662H136.078C136.027 42.7688 135.941 42.883 135.822 43.0047C135.702 43.1264 135.543 43.2299 135.344 43.3153C135.146 43.4007 134.904 43.4434 134.618 43.4434ZM134.733 42.7645C135.032 42.7645 135.284 42.7058 135.489 42.5884C135.696 42.471 135.851 42.3194 135.956 42.1337C136.063 41.9479 136.116 41.7526 136.116 41.5477V40.856C136.084 40.8944 136.014 40.9296 135.905 40.9616C135.798 40.9915 135.674 41.0182 135.533 41.0417C135.395 41.063 135.259 41.0823 135.127 41.0993C134.996 41.1143 134.891 41.1271 134.81 41.1378C134.613 41.1634 134.43 41.205 134.259 41.2627C134.09 41.3182 133.954 41.4025 133.849 41.5156C133.747 41.6266 133.695 41.7782 133.695 41.9704C133.695 42.2329 133.792 42.4315 133.987 42.566C134.183 42.6983 134.432 42.7645 134.733 42.7645ZM140.39 38.4094V39.0499H137.841V38.4094H140.39ZM138.584 37.231H139.34V41.9191C139.34 42.1326 139.371 42.2927 139.433 42.3995C139.497 42.5041 139.578 42.5745 139.676 42.6108C139.777 42.645 139.882 42.662 139.993 42.662C140.077 42.662 140.145 42.6578 140.198 42.6492C140.252 42.6386 140.294 42.63 140.326 42.6236L140.48 43.3025C140.429 43.3217 140.357 43.3409 140.266 43.3601C140.174 43.3815 140.057 43.3922 139.917 43.3922C139.703 43.3922 139.494 43.3463 139.289 43.2545C139.086 43.1627 138.917 43.0228 138.783 42.835C138.651 42.6471 138.584 42.4101 138.584 42.1241V37.231ZM143.537 43.4306C143.063 43.4306 142.654 43.326 142.31 43.1168C141.969 42.9054 141.705 42.6108 141.519 42.2329C141.336 41.8529 141.244 41.411 141.244 40.9072C141.244 40.4034 141.336 39.9593 141.519 39.575C141.705 39.1886 141.963 38.8876 142.294 38.672C142.627 38.4542 143.016 38.3454 143.46 38.3454C143.716 38.3454 143.969 38.3881 144.219 38.4735C144.469 38.5589 144.696 38.6976 144.901 38.8898C145.106 39.0798 145.269 39.3317 145.391 39.6455C145.513 39.9593 145.573 40.3457 145.573 40.8047V41.125H141.782V40.4717H144.805C144.805 40.1942 144.749 39.9465 144.638 39.7288C144.529 39.511 144.374 39.3391 144.171 39.2132C143.97 39.0872 143.733 39.0243 143.46 39.0243C143.159 39.0243 142.898 39.099 142.678 39.2484C142.461 39.3957 142.293 39.5879 142.176 39.8248C142.058 40.0618 142 40.3158 142 40.587V41.0225C142 41.3939 142.064 41.7088 142.192 41.9672C142.322 42.2233 142.502 42.4187 142.733 42.5532C142.963 42.6855 143.231 42.7517 143.537 42.7517C143.735 42.7517 143.915 42.724 144.075 42.6685C144.237 42.6108 144.377 42.5254 144.494 42.4123C144.612 42.297 144.702 42.154 144.766 41.9832L145.496 42.1881C145.42 42.4358 145.29 42.6535 145.109 42.8414C144.928 43.0271 144.703 43.1723 144.437 43.2769C144.17 43.3794 143.87 43.4306 143.537 43.4306ZM150.207 39.511L149.528 39.7031C149.485 39.59 149.422 39.48 149.339 39.3733C149.258 39.2644 149.147 39.1748 149.006 39.1043C148.865 39.0339 148.685 38.9986 148.465 38.9986C148.164 38.9986 147.913 39.068 147.712 39.2068C147.514 39.3434 147.415 39.5174 147.415 39.7288C147.415 39.9166 147.483 40.065 147.62 40.1739C147.756 40.2828 147.97 40.3735 148.26 40.4461L148.99 40.6254C149.43 40.7321 149.758 40.8955 149.973 41.1153C150.189 41.3331 150.297 41.6138 150.297 41.9575C150.297 42.2393 150.216 42.4913 150.053 42.7133C149.893 42.9353 149.669 43.1104 149.381 43.2385C149.093 43.3666 148.757 43.4306 148.375 43.4306C147.874 43.4306 147.458 43.3217 147.13 43.104C146.801 42.8862 146.593 42.5681 146.505 42.1497L147.223 41.9704C147.291 42.2351 147.42 42.4336 147.61 42.566C147.802 42.6983 148.053 42.7645 148.363 42.7645C148.715 42.7645 148.994 42.6898 149.202 42.5404C149.411 42.3888 149.515 42.2073 149.515 41.996C149.515 41.8252 149.456 41.6822 149.336 41.5669C149.216 41.4495 149.033 41.3619 148.785 41.3043L147.965 41.1121C147.515 41.0054 147.184 40.8399 146.973 40.6158C146.764 40.3895 146.659 40.1066 146.659 39.7672C146.659 39.4897 146.737 39.2441 146.893 39.0307C147.051 38.8172 147.265 38.6496 147.536 38.5279C147.81 38.4062 148.119 38.3454 148.465 38.3454C148.952 38.3454 149.334 38.4521 149.611 38.6656C149.891 38.8791 150.09 39.1609 150.207 39.511ZM151.985 43.3794C151.827 43.3794 151.692 43.3228 151.578 43.2096C151.465 43.0965 151.409 42.9609 151.409 42.803C151.409 42.645 151.465 42.5094 151.578 42.3963C151.692 42.2831 151.827 42.2265 151.985 42.2265C152.143 42.2265 152.279 42.2831 152.392 42.3963C152.505 42.5094 152.562 42.645 152.562 42.803C152.562 42.9076 152.535 43.0036 152.481 43.0912C152.43 43.1787 152.361 43.2491 152.273 43.3025C152.188 43.3537 152.092 43.3794 151.985 43.3794ZM151.985 39.7288C151.827 39.7288 151.692 39.6722 151.578 39.559C151.465 39.4459 151.409 39.3103 151.409 39.1523C151.409 38.9944 151.465 38.8588 151.578 38.7457C151.692 38.6325 151.827 38.5759 151.985 38.5759C152.143 38.5759 152.279 38.6325 152.392 38.7457C152.505 38.8588 152.562 38.9944 152.562 39.1523C152.562 39.257 152.535 39.353 152.481 39.4406C152.43 39.5281 152.361 39.5985 152.273 39.6519C152.188 39.7031 152.092 39.7288 151.985 39.7288ZM159.067 36.7698H159.861V41.458C159.861 41.8764 159.784 42.2319 159.631 42.5244C159.477 42.8168 159.26 43.0389 158.981 43.1904C158.701 43.342 158.371 43.4178 157.991 43.4178C157.632 43.4178 157.313 43.3527 157.034 43.2224C156.754 43.0901 156.534 42.9022 156.374 42.6588C156.214 42.4155 156.134 42.1262 156.134 41.791H156.915C156.915 41.9768 156.961 42.139 157.053 42.2778C157.147 42.4144 157.275 42.5211 157.437 42.598C157.599 42.6749 157.784 42.7133 157.991 42.7133C158.219 42.7133 158.414 42.6653 158.574 42.5692C158.734 42.4731 158.856 42.3322 158.939 42.1465C159.024 41.9586 159.067 41.7291 159.067 41.458V36.7698ZM161.453 43.3281V36.7698H163.669C164.183 36.7698 164.604 36.8627 164.93 37.0484C165.259 37.232 165.503 37.4808 165.66 37.7946C165.818 38.1084 165.897 38.4585 165.897 38.8449C165.897 39.2313 165.818 39.5825 165.66 39.8985C165.505 40.2144 165.263 40.4663 164.937 40.6542C164.61 40.8399 164.192 40.9328 163.681 40.9328H162.093V40.2283H163.656C164.008 40.2283 164.291 40.1675 164.504 40.0458C164.718 39.9241 164.873 39.7597 164.969 39.5526C165.067 39.3434 165.116 39.1075 165.116 38.8449C165.116 38.5823 165.067 38.3475 164.969 38.1404C164.873 37.9333 164.717 37.7711 164.501 37.6537C164.286 37.5341 164 37.4743 163.643 37.4743H162.247V43.3281H161.453ZM167.177 43.3281V36.7698H171.135V37.4743H167.971V39.6903H170.93V40.3948H167.971V42.6236H171.186V43.3281H167.177ZM177.049 38.8193C176.979 38.6037 176.886 38.4105 176.771 38.2397C176.658 38.0668 176.522 37.9195 176.364 37.7978C176.208 37.6761 176.031 37.5832 175.833 37.5192C175.634 37.4551 175.416 37.4231 175.179 37.4231C174.791 37.4231 174.437 37.5234 174.119 37.7241C173.801 37.9248 173.548 38.2205 173.36 38.6112C173.173 39.0018 173.079 39.4811 173.079 40.049C173.079 40.6169 173.174 41.0961 173.364 41.4868C173.554 41.8775 173.811 42.1732 174.135 42.3738C174.46 42.5745 174.825 42.6749 175.231 42.6749C175.606 42.6749 175.937 42.5948 176.223 42.4347C176.511 42.2724 176.736 42.044 176.896 41.7494C177.058 41.4527 177.139 41.1036 177.139 40.7023L177.382 40.7535H175.41V40.049H177.908V40.7535C177.908 41.2936 177.792 41.7633 177.562 42.1625C177.333 42.5617 177.017 42.8713 176.614 43.0912C176.213 43.3089 175.751 43.4178 175.231 43.4178C174.65 43.4178 174.14 43.2812 173.7 43.0079C173.262 42.7346 172.921 42.3461 172.675 41.8423C172.432 41.3384 172.31 40.7407 172.31 40.049C172.31 39.5302 172.379 39.0637 172.518 38.6496C172.659 38.2333 172.858 37.8789 173.114 37.5864C173.37 37.294 173.673 37.0698 174.023 36.9139C174.373 36.7581 174.759 36.6802 175.179 36.6802C175.525 36.6802 175.847 36.7325 176.146 36.8371C176.447 36.9396 176.715 37.0858 176.95 37.2758C177.187 37.4637 177.385 37.6889 177.543 37.9515C177.701 38.2119 177.809 38.5012 177.869 38.8193H177.049ZM180.293 42.4315L180.241 42.7773C180.205 43.0207 180.149 43.2812 180.075 43.5587C180.002 43.8362 179.926 44.0977 179.847 44.3432C179.768 44.5888 179.703 44.7841 179.652 44.9293H179.076C179.103 44.7926 179.14 44.6122 179.185 44.3881C179.229 44.1639 179.274 43.9131 179.319 43.6355C179.366 43.3601 179.404 43.0783 179.434 42.7901L179.473 42.4315H180.293ZM184.331 43.3281V36.7698H186.547C187.062 36.7698 187.482 36.8627 187.809 37.0484C188.138 37.232 188.381 37.4808 188.539 37.7946C188.697 38.1084 188.776 38.4585 188.776 38.8449C188.776 39.2313 188.697 39.5825 188.539 39.8985C188.383 40.2144 188.142 40.4663 187.816 40.6542C187.489 40.8399 187.07 40.9328 186.56 40.9328H184.972V40.2283H186.535C186.887 40.2283 187.17 40.1675 187.383 40.0458C187.597 39.9241 187.751 39.7597 187.848 39.5526C187.946 39.3434 187.995 39.1075 187.995 38.8449C187.995 38.5823 187.946 38.3475 187.848 38.1404C187.751 37.9333 187.596 37.7711 187.38 37.6537C187.164 37.5341 186.878 37.4743 186.522 37.4743H185.126V43.3281H184.331ZM195.256 36.7698V43.3281H194.487L190.914 38.1788H190.85V43.3281H190.055V36.7698H190.824L194.411 41.9319H194.475V36.7698H195.256ZM201.328 38.8193C201.258 38.6037 201.165 38.4105 201.05 38.2397C200.937 38.0668 200.801 37.9195 200.643 37.7978C200.487 37.6761 200.31 37.5832 200.111 37.5192C199.913 37.4551 199.695 37.4231 199.458 37.4231C199.07 37.4231 198.716 37.5234 198.398 37.7241C198.08 37.9248 197.827 38.2205 197.639 38.6112C197.451 39.0018 197.357 39.4811 197.357 40.049C197.357 40.6169 197.452 41.0961 197.643 41.4868C197.833 41.8775 198.09 42.1732 198.414 42.3738C198.739 42.5745 199.104 42.6749 199.509 42.6749C199.885 42.6749 200.216 42.5948 200.502 42.4347C200.79 42.2724 201.015 42.044 201.175 41.7494C201.337 41.4527 201.418 41.1036 201.418 40.7023L201.661 40.7535H199.689V40.049H202.187V40.7535C202.187 41.2936 202.071 41.7633 201.841 42.1625C201.612 42.5617 201.296 42.8713 200.893 43.0912C200.491 43.3089 200.03 43.4178 199.509 43.4178C198.929 43.4178 198.419 43.2812 197.979 43.0079C197.541 42.7346 197.2 42.3461 196.954 41.8423C196.711 41.3384 196.589 40.7407 196.589 40.049C196.589 39.5302 196.658 39.0637 196.797 38.6496C196.938 38.2333 197.137 37.8789 197.393 37.5864C197.649 37.294 197.952 37.0698 198.302 36.9139C198.652 36.7581 199.038 36.6802 199.458 36.6802C199.804 36.6802 200.126 36.7325 200.425 36.8371C200.726 36.9396 200.994 37.0858 201.229 37.2758C201.466 37.4637 201.664 37.6889 201.821 37.9515C201.979 38.2119 202.088 38.5012 202.148 38.8193H201.328ZM204.571 42.4315L204.52 42.7773C204.484 43.0207 204.428 43.2812 204.354 43.5587C204.281 43.8362 204.205 44.0977 204.126 44.3432C204.047 44.5888 203.982 44.7841 203.931 44.9293H203.355C203.382 44.7926 203.419 44.6122 203.463 44.3881C203.508 44.1639 203.553 43.9131 203.598 43.6355C203.645 43.3601 203.683 43.0783 203.713 42.7901L203.752 42.4315H204.571ZM208.61 43.3281V36.7698H210.826C211.341 36.7698 211.761 36.8627 212.088 37.0484C212.417 37.232 212.66 37.4808 212.818 37.7946C212.976 38.1084 213.055 38.4585 213.055 38.8449C213.055 39.2313 212.976 39.5825 212.818 39.8985C212.662 40.2144 212.421 40.4663 212.094 40.6542C211.768 40.8399 211.349 40.9328 210.839 40.9328H209.251V40.2283H210.814C211.166 40.2283 211.449 40.1675 211.662 40.0458C211.876 39.9241 212.03 39.7597 212.126 39.5526C212.225 39.3434 212.274 39.1075 212.274 38.8449C212.274 38.5823 212.225 38.3475 212.126 38.1404C212.03 37.9333 211.875 37.7711 211.659 37.6537C211.443 37.5341 211.157 37.4743 210.801 37.4743H209.404V43.3281H208.61ZM216.358 43.3281H214.334V36.7698H216.448C217.084 36.7698 217.629 36.9011 218.081 37.1637C218.534 37.4242 218.881 37.7988 219.122 38.2877C219.363 38.7745 219.484 39.3573 219.484 40.0362C219.484 40.7193 219.362 41.3075 219.119 41.8006C218.875 42.2917 218.521 42.6695 218.055 42.9342C217.59 43.1968 217.024 43.3281 216.358 43.3281ZM215.129 42.6236H216.307C216.849 42.6236 217.299 42.519 217.655 42.3098C218.012 42.1006 218.278 41.8028 218.453 41.4164C218.628 41.03 218.715 40.5699 218.715 40.0362C218.715 39.5067 218.629 39.0509 218.456 38.6688C218.283 38.2845 218.025 37.9899 217.681 37.785C217.337 37.5779 216.909 37.4743 216.397 37.4743H215.129V42.6236ZM220.816 43.3281V36.7698H224.748V37.4743H221.61V39.6903H224.454V40.3948H221.61V43.3281H220.816Z" fill="#676767"/>
</svg>
