<svg width="335" height="60" viewBox="0 0 335 60" fill="none" xmlns="http://www.w3.org/2000/svg">
<rect x="0.298828" y="0.96875" width="334.404" height="58.2812" rx="4" fill="#EB762F" fill-opacity="0.06"/>
<rect x="0.798828" y="1.46875" width="333.404" height="57.2812" rx="3.5" stroke="#EB762F" stroke-opacity="0.58" stroke-dasharray="3.76 3.76"/>
<path d="M46.6187 23.99C46.1799 21.9379 45.0133 20.1139 43.3344 18.8549C41.6555 17.5959 39.5777 16.9869 37.4848 17.1405C35.3919 17.2941 33.4253 18.1998 31.9482 19.6904C30.4711 21.181 29.5833 23.1558 29.4487 25.25C28.6043 25.2553 27.7692 25.4268 26.9911 25.7548C26.213 26.0828 25.5071 26.5608 24.9137 27.1616C23.7154 28.375 23.0481 30.0147 23.0587 31.72C23.0693 33.4254 23.7569 35.0566 24.9703 36.255C26.1837 37.4534 27.8234 38.1206 29.5287 38.11H31.7687C32.0339 38.11 32.2883 38.0047 32.4758 37.8171C32.6634 37.6296 32.7687 37.3752 32.7687 37.11C32.7687 36.8448 32.6634 36.5905 32.4758 36.4029C32.2883 36.2154 32.0339 36.11 31.7687 36.11H29.5287C28.3538 36.11 27.227 35.6433 26.3962 34.8125C25.5654 33.9817 25.0987 32.8549 25.0987 31.68C25.0987 30.5051 25.5654 29.3783 26.3962 28.5475C27.227 27.7168 28.3538 27.25 29.5287 27.25C29.7834 27.2549 30.0374 27.2782 30.2887 27.32C30.9585 27.4356 31.5921 27.7061 32.1387 28.11C32.2444 28.1883 32.3644 28.245 32.492 28.2768C32.6196 28.3086 32.7522 28.3149 32.8823 28.2954C33.0123 28.2759 33.1372 28.2309 33.2499 28.1631C33.3625 28.0952 33.4607 28.0058 33.5387 27.9C33.6165 27.7938 33.6725 27.6732 33.7035 27.5452C33.7345 27.4172 33.74 27.2844 33.7195 27.1543C33.6991 27.0242 33.6532 26.8995 33.5844 26.7872C33.5156 26.6749 33.4253 26.5773 33.3187 26.5C32.7547 26.0603 32.1186 25.7219 31.4387 25.5C31.4202 23.7767 32.0685 22.113 33.248 20.8565C34.4275 19.5999 36.047 18.8479 37.768 18.7575C39.489 18.6672 41.1784 19.2454 42.483 20.3715C43.7877 21.4976 44.6066 23.0843 44.7687 24.8C44.7938 24.9612 44.8579 25.1139 44.9556 25.2446C45.0532 25.3753 45.1813 25.4802 45.3287 25.55C46.4704 26.094 47.3921 27.0116 47.9412 28.1509C48.4902 29.2901 48.6337 30.5828 48.3479 31.8147C48.0621 33.0467 47.3641 34.144 46.3695 34.9252C45.3749 35.7063 44.1433 36.1243 42.8787 36.11H41.7687C41.5035 36.11 41.2491 36.2154 41.0616 36.4029C40.8741 36.5905 40.7687 36.8448 40.7687 37.11C40.7687 37.3752 40.8741 37.6296 41.0616 37.8171C41.2491 38.0047 41.5035 38.11 41.7687 38.11H42.8787C44.5479 38.1145 46.1715 37.5657 47.4956 36.5494C48.8198 35.5331 49.7698 34.1067 50.1972 32.4932C50.6246 30.8796 50.5052 29.17 49.8577 27.6315C49.2103 26.093 48.0712 24.8124 46.6187 23.99Z" fill="#EB762F"/>
<path d="M40.9778 32.9022L37.4778 29.4022C37.3827 29.3112 37.2705 29.2398 37.1478 29.1922C36.9043 29.0922 36.6312 29.0922 36.3878 29.1922C36.265 29.2398 36.1529 29.3112 36.0578 29.4022L32.5578 32.9022C32.3695 33.0905 32.2637 33.3459 32.2637 33.6122C32.2637 33.8785 32.3695 34.1339 32.5578 34.3222C32.7461 34.5105 33.0015 34.6163 33.2678 34.6163C33.5341 34.6163 33.7895 34.5105 33.9778 34.3222L35.7678 32.5222V42.1122C35.7678 42.3774 35.8731 42.6318 36.0607 42.8193C36.2482 43.0068 36.5025 43.1122 36.7678 43.1122C37.033 43.1122 37.2873 43.0068 37.4749 42.8193C37.6624 42.6318 37.7678 42.3774 37.7678 42.1122V32.5222L39.5578 34.3222C39.6507 34.4159 39.7613 34.4903 39.8832 34.5411C40.005 34.5919 40.1358 34.618 40.2678 34.618C40.3998 34.618 40.5305 34.5919 40.6523 34.5411C40.7742 34.4903 40.8848 34.4159 40.9778 34.3222C41.0715 34.2292 41.1459 34.1186 41.1967 33.9968C41.2474 33.8749 41.2736 33.7442 41.2736 33.6122C41.2736 33.4802 41.2474 33.3495 41.1967 33.2276C41.1459 33.1058 41.0715 32.9952 40.9778 32.9022Z" fill="#EB762F"/>
<path d="M71.3593 16.865H72.9434V22.5779C72.9434 23.2041 72.7954 23.7549 72.4993 24.2303C72.2062 24.7056 71.7934 25.0771 71.2611 25.3447C70.7288 25.6094 70.1069 25.7417 69.3953 25.7417C68.6808 25.7417 68.0574 25.6094 67.5251 25.3447C66.9928 25.0771 66.5801 24.7056 66.2869 24.2303C65.9937 23.7549 65.8471 23.2041 65.8471 22.5779V16.865H67.4312V22.4455C67.4312 22.8099 67.5109 23.1344 67.6703 23.419C67.8325 23.7037 68.0603 23.9271 68.3535 24.0894C68.6466 24.2488 68.9939 24.3285 69.3953 24.3285C69.7966 24.3285 70.1439 24.2488 70.4371 24.0894C70.7331 23.9271 70.9608 23.7037 71.1202 23.419C71.2796 23.1344 71.3593 22.8099 71.3593 22.4455V16.865ZM74.5968 28.0687V19.0511H76.1169V20.1356H76.2065C76.2862 19.9762 76.3987 19.8068 76.5438 19.6275C76.689 19.4453 76.8854 19.2902 77.1331 19.1621C77.3807 19.0312 77.6967 18.9657 78.0809 18.9657C78.5876 18.9657 79.0445 19.0952 79.4515 19.3542C79.8614 19.6104 80.1859 19.9904 80.425 20.4943C80.667 20.9952 80.7879 21.6101 80.7879 22.3388C80.7879 23.0589 80.6698 23.6709 80.4335 24.1748C80.1973 24.6786 79.8756 25.0629 79.4686 25.3276C79.0615 25.5923 78.6004 25.7247 78.0852 25.7247C77.7095 25.7247 77.3978 25.662 77.1501 25.5368C76.9025 25.4115 76.7032 25.2607 76.5524 25.0842C76.4044 24.9049 76.2891 24.7355 76.2065 24.5761H76.1425V28.0687H74.5968ZM76.1126 22.3302C76.1126 22.7544 76.1724 23.1258 76.2919 23.4446C76.4143 23.7634 76.5894 24.0125 76.8171 24.1918C77.0477 24.3683 77.3266 24.4566 77.654 24.4566C77.9955 24.4566 78.2816 24.3655 78.5122 24.1833C78.7427 23.9983 78.9164 23.7464 79.0331 23.4276C79.1526 23.1059 79.2124 22.7401 79.2124 22.3302C79.2124 21.9232 79.154 21.5617 79.0373 21.2457C78.9206 20.9298 78.747 20.6821 78.5164 20.5028C78.2859 20.3235 77.9984 20.2338 77.654 20.2338C77.3238 20.2338 77.0434 20.3206 76.8128 20.4943C76.5823 20.6679 76.4072 20.9113 76.2876 21.2244C76.1709 21.5375 76.1126 21.9061 76.1126 22.3302ZM83.6572 16.865V25.6094H82.1115V16.865H83.6572ZM88.1073 25.7375C87.4668 25.7375 86.9118 25.5966 86.4421 25.3148C85.9724 25.033 85.6081 24.6387 85.349 24.1321C85.0929 23.6254 84.9648 23.0333 84.9648 22.3559C84.9648 21.6784 85.0929 21.0849 85.349 20.5754C85.6081 20.0659 85.9724 19.6702 86.4421 19.3884C86.9118 19.1066 87.4668 18.9657 88.1073 18.9657C88.7477 18.9657 89.3028 19.1066 89.7725 19.3884C90.2421 19.6702 90.6051 20.0659 90.8612 20.5754C91.1203 21.0849 91.2498 21.6784 91.2498 22.3559C91.2498 23.0333 91.1203 23.6254 90.8612 24.1321C90.6051 24.6387 90.2421 25.033 89.7725 25.3148C89.3028 25.5966 88.7477 25.7375 88.1073 25.7375ZM88.1158 24.4992C88.4631 24.4992 88.7534 24.4039 88.9868 24.2132C89.2203 24.0196 89.3939 23.7606 89.5077 23.4361C89.6245 23.1116 89.6828 22.7501 89.6828 22.3516C89.6828 21.9502 89.6245 21.5873 89.5077 21.2628C89.3939 20.9355 89.2203 20.675 88.9868 20.4814C88.7534 20.2879 88.4631 20.1911 88.1158 20.1911C87.76 20.1911 87.464 20.2879 87.2277 20.4814C86.9943 20.675 86.8193 20.9355 86.7025 21.2628C86.5887 21.5873 86.5318 21.9502 86.5318 22.3516C86.5318 22.7501 86.5887 23.1116 86.7025 23.4361C86.8193 23.7606 86.9943 24.0196 87.2277 24.2132C87.464 24.4039 87.76 24.4992 88.1158 24.4992ZM94.4489 25.7417C94.0333 25.7417 93.659 25.6677 93.3259 25.5197C92.9958 25.3688 92.7339 25.1468 92.5403 24.8536C92.3496 24.5604 92.2542 24.1989 92.2542 23.7691C92.2542 23.3991 92.3226 23.0931 92.4592 22.8511C92.5958 22.6092 92.7823 22.4156 93.0185 22.2705C93.2548 22.1253 93.5209 22.0157 93.817 21.9417C94.1158 21.8648 94.4247 21.8093 94.7435 21.7752C95.1278 21.7353 95.4395 21.6997 95.6786 21.6684C95.9177 21.6343 96.0913 21.583 96.1995 21.5147C96.3105 21.4436 96.366 21.334 96.366 21.186V21.1603C96.366 20.8387 96.2706 20.5896 96.0799 20.4131C95.8892 20.2367 95.6145 20.1484 95.2559 20.1484C94.8773 20.1484 94.577 20.231 94.3549 20.3961C94.1358 20.5611 93.9877 20.7561 93.9109 20.981L92.4677 20.7761C92.5816 20.3776 92.7695 20.0445 93.0313 19.7769C93.2932 19.5065 93.6134 19.3044 93.992 19.1706C94.3706 19.034 94.789 18.9657 95.2473 18.9657C95.5633 18.9657 95.8778 19.0027 96.1909 19.0767C96.504 19.1507 96.7901 19.2731 97.0491 19.4439C97.3082 19.6118 97.516 19.841 97.6725 20.1313C97.8319 20.4217 97.9116 20.7846 97.9116 21.2201V25.6094H96.4258V24.7085H96.3745C96.2806 24.8906 96.1482 25.0614 95.9774 25.2208C95.8095 25.3774 95.5974 25.5041 95.3412 25.6008C95.0879 25.6948 94.7905 25.7417 94.4489 25.7417ZM94.8502 24.606C95.1605 24.606 95.4295 24.5448 95.6572 24.4224C95.8849 24.2971 96.06 24.1321 96.1824 23.9271C96.3076 23.7222 96.3702 23.4987 96.3702 23.2568V22.4839C96.3219 22.5238 96.2393 22.5608 96.1226 22.595C96.0087 22.6291 95.8807 22.659 95.7383 22.6846C95.596 22.7102 95.4551 22.733 95.3156 22.7529C95.1762 22.7729 95.0552 22.7899 94.9527 22.8042C94.7221 22.8355 94.5158 22.8867 94.3336 22.9579C94.1514 23.029 94.0077 23.1287 93.9024 23.2568C93.797 23.382 93.7444 23.5443 93.7444 23.7435C93.7444 24.0282 93.8483 24.2431 94.0561 24.3882C94.2639 24.5334 94.5286 24.606 94.8502 24.606ZM101.9 25.7247C101.384 25.7247 100.923 25.5923 100.516 25.3276C100.109 25.0629 99.7874 24.6786 99.5512 24.1748C99.3149 23.6709 99.1968 23.0589 99.1968 22.3388C99.1968 21.6101 99.3164 20.9952 99.5555 20.4943C99.7974 19.9904 100.123 19.6104 100.533 19.3542C100.943 19.0952 101.4 18.9657 101.904 18.9657C102.288 18.9657 102.604 19.0312 102.852 19.1621C103.099 19.2902 103.296 19.4453 103.441 19.6275C103.586 19.8068 103.699 19.9762 103.778 20.1356H103.842V16.865H105.392V25.6094H103.872V24.5761H103.778C103.699 24.7355 103.583 24.9049 103.432 25.0842C103.281 25.2607 103.082 25.4115 102.835 25.5368C102.587 25.662 102.275 25.7247 101.9 25.7247ZM102.331 24.4566C102.658 24.4566 102.937 24.3683 103.168 24.1918C103.398 24.0125 103.573 23.7634 103.693 23.4446C103.812 23.1258 103.872 22.7544 103.872 22.3302C103.872 21.9061 103.812 21.5375 103.693 21.2244C103.576 20.9113 103.402 20.6679 103.172 20.4943C102.944 20.3206 102.664 20.2338 102.331 20.2338C101.986 20.2338 101.699 20.3235 101.468 20.5028C101.238 20.6821 101.064 20.9298 100.947 21.2457C100.831 21.5617 100.772 21.9232 100.772 22.3302C100.772 22.7401 100.831 23.1059 100.947 23.4276C101.067 23.7464 101.242 23.9983 101.473 24.1833C101.706 24.3655 101.992 24.4566 102.331 24.4566ZM110.09 25.6094V16.865H113.437C114.069 16.865 114.594 16.9646 115.013 17.1639C115.434 17.3603 115.749 17.6293 115.956 17.9709C116.167 18.3124 116.272 18.6996 116.272 19.1322C116.272 19.488 116.204 19.7926 116.068 20.0459C115.931 20.2964 115.747 20.4999 115.517 20.6565C115.286 20.8131 115.029 20.9255 114.744 20.9938V21.0792C115.054 21.0963 115.352 21.1916 115.636 21.3653C115.924 21.5361 116.159 21.778 116.341 22.0911C116.523 22.4042 116.614 22.7828 116.614 23.2269C116.614 23.6795 116.504 24.0865 116.285 24.448C116.066 24.8067 115.736 25.0899 115.295 25.2977C114.853 25.5055 114.298 25.6094 113.63 25.6094H110.09ZM111.674 24.2858H113.378C113.953 24.2858 114.367 24.1762 114.62 23.957C114.876 23.735 115.004 23.4503 115.004 23.1031C115.004 22.844 114.94 22.6106 114.812 22.4028C114.684 22.1922 114.502 22.0271 114.266 21.9075C114.029 21.7851 113.748 21.7239 113.42 21.7239H111.674V24.2858ZM111.674 20.5839H113.241C113.514 20.5839 113.76 20.5341 113.98 20.4345C114.199 20.332 114.371 20.1883 114.496 20.0032C114.624 19.8154 114.688 19.5933 114.688 19.3372C114.688 18.9984 114.569 18.7195 114.33 18.5003C114.093 18.2811 113.742 18.1715 113.275 18.1715H111.674V20.5839ZM119.811 25.7417C119.395 25.7417 119.021 25.6677 118.688 25.5197C118.358 25.3688 118.096 25.1468 117.902 24.8536C117.712 24.5604 117.616 24.1989 117.616 23.7691C117.616 23.3991 117.685 23.0931 117.821 22.8511C117.958 22.6092 118.144 22.4156 118.381 22.2705C118.617 22.1253 118.883 22.0157 119.179 21.9417C119.478 21.8648 119.787 21.8093 120.106 21.7752C120.49 21.7353 120.802 21.6997 121.041 21.6684C121.28 21.6343 121.453 21.583 121.562 21.5147C121.673 21.4436 121.728 21.334 121.728 21.186V21.1603C121.728 20.8387 121.633 20.5896 121.442 20.4131C121.251 20.2367 120.977 20.1484 120.618 20.1484C120.239 20.1484 119.939 20.231 119.717 20.3961C119.498 20.5611 119.35 20.7561 119.273 20.981L117.83 20.7761C117.944 20.3776 118.132 20.0445 118.393 19.7769C118.655 19.5065 118.976 19.3044 119.354 19.1706C119.733 19.034 120.151 18.9657 120.609 18.9657C120.925 18.9657 121.24 19.0027 121.553 19.0767C121.866 19.1507 122.152 19.2731 122.411 19.4439C122.67 19.6118 122.878 19.841 123.035 20.1313C123.194 20.4217 123.274 20.7846 123.274 21.2201V25.6094H121.788V24.7085H121.737C121.643 24.8906 121.51 25.0614 121.34 25.2208C121.172 25.3774 120.96 25.5041 120.703 25.6008C120.45 25.6948 120.153 25.7417 119.811 25.7417ZM120.212 24.606C120.523 24.606 120.792 24.5448 121.019 24.4224C121.247 24.2971 121.422 24.1321 121.544 23.9271C121.67 23.7222 121.732 23.4987 121.732 23.2568V22.4839C121.684 22.5238 121.601 22.5608 121.485 22.595C121.371 22.6291 121.243 22.659 121.1 22.6846C120.958 22.7102 120.817 22.733 120.678 22.7529C120.538 22.7729 120.417 22.7899 120.315 22.8042C120.084 22.8355 119.878 22.8867 119.696 22.9579C119.514 23.029 119.37 23.1287 119.264 23.2568C119.159 23.382 119.106 23.5443 119.106 23.7435C119.106 24.0282 119.21 24.2431 119.418 24.3882C119.626 24.5334 119.891 24.606 120.212 24.606ZM127.689 25.7375C127.034 25.7375 126.472 25.5937 126.002 25.3062C125.535 25.0187 125.175 24.6216 124.922 24.115C124.671 23.6055 124.546 23.0191 124.546 22.3559C124.546 21.6898 124.674 21.102 124.93 20.5925C125.187 20.0801 125.548 19.6816 126.015 19.3969C126.485 19.1094 127.04 18.9657 127.68 18.9657C128.212 18.9657 128.683 19.0639 129.093 19.2603C129.506 19.4539 129.835 19.7286 130.08 20.0844C130.324 20.4373 130.464 20.8501 130.498 21.3226H129.021C128.961 21.0066 128.819 20.7433 128.594 20.5327C128.372 20.3192 128.074 20.2125 127.701 20.2125C127.385 20.2125 127.108 20.2979 126.869 20.4686C126.63 20.6366 126.443 20.8785 126.309 21.1945C126.179 21.5104 126.113 21.889 126.113 22.3302C126.113 22.7771 126.179 23.1614 126.309 23.4831C126.44 23.8019 126.624 24.0481 126.86 24.2217C127.099 24.3925 127.38 24.4779 127.701 24.4779C127.929 24.4779 128.133 24.4352 128.312 24.3498C128.494 24.2616 128.646 24.1349 128.769 23.9698C128.891 23.8047 128.975 23.604 129.021 23.3678H130.498C130.461 23.8318 130.324 24.2431 130.088 24.6017C129.852 24.9575 129.53 25.2365 129.123 25.4386C128.716 25.6378 128.238 25.7375 127.689 25.7375ZM133.176 23.5514L133.172 21.6855H133.42L135.777 19.0511H137.583L134.683 22.279H134.363L133.176 23.5514ZM131.767 25.6094V16.865H133.313V25.6094H131.767ZM135.883 25.6094L133.748 22.6248L134.79 21.5361L137.732 25.6094H135.883ZM144.456 25.7375C143.815 25.7375 143.26 25.5966 142.791 25.3148C142.321 25.033 141.957 24.6387 141.698 24.1321C141.441 23.6254 141.313 23.0333 141.313 22.3559C141.313 21.6784 141.441 21.0849 141.698 20.5754C141.957 20.0659 142.321 19.6702 142.791 19.3884C143.26 19.1066 143.815 18.9657 144.456 18.9657C145.096 18.9657 145.651 19.1066 146.121 19.3884C146.591 19.6702 146.954 20.0659 147.21 20.5754C147.469 21.0849 147.598 21.6784 147.598 22.3559C147.598 23.0333 147.469 23.6254 147.21 24.1321C146.954 24.6387 146.591 25.033 146.121 25.3148C145.651 25.5966 145.096 25.7375 144.456 25.7375ZM144.464 24.4992C144.812 24.4992 145.102 24.4039 145.335 24.2132C145.569 24.0196 145.742 23.7606 145.856 23.4361C145.973 23.1116 146.031 22.7501 146.031 22.3516C146.031 21.9502 145.973 21.5873 145.856 21.2628C145.742 20.9355 145.569 20.675 145.335 20.4814C145.102 20.2879 144.812 20.1911 144.464 20.1911C144.109 20.1911 143.812 20.2879 143.576 20.4814C143.343 20.675 143.168 20.9355 143.051 21.2628C142.937 21.5873 142.88 21.9502 142.88 22.3516C142.88 22.7501 142.937 23.1116 143.051 23.4361C143.168 23.7606 143.343 24.0196 143.576 24.2132C143.812 24.4039 144.109 24.4992 144.464 24.4992ZM152.232 19.0511V20.2466H148.355V19.0511H152.232ZM149.324 25.6094V18.432C149.324 17.9908 149.415 17.6236 149.598 17.3304C149.783 17.0372 150.03 16.818 150.341 16.6729C150.651 16.5277 150.995 16.4551 151.374 16.4551C151.641 16.4551 151.879 16.4765 152.087 16.5192C152.295 16.5619 152.448 16.6003 152.548 16.6344L152.241 17.83C152.175 17.81 152.093 17.7901 151.993 17.7702C151.893 17.7474 151.782 17.736 151.66 17.736C151.372 17.736 151.169 17.8058 151.049 17.9452C150.933 18.0819 150.874 18.2783 150.874 18.5345V25.6094H149.324ZM163.679 16.865V25.6094H162.27L158.15 19.6531H158.077V25.6094H156.493V16.865H157.911L162.027 22.8255H162.104V16.865H163.679ZM166.989 16.865V25.6094H165.405V16.865H166.989ZM171.668 25.6094H168.705V16.865H171.728C172.596 16.865 173.341 17.0401 173.965 17.3902C174.591 17.7374 175.072 18.237 175.408 18.8888C175.744 19.5407 175.912 20.3206 175.912 21.2286C175.912 22.1395 175.742 22.9223 175.404 23.577C175.068 24.2317 174.583 24.7341 173.948 25.0842C173.316 25.4343 172.556 25.6094 171.668 25.6094ZM170.289 24.2388H171.591C172.2 24.2388 172.708 24.1278 173.115 23.9058C173.522 23.6809 173.828 23.3464 174.033 22.9024C174.238 22.4555 174.341 21.8976 174.341 21.2286C174.341 20.5597 174.238 20.0047 174.033 19.5635C173.828 19.1194 173.525 18.7878 173.124 18.5686C172.725 18.3466 172.23 18.2356 171.638 18.2356H170.289V24.2388Z" fill="#0F0F0F"/>
<path d="M69.6055 38.6907C69.5671 38.3662 69.4113 38.1143 69.138 37.9349C68.8647 37.7556 68.5296 37.6659 68.1325 37.6659C67.8421 37.6659 67.5881 37.7129 67.3703 37.8068C67.1547 37.9008 66.9861 38.0299 66.8644 38.1943C66.7448 38.3587 66.685 38.5455 66.685 38.7547C66.685 38.9298 66.7267 39.0803 66.8099 39.2062C66.8953 39.3301 67.0042 39.4336 67.1366 39.5169C67.2689 39.598 67.4077 39.6652 67.5529 39.7186C67.698 39.7698 67.8315 39.8115 67.9531 39.8435L68.6192 40.0228C68.79 40.0676 68.98 40.1296 69.1892 40.2085C69.4006 40.2875 69.6023 40.3953 69.7945 40.532C69.9887 40.6665 70.1488 40.8394 70.2748 41.0507C70.4008 41.2621 70.4637 41.5215 70.4637 41.8289C70.4637 42.1833 70.3709 42.5035 70.1851 42.7896C70.0015 43.0757 69.7326 43.303 69.3782 43.4717C69.0259 43.6403 68.5979 43.7247 68.094 43.7247C67.6244 43.7247 67.2177 43.6489 66.874 43.4973C66.5324 43.3457 66.2634 43.1344 66.067 42.8632C65.8727 42.5921 65.7628 42.2772 65.7372 41.9186H66.557C66.5783 42.1662 66.6616 42.3712 66.8067 42.5334C66.954 42.6935 67.1398 42.8131 67.3639 42.8921C67.5902 42.9689 67.8336 43.0073 68.094 43.0073C68.3972 43.0073 68.6694 42.9582 68.9106 42.86C69.1519 42.7597 69.3429 42.6209 69.4838 42.4437C69.6247 42.2644 69.6952 42.0552 69.6952 41.8161C69.6952 41.5983 69.6343 41.4211 69.5127 41.2845C69.391 41.1479 69.2309 41.0369 69.0323 40.9515C68.8338 40.8661 68.6192 40.7914 68.3887 40.7273L67.5817 40.4968C67.0693 40.3494 66.6637 40.1392 66.3648 39.8659C66.0659 39.5926 65.9165 39.2351 65.9165 38.7931C65.9165 38.4259 66.0158 38.1057 66.2143 37.8325C66.415 37.5571 66.684 37.3436 67.0213 37.192C67.3607 37.0383 67.7397 36.9614 68.1581 36.9614C68.5808 36.9614 68.9565 37.0372 69.2853 37.1888C69.6141 37.3382 69.8745 37.5432 70.0667 37.8036C70.2609 38.0641 70.3634 38.3598 70.3741 38.6907H69.6055ZM74.7668 41.5983V38.6907H75.5226V43.6094H74.7668V42.7768H74.7156C74.6003 43.0266 74.421 43.239 74.1776 43.414C73.9342 43.587 73.6268 43.6734 73.2553 43.6734C72.9479 43.6734 72.6747 43.6062 72.4355 43.4717C72.1964 43.335 72.0086 43.1301 71.8719 42.8568C71.7353 42.5814 71.667 42.2345 71.667 41.8161V38.6907H72.4227V41.7649C72.4227 42.1235 72.5231 42.4096 72.7238 42.6231C72.9266 42.8366 73.1849 42.9433 73.4987 42.9433C73.6866 42.9433 73.8776 42.8953 74.0719 42.7992C74.2683 42.7031 74.4327 42.5558 74.5651 42.3573C74.6996 42.1587 74.7668 41.9058 74.7668 41.5983ZM76.9067 45.4539V38.6907H77.6369V39.472H77.7265C77.782 39.3866 77.8589 39.2777 77.9571 39.1454C78.0574 39.0109 78.2005 38.8913 78.3862 38.7867C78.5741 38.68 78.8281 38.6266 79.1483 38.6266C79.5625 38.6266 79.9276 38.7302 80.2435 38.9372C80.5595 39.1443 80.8061 39.4379 80.9832 39.8179C81.1604 40.1979 81.249 40.6462 81.249 41.1628C81.249 41.6837 81.1604 42.1353 80.9832 42.5174C80.8061 42.8974 80.5605 43.192 80.2467 43.4012C79.9329 43.6083 79.571 43.7118 79.1611 43.7118C78.8452 43.7118 78.5922 43.6595 78.4022 43.5549C78.2122 43.4482 78.066 43.3276 77.9635 43.1931C77.861 43.0564 77.782 42.9433 77.7265 42.8536H77.6625V45.4539H76.9067ZM77.6497 41.15C77.6497 41.5215 77.7041 41.8492 77.813 42.1331C77.9219 42.4149 78.0809 42.6359 78.2901 42.796C78.4993 42.954 78.7555 43.033 79.0587 43.033C79.3746 43.033 79.6383 42.9497 79.8496 42.7832C80.0631 42.6145 80.2232 42.3882 80.33 42.1043C80.4389 41.8182 80.4933 41.5001 80.4933 41.15C80.4933 40.8042 80.4399 40.4925 80.3332 40.215C80.2286 39.9353 80.0695 39.7143 79.856 39.5521C79.6447 39.3877 79.3789 39.3055 79.0587 39.3055C78.7513 39.3055 78.4929 39.3834 78.2837 39.5393C78.0745 39.693 77.9165 39.9086 77.8098 40.1861C77.703 40.4615 77.6497 40.7828 77.6497 41.15ZM82.4019 45.4539V38.6907H83.132V39.472H83.2216C83.2772 39.3866 83.354 39.2777 83.4522 39.1454C83.5525 39.0109 83.6956 38.8913 83.8813 38.7867C84.0692 38.68 84.3232 38.6266 84.6435 38.6266C85.0576 38.6266 85.4227 38.7302 85.7386 38.9372C86.0546 39.1443 86.3012 39.4379 86.4784 39.8179C86.6556 40.1979 86.7442 40.6462 86.7442 41.1628C86.7442 41.6837 86.6556 42.1353 86.4784 42.5174C86.3012 42.8974 86.0557 43.192 85.7418 43.4012C85.428 43.6083 85.0662 43.7118 84.6563 43.7118C84.3403 43.7118 84.0873 43.6595 83.8973 43.5549C83.7073 43.4482 83.5611 43.3276 83.4586 43.1931C83.3561 43.0564 83.2772 42.9433 83.2216 42.8536H83.1576V45.4539H82.4019ZM83.1448 41.15C83.1448 41.5215 83.1992 41.8492 83.3081 42.1331C83.417 42.4149 83.576 42.6359 83.7852 42.796C83.9945 42.954 84.2506 43.033 84.5538 43.033C84.8698 43.033 85.1334 42.9497 85.3448 42.7832C85.5582 42.6145 85.7184 42.3882 85.8251 42.1043C85.934 41.8182 85.9884 41.5001 85.9884 41.15C85.9884 40.8042 85.935 40.4925 85.8283 40.215C85.7237 39.9353 85.5647 39.7143 85.3512 39.5521C85.1398 39.3877 84.874 39.3055 84.5538 39.3055C84.2464 39.3055 83.9881 39.3834 83.7788 39.5393C83.5696 39.693 83.4116 39.9086 83.3049 40.1861C83.1982 40.4615 83.1448 40.7828 83.1448 41.15ZM89.8952 43.7118C89.4512 43.7118 89.0615 43.6062 88.7264 43.3948C88.3933 43.1835 88.1329 42.8878 87.945 42.5078C87.7593 42.1278 87.6664 41.6837 87.6664 41.1756C87.6664 40.6633 87.7593 40.216 87.945 39.8339C88.1329 39.4517 88.3933 39.155 88.7264 38.9436C89.0615 38.7323 89.4512 38.6266 89.8952 38.6266C90.3393 38.6266 90.7278 38.7323 91.0608 38.9436C91.396 39.155 91.6565 39.4517 91.8422 39.8339C92.0301 40.216 92.124 40.6633 92.124 41.1756C92.124 41.6837 92.0301 42.1278 91.8422 42.5078C91.6565 42.8878 91.396 43.1835 91.0608 43.3948C90.7278 43.6062 90.3393 43.7118 89.8952 43.7118ZM89.8952 43.033C90.2325 43.033 90.51 42.9465 90.7278 42.7736C90.9456 42.6007 91.1067 42.3733 91.2113 42.0915C91.316 41.8097 91.3683 41.5044 91.3683 41.1756C91.3683 40.8469 91.316 40.5405 91.2113 40.2566C91.1067 39.9726 90.9456 39.7431 90.7278 39.5681C90.51 39.393 90.2325 39.3055 89.8952 39.3055C89.5579 39.3055 89.2804 39.393 89.0626 39.5681C88.8449 39.7431 88.6837 39.9726 88.5791 40.2566C88.4745 40.5405 88.4222 40.8469 88.4222 41.1756C88.4222 41.5044 88.4745 41.8097 88.5791 42.0915C88.6837 42.3733 88.8449 42.6007 89.0626 42.7736C89.2804 42.9465 89.5579 43.033 89.8952 43.033ZM93.2776 43.6094V38.6907H94.0077V39.4336H94.059C94.1486 39.1902 94.3109 38.9927 94.5457 38.8412C94.7806 38.6896 95.0453 38.6138 95.3399 38.6138C95.3954 38.6138 95.4648 38.6149 95.548 38.617C95.6313 38.6191 95.6943 38.6223 95.737 38.6266V39.3952C95.7114 39.3888 95.6527 39.3792 95.5609 39.3663C95.4712 39.3514 95.3762 39.3439 95.2758 39.3439C95.0367 39.3439 94.8233 39.3941 94.6354 39.4944C94.4497 39.5926 94.3024 39.7293 94.1935 39.9043C94.0867 40.0773 94.0334 40.2747 94.0334 40.4968V43.6094H93.2776ZM99.0802 38.6907V39.3311H96.5311V38.6907H99.0802ZM97.2741 37.5122H98.0298V42.2004C98.0298 42.4139 98.0608 42.574 98.1227 42.6807C98.1867 42.7853 98.2679 42.8558 98.3661 42.8921C98.4664 42.9262 98.5721 42.9433 98.6831 42.9433C98.7663 42.9433 98.8347 42.939 98.888 42.9305C98.9414 42.9198 98.9841 42.9113 99.0161 42.9049L99.1698 43.5838C99.1186 43.603 99.0471 43.6222 98.9553 43.6414C98.8635 43.6627 98.7471 43.6734 98.6062 43.6734C98.3927 43.6734 98.1835 43.6275 97.9786 43.5357C97.7758 43.4439 97.6071 43.3041 97.4726 43.1162C97.3403 42.9284 97.2741 42.6914 97.2741 42.4053V37.5122ZM102.226 43.7118C101.752 43.7118 101.344 43.6072 101 43.398C100.658 43.1867 100.395 42.8921 100.209 42.5142C100.025 42.1342 99.9336 41.6923 99.9336 41.1884C99.9336 40.6846 100.025 40.2406 100.209 39.8563C100.395 39.4699 100.653 39.1689 100.984 38.9533C101.317 38.7355 101.706 38.6266 102.15 38.6266C102.406 38.6266 102.659 38.6693 102.908 38.7547C103.158 38.8401 103.386 38.9789 103.591 39.171C103.796 39.361 103.959 39.6129 104.081 39.9267C104.202 40.2406 104.263 40.627 104.263 41.086V41.4062H100.472V40.7529H103.495C103.495 40.4754 103.439 40.2278 103.328 40.01C103.219 39.7923 103.063 39.6204 102.86 39.4944C102.66 39.3685 102.423 39.3055 102.15 39.3055C101.849 39.3055 101.588 39.3802 101.368 39.5297C101.15 39.677 100.983 39.8691 100.865 40.1061C100.748 40.343 100.689 40.5971 100.689 40.8682V41.3037C100.689 41.6752 100.753 41.9901 100.881 42.2484C101.012 42.5046 101.192 42.6999 101.423 42.8344C101.653 42.9668 101.921 43.033 102.226 43.033C102.425 43.033 102.604 43.0052 102.764 42.9497C102.927 42.8921 103.066 42.8067 103.184 42.6935C103.301 42.5782 103.392 42.4352 103.456 42.2644L104.186 42.4694C104.109 42.717 103.98 42.9348 103.799 43.1226C103.617 43.3084 103.393 43.4535 103.126 43.5581C102.859 43.6606 102.559 43.7118 102.226 43.7118ZM107.27 43.7118C106.86 43.7118 106.498 43.6083 106.184 43.4012C105.871 43.192 105.625 42.8974 105.448 42.5174C105.271 42.1353 105.182 41.6837 105.182 41.1628C105.182 40.6462 105.271 40.1979 105.448 39.8179C105.625 39.4379 105.872 39.1443 106.188 38.9372C106.504 38.7302 106.869 38.6266 107.283 38.6266C107.603 38.6266 107.856 38.68 108.042 38.7867C108.23 38.8913 108.373 39.0109 108.471 39.1454C108.571 39.2777 108.649 39.3866 108.705 39.472H108.769V37.0511H109.524V43.6094H108.794V42.8536H108.705C108.649 42.9433 108.57 43.0564 108.468 43.1931C108.365 43.3276 108.219 43.4482 108.029 43.5549C107.839 43.6595 107.586 43.7118 107.27 43.7118ZM107.372 43.033C107.676 43.033 107.932 42.954 108.141 42.796C108.35 42.6359 108.509 42.4149 108.618 42.1331C108.727 41.8492 108.781 41.5215 108.781 41.15C108.781 40.7828 108.728 40.4615 108.621 40.1861C108.515 39.9086 108.357 39.693 108.147 39.5393C107.938 39.3834 107.68 39.3055 107.372 39.3055C107.052 39.3055 106.785 39.3877 106.572 39.5521C106.361 39.7143 106.202 39.9353 106.095 40.215C105.99 40.4925 105.938 40.8042 105.938 41.15C105.938 41.5001 105.991 41.8182 106.098 42.1043C106.207 42.3882 106.367 42.6145 106.578 42.7832C106.792 42.9497 107.057 43.033 107.372 43.033ZM115.74 38.6907V39.3311H113.089V38.6907H115.74ZM113.883 43.6094V38.0118C113.883 37.73 113.949 37.4951 114.081 37.3073C114.214 37.1194 114.385 36.9785 114.597 36.8846C114.808 36.7906 115.031 36.7437 115.266 36.7437C115.452 36.7437 115.603 36.7586 115.721 36.7885C115.838 36.8184 115.926 36.8461 115.983 36.8718L115.766 37.525C115.727 37.5122 115.674 37.4962 115.606 37.477C115.539 37.4578 115.452 37.4482 115.343 37.4482C115.093 37.4482 114.913 37.5112 114.802 37.6371C114.693 37.7631 114.638 37.9477 114.638 38.1911V43.6094H113.883ZM118.595 43.7118C118.151 43.7118 117.761 43.6062 117.426 43.3948C117.093 43.1835 116.833 42.8878 116.645 42.5078C116.459 42.1278 116.366 41.6837 116.366 41.1756C116.366 40.6633 116.459 40.216 116.645 39.8339C116.833 39.4517 117.093 39.155 117.426 38.9436C117.761 38.7323 118.151 38.6266 118.595 38.6266C119.039 38.6266 119.427 38.7323 119.761 38.9436C120.096 39.155 120.356 39.4517 120.542 39.8339C120.73 40.216 120.824 40.6633 120.824 41.1756C120.824 41.6837 120.73 42.1278 120.542 42.5078C120.356 42.8878 120.096 43.1835 119.761 43.3948C119.427 43.6062 119.039 43.7118 118.595 43.7118ZM118.595 43.033C118.932 43.033 119.21 42.9465 119.427 42.7736C119.645 42.6007 119.806 42.3733 119.911 42.0915C120.016 41.8097 120.068 41.5044 120.068 41.1756C120.068 40.8469 120.016 40.5405 119.911 40.2566C119.806 39.9726 119.645 39.7431 119.427 39.5681C119.21 39.393 118.932 39.3055 118.595 39.3055C118.258 39.3055 117.98 39.393 117.762 39.5681C117.545 39.7431 117.383 39.9726 117.279 40.2566C117.174 40.5405 117.122 40.8469 117.122 41.1756C117.122 41.5044 117.174 41.8097 117.279 42.0915C117.383 42.3733 117.545 42.6007 117.762 42.7736C117.98 42.9465 118.258 43.033 118.595 43.033ZM121.977 43.6094V38.6907H122.707V39.4336H122.759C122.848 39.1902 123.011 38.9927 123.245 38.8412C123.48 38.6896 123.745 38.6138 124.04 38.6138C124.095 38.6138 124.164 38.6149 124.248 38.617C124.331 38.6191 124.394 38.6223 124.437 38.6266V39.3952C124.411 39.3888 124.352 39.3792 124.261 39.3663C124.171 39.3514 124.076 39.3439 123.976 39.3439C123.736 39.3439 123.523 39.3941 123.335 39.4944C123.149 39.5926 123.002 39.7293 122.893 39.9043C122.786 40.0773 122.733 40.2747 122.733 40.4968V43.6094H121.977ZM125.333 43.6094V38.6907H126.063V39.4592H126.127C126.229 39.1966 126.395 38.9927 126.623 38.8476C126.851 38.7003 127.126 38.6266 127.446 38.6266C127.771 38.6266 128.041 38.7003 128.256 38.8476C128.474 38.9927 128.644 39.1966 128.765 39.4592H128.817C128.943 39.2052 129.131 39.0034 129.383 38.854C129.635 38.7024 129.937 38.6266 130.29 38.6266C130.729 38.6266 131.089 38.7643 131.369 39.0397C131.648 39.313 131.788 39.7389 131.788 40.3174V43.6094H131.033V40.3174C131.033 39.9545 130.933 39.6951 130.735 39.5393C130.536 39.3834 130.302 39.3055 130.033 39.3055C129.688 39.3055 129.42 39.4101 129.23 39.6193C129.04 39.8264 128.945 40.089 128.945 40.4071V43.6094H128.176V40.2406C128.176 39.9609 128.085 39.7357 127.904 39.5649C127.722 39.392 127.489 39.3055 127.203 39.3055C127.006 39.3055 126.823 39.3578 126.652 39.4624C126.483 39.567 126.347 39.7122 126.242 39.8979C126.139 40.0815 126.088 40.2939 126.088 40.5352V43.6094H125.333ZM134.618 43.7247C134.306 43.7247 134.023 43.6659 133.769 43.5485C133.515 43.429 133.313 43.2571 133.164 43.033C133.014 42.8067 132.94 42.5334 132.94 42.2132C132.94 41.9314 132.995 41.7029 133.106 41.5279C133.217 41.3507 133.365 41.2119 133.551 41.1116C133.737 41.0113 133.942 40.9365 134.166 40.8874C134.392 40.8362 134.62 40.7956 134.848 40.7657C135.147 40.7273 135.389 40.6985 135.575 40.6793C135.763 40.6579 135.9 40.6227 135.985 40.5736C136.072 40.5245 136.116 40.4391 136.116 40.3174V40.2918C136.116 39.9758 136.03 39.7303 135.857 39.5553C135.686 39.3802 135.427 39.2927 135.079 39.2927C134.718 39.2927 134.435 39.3717 134.23 39.5297C134.025 39.6876 133.881 39.8563 133.798 40.0356L133.08 39.7794C133.209 39.4806 133.379 39.2479 133.593 39.0813C133.808 38.9127 134.043 38.7953 134.297 38.7291C134.553 38.6608 134.805 38.6266 135.053 38.6266C135.211 38.6266 135.392 38.6458 135.597 38.6843C135.805 38.7206 136.004 38.7963 136.196 38.9116C136.391 39.0269 136.552 39.2009 136.68 39.4336C136.808 39.6663 136.872 39.978 136.872 40.3687V43.6094H136.116V42.9433H136.078C136.027 43.05 135.941 43.1643 135.822 43.2859C135.702 43.4076 135.543 43.5112 135.344 43.5966C135.146 43.682 134.904 43.7247 134.618 43.7247ZM134.733 43.0458C135.032 43.0458 135.284 42.9871 135.489 42.8696C135.696 42.7522 135.851 42.6007 135.956 42.4149C136.063 42.2292 136.116 42.0339 136.116 41.8289V41.1372C136.084 41.1756 136.014 41.2109 135.905 41.2429C135.798 41.2728 135.674 41.2995 135.533 41.3229C135.395 41.3443 135.259 41.3635 135.127 41.3806C134.996 41.3955 134.891 41.4083 134.81 41.419C134.613 41.4446 134.43 41.4863 134.259 41.5439C134.09 41.5994 133.954 41.6837 133.849 41.7969C133.747 41.9079 133.695 42.0595 133.695 42.2516C133.695 42.5142 133.792 42.7127 133.987 42.8472C134.183 42.9796 134.432 43.0458 134.733 43.0458ZM140.39 38.6907V39.3311H137.841V38.6907H140.39ZM138.584 37.5122H139.34V42.2004C139.34 42.4139 139.371 42.574 139.433 42.6807C139.497 42.7853 139.578 42.8558 139.676 42.8921C139.777 42.9262 139.882 42.9433 139.993 42.9433C140.077 42.9433 140.145 42.939 140.198 42.9305C140.252 42.9198 140.294 42.9113 140.326 42.9049L140.48 43.5838C140.429 43.603 140.357 43.6222 140.266 43.6414C140.174 43.6627 140.057 43.6734 139.917 43.6734C139.703 43.6734 139.494 43.6275 139.289 43.5357C139.086 43.4439 138.917 43.3041 138.783 43.1162C138.651 42.9284 138.584 42.6914 138.584 42.4053V37.5122ZM143.537 43.7118C143.063 43.7118 142.654 43.6072 142.31 43.398C141.969 43.1867 141.705 42.8921 141.519 42.5142C141.336 42.1342 141.244 41.6923 141.244 41.1884C141.244 40.6846 141.336 40.2406 141.519 39.8563C141.705 39.4699 141.963 39.1689 142.294 38.9533C142.627 38.7355 143.016 38.6266 143.46 38.6266C143.716 38.6266 143.969 38.6693 144.219 38.7547C144.469 38.8401 144.696 38.9789 144.901 39.171C145.106 39.361 145.269 39.6129 145.391 39.9267C145.513 40.2406 145.573 40.627 145.573 41.086V41.4062H141.782V40.7529H144.805C144.805 40.4754 144.749 40.2278 144.638 40.01C144.529 39.7923 144.374 39.6204 144.171 39.4944C143.97 39.3685 143.733 39.3055 143.46 39.3055C143.159 39.3055 142.898 39.3802 142.678 39.5297C142.461 39.677 142.293 39.8691 142.176 40.1061C142.058 40.343 142 40.5971 142 40.8682V41.3037C142 41.6752 142.064 41.9901 142.192 42.2484C142.322 42.5046 142.502 42.6999 142.733 42.8344C142.963 42.9668 143.231 43.033 143.537 43.033C143.735 43.033 143.915 43.0052 144.075 42.9497C144.237 42.8921 144.377 42.8067 144.494 42.6935C144.612 42.5782 144.702 42.4352 144.766 42.2644L145.496 42.4694C145.42 42.717 145.29 42.9348 145.109 43.1226C144.928 43.3084 144.703 43.4535 144.437 43.5581C144.17 43.6606 143.87 43.7118 143.537 43.7118ZM150.207 39.7923L149.528 39.9844C149.485 39.8712 149.422 39.7613 149.339 39.6546C149.258 39.5457 149.147 39.456 149.006 39.3856C148.865 39.3151 148.685 39.2799 148.465 39.2799C148.164 39.2799 147.913 39.3493 147.712 39.488C147.514 39.6247 147.415 39.7987 147.415 40.01C147.415 40.1979 147.483 40.3462 147.62 40.4551C147.756 40.564 147.97 40.6547 148.26 40.7273L148.99 40.9066C149.43 41.0134 149.758 41.1767 149.973 41.3966C150.189 41.6144 150.297 41.8951 150.297 42.2388C150.297 42.5206 150.216 42.7725 150.053 42.9945C149.893 43.2166 149.669 43.3916 149.381 43.5197C149.093 43.6478 148.757 43.7118 148.375 43.7118C147.874 43.7118 147.458 43.603 147.13 43.3852C146.801 43.1675 146.593 42.8494 146.505 42.4309L147.223 42.2516C147.291 42.5163 147.42 42.7149 147.61 42.8472C147.802 42.9796 148.053 43.0458 148.363 43.0458C148.715 43.0458 148.994 42.9711 149.202 42.8216C149.411 42.67 149.515 42.4886 149.515 42.2772C149.515 42.1064 149.456 41.9634 149.336 41.8481C149.216 41.7307 149.033 41.6432 148.785 41.5855L147.965 41.3934C147.515 41.2867 147.184 41.1212 146.973 40.897C146.764 40.6707 146.659 40.3879 146.659 40.0484C146.659 39.7709 146.737 39.5254 146.893 39.3119C147.051 39.0984 147.265 38.9308 147.536 38.8091C147.81 38.6875 148.119 38.6266 148.465 38.6266C148.952 38.6266 149.334 38.7334 149.611 38.9468C149.891 39.1603 150.09 39.4421 150.207 39.7923ZM151.985 43.6606C151.827 43.6606 151.692 43.604 151.578 43.4909C151.465 43.3777 151.409 43.2422 151.409 43.0842C151.409 42.9262 151.465 42.7907 151.578 42.6775C151.692 42.5644 151.827 42.5078 151.985 42.5078C152.143 42.5078 152.279 42.5644 152.392 42.6775C152.505 42.7907 152.562 42.9262 152.562 43.0842C152.562 43.1888 152.535 43.2849 152.481 43.3724C152.43 43.4599 152.361 43.5304 152.273 43.5838C152.188 43.635 152.092 43.6606 151.985 43.6606ZM151.985 40.01C151.827 40.01 151.692 39.9534 151.578 39.8403C151.465 39.7271 151.409 39.5916 151.409 39.4336C151.409 39.2756 151.465 39.1401 151.578 39.0269C151.692 38.9138 151.827 38.8572 151.985 38.8572C152.143 38.8572 152.279 38.9138 152.392 39.0269C152.505 39.1401 152.562 39.2756 152.562 39.4336C152.562 39.5382 152.535 39.6343 152.481 39.7218C152.43 39.8093 152.361 39.8798 152.273 39.9332C152.188 39.9844 152.092 40.01 151.985 40.01ZM159.067 37.0511H159.861V41.7392C159.861 42.1577 159.784 42.5131 159.631 42.8056C159.477 43.0981 159.26 43.3201 158.981 43.4717C158.701 43.6233 158.371 43.699 157.991 43.699C157.632 43.699 157.313 43.6339 157.034 43.5037C156.754 43.3713 156.534 43.1835 156.374 42.9401C156.214 42.6967 156.134 42.4075 156.134 42.0723H156.915C156.915 42.258 156.961 42.4203 157.053 42.559C157.147 42.6957 157.275 42.8024 157.437 42.8793C157.599 42.9561 157.784 42.9945 157.991 42.9945C158.219 42.9945 158.414 42.9465 158.574 42.8504C158.734 42.7544 158.856 42.6135 158.939 42.4277C159.024 42.2399 159.067 42.0104 159.067 41.7392V37.0511ZM161.453 43.6094V37.0511H163.669C164.183 37.0511 164.604 37.144 164.93 37.3297C165.259 37.5133 165.503 37.762 165.66 38.0758C165.818 38.3896 165.897 38.7398 165.897 39.1262C165.897 39.5126 165.818 39.8638 165.66 40.1797C165.505 40.4957 165.263 40.7476 164.937 40.9355C164.61 41.1212 164.192 41.2141 163.681 41.2141H162.093V40.5096H163.656C164.008 40.5096 164.291 40.4487 164.504 40.327C164.718 40.2053 164.873 40.041 164.969 39.8339C165.067 39.6247 165.116 39.3888 165.116 39.1262C165.116 38.8636 165.067 38.6288 164.969 38.4217C164.873 38.2146 164.717 38.0523 164.501 37.9349C164.286 37.8154 164 37.7556 163.643 37.7556H162.247V43.6094H161.453ZM167.177 43.6094V37.0511H171.135V37.7556H167.971V39.9716H170.93V40.6761H167.971V42.9049H171.186V43.6094H167.177ZM177.049 39.1006C176.979 38.8849 176.886 38.6917 176.771 38.5209C176.658 38.348 176.522 38.2007 176.364 38.079C176.208 37.9573 176.031 37.8645 175.833 37.8004C175.634 37.7364 175.416 37.7044 175.179 37.7044C174.791 37.7044 174.437 37.8047 174.119 38.0054C173.801 38.2061 173.548 38.5017 173.36 38.8924C173.173 39.2831 173.079 39.7624 173.079 40.3302C173.079 40.8981 173.174 41.3774 173.364 41.7681C173.554 42.1587 173.811 42.4544 174.135 42.6551C174.46 42.8558 174.825 42.9561 175.231 42.9561C175.606 42.9561 175.937 42.8761 176.223 42.7159C176.511 42.5537 176.736 42.3253 176.896 42.0306C177.058 41.7339 177.139 41.3849 177.139 40.9835L177.382 41.0347H175.41V40.3302H177.908V41.0347C177.908 41.5749 177.792 42.0445 177.562 42.4437C177.333 42.843 177.017 43.1525 176.614 43.3724C176.213 43.5902 175.751 43.699 175.231 43.699C174.65 43.699 174.14 43.5624 173.7 43.2891C173.262 43.0159 172.921 42.6273 172.675 42.1235C172.432 41.6197 172.31 41.0219 172.31 40.3302C172.31 39.8115 172.379 39.345 172.518 38.9308C172.659 38.5145 172.858 38.1602 173.114 37.8677C173.37 37.5752 173.673 37.351 174.023 37.1952C174.373 37.0394 174.759 36.9614 175.179 36.9614C175.525 36.9614 175.847 37.0137 176.146 37.1183C176.447 37.2208 176.715 37.3671 176.95 37.5571C177.187 37.7449 177.385 37.9701 177.543 38.2327C177.701 38.4932 177.809 38.7825 177.869 39.1006H177.049ZM180.293 42.7127L180.241 43.0586C180.205 43.302 180.149 43.5624 180.075 43.8399C180.002 44.1175 179.926 44.379 179.847 44.6245C179.768 44.87 179.703 45.0653 179.652 45.2105H179.076C179.103 45.0739 179.14 44.8935 179.185 44.6693C179.229 44.4452 179.274 44.1943 179.319 43.9168C179.366 43.6414 179.404 43.3596 179.434 43.0714L179.473 42.7127H180.293ZM184.331 43.6094V37.0511H186.547C187.062 37.0511 187.482 37.144 187.809 37.3297C188.138 37.5133 188.381 37.762 188.539 38.0758C188.697 38.3896 188.776 38.7398 188.776 39.1262C188.776 39.5126 188.697 39.8638 188.539 40.1797C188.383 40.4957 188.142 40.7476 187.816 40.9355C187.489 41.1212 187.07 41.2141 186.56 41.2141H184.972V40.5096H186.535C186.887 40.5096 187.17 40.4487 187.383 40.327C187.597 40.2053 187.751 40.041 187.848 39.8339C187.946 39.6247 187.995 39.3888 187.995 39.1262C187.995 38.8636 187.946 38.6288 187.848 38.4217C187.751 38.2146 187.596 38.0523 187.38 37.9349C187.164 37.8154 186.878 37.7556 186.522 37.7556H185.126V43.6094H184.331ZM195.256 37.0511V43.6094H194.487L190.914 38.4601H190.85V43.6094H190.055V37.0511H190.824L194.411 42.2132H194.475V37.0511H195.256ZM201.328 39.1006C201.258 38.8849 201.165 38.6917 201.05 38.5209C200.937 38.348 200.801 38.2007 200.643 38.079C200.487 37.9573 200.31 37.8645 200.111 37.8004C199.913 37.7364 199.695 37.7044 199.458 37.7044C199.07 37.7044 198.716 37.8047 198.398 38.0054C198.08 38.2061 197.827 38.5017 197.639 38.8924C197.451 39.2831 197.357 39.7624 197.357 40.3302C197.357 40.8981 197.452 41.3774 197.643 41.7681C197.833 42.1587 198.09 42.4544 198.414 42.6551C198.739 42.8558 199.104 42.9561 199.509 42.9561C199.885 42.9561 200.216 42.8761 200.502 42.7159C200.79 42.5537 201.015 42.3253 201.175 42.0306C201.337 41.7339 201.418 41.3849 201.418 40.9835L201.661 41.0347H199.689V40.3302H202.187V41.0347C202.187 41.5749 202.071 42.0445 201.841 42.4437C201.612 42.843 201.296 43.1525 200.893 43.3724C200.491 43.5902 200.03 43.699 199.509 43.699C198.929 43.699 198.419 43.5624 197.979 43.2891C197.541 43.0159 197.2 42.6273 196.954 42.1235C196.711 41.6197 196.589 41.0219 196.589 40.3302C196.589 39.8115 196.658 39.345 196.797 38.9308C196.938 38.5145 197.137 38.1602 197.393 37.8677C197.649 37.5752 197.952 37.351 198.302 37.1952C198.652 37.0394 199.038 36.9614 199.458 36.9614C199.804 36.9614 200.126 37.0137 200.425 37.1183C200.726 37.2208 200.994 37.3671 201.229 37.5571C201.466 37.7449 201.664 37.9701 201.821 38.2327C201.979 38.4932 202.088 38.7825 202.148 39.1006H201.328ZM204.571 42.7127L204.52 43.0586C204.484 43.302 204.428 43.5624 204.354 43.8399C204.281 44.1175 204.205 44.379 204.126 44.6245C204.047 44.87 203.982 45.0653 203.931 45.2105H203.355C203.382 45.0739 203.419 44.8935 203.463 44.6693C203.508 44.4452 203.553 44.1943 203.598 43.9168C203.645 43.6414 203.683 43.3596 203.713 43.0714L203.752 42.7127H204.571ZM208.61 43.6094V37.0511H210.826C211.341 37.0511 211.761 37.144 212.088 37.3297C212.417 37.5133 212.66 37.762 212.818 38.0758C212.976 38.3896 213.055 38.7398 213.055 39.1262C213.055 39.5126 212.976 39.8638 212.818 40.1797C212.662 40.4957 212.421 40.7476 212.094 40.9355C211.768 41.1212 211.349 41.2141 210.839 41.2141H209.251V40.5096H210.814C211.166 40.5096 211.449 40.4487 211.662 40.327C211.876 40.2053 212.03 40.041 212.126 39.8339C212.225 39.6247 212.274 39.3888 212.274 39.1262C212.274 38.8636 212.225 38.6288 212.126 38.4217C212.03 38.2146 211.875 38.0523 211.659 37.9349C211.443 37.8154 211.157 37.7556 210.801 37.7556H209.404V43.6094H208.61ZM216.358 43.6094H214.334V37.0511H216.448C217.084 37.0511 217.629 37.1824 218.081 37.445C218.534 37.7054 218.881 38.0801 219.122 38.569C219.363 39.0557 219.484 39.6385 219.484 40.3174C219.484 41.0006 219.362 41.5887 219.119 42.0819C218.875 42.5729 218.521 42.9508 218.055 43.2155C217.59 43.4781 217.024 43.6094 216.358 43.6094ZM215.129 42.9049H216.307C216.849 42.9049 217.299 42.8003 217.655 42.591C218.012 42.3818 218.278 42.084 218.453 41.6976C218.628 41.3112 218.715 40.8511 218.715 40.3174C218.715 39.788 218.629 39.3322 218.456 38.95C218.283 38.5658 218.025 38.2712 217.681 38.0662C217.337 37.8591 216.909 37.7556 216.397 37.7556H215.129V42.9049ZM220.816 43.6094V37.0511H224.748V37.7556H221.61V39.9716H224.454V40.6761H221.61V43.6094H220.816Z" fill="#676767"/>
</svg>
