<svg width="20" height="21" viewBox="0 0 20 21" fill="none" xmlns="http://www.w3.org/2000/svg">
<g clip-path="url(#clip0_1707_1686)">
<path d="M17.3399 10.1699C17.5266 10.1699 17.6733 10.3166 17.6733 10.5033C17.6733 10.6899 17.5266 10.8366 17.3399 10.8366H17.0066V10.1699H17.3399Z" fill="black"/>
<path d="M10.1201 10.1699H16.9407V10.8366H10.1201V10.1699Z" fill="black" stroke="black" stroke-width="0.3"/>
<path d="M15.9659 18.1777H9.79492C9.9768 18.1777 10.1197 18.0311 10.1197 17.8444V17.5111H15.9659C16.5051 17.5111 16.9403 17.0644 16.9403 16.5111V10.5111H17.2651C17.4469 10.5111 17.5898 10.3644 17.5898 10.1777V16.5111C17.5898 17.4311 16.8623 18.1777 15.9659 18.1777Z" fill="black" stroke="black" stroke-width="0.3"/>
<path d="M17.5898 4.49674V10.8301C17.5898 10.6434 17.4469 10.4967 17.2651 10.4967H16.9403V4.49674C16.9403 3.94341 16.5051 3.49674 15.9659 3.49674H10.1197V3.16341C10.1197 2.97674 9.9768 2.83008 9.79492 2.83008H15.9659C16.8623 2.83008 17.5898 3.57674 17.5898 4.49674Z" fill="black" stroke="black" stroke-width="0.3"/>
<path d="M15.0256 6.5C15.2123 6.5 15.359 6.64667 15.359 6.83333C15.359 7.02 15.2123 7.16667 15.0256 7.16667H12.359C12.1723 7.16667 12.0256 7.02 12.0256 6.83333C12.0256 6.64667 12.1723 6.5 12.359 6.5H15.0256Z" fill="black"/>
<path d="M15.0256 13.1699C15.2123 13.1699 15.359 13.3166 15.359 13.5033C15.359 13.6899 15.2123 13.8366 15.0256 13.8366H12.359C12.1723 13.8366 12.0256 13.6899 12.0256 13.5033C12.0256 13.3166 12.1723 13.1699 12.359 13.1699H15.0256Z" fill="black"/>
<path d="M15.0256 15.1699C15.2123 15.1699 15.359 15.3166 15.359 15.5033C15.359 15.6899 15.2123 15.8366 15.0256 15.8366H12.359C12.1723 15.8366 12.0256 15.6899 12.0256 15.5033C12.0256 15.3166 12.1723 15.1699 12.359 15.1699H15.0256Z" fill="black"/>
<path d="M10.1364 17.4375V17.7708C10.1364 17.9575 9.98973 18.1042 9.80306 18.1042C9.61639 18.1042 9.46973 17.9575 9.46973 17.7708V17.4375H10.1364Z" fill="black"/>
<path d="M9.46973 10.8301H10.1193V17.8301H9.46973V10.8301Z" fill="black" stroke="black" stroke-width="0.3"/>
<path d="M9.46973 10.1699H10.1364V10.8366H9.46973V10.1699Z" fill="black"/>
<path d="M9.46973 3.16992H10.1193V10.1699H9.46973V3.16992Z" fill="black" stroke="black" stroke-width="0.3"/>
<path d="M10.2533 3.0306V3.36393H9.58667V3.0306C9.58667 2.84393 9.73334 2.69727 9.92 2.69727C10.1067 2.69727 10.2533 2.84393 10.2533 3.0306Z" fill="black"/>
<path d="M2.64917 10.1699H9.46973V10.8366H2.64917V10.1699Z" fill="black" stroke="black" stroke-width="0.3"/>
<path fill-rule="evenodd" clip-rule="evenodd" d="M6.48966 5.50326V6.5H6.48999H6.49015H7.48999C7.67666 6.5 7.82332 6.64667 7.82332 6.83333C7.82332 7.02 7.67666 7.16667 7.48999 7.16667H6.49015H6.48999H5.82349V6.50326H5.82332V7.16667H4.82332C4.63666 7.16667 4.48999 7.02 4.48999 6.83333C4.48999 6.64667 4.63666 6.5 4.82332 6.5H5.823V5.50326C5.823 5.31659 5.96966 5.16992 6.15633 5.16992C6.343 5.16992 6.48966 5.31659 6.48966 5.50326ZM6.48966 7.16992V8.16992C6.48966 8.35659 6.343 8.50326 6.15633 8.50326C5.96966 8.50326 5.823 8.35659 5.823 8.16992V7.16992H6.48966Z" fill="black"/>
<path fill-rule="evenodd" clip-rule="evenodd" d="M5.59111 14.5019L4.82583 13.7366C4.6925 13.6099 4.6925 13.3966 4.82583 13.2699C4.9525 13.1366 5.16583 13.1366 5.2925 13.2699L6.05682 14.0342L6.05775 14.0333L6.0603 14.0359L6.82624 13.2699C6.9529 13.1366 7.16624 13.1366 7.2929 13.2699C7.42624 13.3966 7.42624 13.6099 7.2929 13.7366L6.52786 14.5016L7.2929 15.2667C7.42624 15.3933 7.42624 15.6067 7.2929 15.7333C7.2329 15.8 7.14624 15.8333 7.05957 15.8333C6.9729 15.8333 6.88624 15.8 6.82624 15.7333L6.05961 14.9667L5.29298 15.7333C5.23298 15.8 5.14632 15.8333 5.05965 15.8333C4.97298 15.8333 4.88632 15.8 4.82632 15.7333C4.69299 15.6067 4.69299 15.3933 4.82632 15.2667L5.59111 14.5019ZM6.05961 14.9666L6.52461 14.5016L6.52371 14.5007L6.05872 14.9657L6.05961 14.9666Z" fill="black"/>
<path d="M2.92594 10.1699V10.8366H2.59261C2.40594 10.8366 2.25928 10.6899 2.25928 10.5033C2.25928 10.3166 2.40594 10.1699 2.59261 10.1699H2.92594Z" fill="black"/>
<path d="M2.25928 4.49284C2.25928 3.57284 2.9868 2.82617 3.88322 2.82617H10.0542C9.87232 2.82617 9.72941 2.97284 9.72941 3.15951V3.49284H3.88322C3.34407 3.49284 2.90885 3.93951 2.90885 4.49284V10.4928H2.58407C2.40218 10.4928 2.25928 10.6395 2.25928 10.8262V4.49284Z" fill="black" stroke="black" stroke-width="0.3"/>
<path d="M2.90885 16.5072C2.90885 17.0605 3.34407 17.5072 3.88322 17.5072H9.72941V17.8405C9.72941 18.0272 9.87232 18.1738 10.0542 18.1738H3.88322C2.9868 18.1738 2.25928 17.4272 2.25928 16.5072V10.1738C2.25928 10.3605 2.40218 10.5072 2.58407 10.5072H2.90885V16.5072Z" fill="black" stroke="black" stroke-width="0.3"/>
</g>
<defs>
<clipPath id="clip0_1707_1686">
<rect width="16" height="16" fill="white" transform="translate(2 2.5)"/>
</clipPath>
</defs>
</svg>
