<svg width="25" height="24" viewBox="0 0 25 24" fill="none" xmlns="http://www.w3.org/2000/svg">
<g id="Icon Frame">
<path id="Subtract" fill-rule="evenodd" clip-rule="evenodd" d="M2.5 12C2.5 6.47715 6.97715 2 12.5 2C18.0228 2 22.5 6.47715 22.5 12C22.5 17.5228 18.0228 22 12.5 22C6.97715 22 2.5 17.5228 2.5 12ZM12.5 8C12.5 7.44772 12.0523 7 11.5 7C10.9477 7 10.5 7.44772 10.5 8V13C10.5 13.5523 10.9477 14 11.5 14H16.5C17.0523 14 17.5 13.5523 17.5 13C17.5 12.4477 17.0523 12 16.5 12H12.5V8Z" fill="#888B92"/>
</g>
</svg>
