<svg width="20" height="17" viewBox="0 0 20 17" fill="none" xmlns="http://www.w3.org/2000/svg">
<g id="ID CARD">
<path id="Vector" d="M19.7793 4.16015L19.7762 4.13008C19.6749 3.15757 19.2423 2.24947 18.5509 1.55808C17.8595 0.866697 16.9514 0.43408 15.9789 0.332791C14.554 0.184368 12.2054 0.109375 10.0006 0.109375C7.79572 0.109375 5.44752 0.184368 4.02461 0.332791C3.05175 0.433658 2.14319 0.86609 1.45141 1.55751C0.759635 2.24894 0.326737 3.15727 0.225369 4.13008L0.222244 4.15976C0.0992091 5.34285 0 5.53267 0 8.02813C0 10.5236 0.0976467 10.9259 0.220682 12.109L0.223806 12.1387C0.325118 13.1115 0.758008 14.0198 1.44981 14.7112C2.14161 15.4025 3.05019 15.8349 4.02304 15.9356C5.4483 16.084 7.79689 16.1594 10.001 16.1594C12.2051 16.1594 14.554 16.0844 15.9793 15.9356C16.9518 15.8344 17.8599 15.4019 18.5513 14.7106C19.2427 14.0192 19.6754 13.1112 19.7766 12.1387L19.7797 12.1086C19.9027 10.9255 20 10.5228 20 8.02813C20 5.53346 19.9024 5.34324 19.7793 4.16015Z" fill="#4193D2"/>
<path id="Vector_2" d="M4.02305 0.334353C3.05047 0.435558 2.14228 0.868138 1.45081 1.55953C0.759347 2.25092 0.326674 3.15907 0.225369 4.13164L0.222244 4.16132C0.0992091 5.34441 0 5.53424 0 8.0297C0 10.5252 0.0976467 10.9275 0.220682 12.1105L0.223806 12.1402C0.248837 12.378 0.293915 12.6132 0.358559 12.8433C1.72331 13.4344 3.19508 13.7385 4.68236 13.7366C10.6935 13.7366 15.5665 8.8636 15.5665 2.85247C15.567 1.98226 15.4634 1.11511 15.2579 0.269516C13.833 0.163276 11.8645 0.109375 9.99902 0.109375C7.79611 0.110937 5.44752 0.18593 4.02305 0.334353Z" fill="#48A4DF"/>
<path id="Vector_3" d="M5.51065 3.44531C5.95981 3.44493 6.39899 3.57777 6.77263 3.82704C7.14628 4.0763 7.43759 4.43079 7.60973 4.84566C7.78186 5.26052 7.82708 5.71712 7.73967 6.15769C7.65225 6.59826 7.43612 7.003 7.11863 7.32071C6.80113 7.63843 6.39654 7.85483 5.95603 7.94255C5.51552 8.03028 5.05889 7.98537 4.64391 7.81352C4.22892 7.64167 3.87423 7.3506 3.62471 6.97713C3.37519 6.60365 3.24204 6.16456 3.24212 5.7154C3.24212 5.11361 3.48107 4.53644 3.90646 4.11076C4.33185 3.68508 4.90885 3.44573 5.51065 3.44531ZM9.29934 11.1953V11.2051C9.26101 11.5396 9.12069 11.8542 8.89743 12.1062C8.67793 12.3628 8.38174 12.542 8.05259 12.6175C7.58388 12.7233 6.41642 12.8276 5.68719 12.8229C4.95836 12.8409 3.52647 12.7276 3.05815 12.6163C2.72894 12.541 2.4327 12.3618 2.21331 12.105C1.99012 11.8531 1.84981 11.5387 1.8114 11.2043V11.1942C1.78712 10.9531 1.77968 10.7106 1.78914 10.4685C1.77966 10.2677 1.78711 10.0665 1.8114 9.86695V9.85719C1.84551 9.5388 1.98795 9.24178 2.21488 9.01586C2.44295 8.78765 2.74182 8.64373 3.06245 8.6077C3.53115 8.5581 4.9607 8.52958 5.6868 8.52958C6.4129 8.52958 7.57881 8.55653 8.04829 8.6077C8.36901 8.64371 8.66792 8.78779 8.89586 9.01625C9.12165 9.24263 9.26296 9.53959 9.29622 9.85758V9.86734C9.31961 10.0667 9.33135 10.2673 9.33137 10.4681C9.33323 10.7109 9.32306 10.9537 9.29934 11.1953ZM14.3738 10.5032H11.7151C11.6009 10.5032 11.4879 10.4807 11.3824 10.437C11.2769 10.3933 11.1811 10.3293 11.1003 10.2486C11.0196 10.1678 10.9556 10.072 10.9119 9.96649C10.8682 9.86101 10.8457 9.74795 10.8457 9.63377C10.8457 9.51959 10.8682 9.40654 10.9119 9.30105C10.9556 9.19556 11.0196 9.09972 11.1003 9.01898C11.1811 8.93824 11.2769 8.8742 11.3824 8.83051C11.4879 8.78681 11.6009 8.76433 11.7151 8.76433H14.3738C14.6044 8.76433 14.8256 8.85593 14.9886 9.01898C15.1517 9.18203 15.2433 9.40318 15.2433 9.63377C15.2433 9.86436 15.1517 10.0855 14.9886 10.2486C14.8256 10.4116 14.6044 10.5032 14.3738 10.5032ZM17.0048 7.50586H11.7151C11.4877 7.50103 11.2712 7.40729 11.112 7.24473C10.9528 7.08217 10.8637 6.86372 10.8637 6.63621C10.8637 6.40871 10.9528 6.19026 11.112 6.0277C11.2712 5.86513 11.4877 5.77139 11.7151 5.76657H17.0044C17.2319 5.77139 17.4484 5.86513 17.6076 6.0277C17.7667 6.19026 17.8559 6.40871 17.8559 6.63621C17.8559 6.86372 17.7667 7.08217 17.6076 7.24473C17.4484 7.40729 17.2323 7.50103 17.0048 7.50586Z" fill="white"/>
</g>
</svg>
