<svg width="20" height="21" viewBox="0 0 20 21" fill="none" xmlns="http://www.w3.org/2000/svg">
<g id="fi_6785398" clip-path="url(#clip0_1794_7836)">
<g id="PROFILE">
<path id="Vector" d="M10.2732 20.1277C8.7185 20.1668 5.66381 19.925 4.66654 19.6879C3.98647 19.5445 3.34662 19.1484 2.86459 18.5973C2.38256 18.0461 2.07865 17.3648 2.00795 16.6766C2.00795 16.6695 2.00795 16.6625 2.006 16.6551C1.9539 16.1409 1.93785 15.6238 1.95795 15.1074C1.95795 15.1074 1.91889 14.6516 2.006 13.825L2.00834 13.8039C2.08058 13.1252 2.384 12.492 2.86772 12.0105C3.35376 11.5237 3.99105 11.2167 4.67475 11.1402C5.67592 11.0344 8.7228 10.9762 10.2712 10.9766C11.8197 10.977 14.3056 11.034 15.3068 11.1402C15.9906 11.2167 16.6279 11.5238 17.1138 12.0109C17.5974 12.4928 17.9008 13.1262 17.9732 13.8051C17.9732 13.8121 17.9732 13.8188 17.9751 13.8258C18.0615 14.6531 18.0497 15.1063 18.0501 15.107C18.0527 15.6245 18.0281 16.1418 17.9763 16.6566L17.974 16.6777C17.9033 17.3664 17.5994 18.0469 17.1173 18.5988C16.6353 19.1508 15.9958 19.5473 15.3154 19.6898C14.3165 19.916 11.8263 20.1383 10.2732 20.1277Z" fill="#4193D2"/>
<path id="Vector_2" d="M14.8415 11.1008C13.6696 11.0199 11.6169 10.9762 10.2711 10.9766C8.72271 10.9766 5.67583 11.0344 4.67466 11.1402C3.99097 11.2167 3.35368 11.5237 2.86763 12.0105C2.38392 12.492 2.08049 13.1252 2.00826 13.8039L2.00591 13.825C1.91958 14.6516 1.95787 15.107 1.95787 15.1074C1.93743 15.6243 1.95323 16.142 2.00513 16.6566L2.00708 16.6781C2.04894 17.0644 2.15773 17.4405 2.32857 17.7895C3.10463 17.9609 3.89707 18.0473 4.69185 18.0469C9.31412 18.0465 13.2629 15.1652 14.8415 11.1008Z" fill="#48A4DF"/>
<path id="Vector_3" d="M9.89922 9.81406C12.5726 9.81406 14.7398 7.64684 14.7398 4.97344C14.7398 2.30003 12.5726 0.132812 9.89922 0.132812C7.22582 0.132812 5.05859 2.30003 5.05859 4.97344C5.05859 7.64684 7.22582 9.81406 9.89922 9.81406Z" fill="#48A4DF"/>
</g>
</g>
<defs>
<clipPath id="clip0_1794_7836">
<rect width="20" height="20" fill="white" transform="translate(0 0.132812)"/>
</clipPath>
</defs>
</svg>
