<svg width="20" height="20" viewBox="0 0 20 20" fill="none" xmlns="http://www.w3.org/2000/svg">
<path d="M11.7148 6.35714C12.0696 6.35714 12.3576 6.06914 12.3576 5.71429V4.85714C12.3576 3.55686 11.3008 2.5 10.0005 2.5H4.85763C3.55735 2.5 2.50049 3.55686 2.50049 4.85714V15.1429C2.50049 16.4431 3.55735 17.5 4.85763 17.5H10.0005C11.3008 17.5 12.3576 16.4431 12.3576 15.1429V14.2857C12.3576 13.9309 12.0696 13.6429 11.7148 13.6429C11.3599 13.6429 11.0719 13.9309 11.0719 14.2857V15.1429C11.0719 15.7334 10.5911 16.2143 10.0005 16.2143H4.85763C4.26706 16.2143 3.7862 15.7334 3.7862 15.1429V4.85714C3.7862 4.26657 4.26706 3.78571 4.85763 3.78571H10.0005C10.5911 3.78571 11.0719 4.26657 11.0719 4.85714V5.71429C11.0719 6.06914 11.3599 6.35714 11.7148 6.35714Z" fill="black" stroke="#F7F7F7" stroke-width="0.1"/>
<path d="M17.3118 9.54494L14.7404 6.97351C14.4892 6.72237 14.0821 6.72237 13.831 6.97351C13.5798 7.22466 13.5798 7.6318 13.831 7.88294L15.3052 9.35723H6.57181C6.21696 9.35723 5.92896 9.64523 5.92896 10.0001C5.92896 10.3549 6.21696 10.6429 6.57181 10.6429H15.3052L13.831 12.1172C13.5798 12.3684 13.5798 12.7755 13.831 13.0267C13.9561 13.1518 14.1207 13.2152 14.2852 13.2152C14.4498 13.2152 14.6144 13.1527 14.7395 13.0267L17.311 10.4552C17.5621 10.2041 17.5621 9.79694 17.311 9.5458L17.3118 9.54494Z" fill="black" stroke="#F7F7F7" stroke-width="0.1"/>
</svg>
