<svg width="130" height="27" viewBox="0 0 130 27" fill="none" xmlns="http://www.w3.org/2000/svg">
<g id="Group 35058">
<g id="Group 35056">
<path id="Vector" d="M21.3493 11.2179C20.5215 8.53398 18.5524 6.45769 15.8226 5.63717C14.5767 5.26257 13.1942 5.24235 11.9163 5.45094C11.907 5.45248 11.8975 5.45198 11.8884 5.44949C11.8793 5.44699 11.8708 5.44255 11.8636 5.43648C11.8564 5.43041 11.8506 5.42284 11.8467 5.41431C11.8427 5.40578 11.8406 5.39649 11.8406 5.38708V0.118127C11.8405 0.109622 11.8437 0.101412 11.8494 0.0951102C11.8551 0.088808 11.863 0.0848716 11.8715 0.0840743C15.0468 -0.245834 17.9475 0.395179 20.5738 2.00712C23.8102 3.99508 26.1751 7.3942 26.78 11.1828C26.7817 11.1932 26.7811 11.2038 26.7784 11.2139C26.7756 11.224 26.7707 11.2334 26.764 11.2414C26.7573 11.2494 26.749 11.2558 26.7396 11.2602C26.7302 11.2646 26.7199 11.2669 26.7096 11.2669L21.4122 11.2648C21.3983 11.2649 21.3847 11.2604 21.3734 11.2519C21.3621 11.2435 21.3536 11.2316 21.3493 11.2179Z" fill="#0094FE"/>
<path id="Vector_2" d="M9.64501 19.1475C8.05489 18.1422 7.06249 16.6583 6.6678 14.6959C6.59597 14.339 6.55722 13.7182 6.55153 12.8335C6.52948 9.0832 6.51241 5.33892 6.50032 1.60067C6.49961 1.55597 6.51917 1.52298 6.55899 1.50169C7.84119 0.819175 9.20375 0.383555 10.6467 0.194833C10.7114 0.186319 10.7437 0.2147 10.7437 0.279972C10.7388 4.75041 10.732 9.23645 10.7235 13.7381C10.7192 15.6867 12.8302 16.9201 14.5519 15.9474C16.0944 15.0758 16.2032 12.7494 14.6277 11.831C13.7711 11.3319 12.7396 11.35 11.8862 11.8725C11.8779 11.8777 11.8684 11.8805 11.8586 11.8807C11.8488 11.881 11.8392 11.8785 11.8307 11.8738C11.8221 11.869 11.8151 11.862 11.8102 11.8535C11.8053 11.8451 11.8028 11.8354 11.803 11.8257L11.8094 7.13461C11.8094 7.0736 11.84 7.03813 11.9011 7.02819C14.0957 6.67274 15.9948 7.13178 17.5985 8.40529C20.517 10.7221 20.9832 14.9194 18.5713 17.7662C16.3461 20.3937 12.5433 20.979 9.64501 19.1475Z" fill="#FF7000"/>
<path id="Vector_3" d="M26.7071 16.2184C25.0335 23.9404 17.1419 28.7038 9.53082 26.3359C3.07824 24.3277 -1.06383 17.8073 0.239696 11.0644C0.881861 7.74614 2.59288 4.62265 5.18074 2.39417C5.18647 2.3893 5.19347 2.38617 5.20092 2.38514C5.20837 2.38411 5.21597 2.38523 5.22281 2.38836C5.22965 2.39149 5.23544 2.3965 5.23952 2.40281C5.24359 2.40912 5.24578 2.41647 5.24581 2.42397C5.27212 6.16222 5.30163 9.88912 5.33435 13.6047C5.38555 19.5537 11.7677 23.4115 17.0651 20.7935C19.0307 19.8222 20.4288 18.2496 21.2594 16.0758C21.2786 16.0233 21.3163 15.9977 21.3725 15.9992L26.6485 16.1439C26.6575 16.1442 26.6664 16.1464 26.6745 16.1505C26.6826 16.1546 26.6897 16.1604 26.6953 16.1675C26.7009 16.1746 26.7048 16.1828 26.7069 16.1916C26.7089 16.2004 26.709 16.2096 26.7071 16.2184Z" fill="#0094FE"/>
<g id="Group 36688">
<path id="Vector_4" d="M68.4394 10.6868C69.4762 9.37354 71.5873 8.9553 73.0935 9.52146C74.5783 10.0791 75.4402 11.3838 75.4594 12.9749C75.4915 15.5254 75.4936 18.075 75.4658 20.6234C75.4658 20.6731 75.4406 20.6979 75.3901 20.6979L72.7799 20.7043C72.768 20.7043 72.7564 20.7019 72.7455 20.6974C72.7346 20.6928 72.7247 20.6861 72.7165 20.6777C72.7082 20.6692 72.7018 20.6592 72.6974 20.6483C72.6931 20.6373 72.691 20.6256 72.6913 20.6138C72.7404 18.5045 72.7329 16.3988 72.6689 14.2966C72.6401 13.3569 72.4705 12.3693 71.4955 11.9585C70.5621 11.5658 69.3322 12.0745 69.2991 13.2058C69.2987 13.2161 69.2955 13.2262 69.2901 13.235C69.2846 13.2438 69.2769 13.2511 69.2678 13.2561C69.2587 13.2611 69.2485 13.2637 69.2381 13.2637C69.2277 13.2636 69.2175 13.2609 69.2085 13.2558C68.8941 13.077 68.6463 12.8326 68.465 12.5226C68.4615 12.5165 68.456 12.5117 68.4495 12.509C68.443 12.5063 68.4358 12.5058 68.429 12.5077C68.4221 12.5095 68.4161 12.5135 68.4118 12.5191C68.4075 12.5247 68.4052 12.5315 68.4052 12.5385L68.4063 20.5989C68.4063 20.6692 68.3711 20.7043 68.3007 20.7043L65.6851 20.7022C65.6767 20.7022 65.6684 20.7005 65.6606 20.6972C65.6528 20.694 65.6458 20.6892 65.6398 20.6831C65.6339 20.6771 65.6292 20.67 65.626 20.6621C65.6228 20.6542 65.6211 20.6458 65.6211 20.6372C65.6211 16.2356 65.6243 11.8251 65.6307 7.40579C65.6328 5.83713 67.0569 5.30077 68.3519 5.27735C68.3591 5.27721 68.3663 5.27851 68.373 5.28118C68.3798 5.28384 68.3859 5.28781 68.3911 5.29287C68.3962 5.29792 68.4003 5.30396 68.4031 5.31061C68.4059 5.31727 68.4074 5.32441 68.4074 5.33163L68.4052 10.6751C68.4052 10.712 68.4166 10.7159 68.4394 10.6868Z" fill="black"/>
<path id="Vector_5" d="M80.5269 19.5671C80.5223 19.5635 80.5168 19.5613 80.511 19.5606C80.5052 19.56 80.4993 19.561 80.4941 19.5636C80.4888 19.5662 80.4844 19.5701 80.4813 19.5751C80.4783 19.5801 80.4767 19.5858 80.4767 19.5916L80.482 20.5983C80.482 20.6115 80.4795 20.6245 80.4745 20.6366C80.4695 20.6488 80.4622 20.6598 80.453 20.6691C80.4438 20.6784 80.4328 20.6857 80.4208 20.6908C80.4088 20.6958 80.3959 20.6984 80.3828 20.6984L77.7609 20.6941C77.7391 20.6941 77.7182 20.6855 77.7028 20.6701C77.6874 20.6548 77.6787 20.6339 77.6787 20.6122C77.6808 16.2574 77.6851 11.8998 77.6915 7.53931C77.6926 6.01428 79.1166 5.35978 80.4159 5.27358C80.4244 5.273 80.4329 5.27419 80.4409 5.27708C80.4489 5.27997 80.4562 5.28451 80.4624 5.2904C80.4686 5.29629 80.4736 5.30341 80.4769 5.31132C80.4803 5.31923 80.4821 5.32775 80.482 5.33637C80.4778 8.1828 80.4785 11.031 80.4842 13.881C80.4863 15.0772 80.5588 15.886 81.0026 16.8661C81.8069 18.6391 84.1313 18.9477 85.4892 17.6143C86.477 16.6437 86.6509 15.0208 86.1613 13.765C85.4786 12.0144 83.8017 11.5546 82.1131 12.0569C81.7255 12.1726 81.3952 12.3865 81.1221 12.6986C81.1154 12.7063 81.1067 12.712 81.0971 12.7153C81.0874 12.7185 81.0771 12.7191 81.0671 12.717C81.0571 12.715 81.0479 12.7103 81.0403 12.7036C81.0327 12.6968 81.0271 12.6881 81.0239 12.6784C80.5557 11.2641 81.2693 9.91145 82.6742 9.46022C84.2038 8.96749 85.9671 9.47938 87.1778 10.5191C90.5273 13.3989 89.7102 19.7417 85.1329 20.8431C83.3707 21.2667 81.9275 20.7197 80.5269 19.5671Z" fill="#FF7000"/>
<path id="Vector_6" d="M107.553 19.6206L107.567 20.5741C107.568 20.5898 107.565 20.6054 107.559 20.62C107.553 20.6346 107.544 20.6478 107.533 20.659C107.522 20.6702 107.509 20.6791 107.494 20.6852C107.48 20.6913 107.464 20.6944 107.448 20.6944L104.893 20.6933C104.87 20.6933 104.848 20.6841 104.831 20.6678C104.815 20.6514 104.806 20.6292 104.806 20.6061C104.804 16.2669 104.804 11.9114 104.806 7.53956C104.807 6.10499 106.212 5.28767 107.518 5.29299C107.532 5.29327 107.546 5.299 107.555 5.30895C107.565 5.3189 107.571 5.33228 107.571 5.34621C107.565 8.09615 107.565 10.8429 107.57 13.5865C107.573 14.9923 107.654 16.1108 108.274 17.191C109.099 18.6319 111.202 18.7916 112.408 17.788C114.309 16.2055 113.783 12.4765 111.162 11.9359C110.389 11.7773 108.873 11.8826 108.329 12.6127C108.207 12.7773 108.124 12.7596 108.08 12.5595C107.583 10.3182 109.373 9.11567 111.393 9.29233C113.845 9.5073 115.714 11.4389 116.197 13.7642C116.775 16.5397 115.62 19.6408 112.797 20.6763C110.977 21.3436 109.079 20.8849 107.659 19.5727C107.587 19.5053 107.551 19.5213 107.553 19.6206Z" fill="#FF7000"/>
<path id="Vector_7" d="M37.8925 11.9676C35.5009 10.9576 32.5173 12.3986 32.7765 15.338C32.9482 17.2972 34.4512 18.4561 36.4599 18.2731C37.4146 18.1869 38.1453 17.7399 38.764 17.0439C38.7931 17.012 38.8251 17.0088 38.86 17.0343L40.8153 18.4615C40.8247 18.4685 40.8327 18.4773 40.8387 18.4873C40.8448 18.4973 40.8488 18.5084 40.8506 18.5198C40.8524 18.5313 40.8519 18.5429 40.8491 18.5541C40.8464 18.5653 40.8414 18.5757 40.8345 18.5849C39.947 19.7882 38.7811 20.5147 37.3367 20.7644C35.5766 21.0688 33.6661 20.7549 32.2538 19.6502C29.6585 17.6207 29.363 13.6033 31.458 11.1056C32.3206 10.0768 33.4531 9.42163 34.8555 9.13996C36.7479 8.7611 39.7368 9.24851 40.2329 11.5834C40.3822 12.2869 40.1209 13.0701 39.4947 13.4745C39.4843 13.4814 39.4725 13.4858 39.4602 13.4873C39.4479 13.4889 39.4354 13.4877 39.4236 13.4837C39.4119 13.4796 39.4012 13.473 39.3925 13.4642C39.3837 13.4554 39.3771 13.4448 39.3731 13.433C39.1213 12.7062 38.6168 12.2741 37.8925 11.9676Z" fill="black"/>
<path id="Vector_8" d="M51.152 19.543C51.1518 19.5364 51.1498 19.5299 51.1461 19.5244C51.1424 19.5189 51.1372 19.5146 51.1312 19.512C51.1252 19.5094 51.1186 19.5086 51.1123 19.5098C51.1059 19.5109 51.1001 19.514 51.0955 19.5185C48.0948 22.3919 43.5676 20.7892 42.486 16.9835C41.783 14.5092 42.3953 11.7976 44.4221 10.1608C45.4483 9.33179 46.6974 8.90716 48.003 9.00507C49.729 9.13597 51.2299 10.628 50.6016 12.4723C50.5981 12.482 50.5922 12.4907 50.5843 12.4974C50.5764 12.5041 50.5669 12.5085 50.5567 12.5104C50.5465 12.5122 50.536 12.5113 50.5263 12.5078C50.5166 12.5043 50.5079 12.4983 50.5013 12.4904C50.278 12.2172 49.9918 12.0175 49.6426 11.8912C47.9369 11.2708 46.2014 11.7529 45.4173 13.3907C44.5501 15.202 45.2946 17.8722 47.4942 18.2915C49.9754 18.765 51.0645 16.7068 51.1136 14.5901C51.1534 12.8732 51.1662 11.1339 51.152 9.37223C51.1513 9.30979 51.1861 9.27893 51.2565 9.27964L53.9809 9.2807C53.9906 9.2807 54.0002 9.2826 54.0091 9.28629C54.018 9.28998 54.0262 9.29539 54.033 9.30221C54.0398 9.30903 54.0452 9.31712 54.0489 9.32603C54.0526 9.33494 54.0545 9.34449 54.0545 9.35413L54.0535 20.6285C54.0535 20.6488 54.0454 20.6683 54.031 20.6827C54.0166 20.697 53.997 20.7051 53.9767 20.7051L51.2619 20.704C51.1943 20.704 51.1602 20.67 51.1595 20.6019L51.152 19.543Z" fill="black"/>
<path id="Vector_9" d="M58.9353 12.3206C58.9375 12.7335 59.3844 12.99 59.7087 13.1475C61.2597 13.9009 63.1425 14.5789 63.7132 16.4114C64.2284 18.0631 63.4145 19.7722 61.8059 20.4725C59.7194 21.3813 57.3075 20.8375 55.8803 19.0518C55.8269 18.9858 55.8291 18.9216 55.8867 18.8591L57.523 17.0989C57.5277 17.094 57.5333 17.09 57.5396 17.0874C57.5459 17.0847 57.5527 17.0834 57.5595 17.0835C57.5663 17.0836 57.5731 17.0851 57.5793 17.0879C57.5855 17.0908 57.591 17.0949 57.5955 17.1C58.306 17.9077 59.3151 18.4824 60.4309 18.2664C61.2523 18.1078 61.3632 17.2798 60.7829 16.7669C60.512 16.5271 60.2122 16.3299 59.8837 16.1752C58.7241 15.6261 57.2723 14.879 56.6216 13.7722C55.6317 12.0907 56.4616 10.0655 58.2654 9.35141C59.5114 8.85832 60.7093 8.88705 61.8592 9.43761C62.7083 9.84414 63.2417 10.8402 62.9003 11.7427C62.7503 12.1386 62.4676 12.4738 62.0523 12.7484C61.9812 12.7952 61.9246 12.7814 61.8827 12.7069C61.4596 11.9428 60.7801 11.5721 59.8442 11.5948C59.4367 11.6054 58.9332 11.8608 58.9353 12.3206Z" fill="black"/>
<path id="Vector_10" d="M99.729 19.5075C99.7288 19.5018 99.7271 19.4962 99.7238 19.4915C99.7206 19.4867 99.7161 19.483 99.7108 19.4807C99.7055 19.4785 99.6997 19.4778 99.694 19.4788C99.6883 19.4798 99.6831 19.4824 99.6788 19.4863C97.2926 21.7882 93.6252 21.3604 91.8 18.6274C90.9659 17.378 90.6608 15.8115 90.792 14.3259C91.0448 11.4716 93.3585 8.86002 96.3827 9.00795C98.2921 9.1016 99.714 10.4947 99.1839 12.4837C99.1804 12.4964 99.1734 12.5078 99.1636 12.5167C99.1539 12.5256 99.1419 12.5316 99.1291 12.534C99.1162 12.5363 99.1029 12.5349 99.0909 12.53C99.0789 12.525 99.0686 12.5167 99.0612 12.506C98.6537 11.9367 97.7907 11.7143 97.1422 11.6504C93.8641 11.3269 92.7121 15.1591 94.4092 17.3493C95.1837 18.3486 96.9192 18.6508 98.0275 18.0389C99.4996 17.2259 99.7322 15.1815 99.7279 13.7107C99.7236 12.2748 99.7254 10.8161 99.7332 9.33467C99.7332 9.29635 99.7524 9.2772 99.7908 9.2772L102.519 9.27614C102.54 9.27614 102.561 9.28443 102.575 9.2992C102.59 9.31397 102.598 9.334 102.598 9.35489L102.6 20.6228C102.6 20.6396 102.593 20.6557 102.581 20.6676C102.569 20.6796 102.553 20.6864 102.535 20.6867L99.826 20.6995C99.8142 20.6996 99.8024 20.6974 99.7914 20.6929C99.7804 20.6884 99.7704 20.6818 99.762 20.6734C99.7535 20.6649 99.7468 20.6549 99.7423 20.6439C99.7377 20.6328 99.7354 20.621 99.7354 20.609L99.729 19.5075Z" fill="#FF7000"/>
<path id="Vector_11" d="M126.849 19.5484C126.849 19.5396 126.846 19.531 126.841 19.5236C126.837 19.5162 126.83 19.5103 126.822 19.5068C126.814 19.5033 126.805 19.5022 126.796 19.5037C126.787 19.5053 126.779 19.5093 126.773 19.5154C124.024 22.1313 119.707 21.0554 118.372 17.603C117.379 15.0361 117.852 12.0425 120.009 10.228C121.252 9.18186 123.242 8.57312 124.814 9.28934C125.953 9.80868 126.788 11.1943 126.273 12.4735C126.269 12.4825 126.263 12.4904 126.256 12.4966C126.248 12.5027 126.239 12.5068 126.23 12.5085C126.22 12.5103 126.211 12.5095 126.201 12.5063C126.192 12.5032 126.184 12.4977 126.178 12.4905C125.371 11.5912 123.666 11.405 122.601 11.885C119.751 13.1695 120.227 18.1607 123.635 18.3416C125.981 18.4672 126.779 16.3334 126.811 14.3763C126.838 12.6849 126.847 11.0063 126.837 9.34042C126.837 9.33209 126.838 9.32381 126.841 9.31607C126.845 9.30833 126.849 9.30129 126.855 9.29534C126.861 9.2894 126.868 9.28468 126.876 9.28146C126.884 9.27823 126.892 9.27657 126.901 9.27657L129.64 9.28296C129.659 9.28324 129.677 9.29098 129.691 9.30452C129.704 9.31807 129.712 9.33631 129.712 9.35532V20.6265C129.712 20.6428 129.705 20.6585 129.694 20.6701C129.682 20.6817 129.666 20.6882 129.65 20.6882L126.922 20.701C126.911 20.701 126.899 20.6987 126.889 20.6941C126.878 20.6896 126.868 20.683 126.86 20.6747C126.852 20.6664 126.845 20.6566 126.841 20.6457C126.837 20.6349 126.835 20.6233 126.835 20.6116L126.849 19.5484Z" fill="#FF7000"/>
</g>
</g>
</g>
</svg>
