<svg width="19" height="24" viewBox="0 0 19 24" fill="none" xmlns="http://www.w3.org/2000/svg">
<path d="M0.5 1.929C0.5 1.4174 0.703233 0.926749 1.06499 0.564991C1.42675 0.203233 1.9174 0 2.429 0L16.571 0C17.0826 0 17.5733 0.203233 17.935 0.564991C18.2968 0.926749 18.5 1.4174 18.5 1.929V22.071C18.5 22.5826 18.2968 23.0733 17.935 23.435C17.5733 23.7968 17.0826 24 16.571 24H8.308V16.516H0.5V1.929Z" fill="#B4BEC9"/>
<path d="M0.5 17.6836H6.929V23.9996L0.5 17.6836Z" fill="#787F92"/>
<path d="M13.8849 3.78906H5.11493C4.6963 3.78906 4.35693 4.12843 4.35693 4.54706C4.35693 4.96569 4.6963 5.30506 5.11493 5.30506H13.8849C14.3036 5.30506 14.6429 4.96569 14.6429 4.54706C14.6429 4.12843 14.3036 3.78906 13.8849 3.78906Z" fill="white"/>
<path d="M13.8849 7.57812H5.11493C4.6963 7.57812 4.35693 7.91749 4.35693 8.33613C4.35693 8.75476 4.6963 9.09413 5.11493 9.09413H13.8849C14.3036 9.09413 14.6429 8.75476 14.6429 8.33613C14.6429 7.91749 14.3036 7.57812 13.8849 7.57812Z" fill="white"/>
<path d="M10.0279 11.3672H5.11493C4.6963 11.3672 4.35693 11.7066 4.35693 12.1252C4.35693 12.5438 4.6963 12.8832 5.11493 12.8832H10.0279C10.4466 12.8832 10.7859 12.5438 10.7859 12.1252C10.7859 11.7066 10.4466 11.3672 10.0279 11.3672Z" fill="white"/>
</svg>
