<svg width="28" height="29" viewBox="0 0 28 29" fill="none" xmlns="http://www.w3.org/2000/svg">
    <rect y="0.972656" width="28" height="28" rx="14" fill="url(#paint0_linear_948_144)" />
    <g filter="url(#filter0_d_948_144)">
        <path
            d="M18.3752 12.3291C18.7203 12.3291 19 12.6089 19 12.954C19 13.2991 18.7203 13.5788 18.3752 13.5788H13.1156V19.3692C13.1156 19.913 13.1837 20.2833 13.3197 20.48C13.4671 20.6767 13.7506 20.7751 14.1701 20.7751C14.5102 20.7751 14.8503 20.6998 15.1905 20.5494C15.542 20.399 15.8537 20.1965 16.1259 19.9419C16.4093 19.6874 16.6361 19.3981 16.8061 19.0741C16.9762 18.7386 17.0612 18.3972 17.0612 18.0501C17.0612 17.7724 16.9819 17.5583 16.8231 17.4079C16.6757 17.2575 16.432 17.1823 16.0918 17.1823C16.0296 17.1823 15.9683 17.1837 15.9079 17.1866C15.549 17.2036 15.1965 16.9739 15.1452 16.6181C15.1028 16.3239 15.2821 16.038 15.5767 15.9977C15.612 15.9929 15.6477 15.9885 15.6837 15.9847C15.9104 15.95 16.1372 15.9326 16.3639 15.9326C16.9649 15.9326 17.4524 16.0888 17.8265 16.4012C18.212 16.7021 18.4048 17.1938 18.4048 17.8765C18.4048 18.4088 18.28 18.9237 18.0306 19.4213C17.7925 19.9072 17.4694 20.3469 17.0612 20.7403C16.6531 21.1222 16.1939 21.423 15.6837 21.6429C15.1735 21.8627 14.6519 21.9727 14.119 21.9727C13.6995 21.9727 13.3537 21.9264 13.0816 21.8338C12.8095 21.7297 12.5828 21.5908 12.4014 21.4172C12.288 21.3015 12.1859 21.1743 12.0952 21.0354C12.0045 20.885 11.9308 20.6883 11.8741 20.4453C11.8288 20.1907 11.8061 19.8552 11.8061 19.4386V13.5788H9.83647C9.49139 13.5788 9.21164 13.2991 9.21164 12.954C9.21164 12.6089 9.49139 12.3291 9.83647 12.3291H18.3752ZM11.0068 7.97266C11.3356 7.97266 11.619 8.01894 11.8571 8.11151C12.1066 8.20408 12.3163 8.34293 12.4864 8.52806C12.6905 8.74791 12.8435 9.04876 12.9456 9.4306C13.059 9.80087 13.1156 10.3274 13.1156 11.01V12.7775C13.1156 13.1391 12.8225 13.4322 12.4609 13.4322C12.0993 13.4322 11.8061 13.1391 11.8061 12.7775V11.0795C11.8061 10.6745 11.7778 10.3389 11.7211 10.0728C11.6757 9.79509 11.568 9.58681 11.398 9.44796C11.2279 9.29753 10.9728 9.22232 10.6327 9.22232C10.4172 9.22232 10.2018 9.25704 9.98639 9.32646C9.68886 9.41081 9.36263 9.27376 9.24126 8.98932L9.23145 8.96634C9.10314 8.66563 9.23924 8.31324 9.55033 8.21267C9.69799 8.16494 9.84334 8.12544 9.98639 8.09415C10.3152 8.01315 10.6553 7.97266 11.0068 7.97266Z"
            fill="white" />
        <path
            d="M18.3752 12.3291C18.7203 12.3291 19 12.6089 19 12.954C19 13.2991 18.7203 13.5788 18.3752 13.5788H13.1156V19.3692C13.1156 19.913 13.1837 20.2833 13.3197 20.48C13.4671 20.6767 13.7506 20.7751 14.1701 20.7751C14.5102 20.7751 14.8503 20.6998 15.1905 20.5494C15.542 20.399 15.8537 20.1965 16.1259 19.9419C16.4093 19.6874 16.6361 19.3981 16.8061 19.0741C16.9762 18.7386 17.0612 18.3972 17.0612 18.0501C17.0612 17.7724 16.9819 17.5583 16.8231 17.4079C16.6757 17.2575 16.432 17.1823 16.0918 17.1823C16.0296 17.1823 15.9683 17.1837 15.9079 17.1866C15.549 17.2036 15.1965 16.9739 15.1452 16.6181C15.1028 16.3239 15.2821 16.038 15.5767 15.9977C15.612 15.9929 15.6477 15.9885 15.6837 15.9847C15.9104 15.95 16.1372 15.9326 16.3639 15.9326C16.9649 15.9326 17.4524 16.0888 17.8265 16.4012C18.212 16.7021 18.4048 17.1938 18.4048 17.8765C18.4048 18.4088 18.28 18.9237 18.0306 19.4213C17.7925 19.9072 17.4694 20.3469 17.0612 20.7403C16.6531 21.1222 16.1939 21.423 15.6837 21.6429C15.1735 21.8627 14.6519 21.9727 14.119 21.9727C13.6995 21.9727 13.3537 21.9264 13.0816 21.8338C12.8095 21.7297 12.5828 21.5908 12.4014 21.4172C12.288 21.3015 12.1859 21.1743 12.0952 21.0354C12.0045 20.885 11.9308 20.6883 11.8741 20.4453C11.8288 20.1907 11.8061 19.8552 11.8061 19.4386V13.5788H9.83647C9.49139 13.5788 9.21164 13.2991 9.21164 12.954C9.21164 12.6089 9.49139 12.3291 9.83647 12.3291H18.3752ZM11.0068 7.97266C11.3356 7.97266 11.619 8.01894 11.8571 8.11151C12.1066 8.20408 12.3163 8.34293 12.4864 8.52806C12.6905 8.74791 12.8435 9.04876 12.9456 9.4306C13.059 9.80087 13.1156 10.3274 13.1156 11.01V12.7775C13.1156 13.1391 12.8225 13.4322 12.4609 13.4322C12.0993 13.4322 11.8061 13.1391 11.8061 12.7775V11.0795C11.8061 10.6745 11.7778 10.3389 11.7211 10.0728C11.6757 9.79509 11.568 9.58681 11.398 9.44796C11.2279 9.29753 10.9728 9.22232 10.6327 9.22232C10.4172 9.22232 10.2018 9.25704 9.98639 9.32646C9.68886 9.41081 9.36263 9.27376 9.24126 8.98932L9.23145 8.96634C9.10314 8.66563 9.23924 8.31324 9.55033 8.21267C9.69799 8.16494 9.84334 8.12544 9.98639 8.09415C10.3152 8.01315 10.6553 7.97266 11.0068 7.97266Z"
            stroke="white" stroke-width="0.6" />
    </g>
    <defs>
        <filter id="filter0_d_948_144" x="7.88416" y="7.67285" width="12.4158" height="16.5996"
            filterUnits="userSpaceOnUse" color-interpolation-filters="sRGB">
            <feFlood flood-opacity="0" result="BackgroundImageFix" />
            <feColorMatrix in="SourceAlpha" type="matrix"
                values="0 0 0 0 0 0 0 0 0 0 0 0 0 0 0 0 0 0 127 0" result="hardAlpha" />
            <feOffset dy="1" />
            <feGaussianBlur stdDeviation="0.5" />
            <feComposite in2="hardAlpha" operator="out" />
            <feColorMatrix type="matrix" values="0 0 0 0 0 0 0 0 0 0 0 0 0 0 0 0 0 0 0.1 0" />
            <feBlend mode="normal" in2="BackgroundImageFix" result="effect1_dropShadow_948_144" />
            <feBlend mode="normal" in="SourceGraphic" in2="effect1_dropShadow_948_144"
                result="shape" />
        </filter>
        <linearGradient id="paint0_linear_948_144" x1="6.5" y1="0.500001" x2="23.5" y2="28"
            gradientUnits="userSpaceOnUse">
            <stop stop-color="#FF9B3F" />
            <stop offset="1" stop-color="#FA7F0D" />
        </linearGradient>
    </defs>
</svg>
