<svg width="335" height="129" viewBox="0 0 335 129" fill="none" xmlns="http://www.w3.org/2000/svg">
<rect x="0.5" y="0.708984" width="334" height="127" rx="9.5" fill="white"/>
<rect x="0.5" y="0.708984" width="334" height="127" rx="9.5" stroke="#E2E3E8" stroke-linecap="round" stroke-dasharray="6 6"/>
<g clip-path="url(#clip0_1480_12593)">
<path d="M177.25 43.209H170.575L168.85 40.584C168.775 40.359 168.475 40.209 168.25 40.209H160.75C159.475 40.209 158.5 41.184 158.5 42.459V48.309C159.4 47.934 160.45 47.709 161.5 47.709C165.625 47.709 169 51.084 169 55.209C169 56.259 168.775 57.309 168.4 58.209H177.25C178.525 58.209 179.5 57.234 179.5 55.959V45.459C179.5 44.184 178.525 43.209 177.25 43.209ZM178 54.909L171.55 44.709H177.25C177.7 44.709 178 45.009 178 45.459V54.909Z" fill="#888B92"/>
<path d="M161.5 49.209C158.2 49.209 155.5 51.909 155.5 55.209C155.5 58.509 158.2 61.209 161.5 61.209C164.8 61.209 167.5 58.509 167.5 55.209C167.5 51.909 164.8 49.209 161.5 49.209ZM164.275 55.809C164.125 55.959 163.975 56.034 163.75 56.034C163.525 56.034 163.375 55.959 163.225 55.809L162.25 54.834V58.209C162.25 58.659 161.95 58.959 161.5 58.959C161.05 58.959 160.75 58.659 160.75 58.209V54.834L159.775 55.809C159.475 56.109 159.025 56.109 158.725 55.809C158.425 55.509 158.425 55.059 158.725 54.759L160.975 52.434C161.125 52.284 161.275 52.209 161.5 52.209C161.725 52.209 161.875 52.284 162.025 52.434L164.275 54.759C164.575 55.059 164.575 55.509 164.275 55.809Z" fill="#888B92"/>
</g>
<path d="M139.166 77.0272H140.707V83.7239C140.707 84.4365 140.54 85.0679 140.205 85.6181C139.871 86.165 139.4 86.5958 138.793 86.9107C138.187 87.2222 137.476 87.378 136.661 87.378C135.848 87.378 135.139 87.2222 134.533 86.9107C133.926 86.5958 133.455 86.165 133.121 85.6181C132.786 85.0679 132.619 84.4365 132.619 83.7239V77.0272H134.155V83.5996C134.155 84.0603 134.256 84.4696 134.458 84.8276C134.664 85.1855 134.954 85.4673 135.328 85.6728C135.703 85.8749 136.147 85.976 136.661 85.976C137.178 85.976 137.623 85.8749 137.998 85.6728C138.376 85.4673 138.664 85.1855 138.863 84.8276C139.065 84.4696 139.166 84.0603 139.166 83.5996V77.0272ZM142.822 90.0726V79.5726H144.273V80.8105H144.398C144.484 80.6515 144.608 80.4675 144.77 80.2587C144.933 80.0499 145.158 79.8676 145.447 79.7118C145.735 79.5527 146.116 79.4732 146.59 79.4732C147.206 79.4732 147.757 79.629 148.241 79.9405C148.724 80.2521 149.104 80.7012 149.379 81.2878C149.657 81.8745 149.797 82.5804 149.797 83.4057C149.797 84.231 149.659 84.9386 149.384 85.5286C149.109 86.1152 148.731 86.5676 148.251 86.8858C147.77 87.2007 147.221 87.3581 146.605 87.3581C146.141 87.3581 145.761 87.2802 145.466 87.1245C145.175 86.9687 144.946 86.7864 144.78 86.5776C144.615 86.3688 144.487 86.1832 144.398 86.0208H144.308V90.0726H142.822ZM144.278 83.3908C144.278 83.9277 144.356 84.3984 144.512 84.8027C144.668 85.2071 144.893 85.5236 145.188 85.7523C145.483 85.9777 145.844 86.0904 146.272 86.0904C146.716 86.0904 147.087 85.9727 147.385 85.7374C147.684 85.4988 147.909 85.1756 148.062 84.7679C148.217 84.3603 148.295 83.9012 148.295 83.3908C148.295 82.887 148.219 82.4346 148.067 82.0336C147.917 81.6325 147.692 81.316 147.39 81.084C147.092 80.852 146.719 80.736 146.272 80.736C145.841 80.736 145.476 80.847 145.178 81.0691C144.883 81.2911 144.659 81.601 144.507 81.9988C144.354 82.3965 144.278 82.8605 144.278 83.3908ZM152.949 77.0272V87.209H151.462V77.0272H152.949ZM158.165 87.3631C157.449 87.3631 156.824 87.199 156.291 86.8709C155.757 86.5428 155.343 86.0837 155.048 85.4938C154.753 84.9038 154.605 84.2144 154.605 83.4256C154.605 82.6335 154.753 81.9408 155.048 81.3475C155.343 80.7542 155.757 80.2935 156.291 79.9654C156.824 79.6373 157.449 79.4732 158.165 79.4732C158.881 79.4732 159.506 79.6373 160.039 79.9654C160.573 80.2935 160.987 80.7542 161.282 81.3475C161.577 81.9408 161.725 82.6335 161.725 83.4256C161.725 84.2144 161.577 84.9038 161.282 85.4938C160.987 86.0837 160.573 86.5428 160.039 86.8709C159.506 87.199 158.881 87.3631 158.165 87.3631ZM158.17 86.1152C158.634 86.1152 159.019 85.9926 159.324 85.7473C159.628 85.5021 159.854 85.1756 160 84.7679C160.149 84.3603 160.223 83.9112 160.223 83.4206C160.223 82.9334 160.149 82.486 160 82.0783C159.854 81.6673 159.628 81.3375 159.324 81.089C159.019 80.8404 158.634 80.7161 158.17 80.7161C157.703 80.7161 157.315 80.8404 157.007 81.089C156.702 81.3375 156.475 81.6673 156.326 82.0783C156.18 82.486 156.107 82.9334 156.107 83.4206C156.107 83.9112 156.18 84.3603 156.326 84.7679C156.475 85.1756 156.702 85.5021 157.007 85.7473C157.315 85.9926 157.703 86.1152 158.17 86.1152ZM165.606 87.378C165.122 87.378 164.685 87.2885 164.294 87.1096C163.903 86.9273 163.593 86.6638 163.364 86.3191C163.139 85.9744 163.026 85.5518 163.026 85.0513C163.026 84.6204 163.109 84.2658 163.275 83.9874C163.44 83.709 163.664 83.4886 163.946 83.3262C164.228 83.1638 164.542 83.0411 164.89 82.9583C165.238 82.8754 165.593 82.8124 165.954 82.7694C166.412 82.7163 166.783 82.6732 167.068 82.6401C167.353 82.6036 167.56 82.5456 167.689 82.4661C167.819 82.3865 167.883 82.2573 167.883 82.0783V82.0435C167.883 81.6093 167.761 81.2729 167.515 81.0343C167.273 80.7956 166.912 80.6763 166.432 80.6763C165.931 80.6763 165.537 80.7873 165.248 81.0094C164.963 81.2282 164.766 81.4718 164.657 81.7402L163.26 81.4221C163.425 80.958 163.667 80.5835 163.986 80.2985C164.307 80.0101 164.677 79.8013 165.094 79.6721C165.512 79.5395 165.951 79.4732 166.412 79.4732C166.717 79.4732 167.04 79.5096 167.381 79.5826C167.726 79.6522 168.047 79.7814 168.346 79.9703C168.647 80.1593 168.894 80.4294 169.086 80.7807C169.279 81.1287 169.375 81.5811 169.375 82.138V87.209H167.923V86.165H167.863C167.767 86.3572 167.623 86.5461 167.431 86.7317C167.239 86.9173 166.992 87.0714 166.69 87.1941C166.389 87.3167 166.027 87.378 165.606 87.378ZM165.93 86.1848C166.34 86.1848 166.692 86.1036 166.983 85.9412C167.278 85.7788 167.502 85.5667 167.655 85.3049C167.81 85.0397 167.888 84.7563 167.888 84.4547V83.4703C167.835 83.5234 167.733 83.5731 167.58 83.6195C167.431 83.6626 167.26 83.7007 167.068 83.7338C166.876 83.7637 166.689 83.7918 166.506 83.8184C166.324 83.8416 166.171 83.8614 166.049 83.878C165.76 83.9145 165.497 83.9758 165.258 84.062C165.023 84.1481 164.834 84.2724 164.692 84.4348C164.552 84.5939 164.483 84.806 164.483 85.0712C164.483 85.4391 164.619 85.7175 164.89 85.9064C165.162 86.092 165.509 86.1848 165.93 86.1848ZM174.213 87.3581C173.597 87.3581 173.047 87.2007 172.563 86.8858C172.082 86.5676 171.704 86.1152 171.429 85.5286C171.158 84.9386 171.022 84.231 171.022 83.4057C171.022 82.5804 171.159 81.8745 171.434 81.2878C171.713 80.7012 172.094 80.2521 172.578 79.9405C173.062 79.629 173.61 79.4732 174.223 79.4732C174.697 79.4732 175.078 79.5527 175.367 79.7118C175.658 79.8676 175.884 80.0499 176.043 80.2587C176.205 80.4675 176.331 80.6515 176.421 80.8105H176.51V77.0272H177.997V87.209H176.545V86.0208H176.421C176.331 86.1832 176.202 86.3688 176.033 86.5776C175.867 86.7864 175.639 86.9687 175.347 87.1245C175.055 87.2802 174.677 87.3581 174.213 87.3581ZM174.542 86.0904C174.969 86.0904 175.33 85.9777 175.625 85.7523C175.924 85.5236 176.149 85.2071 176.301 84.8027C176.457 84.3984 176.535 83.9277 176.535 83.3908C176.535 82.8605 176.459 82.3965 176.306 81.9988C176.154 81.601 175.93 81.2911 175.635 81.0691C175.34 80.847 174.976 80.736 174.542 80.736C174.094 80.736 173.721 80.852 173.423 81.084C173.125 81.316 172.899 81.6325 172.747 82.0336C172.598 82.4346 172.523 82.887 172.523 83.3908C172.523 83.9012 172.599 84.3603 172.752 84.7679C172.904 85.1756 173.13 85.4988 173.428 85.7374C173.73 85.9727 174.101 86.0904 174.542 86.0904ZM187.458 79.5726V80.7658H183.142V79.5726H187.458ZM184.326 87.209V78.6877C184.326 78.2104 184.43 77.8143 184.639 77.4995C184.848 77.1813 185.124 76.9443 185.469 76.7885C185.814 76.6294 186.188 76.5499 186.593 76.5499C186.891 76.5499 187.146 76.5748 187.358 76.6245C187.57 76.6709 187.728 76.714 187.831 76.7537L187.483 77.9569C187.413 77.937 187.324 77.9138 187.214 77.8873C187.105 77.8574 186.972 77.8425 186.816 77.8425C186.455 77.8425 186.197 77.932 186.041 78.111C185.888 78.29 185.812 78.5485 185.812 78.8865V87.209H184.326ZM188.991 87.209V79.5726H190.478V87.209H188.991ZM189.742 78.3944C189.484 78.3944 189.262 78.3082 189.076 78.1358C188.894 77.9602 188.803 77.7514 188.803 77.5094C188.803 77.2641 188.894 77.0553 189.076 76.883C189.262 76.7073 189.484 76.6195 189.742 76.6195C190.001 76.6195 190.221 76.7073 190.403 76.883C190.589 77.0553 190.682 77.2641 190.682 77.5094C190.682 77.7514 190.589 77.9602 190.403 78.1358C190.221 78.3082 190.001 78.3944 189.742 78.3944ZM193.964 77.0272V87.209H192.478V77.0272H193.964ZM199.255 87.3631C198.503 87.3631 197.855 87.2024 197.311 86.8809C196.771 86.556 196.354 86.1003 196.059 85.5137C195.767 84.9237 195.621 84.2327 195.621 83.4405C195.621 82.6583 195.767 81.9689 196.059 81.3723C196.354 80.7757 196.765 80.3101 197.292 79.9753C197.822 79.6406 198.442 79.4732 199.151 79.4732C199.582 79.4732 199.999 79.5444 200.404 79.687C200.808 79.8295 201.171 80.0532 201.493 80.3581C201.814 80.6631 202.068 81.0591 202.253 81.5463C202.439 82.0302 202.532 82.6185 202.532 83.3113V83.8382H196.461V82.7246H201.075C201.075 82.3335 200.995 81.9872 200.836 81.6855C200.677 81.3806 200.453 81.1403 200.165 80.9647C199.88 80.789 199.545 80.7012 199.161 80.7012C198.743 80.7012 198.379 80.8039 198.067 81.0094C197.759 81.2116 197.52 81.4767 197.351 81.8049C197.185 82.1297 197.103 82.4827 197.103 82.8638V83.7338C197.103 84.2443 197.192 84.6784 197.371 85.0364C197.553 85.3944 197.807 85.6678 198.132 85.8567C198.457 86.0423 198.836 86.1351 199.27 86.1351C199.552 86.1351 199.809 86.0953 200.041 86.0158C200.273 85.9329 200.473 85.8103 200.642 85.6479C200.811 85.4855 200.941 85.285 201.03 85.0463L202.437 85.2999C202.324 85.7142 202.122 86.0771 201.831 86.3887C201.542 86.6969 201.179 86.9372 200.742 87.1096C200.308 87.2786 199.812 87.3631 199.255 87.3631Z" fill="#888B92"/>
<defs>
<clipPath id="clip0_1480_12593">
<rect width="24" height="24" fill="white" transform="translate(155.5 37.209)"/>
</clipPath>
</defs>
</svg>
