<svg width="25" height="25" viewBox="0 0 25 25" fill="none" xmlns="http://www.w3.org/2000/svg">
<g clip-path="url(#clip0_1608_44311)">
<path fill-rule="evenodd" clip-rule="evenodd" d="M13.2071 2.79289C12.8166 2.40237 12.1834 2.40237 11.7929 2.79289L4.79325 9.79254L4.79254 9.79325L2.79289 11.7929C2.40237 12.1834 2.40237 12.8166 2.79289 13.2071C3.18342 13.5976 3.81658 13.5976 4.20711 13.2071L4.5 12.9142V19.5C4.5 21.1569 5.84315 22.5 7.5 22.5H17.5C19.1569 22.5 20.5 21.1569 20.5 19.5V12.9142L20.7929 13.2071C21.1834 13.5976 21.8166 13.5976 22.2071 13.2071C22.5976 12.8166 22.5976 12.1834 22.2071 11.7929L13.2071 2.79289Z" fill="#B7BBC1"/>
</g>
<defs>
<clipPath id="clip0_1608_44311">
<rect width="24" height="24" fill="white" transform="translate(0.5 0.5)"/>
</clipPath>
</defs>
</svg>
