<svg width="27" height="29" viewBox="0 0 27 29" fill="none" xmlns="http://www.w3.org/2000/svg">
<g id="HandCoins">
<path id="Vector" d="M13.5091 6.74868C13.5547 6.06963 13.7629 5.4149 14.1135 4.84839C14.4642 4.28189 14.9452 3.82297 15.5097 3.51643C16.0741 3.20989 16.7028 3.06621 17.3342 3.09941C17.9656 3.13261 18.5783 3.34156 19.1123 3.70586C19.1734 3.74889 19.2226 3.80883 19.2547 3.87939C19.2868 3.94995 19.3007 4.02852 19.2949 4.10685C19.2891 4.18518 19.2638 4.26038 19.2216 4.32454C19.1795 4.38871 19.1221 4.43947 19.0555 4.47149C18.1271 4.92131 17.339 5.65022 16.7859 6.57065C16.2328 7.49108 15.9382 8.56389 15.9375 9.66024C15.9375 9.78821 15.9375 9.91618 15.9497 10.042C15.9553 10.1215 15.9406 10.2011 15.9072 10.2723C15.8739 10.3434 15.8231 10.4034 15.7603 10.4458C15.6976 10.4881 15.6253 10.5112 15.5513 10.5125C15.4773 10.5138 15.4043 10.4933 15.3403 10.4532C14.7418 10.0845 14.2523 9.54105 13.9282 8.88557C13.6042 8.23008 13.4589 7.48928 13.5091 6.74868ZM24.875 18.0395C24.8765 18.5394 24.7478 19.0299 24.5037 19.4552C24.2596 19.8805 23.9097 20.2236 23.4937 20.4457L23.4491 20.4676L19.5054 22.2766C19.4664 22.2951 19.426 22.3098 19.3845 22.3204L12.8845 24.0704C12.8202 24.0882 12.754 24.0974 12.6875 24.0977H2.125C1.69402 24.0977 1.2807 23.9134 0.975951 23.5852C0.671205 23.257 0.5 22.8119 0.5 22.3477V17.9727C0.5 17.5086 0.671205 17.0635 0.975951 16.7353C1.2807 16.4071 1.69402 16.2227 2.125 16.2227H5.03883L7.33617 13.7476C7.63741 13.4217 7.99563 13.1634 8.39012 12.9875C8.78461 12.8116 9.20756 12.7216 9.63453 12.7227H14.7187C15.1479 12.7227 15.5715 12.8273 15.9579 13.0286C16.3442 13.2299 16.6832 13.5228 16.9494 13.8853C17.2157 14.2478 17.4023 14.6705 17.4953 15.1217C17.5882 15.5729 17.5852 16.0409 17.4863 16.4907L21.7357 15.4385C22.1056 15.333 22.4931 15.3204 22.8683 15.4017C23.2435 15.4829 23.5963 15.6558 23.8996 15.9071C24.2029 16.1584 24.4486 16.4814 24.6177 16.8511C24.7868 17.2208 24.8748 17.6273 24.875 18.0395ZM23.25 18.0395C23.2499 17.8948 23.2188 17.7521 23.1592 17.6224C23.0996 17.4928 23.013 17.3797 22.9062 17.2919C22.7995 17.2041 22.6753 17.1439 22.5435 17.1162C22.4117 17.0884 22.2756 17.0937 22.146 17.1316L22.1145 17.1404L15.3098 18.8259C15.2502 18.8402 15.1892 18.8476 15.128 18.8477H11.875C11.6595 18.8477 11.4528 18.7556 11.3005 18.5915C11.1481 18.4274 11.0625 18.2048 11.0625 17.9727C11.0625 17.7407 11.1481 17.5181 11.3005 17.354C11.4528 17.1899 11.6595 17.0977 11.875 17.0977H14.7187C15.042 17.0977 15.352 16.9595 15.5805 16.7133C15.8091 16.4672 15.9375 16.1333 15.9375 15.7852C15.9375 15.4371 15.8091 15.1033 15.5805 14.8572C15.352 14.611 15.042 14.4727 14.7187 14.4727H9.63453C9.42105 14.472 9.20957 14.517 9.01238 14.605C8.81518 14.6931 8.63621 14.8225 8.48586 14.9857L6.1875 17.4598V22.3477H12.5859L18.9265 20.6404L22.7859 18.8707C22.9263 18.791 23.0439 18.6714 23.1257 18.5249C23.2075 18.3783 23.2505 18.2104 23.25 18.0395ZM17.5625 9.66024C17.5625 10.439 17.7769 11.2003 18.1787 11.8478C18.5804 12.4953 19.1515 13 19.8196 13.298C20.4877 13.596 21.2228 13.674 21.932 13.5221C22.6413 13.3702 23.2928 12.9951 23.8041 12.4445C24.3154 11.8938 24.6637 11.1922 24.8047 10.4284C24.9458 9.66461 24.8734 8.87291 24.5967 8.15342C24.32 7.43394 23.8513 6.81898 23.2501 6.38633C22.6488 5.95367 21.9419 5.72274 21.2187 5.72274C20.2491 5.72274 19.3191 6.13758 18.6334 6.876C17.9477 7.61443 17.5625 8.61595 17.5625 9.66024Z" fill="#0094FE"/>
</g>
</svg>
