<svg width="25" height="25" viewBox="0 0 25 25" fill="none" xmlns="http://www.w3.org/2000/svg">
<g clip-path="url(#clip0_2427_1725)">
<path fill-rule="evenodd" clip-rule="evenodd" d="M12.75 24.1328C19.3592 24.1328 24.75 18.742 24.75 12.1328C24.75 5.52358 19.3592 0.132812 12.75 0.132812C6.14077 0.132812 0.75 5.52358 0.75 12.1328C0.75 18.742 6.14077 24.1328 12.75 24.1328Z" fill="#F34235"/>
<path d="M16.7383 9.0744H8.76165C8.7166 9.0744 8.67365 9.09294 8.64267 9.12555C8.61146 9.15842 8.59527 9.20231 8.59762 9.24736L9.01676 17.3348C9.03531 17.6946 9.33196 17.9765 9.69242 17.9765H15.8075C16.168 17.9765 16.4647 17.6946 16.4832 17.3348L16.9023 9.24736C16.9047 9.20231 16.8885 9.15842 16.8573 9.12555C16.8264 9.09294 16.7834 9.0744 16.7383 9.0744ZM10.1461 10.7048C10.1431 10.5947 10.1832 10.4898 10.2592 10.4096C10.3353 10.3293 10.4378 10.2833 10.5479 10.28C10.7769 10.2753 10.967 10.4551 10.9736 10.6823L11.1259 16.3595C11.1292 16.4693 11.0891 16.5744 11.0128 16.6549C10.9368 16.735 10.834 16.781 10.7237 16.7843H10.7115C10.6056 16.7843 10.5054 16.7441 10.4277 16.6705C10.3477 16.5944 10.3017 16.4919 10.2987 16.382L10.1461 10.7048ZM12.3362 16.3644V10.6865C12.3362 10.4581 12.5219 10.2725 12.75 10.2725C12.9781 10.2725 13.1638 10.4581 13.1638 10.6865V16.3644C13.1638 16.5929 12.9781 16.7788 12.75 16.7788C12.5219 16.7788 12.3362 16.593 12.3362 16.3644ZM15.2013 16.3815C15.1983 16.4918 15.1523 16.5944 15.0723 16.6704C14.9946 16.7441 14.8944 16.7842 14.7885 16.7842H14.7756C14.6656 16.7809 14.563 16.735 14.4872 16.6547C14.4109 16.5742 14.3707 16.4693 14.374 16.359L14.5264 10.6827C14.5329 10.4553 14.7216 10.2744 14.9493 10.28H14.9521C15.0621 10.2833 15.1647 10.3293 15.2407 10.4096C15.3168 10.4898 15.3569 10.5947 15.3539 10.7048L15.2013 16.3815ZM17.5586 7.80916V8.24475H7.94141V7.80916C7.94141 7.56884 8.1369 7.37335 8.37722 7.37335H11.5406C11.6244 7.37335 11.6948 7.31022 11.704 7.22688C11.7624 6.69226 12.2121 6.28906 12.75 6.28906C13.2879 6.28906 13.7376 6.69226 13.796 7.22688C13.8052 7.31018 13.8756 7.37335 13.9594 7.37335H17.1228C17.3631 7.37335 17.5586 7.56884 17.5586 7.80916Z" fill="white"/>
</g>
<defs>
<clipPath id="clip0_2427_1725">
<rect width="24" height="24" fill="white" transform="translate(0.75 0.132812)"/>
</clipPath>
</defs>
</svg>
