<svg width="25" height="25" viewBox="0 0 25 25" fill="none" xmlns="http://www.w3.org/2000/svg">
<g id="DeviceMobileSpeaker">
<path id="Vector" d="M18.4015 1.03613H6.59855C5.94858 1.03613 5.32523 1.29433 4.86563 1.75393C4.40603 2.21353 4.14783 2.83688 4.14783 3.48686V21.4588C4.14783 22.1088 4.40603 22.7322 4.86563 23.1918C5.32523 23.6514 5.94858 23.9096 6.59855 23.9096H18.4015C19.0514 23.9096 19.6748 23.6514 20.1344 23.1918C20.594 22.7322 20.8522 22.1088 20.8522 21.4588V3.48686C20.8522 2.83688 20.594 2.21353 20.1344 1.75393C19.6748 1.29433 19.0514 1.03613 18.4015 1.03613ZM14.6784 4.84837H10.3216C10.1049 4.84837 9.89714 4.7623 9.74394 4.6091C9.59074 4.4559 9.50467 4.24812 9.50467 4.03146C9.50467 3.81481 9.59074 3.60702 9.74394 3.45382C9.89714 3.30062 10.1049 3.21455 10.3216 3.21455H14.6784C14.8951 3.21455 15.1029 3.30062 15.2561 3.45382C15.4093 3.60702 15.4953 3.81481 15.4953 4.03146C15.4953 4.24812 15.4093 4.4559 15.2561 4.6091C15.1029 4.7623 14.8951 4.84837 14.6784 4.84837Z" fill="#0094FE"/>
<path id="&#224;&#167;&#179;" d="M16.4041 11.8863C16.6835 11.8863 16.9099 12.1128 16.9099 12.3921C16.9099 12.6715 16.6835 12.898 16.4041 12.898H12.0481V18.0969C12.0481 18.5372 12.1044 18.8369 12.2168 18.9962C12.3385 19.1554 12.5727 19.2351 12.9193 19.2351C13.2004 19.2351 13.4814 19.1742 13.7624 19.0524C14.0528 18.9306 14.639 18.5278 14.8639 18.3217C15.0981 18.1156 15.2854 17.8814 15.4259 17.6191C15.5664 17.3475 15.6367 17.0711 15.6367 16.7901C15.6367 16.5653 15.5711 16.392 15.44 16.2702C15.3182 16.1484 15.1168 16.0875 14.8358 16.0875C14.7793 16.0875 14.7238 16.0889 14.6692 16.0917C14.3798 16.1066 14.0964 15.9214 14.0542 15.6347C14.0189 15.3948 14.1657 15.1616 14.406 15.1291C14.4366 15.125 14.4674 15.1213 14.4985 15.118C14.6859 15.0899 14.8732 15.0758 15.0606 15.0758C15.5571 15.0758 15.9599 15.2023 16.269 15.4552C16.5875 15.6988 16.7468 16.0969 16.7468 16.6496C16.7468 17.0805 16.6437 17.4974 16.4376 17.9002C16.2409 18.2936 15.9739 18.6496 15.6367 18.9681C15.2995 19.2772 14.5914 19.7596 14.1699 19.9376C13.7484 20.1156 13.3175 20.2046 12.8772 20.2046C12.5306 20.2046 12.2449 20.1671 12.02 20.0922C11.7952 20.0079 11.6079 19.8955 11.458 19.755C11.3643 19.6613 11.28 19.5582 11.2051 19.4458C11.1301 19.324 11.0692 19.1648 11.0224 18.9681C10.9849 18.762 10.9662 18.4903 10.9662 18.1531V12.898H9.32842C9.04904 12.898 8.82257 12.6715 8.82257 12.3921C8.82257 12.1128 9.04904 11.8863 9.32842 11.8863H16.4041ZM10.3058 8.35938C10.5774 8.35938 10.8116 8.39685 11.0083 8.47179C11.2144 8.54673 11.3877 8.65914 11.5282 8.80902C11.6969 8.987 11.8233 9.23056 11.9076 9.53969C12.0013 9.83946 12.0481 10.2657 12.0481 10.8184V12.2383C12.0481 12.5371 11.8059 12.7793 11.5072 12.7793C11.2084 12.7793 10.9662 12.5371 10.9662 12.2383V10.8746C10.9662 10.5467 10.9428 10.275 10.8959 10.0596C10.8585 9.83477 10.7695 9.66616 10.629 9.55374C10.4884 9.43197 10.2777 9.37108 9.99664 9.37108C9.81866 9.37108 9.64067 9.39918 9.46269 9.45538C9.21599 9.52391 8.94526 9.40798 8.84303 9.17323C8.73595 8.92734 8.84661 8.63471 9.10229 8.55372C9.22433 8.51506 9.34446 8.48307 9.46269 8.45773C9.73435 8.39216 10.0154 8.35938 10.3058 8.35938Z" fill="white" stroke="white" stroke-width="0.6"/>
</g>
</svg>
