<svg width="17" height="18" viewBox="0 0 17 18" fill="none" xmlns="http://www.w3.org/2000/svg">
<path d="M12.3518 5.73858C12.6916 5.73858 12.9671 5.46306 12.9671 5.1232C12.9671 4.78333 12.6916 4.50781 12.3518 4.50781V5.73858ZM4.14663 4.50781C3.80677 4.50781 3.53125 4.78333 3.53125 5.1232C3.53125 5.46306 3.80677 5.73858 4.14663 5.73858V4.50781ZM12.3518 4.50781H4.14663V5.73858H12.3518V4.50781Z" fill="#EB762F"/>
<path d="M12.3518 9.01983C12.6916 9.01983 12.9671 8.7443 12.9671 8.40445C12.9671 8.06459 12.6916 7.78906 12.3518 7.78906V9.01983ZM4.14663 7.78906C3.80677 7.78906 3.53125 8.06459 3.53125 8.40445C3.53125 8.7443 3.80677 9.01983 4.14663 9.01983V7.78906ZM12.3518 7.78906H4.14663V9.01983H12.3518V7.78906Z" fill="#EB762F"/>
<path d="M8.2492 12.3011C8.58906 12.3011 8.86458 12.0256 8.86458 11.6857C8.86458 11.3458 8.58906 11.0703 8.2492 11.0703V12.3011ZM4.14663 11.0703C3.80677 11.0703 3.53125 11.3458 3.53125 11.6857C3.53125 12.0256 3.80677 12.3011 4.14663 12.3011V11.0703ZM8.2492 11.0703H4.14663V12.3011H8.2492V11.0703Z" fill="#EB762F"/>
<path d="M2.50641 1.63702H13.9936V0.40625H2.50641V1.63702ZM15.0192 2.66266V15.097H16.25V2.66266H15.0192ZM13.6462 16.062L12.3647 15.6007L11.9479 16.7587L13.2293 17.22L13.6462 16.062ZM10.6745 15.6661L8.67092 16.5676L9.17595 17.69L11.1796 16.7884L10.6745 15.6661ZM7.82908 16.5676L5.82551 15.6661L5.32044 16.7884L7.32405 17.69L7.82908 16.5676ZM4.13527 15.6007L2.85382 16.062L3.2707 17.22L4.55215 16.7587L4.13527 15.6007ZM1.48077 15.097V2.66266H0.25V15.097H1.48077ZM2.85382 16.062C2.18544 16.3026 1.48077 15.8074 1.48077 15.097H0.25C0.25 16.6598 1.80029 17.7493 3.2707 17.22L2.85382 16.062ZM5.82551 15.6661C5.29188 15.4259 4.68584 15.4025 4.13527 15.6007L4.55215 16.7587C4.80241 16.6686 5.07789 16.6792 5.32044 16.7884L5.82551 15.6661ZM8.67092 16.5676C8.40319 16.6881 8.09681 16.6881 7.82908 16.5676L7.32405 17.69C7.91293 17.955 8.58707 17.955 9.17595 17.69L8.67092 16.5676ZM12.3647 15.6007C11.8141 15.4025 11.2081 15.4259 10.6745 15.6661L11.1796 16.7884C11.4221 16.6792 11.6975 16.6686 11.9479 16.7587L12.3647 15.6007ZM15.0192 15.097C15.0192 15.8074 14.3146 16.3026 13.6462 16.062L13.2293 17.22C14.6997 17.7493 16.25 16.6598 16.25 15.097H15.0192ZM13.9936 1.63702C14.5601 1.63702 15.0192 2.09621 15.0192 2.66266H16.25C16.25 1.41648 15.2398 0.40625 13.9936 0.40625V1.63702ZM2.50641 0.40625C1.26023 0.40625 0.25 1.41648 0.25 2.66266H1.48077C1.48077 2.09621 1.93996 1.63702 2.50641 1.63702V0.40625Z" fill="#EB762F"/>
</svg>
