<svg width="74" height="75" viewBox="0 0 74 75" fill="none" xmlns="http://www.w3.org/2000/svg">
<g id="Group 101">
<path id="Vector" d="M69.9048 21.4621C65.5805 27.3398 58.3522 29.1929 53.7547 25.5906C49.1572 21.9883 48.5079 15.4523 52.495 9.24224C56.8844 2.40464 66.1408 4.88148 71.5618 0.75171C71.7376 0.606926 71.9488 0.514243 72.1724 0.483731C72.3961 0.453219 72.6236 0.486044 72.8304 0.578641C73.0371 0.671238 73.215 0.820065 73.345 1.00895C73.4749 1.19784 73.5517 1.41957 73.5672 1.65004C73.8555 6.34704 73.8806 16.0465 69.9048 21.4621Z" fill="#23B100"/>
<path id="Vector_2" d="M26.0668 31.729C30.3898 37.6067 37.6182 39.4598 42.2169 35.8575C46.8157 32.2552 47.4624 25.7192 43.4703 19.5091C39.0859 12.6715 29.8296 15.1484 24.4086 11.0186C24.2329 10.8733 24.0216 10.7803 23.7978 10.7495C23.574 10.7187 23.3463 10.7515 23.1394 10.8442C22.9325 10.9368 22.7545 11.0859 22.6246 11.275C22.4948 11.4642 22.4182 11.6862 22.4032 11.9169C22.1161 16.6139 22.0911 26.3134 26.0668 31.729Z" fill="#23B100"/>
<path id="Vector_3" d="M52.372 46.679C52.1217 46.6789 51.8772 46.6021 51.6699 46.4585C51.4626 46.3148 51.302 46.1109 51.2089 45.873C48.8074 39.7246 45.5936 37.5211 43.0618 36.2891C30.9288 30.3858 29.8622 22.7782 29.8233 22.4573C29.7865 22.1228 29.8794 21.7869 30.0821 21.5219C30.2848 21.257 30.5811 21.0841 30.9071 21.0407C31.2331 20.9973 31.5627 21.0867 31.8249 21.2898C32.0871 21.4928 32.2609 21.7932 32.3088 22.1262C32.3264 22.2417 33.3993 28.7418 44.1397 33.9714C46.7317 35.1976 48.9707 37.0882 50.6398 39.4602C50.7815 33.349 52.6716 23.5648 61.478 13.7294C61.7027 13.4785 62.0156 13.3294 62.3477 13.3147C62.6798 13.3 63.0041 13.421 63.2491 13.6511C63.4941 13.8812 63.6398 14.2015 63.6541 14.5416C63.6684 14.8816 63.5502 15.2136 63.3255 15.4644C50.1936 30.124 53.5528 44.94 53.5891 45.0876C53.6649 45.4031 53.6211 45.7363 53.4664 46.0199C53.3117 46.3036 53.0577 46.5166 52.7556 46.6161C52.6316 46.6568 52.5023 46.678 52.372 46.679Z" fill="#23B100"/>
<path id="Vector_4" d="M26.0504 64.646H21.0368C21.7017 64.646 22.3393 64.3756 22.8094 63.8943C23.2795 63.4129 23.5436 62.7601 23.5436 62.0794C23.5436 61.3986 23.2795 60.7458 22.8094 60.2645C22.3393 59.7831 21.7017 59.5127 21.0368 59.5127H3.48922C2.82438 59.5127 2.18676 59.7831 1.71665 60.2645C1.24653 60.7458 0.982422 61.3986 0.982422 62.0794C0.982422 62.7601 1.24653 63.4129 1.71665 63.8943C2.18676 64.3756 2.82438 64.646 3.48922 64.646H8.50283C7.83798 64.646 7.20037 64.9164 6.73025 65.3978C6.26014 65.8791 5.99603 66.532 5.99603 67.2127C5.99603 67.8934 6.26014 68.5463 6.73025 69.0276C7.20037 69.5089 7.83798 69.7794 8.50283 69.7794H5.99603C5.33118 69.7794 4.69357 70.0498 4.22345 70.5311C3.75333 71.0125 3.48922 71.6653 3.48922 72.346C3.48922 73.0267 3.75333 73.6796 4.22345 74.1609C4.69357 74.6423 5.33118 74.9127 5.99603 74.9127H23.5436C24.2085 74.9127 24.8461 74.6423 25.3162 74.1609C25.7863 73.6796 26.0504 73.0267 26.0504 72.346C26.0504 71.6653 25.7863 71.0125 25.3162 70.5311C24.8461 70.0498 24.2085 69.7794 23.5436 69.7794H26.0504C26.7153 69.7794 27.3529 69.5089 27.823 69.0276C28.2931 68.5463 28.5573 67.8934 28.5573 67.2127C28.5573 66.532 28.2931 65.8791 27.823 65.3978C27.3529 64.9164 26.7153 64.646 26.0504 64.646Z" fill="#FDD05E"/>
<path id="Vector_5" d="M26.051 64.6465H8.50339C7.11892 64.6465 5.99658 65.7956 5.99658 67.2132C5.99658 68.6307 7.11892 69.7798 8.50339 69.7798H26.051C27.4355 69.7798 28.5578 68.6307 28.5578 67.2132C28.5578 65.7956 27.4355 64.6465 26.051 64.6465Z" fill="#F9B42C"/>
<path id="Vector_6" d="M66.1595 64.6456H61.1459C61.8108 64.6456 62.4484 64.3752 62.9185 63.8939C63.3886 63.4125 63.6527 62.7597 63.6527 62.079C63.6527 61.3983 63.3886 60.7454 62.9185 60.2641C62.4484 59.7827 61.8108 59.5123 61.1459 59.5123H57.3857C58.0506 59.5123 58.6882 59.2419 59.1583 58.7606C59.6284 58.2792 59.8925 57.6264 59.8925 56.9456C59.8925 56.2649 59.6284 55.6121 59.1583 55.1307C58.6882 54.6494 58.0506 54.379 57.3857 54.379H61.1459C61.8108 54.379 62.4484 54.1086 62.9185 53.6272C63.3886 53.1459 63.6527 52.493 63.6527 51.8123C63.6527 51.1316 63.3886 50.4787 62.9185 49.9974C62.4484 49.5161 61.8108 49.2456 61.1459 49.2456C61.8108 49.2456 62.4484 48.9752 62.9185 48.4939C63.3886 48.0125 63.6527 47.3597 63.6527 46.679C63.6527 45.9982 63.3886 45.3454 62.9185 44.8641C62.4484 44.3827 61.8108 44.1123 61.1459 44.1123H43.5983C42.9335 44.1123 42.2958 44.3827 41.8257 44.8641C41.3556 45.3454 41.0915 45.9982 41.0915 46.679C41.0915 47.3597 41.3556 48.0125 41.8257 48.4939C42.2958 48.9752 42.9335 49.2456 43.5983 49.2456C42.9335 49.2456 42.2958 49.5161 41.8257 49.9974C41.3556 50.4787 41.0915 51.1316 41.0915 51.8123C41.0915 52.493 41.3556 53.1459 41.8257 53.6272C42.2958 54.1086 42.9335 54.379 43.5983 54.379H39.8381C39.1733 54.379 38.5356 54.6494 38.0655 55.1307C37.5954 55.6121 37.3313 56.2649 37.3313 56.9456C37.3313 57.6264 37.5954 58.2792 38.0655 58.7606C38.5356 59.2419 39.1733 59.5123 39.8381 59.5123H43.5983C42.9335 59.5123 42.2958 59.7827 41.8257 60.2641C41.3556 60.7454 41.0915 61.3983 41.0915 62.079C41.0915 62.7597 41.3556 63.4125 41.8257 63.8939C42.2958 64.3752 42.9335 64.6456 43.5983 64.6456H48.6119C47.9471 64.6456 47.3094 64.9161 46.8393 65.3974C46.3692 65.8787 46.1051 66.5316 46.1051 67.2123C46.1051 67.893 46.3692 68.5459 46.8393 69.0272C47.3094 69.5086 47.9471 69.779 48.6119 69.779H46.1051C45.4403 69.779 44.8026 70.0494 44.3325 70.5307C43.8624 71.0121 43.5983 71.6649 43.5983 72.3456C43.5983 73.0264 43.8624 73.6792 44.3325 74.1606C44.8026 74.6419 45.4403 74.9123 46.1051 74.9123H63.6527C64.3176 74.9123 64.9552 74.6419 65.4253 74.1606C65.8954 73.6792 66.1595 73.0264 66.1595 72.3456C66.1595 71.6649 65.8954 71.0121 65.4253 70.5307C64.9552 70.0494 64.3176 69.779 63.6527 69.779H66.1595C66.8244 69.779 67.462 69.5086 67.9321 69.0272C68.4022 68.5459 68.6663 67.893 68.6663 67.2123C68.6663 66.5316 68.4022 65.8787 67.9321 65.3974C67.462 64.9161 66.8244 64.6456 66.1595 64.6456Z" fill="#FDD05E"/>
<g id="Group">
<path id="Vector_7" d="M61.146 59.5127H43.5984C42.2139 59.5127 41.0916 60.6618 41.0916 62.0794C41.0916 63.4969 42.2139 64.646 43.5984 64.646H61.146C62.5304 64.646 63.6528 63.4969 63.6528 62.0794C63.6528 60.6618 62.5304 59.5127 61.146 59.5127Z" fill="#F9B42C"/>
<path id="Vector_8" d="M61.146 49.2461H43.5984C42.2139 49.2461 41.0916 50.3952 41.0916 51.8128C41.0916 53.2303 42.2139 54.3794 43.5984 54.3794H61.146C62.5304 54.3794 63.6528 53.2303 63.6528 51.8128C63.6528 50.3952 62.5304 49.2461 61.146 49.2461Z" fill="#F9B42C"/>
<path id="Vector_9" d="M63.6527 69.7793H46.1051C44.7206 69.7793 43.5983 70.9284 43.5983 72.346C43.5983 73.7635 44.7206 74.9126 46.1051 74.9126H63.6527C65.0372 74.9126 66.1595 73.7635 66.1595 72.346C66.1595 70.9284 65.0372 69.7793 63.6527 69.7793Z" fill="#F9B42C"/>
</g>
<path id="Vector_10" d="M14.7701 59.5131C21.0002 59.5131 26.0507 54.342 26.0507 47.9631C26.0507 41.5842 21.0002 36.4131 14.7701 36.4131C8.54 36.4131 3.4895 41.5842 3.4895 47.9631C3.4895 54.342 8.54 59.5131 14.7701 59.5131Z" fill="#FDD05E"/>
<path id="Vector_11" d="M14.7704 56.9462C19.616 56.9462 23.5442 52.9242 23.5442 47.9628C23.5442 43.0015 19.616 38.9795 14.7704 38.9795C9.92475 38.9795 5.99658 43.0015 5.99658 47.9628C5.99658 52.9242 9.92475 56.9462 14.7704 56.9462Z" fill="#F9B42C"/>
<path id="Vector_12" d="M18.5302 50.5294C18.5302 49.5083 18.1341 48.529 17.4289 47.807C16.7237 47.085 15.7673 46.6794 14.77 46.6794C14.5501 46.6791 14.334 46.6197 14.1436 46.5069C13.9532 46.3941 13.7952 46.232 13.6853 46.0369C13.5755 45.8418 13.5177 45.6205 13.5178 45.3952C13.518 45.17 13.576 44.9488 13.6861 44.7538C13.7961 44.5588 13.9544 44.3969 14.1449 44.2844C14.3355 44.1719 14.5516 44.1126 14.7715 44.1127C14.9915 44.1127 15.2076 44.1721 15.3981 44.2847C15.5886 44.3973 15.7467 44.5593 15.8567 44.7544C16.0282 45.0381 16.3008 45.2423 16.6168 45.3237C16.9329 45.4051 17.2674 45.3573 17.5496 45.1904C17.8318 45.0235 18.0394 44.7506 18.1284 44.4297C18.2174 44.1087 18.1808 43.7648 18.0264 43.471C17.5725 42.6898 16.8628 42.0986 16.0234 41.8027V41.546C16.0234 41.2057 15.8914 40.8792 15.6563 40.6386C15.4212 40.3979 15.1024 40.2627 14.77 40.2627C14.4376 40.2627 14.1188 40.3979 13.8837 40.6386C13.6487 40.8792 13.5166 41.2057 13.5166 41.546V41.7822C12.681 42.0835 11.9765 42.6779 11.5279 43.4602C11.0793 44.2424 10.9156 45.1619 11.0657 46.0559C11.2159 46.9499 11.6702 47.7606 12.3481 48.3445C13.0261 48.9284 13.8841 49.2477 14.77 49.246C14.99 49.2462 15.206 49.3057 15.3964 49.4185C15.5868 49.5313 15.7449 49.6934 15.8547 49.8885C15.9646 50.0836 16.0223 50.3049 16.0222 50.5301C16.0221 50.7554 15.964 50.9766 15.854 51.1716C15.7439 51.3666 15.5856 51.5285 15.3951 51.641C15.2046 51.7535 14.9885 51.8127 14.7685 51.8127C14.5485 51.8126 14.3324 51.7533 14.142 51.6407C13.9515 51.528 13.7933 51.3661 13.6833 51.171C13.5119 50.8873 13.2392 50.6831 12.9232 50.6017C12.6072 50.5202 12.2726 50.5681 11.9904 50.735C11.7083 50.9019 11.5007 51.1747 11.4117 51.4957C11.3227 51.8167 11.3593 52.1605 11.5137 52.4544C11.9681 53.2361 12.6788 53.8273 13.5191 54.1227V54.3794C13.5191 54.7197 13.6512 55.0461 13.8862 55.2868C14.1213 55.5275 14.4401 55.6627 14.7725 55.6627C15.1049 55.6627 15.4238 55.5275 15.6588 55.2868C15.8939 55.0461 16.0259 54.7197 16.0259 54.3794V54.1432C16.7561 53.8783 17.3885 53.389 17.8368 52.7422C18.285 52.0953 18.5272 51.3225 18.5302 50.5294Z" fill="#FDD05E"/>
</g>
</svg>
