<svg width="145" height="137" viewBox="0 0 145 137" fill="none" xmlns="http://www.w3.org/2000/svg">
<path d="M118.521 30.3398H31.3837C27.3733 30.3398 24.1223 33.5909 24.1223 37.6013V129.738C24.1223 133.749 27.3733 137 31.3837 137H118.521C122.531 137 125.782 133.749 125.782 129.738V37.6013C125.782 33.5909 122.531 30.3398 118.521 30.3398Z" fill="url(#paint0_linear_145_4283)"/>
<g filter="url(#filter0_d_145_4283)">
<path d="M38.0974 102.877H136.127C137.09 102.877 138.013 103.259 138.694 103.94C139.375 104.621 139.757 105.545 139.757 106.508V124.661C139.757 125.624 139.375 126.548 138.694 127.229C138.013 127.909 137.09 128.292 136.127 128.292H38.0974C37.1345 128.292 36.211 127.909 35.5301 127.229C34.8493 126.548 34.4667 125.624 34.4667 124.661V106.508C34.4667 105.545 34.8493 104.621 35.5301 103.94C36.211 103.259 37.1345 102.877 38.0974 102.877V102.877Z" fill="white"/>
</g>
<path opacity="0.3" d="M91.832 108.687H72.9523C71.7492 108.687 70.7739 109.662 70.7739 110.865C70.7739 112.068 71.7492 113.043 72.9523 113.043H91.832C93.0351 113.043 94.0104 112.068 94.0104 110.865C94.0104 109.662 93.0351 108.687 91.832 108.687Z" fill="#0094FE"/>
<path opacity="0.15" d="M104.903 118.126H72.9523C71.7492 118.126 70.7739 119.101 70.7739 120.304C70.7739 121.508 71.7492 122.483 72.9523 122.483H104.903C106.106 122.483 107.081 121.508 107.081 120.304C107.081 119.101 106.106 118.126 104.903 118.126Z" fill="#0094FE"/>
<path d="M56.614 122.483C60.4238 122.483 63.5123 119.395 63.5123 115.585C63.5123 111.775 60.4238 108.687 56.614 108.687C52.8041 108.687 49.7156 111.775 49.7156 115.585C49.7156 119.395 52.8041 122.483 56.614 122.483Z" fill="#0094FE"/>
<g filter="url(#filter1_d_145_4283)">
<path d="M106.903 68.6523H8.87327C6.86808 68.6523 5.24255 70.2779 5.24255 72.2831V90.4366C5.24255 92.4418 6.86808 94.0673 8.87327 94.0673H106.903C108.908 94.0673 110.533 92.4418 110.533 90.4366V72.2831C110.533 70.2779 108.908 68.6523 106.903 68.6523Z" fill="white"/>
</g>
<path opacity="0.3" d="M61.1555 74.4619H42.2758C41.0727 74.4619 40.0974 75.4372 40.0974 76.6403C40.0974 77.8435 41.0727 78.8188 42.2758 78.8188H61.1555C62.3587 78.8188 63.334 77.8435 63.334 76.6403C63.334 75.4372 62.3587 74.4619 61.1555 74.4619Z" fill="#0094FE"/>
<path opacity="0.15" d="M74.2261 83.9014H42.2758C41.0727 83.9014 40.0974 84.8767 40.0974 86.0798C40.0974 87.2829 41.0727 88.2582 42.2758 88.2582H74.2261C75.4292 88.2582 76.4045 87.2829 76.4045 86.0798C76.4045 84.8767 75.4292 83.9014 74.2261 83.9014Z" fill="#0094FE"/>
<path d="M27.39 88.2586C31.1998 88.2586 34.2883 85.1701 34.2883 81.3603C34.2883 77.5504 31.1998 74.4619 27.39 74.4619C23.5801 74.4619 20.4916 77.5504 20.4916 81.3603C20.4916 85.1701 23.5801 88.2586 27.39 88.2586Z" fill="#0094FE"/>
<g filter="url(#filter2_d_145_4283)">
<circle cx="73.4999" cy="34.9573" r="22.9573" fill="white"/>
</g>
<mask id="mask0_145_4283" style="mask-type:luminance" maskUnits="userSpaceOnUse" x="58" y="20" width="31" height="30">
<path d="M58.5776 20.0352H88.4221V49.8796H58.5776V20.0352Z" fill="white"/>
</mask>
<g mask="url(#mask0_145_4283)">
<path d="M64.6996 33.186V38.16C64.6996 39.1922 65.5328 40.0253 66.5649 40.0253C67.597 40.0253 68.4302 39.1922 68.4302 38.16V33.186C68.4302 32.1538 67.597 31.3207 66.5649 31.3207C65.5328 31.3207 64.6996 32.1538 64.6996 33.186ZM72.1607 33.186V38.16C72.1607 39.1922 72.9939 40.0253 74.026 40.0253C75.0581 40.0253 75.8913 39.1922 75.8913 38.16V33.186C75.8913 32.1538 75.0581 31.3207 74.026 31.3207C72.9939 31.3207 72.1607 32.1538 72.1607 33.186ZM64.0779 46.2429H83.9742C85.0063 46.2429 85.8394 45.4097 85.8394 44.3776C85.8394 43.3455 85.0063 42.5123 83.9742 42.5123H64.0779C63.0457 42.5123 62.2126 43.3455 62.2126 44.3776C62.2126 45.4097 63.0457 46.2429 64.0779 46.2429ZM79.6219 33.186V38.16C79.6219 39.1922 80.455 40.0253 81.4871 40.0253C82.5193 40.0253 83.3524 39.1922 83.3524 38.16V33.186C83.3524 32.1538 82.5193 31.3207 81.4871 31.3207C80.455 31.3207 79.6219 32.1538 79.6219 33.186ZM72.8695 20.7383L63.0457 25.9114C62.5359 26.1725 62.2126 26.7072 62.2126 27.2792C62.2126 28.1373 62.909 28.8336 63.767 28.8336H84.2975C85.1431 28.8336 85.8394 28.1373 85.8394 27.2792C85.8394 26.7072 85.5161 26.1725 85.0063 25.9114L75.1825 20.7383C74.4612 20.3528 73.5908 20.3528 72.8695 20.7383Z" fill="#FF7000"/>
</g>
<defs>
<filter id="filter0_d_145_4283" x="30.1099" y="100.699" width="114.004" height="34.1287" filterUnits="userSpaceOnUse" color-interpolation-filters="sRGB">
<feFlood flood-opacity="0" result="BackgroundImageFix"/>
<feColorMatrix in="SourceAlpha" type="matrix" values="0 0 0 0 0 0 0 0 0 0 0 0 0 0 0 0 0 0 127 0" result="hardAlpha"/>
<feOffset dy="2.17843"/>
<feGaussianBlur stdDeviation="2.17843"/>
<feColorMatrix type="matrix" values="0 0 0 0 0 0 0 0 0 0 0 0 0 0 0 0 0 0 0.161 0"/>
<feBlend mode="normal" in2="BackgroundImageFix" result="effect1_dropShadow_145_4283"/>
<feBlend mode="normal" in="SourceGraphic" in2="effect1_dropShadow_145_4283" result="shape"/>
</filter>
<filter id="filter1_d_145_4283" x="0.885698" y="66.4739" width="114.004" height="34.1287" filterUnits="userSpaceOnUse" color-interpolation-filters="sRGB">
<feFlood flood-opacity="0" result="BackgroundImageFix"/>
<feColorMatrix in="SourceAlpha" type="matrix" values="0 0 0 0 0 0 0 0 0 0 0 0 0 0 0 0 0 0 127 0" result="hardAlpha"/>
<feOffset dy="2.17843"/>
<feGaussianBlur stdDeviation="2.17843"/>
<feColorMatrix type="matrix" values="0 0 0 0 0 0 0 0 0 0 0 0 0 0 0 0 0 0 0.161 0"/>
<feBlend mode="normal" in2="BackgroundImageFix" result="effect1_dropShadow_145_4283"/>
<feBlend mode="normal" in="SourceGraphic" in2="effect1_dropShadow_145_4283" result="shape"/>
</filter>
<filter id="filter2_d_145_4283" x="27.5853" y="0.521361" width="91.8291" height="91.8296" filterUnits="userSpaceOnUse" color-interpolation-filters="sRGB">
<feFlood flood-opacity="0" result="BackgroundImageFix"/>
<feColorMatrix in="SourceAlpha" type="matrix" values="0 0 0 0 0 0 0 0 0 0 0 0 0 0 0 0 0 0 127 0" result="hardAlpha"/>
<feOffset dy="11.4786"/>
<feGaussianBlur stdDeviation="11.4786"/>
<feComposite in2="hardAlpha" operator="out"/>
<feColorMatrix type="matrix" values="0 0 0 0 0 0 0 0 0 0 0 0 0 0 0 0 0 0 0.25 0"/>
<feBlend mode="normal" in2="BackgroundImageFix" result="effect1_dropShadow_145_4283"/>
<feBlend mode="normal" in="SourceGraphic" in2="effect1_dropShadow_145_4283" result="shape"/>
</filter>
<linearGradient id="paint0_linear_145_4283" x1="18.4024" y1="56.6011" x2="92.9276" y2="157.511" gradientUnits="userSpaceOnUse">
<stop stop-color="#7460FF"/>
<stop offset="0.486792" stop-color="#3FAFFF"/>
<stop offset="1" stop-color="#D3E7FF"/>
</linearGradient>
</defs>
</svg>
