<svg width="359" height="75" viewBox="0 0 359 75" fill="none" xmlns="http://www.w3.org/2000/svg">
<g filter="url(#filter0_d_507_4008)">
<rect x="12" y="6.5" width="335" height="50" rx="10" fill="white" shape-rendering="crispEdges"/>
<rect x="12.75" y="7.25" width="333.5" height="48.5" rx="9.25" stroke="#0094FE" stroke-width="1.5" stroke-dasharray="4 3" shape-rendering="crispEdges"/>
<path d="M91.9787 36.5H90.348L94.0121 26.3182H95.7869L99.451 36.5H97.8203L94.9418 28.1676H94.8622L91.9787 36.5ZM92.2521 32.5128H97.5419V33.8054H92.2521V32.5128ZM103.538 36.6491C102.921 36.6491 102.371 36.4917 101.887 36.1768C101.406 35.8587 101.029 35.4062 100.754 34.8196C100.482 34.2296 100.346 33.522 100.346 32.6967C100.346 31.8714 100.483 31.1655 100.759 30.5788C101.037 29.9922 101.418 29.5431 101.902 29.2315C102.386 28.92 102.934 28.7642 103.548 28.7642C104.022 28.7642 104.403 28.8438 104.691 29.0028C104.983 29.1586 105.208 29.3409 105.367 29.5497C105.53 29.7585 105.656 29.9425 105.745 30.1016H105.835V26.3182H107.321V36.5H105.869V35.3118H105.745C105.656 35.4742 105.526 35.6598 105.357 35.8686C105.192 36.0774 104.963 36.2597 104.671 36.4155C104.379 36.5713 104.002 36.6491 103.538 36.6491ZM103.866 35.3814C104.293 35.3814 104.655 35.2687 104.95 35.0433C105.248 34.8146 105.473 34.4981 105.626 34.0938C105.781 33.6894 105.859 33.2187 105.859 32.6818C105.859 32.1515 105.783 31.6875 105.631 31.2898C105.478 30.892 105.254 30.5821 104.96 30.3601C104.665 30.138 104.3 30.027 103.866 30.027C103.418 30.027 103.045 30.143 102.747 30.375C102.449 30.607 102.223 30.9235 102.071 31.3246C101.922 31.7256 101.847 32.178 101.847 32.6818C101.847 33.1922 101.924 33.6513 102.076 34.0589C102.228 34.4666 102.454 34.7898 102.752 35.0284C103.054 35.2637 103.425 35.3814 103.866 35.3814ZM112.301 36.6491C111.685 36.6491 111.135 36.4917 110.651 36.1768C110.17 35.8587 109.792 35.4062 109.517 34.8196C109.245 34.2296 109.11 33.522 109.11 32.6967C109.11 31.8714 109.247 31.1655 109.522 30.5788C109.801 29.9922 110.182 29.5431 110.666 29.2315C111.15 28.92 111.698 28.7642 112.311 28.7642C112.785 28.7642 113.166 28.8438 113.455 29.0028C113.746 29.1586 113.972 29.3409 114.131 29.5497C114.293 29.7585 114.419 29.9425 114.509 30.1016H114.598V26.3182H116.085V36.5H114.633V35.3118H114.509C114.419 35.4742 114.29 35.6598 114.121 35.8686C113.955 36.0774 113.727 36.2597 113.435 36.4155C113.143 36.5713 112.765 36.6491 112.301 36.6491ZM112.629 35.3814C113.057 35.3814 113.418 35.2687 113.713 35.0433C114.012 34.8146 114.237 34.4981 114.389 34.0938C114.545 33.6894 114.623 33.2187 114.623 32.6818C114.623 32.1515 114.547 31.6875 114.394 31.2898C114.242 30.892 114.018 30.5821 113.723 30.3601C113.428 30.138 113.064 30.027 112.629 30.027C112.182 30.027 111.809 30.143 111.511 30.375C111.213 30.607 110.987 30.9235 110.835 31.3246C110.686 31.7256 110.611 32.178 110.611 32.6818C110.611 33.1922 110.687 33.6513 110.84 34.0589C110.992 34.4666 111.218 34.7898 111.516 35.0284C111.817 35.2637 112.189 35.3814 112.629 35.3814ZM121.911 36.5V28.8636H123.338V30.1065H123.433C123.592 29.6856 123.852 29.3575 124.213 29.1222C124.575 28.8835 125.007 28.7642 125.511 28.7642C126.021 28.7642 126.449 28.8835 126.794 29.1222C127.142 29.3608 127.398 29.6889 127.564 30.1065H127.644C127.826 29.6989 128.116 29.3741 128.514 29.1321C128.911 28.8868 129.385 28.7642 129.936 28.7642C130.628 28.7642 131.193 28.9813 131.631 29.4155C132.072 29.8497 132.292 30.5043 132.292 31.3793V36.5H130.806V31.5185C130.806 31.0014 130.665 30.6269 130.383 30.3949C130.101 30.1629 129.765 30.0469 129.374 30.0469C128.89 30.0469 128.514 30.196 128.245 30.4943C127.977 30.7893 127.843 31.1688 127.843 31.6328V36.5H126.361V31.424C126.361 31.0097 126.232 30.6766 125.973 30.4247C125.715 30.1728 125.378 30.0469 124.964 30.0469C124.682 30.0469 124.422 30.1214 124.183 30.2706C123.948 30.4164 123.758 30.6203 123.612 30.8821C123.469 31.1439 123.398 31.4472 123.398 31.7919V36.5H121.911ZM137.501 36.6541C136.785 36.6541 136.16 36.4901 135.627 36.1619C135.093 35.8338 134.679 35.3748 134.384 34.7848C134.089 34.1948 133.941 33.5054 133.941 32.7166C133.941 31.9245 134.089 31.2318 134.384 30.6385C134.679 30.0452 135.093 29.5845 135.627 29.2564C136.16 28.9283 136.785 28.7642 137.501 28.7642C138.217 28.7642 138.842 28.9283 139.375 29.2564C139.909 29.5845 140.323 30.0452 140.618 30.6385C140.913 31.2318 141.061 31.9245 141.061 32.7166C141.061 33.5054 140.913 34.1948 140.618 34.7848C140.323 35.3748 139.909 35.8338 139.375 36.1619C138.842 36.4901 138.217 36.6541 137.501 36.6541ZM137.506 35.4062C137.97 35.4062 138.355 35.2836 138.659 35.0384C138.964 34.7931 139.19 34.4666 139.336 34.0589C139.485 33.6513 139.559 33.2022 139.559 32.7116C139.559 32.2244 139.485 31.777 139.336 31.3693C139.19 30.9583 138.964 30.6286 138.659 30.38C138.355 30.1314 137.97 30.0071 137.506 30.0071C137.039 30.0071 136.651 30.1314 136.343 30.38C136.038 30.6286 135.811 30.9583 135.662 31.3693C135.516 31.777 135.443 32.2244 135.443 32.7116C135.443 33.2022 135.516 33.6513 135.662 34.0589C135.811 34.4666 136.038 34.7931 136.343 35.0384C136.651 35.2836 137.039 35.4062 137.506 35.4062ZM144.206 31.9659V36.5H142.72V28.8636H144.147V30.1065H144.241C144.417 29.7022 144.692 29.3774 145.067 29.1321C145.444 28.8868 145.92 28.7642 146.493 28.7642C147.014 28.7642 147.47 28.8736 147.861 29.0923C148.252 29.3078 148.555 29.6293 148.77 30.0568C148.986 30.4844 149.094 31.013 149.094 31.6428V36.5H147.607V31.8217C147.607 31.2682 147.463 30.8357 147.175 30.5241C146.886 30.2093 146.49 30.0518 145.986 30.0518C145.642 30.0518 145.335 30.1264 145.067 30.2756C144.801 30.4247 144.591 30.6435 144.435 30.9318C144.283 31.2169 144.206 31.5616 144.206 31.9659ZM154.378 36.6541C153.626 36.6541 152.978 36.4934 152.434 36.1719C151.894 35.8471 151.477 35.3913 151.182 34.8047C150.89 34.2147 150.744 33.5237 150.744 32.7315C150.744 31.9493 150.89 31.2599 151.182 30.6634C151.477 30.0668 151.888 29.6011 152.415 29.2663C152.945 28.9316 153.565 28.7642 154.274 28.7642C154.705 28.7642 155.122 28.8355 155.527 28.978C155.931 29.1205 156.294 29.3442 156.616 29.6491C156.937 29.9541 157.191 30.3501 157.376 30.8374C157.562 31.3213 157.655 31.9096 157.655 32.6023V33.1293H151.584V32.0156H156.198C156.198 31.6245 156.118 31.2782 155.959 30.9766C155.8 30.6716 155.577 30.4313 155.288 30.2557C155.003 30.08 154.668 29.9922 154.284 29.9922C153.866 29.9922 153.502 30.0949 153.19 30.3004C152.882 30.5026 152.643 30.7678 152.474 31.0959C152.309 31.4207 152.226 31.7737 152.226 32.1548V33.0249C152.226 33.5353 152.315 33.9695 152.494 34.3274C152.676 34.6854 152.93 34.9588 153.255 35.1477C153.58 35.3333 153.959 35.4261 154.393 35.4261C154.675 35.4261 154.932 35.3864 155.164 35.3068C155.396 35.224 155.596 35.1013 155.765 34.9389C155.934 34.7765 156.064 34.576 156.153 34.3374L157.56 34.5909C157.448 35.0052 157.245 35.3681 156.954 35.6797C156.665 35.9879 156.302 36.2282 155.865 36.4006C155.431 36.5696 154.935 36.6541 154.378 36.6541ZM160.025 39.3636C159.803 39.3636 159.601 39.3454 159.418 39.3089C159.236 39.2758 159.1 39.2393 159.011 39.1996L159.369 37.9815C159.64 38.0545 159.882 38.0859 160.094 38.076C160.307 38.0661 160.494 37.9865 160.656 37.8374C160.822 37.6882 160.968 37.4446 161.094 37.1065L161.278 36.5994L158.484 28.8636H160.075L162.009 34.7898H162.088L164.022 28.8636H165.618L162.471 37.5192C162.325 37.9169 162.139 38.2533 161.914 38.5284C161.689 38.8068 161.42 39.0156 161.109 39.1548C160.797 39.294 160.436 39.3636 160.025 39.3636ZM174.354 28.8636V30.0568H170.039V28.8636H174.354ZM171.222 36.5V27.9787C171.222 27.5014 171.327 27.1053 171.535 26.7905C171.744 26.4723 172.021 26.2353 172.366 26.0795C172.71 25.9205 173.085 25.8409 173.489 25.8409C173.787 25.8409 174.043 25.8658 174.255 25.9155C174.467 25.9619 174.624 26.005 174.727 26.0447L174.379 27.2479C174.309 27.228 174.22 27.2048 174.111 27.1783C174.001 27.1484 173.869 27.1335 173.713 27.1335C173.352 27.1335 173.093 27.223 172.937 27.402C172.785 27.581 172.709 27.8395 172.709 28.1776V36.5H171.222ZM175.888 36.5V28.8636H177.325V30.0767H177.404C177.544 29.6657 177.789 29.3426 178.14 29.1072C178.495 28.8686 178.896 28.7493 179.343 28.7493C179.436 28.7493 179.545 28.7526 179.671 28.7592C179.801 28.7659 179.902 28.7741 179.975 28.7841V30.206C179.915 30.1894 179.809 30.1712 179.656 30.1513C179.504 30.1281 179.352 30.1165 179.199 30.1165C178.848 30.1165 178.535 30.1911 178.259 30.3402C177.988 30.486 177.772 30.6899 177.613 30.9517C177.454 31.2102 177.374 31.5052 177.374 31.8366V36.5H175.888ZM184.204 36.6541C183.488 36.6541 182.864 36.4901 182.33 36.1619C181.796 35.8338 181.382 35.3748 181.087 34.7848C180.792 34.1948 180.645 33.5054 180.645 32.7166C180.645 31.9245 180.792 31.2318 181.087 30.6385C181.382 30.0452 181.796 29.5845 182.33 29.2564C182.864 28.9283 183.488 28.7642 184.204 28.7642C184.92 28.7642 185.545 28.9283 186.078 29.2564C186.612 29.5845 187.026 30.0452 187.321 30.6385C187.616 31.2318 187.764 31.9245 187.764 32.7166C187.764 33.5054 187.616 34.1948 187.321 34.7848C187.026 35.3748 186.612 35.8338 186.078 36.1619C185.545 36.4901 184.92 36.6541 184.204 36.6541ZM184.209 35.4062C184.673 35.4062 185.058 35.2836 185.363 35.0384C185.667 34.7931 185.893 34.4666 186.039 34.0589C186.188 33.6513 186.262 33.2022 186.262 32.7116C186.262 32.2244 186.188 31.777 186.039 31.3693C185.893 30.9583 185.667 30.6286 185.363 30.38C185.058 30.1314 184.673 30.0071 184.209 30.0071C183.742 30.0071 183.354 30.1314 183.046 30.38C182.741 30.6286 182.514 30.9583 182.365 31.3693C182.219 31.777 182.146 32.2244 182.146 32.7116C182.146 33.2022 182.219 33.6513 182.365 34.0589C182.514 34.4666 182.741 34.7931 183.046 35.0384C183.354 35.2836 183.742 35.4062 184.209 35.4062ZM189.423 36.5V28.8636H190.85V30.1065H190.944C191.104 29.6856 191.364 29.3575 191.725 29.1222C192.086 28.8835 192.519 28.7642 193.023 28.7642C193.533 28.7642 193.961 28.8835 194.305 29.1222C194.653 29.3608 194.91 29.6889 195.076 30.1065H195.155C195.338 29.6989 195.628 29.3741 196.025 29.1321C196.423 28.8868 196.897 28.7642 197.447 28.7642C198.14 28.7642 198.705 28.9813 199.143 29.4155C199.583 29.8497 199.804 30.5043 199.804 31.3793V36.5H198.317V31.5185C198.317 31.0014 198.176 30.6269 197.895 30.3949C197.613 30.1629 197.277 30.0469 196.885 30.0469C196.402 30.0469 196.025 30.196 195.757 30.4943C195.488 30.7893 195.354 31.1688 195.354 31.6328V36.5H193.873V31.424C193.873 31.0097 193.743 30.6766 193.485 30.4247C193.226 30.1728 192.89 30.0469 192.476 30.0469C192.194 30.0469 191.934 30.1214 191.695 30.2706C191.46 30.4164 191.269 30.6203 191.123 30.8821C190.981 31.1439 190.91 31.4472 190.91 31.7919V36.5H189.423ZM206.988 31.9659V36.5H205.501V28.8636H206.928V30.1065H207.023C207.198 29.7022 207.473 29.3774 207.848 29.1321C208.226 28.8868 208.701 28.7642 209.275 28.7642C209.795 28.7642 210.251 28.8736 210.642 29.0923C211.033 29.3078 211.336 29.6293 211.552 30.0568C211.767 30.4844 211.875 31.013 211.875 31.6428V36.5H210.388V31.8217C210.388 31.2682 210.244 30.8357 209.956 30.5241C209.667 30.2093 209.271 30.0518 208.768 30.0518C208.423 30.0518 208.116 30.1264 207.848 30.2756C207.583 30.4247 207.372 30.6435 207.216 30.9318C207.064 31.2169 206.988 31.5616 206.988 31.9659ZM217.16 36.6541C216.407 36.6541 215.759 36.4934 215.216 36.1719C214.675 35.8471 214.258 35.3913 213.963 34.8047C213.671 34.2147 213.525 33.5237 213.525 32.7315C213.525 31.9493 213.671 31.2599 213.963 30.6634C214.258 30.0668 214.669 29.6011 215.196 29.2663C215.726 28.9316 216.346 28.7642 217.055 28.7642C217.486 28.7642 217.904 28.8355 218.308 28.978C218.712 29.1205 219.075 29.3442 219.397 29.6491C219.718 29.9541 219.972 30.3501 220.157 30.8374C220.343 31.3213 220.436 31.9096 220.436 32.6023V33.1293H214.366V32.0156H218.979C218.979 31.6245 218.9 31.2782 218.741 30.9766C218.581 30.6716 218.358 30.4313 218.069 30.2557C217.784 30.08 217.45 29.9922 217.065 29.9922C216.648 29.9922 216.283 30.0949 215.971 30.3004C215.663 30.5026 215.425 30.7678 215.256 31.0959C215.09 31.4207 215.007 31.7737 215.007 32.1548V33.0249C215.007 33.5353 215.096 33.9695 215.275 34.3274C215.458 34.6854 215.711 34.9588 216.036 35.1477C216.361 35.3333 216.74 35.4261 217.175 35.4261C217.456 35.4261 217.713 35.3864 217.945 35.3068C218.177 35.224 218.378 35.1013 218.547 34.9389C218.716 34.7765 218.845 34.576 218.934 34.3374L220.341 34.5909C220.229 35.0052 220.027 35.3681 219.735 35.6797C219.447 35.9879 219.084 36.2282 218.646 36.4006C218.212 36.5696 217.716 36.6541 217.16 36.6541ZM223.727 36.5L221.48 28.8636H223.016L224.513 34.4716H224.587L226.089 28.8636H227.625L229.116 34.4467H229.191L230.677 28.8636H232.214L229.971 36.5H228.455L226.904 30.9865H226.79L225.238 36.5H223.727ZM245.905 29.6293H244.354C244.295 29.2978 244.184 29.0062 244.021 28.7543C243.859 28.5024 243.66 28.2886 243.425 28.1129C243.189 27.9373 242.926 27.8047 242.634 27.7152C242.346 27.6257 242.039 27.581 241.714 27.581C241.128 27.581 240.602 27.7285 240.138 28.0234C239.678 28.3184 239.313 28.7509 239.045 29.321C238.779 29.8911 238.647 30.5871 238.647 31.4091C238.647 32.2377 238.779 32.937 239.045 33.5071C239.313 34.0772 239.679 34.508 240.143 34.7997C240.607 35.0914 241.129 35.2372 241.709 35.2372C242.031 35.2372 242.336 35.1941 242.624 35.108C242.916 35.0185 243.179 34.8875 243.415 34.7152C243.65 34.5429 243.849 34.3324 244.011 34.0838C244.177 33.8319 244.291 33.5436 244.354 33.2188L245.905 33.2237C245.823 33.7242 245.662 34.1849 245.423 34.6058C245.188 35.0234 244.885 35.3847 244.513 35.6896C244.145 35.9912 243.724 36.2249 243.251 36.3906C242.777 36.5563 242.26 36.6392 241.699 36.6392C240.818 36.6392 240.032 36.4304 239.343 36.0128C238.653 35.5919 238.11 34.9903 237.712 34.2081C237.318 33.4259 237.121 32.4929 237.121 31.4091C237.121 30.322 237.319 29.389 237.717 28.6101C238.115 27.8279 238.658 27.228 239.348 26.8104C240.037 26.3894 240.821 26.179 241.699 26.179C242.24 26.179 242.743 26.2569 243.211 26.4126C243.681 26.5651 244.104 26.7905 244.479 27.0888C244.853 27.3838 245.163 27.745 245.408 28.1726C245.653 28.5968 245.819 29.0824 245.905 29.6293ZM249.847 36.669C249.363 36.669 248.925 36.5795 248.534 36.4006C248.143 36.2183 247.833 35.9548 247.604 35.6101C247.379 35.2654 247.266 34.8428 247.266 34.3423C247.266 33.9115 247.349 33.5568 247.515 33.2784C247.681 33 247.904 32.7796 248.186 32.6172C248.468 32.4548 248.783 32.3321 249.131 32.2493C249.479 32.1664 249.833 32.1035 250.195 32.0604C250.652 32.0073 251.023 31.9643 251.308 31.9311C251.593 31.8946 251.8 31.8366 251.93 31.7571C252.059 31.6776 252.124 31.5483 252.124 31.3693V31.3345C252.124 30.9003 252.001 30.5639 251.756 30.3253C251.514 30.0866 251.152 29.9673 250.672 29.9673C250.171 29.9673 249.777 30.0784 249.489 30.3004C249.204 30.5192 249.006 30.7628 248.897 31.0312L247.5 30.7131C247.666 30.2491 247.908 29.8745 248.226 29.5895C248.547 29.3011 248.917 29.0923 249.335 28.9631C249.752 28.8305 250.191 28.7642 250.652 28.7642C250.957 28.7642 251.28 28.8007 251.621 28.8736C251.966 28.9432 252.288 29.0724 252.586 29.2614C252.888 29.4503 253.134 29.7204 253.327 30.0717C253.519 30.4197 253.615 30.8722 253.615 31.429V36.5H252.163V35.456H252.104C252.008 35.6482 251.863 35.8371 251.671 36.0227C251.479 36.2083 251.232 36.3625 250.93 36.4851C250.629 36.6077 250.268 36.669 249.847 36.669ZM250.17 35.4759C250.581 35.4759 250.932 35.3946 251.224 35.2322C251.519 35.0698 251.742 34.8577 251.895 34.5959C252.051 34.3307 252.129 34.0473 252.129 33.7457V32.7614C252.076 32.8144 251.973 32.8641 251.82 32.9105C251.671 32.9536 251.5 32.9917 251.308 33.0249C251.116 33.0547 250.929 33.0829 250.746 33.1094C250.564 33.1326 250.412 33.1525 250.289 33.169C250.001 33.2055 249.737 33.2668 249.499 33.353C249.263 33.4392 249.074 33.5634 248.932 33.7259C248.793 33.8849 248.723 34.0971 248.723 34.3622C248.723 34.7301 248.859 35.0085 249.131 35.1974C249.402 35.383 249.749 35.4759 250.17 35.4759ZM255.595 36.5V28.8636H257.032V30.0767H257.111C257.251 29.6657 257.496 29.3426 257.847 29.1072C258.202 28.8686 258.603 28.7493 259.05 28.7493C259.143 28.7493 259.252 28.7526 259.378 28.7592C259.508 28.7659 259.609 28.7741 259.682 28.7841V30.206C259.622 30.1894 259.516 30.1712 259.363 30.1513C259.211 30.1281 259.059 30.1165 258.906 30.1165C258.555 30.1165 258.242 30.1911 257.966 30.3402C257.695 30.486 257.479 30.6899 257.32 30.9517C257.161 31.2102 257.081 31.5052 257.081 31.8366V36.5H255.595ZM263.553 36.6491C262.937 36.6491 262.387 36.4917 261.903 36.1768C261.422 35.8587 261.044 35.4062 260.769 34.8196C260.497 34.2296 260.362 33.522 260.362 32.6967C260.362 31.8714 260.499 31.1655 260.774 30.5788C261.053 29.9922 261.434 29.5431 261.918 29.2315C262.402 28.92 262.95 28.7642 263.563 28.7642C264.037 28.7642 264.418 28.8438 264.707 29.0028C264.998 29.1586 265.224 29.3409 265.383 29.5497C265.545 29.7585 265.671 29.9425 265.761 30.1016H265.85V26.3182H267.337V36.5H265.885V35.3118H265.761C265.671 35.4742 265.542 35.6598 265.373 35.8686C265.207 36.0774 264.978 36.2597 264.687 36.4155C264.395 36.5713 264.017 36.6491 263.553 36.6491ZM263.881 35.3814C264.309 35.3814 264.67 35.2687 264.965 35.0433C265.263 34.8146 265.489 34.4981 265.641 34.0938C265.797 33.6894 265.875 33.2187 265.875 32.6818C265.875 32.1515 265.799 31.6875 265.646 31.2898C265.494 30.892 265.27 30.5821 264.975 30.3601C264.68 30.138 264.316 30.027 263.881 30.027C263.434 30.027 263.061 30.143 262.763 30.375C262.464 30.607 262.239 30.9235 262.087 31.3246C261.938 31.7256 261.863 32.178 261.863 32.6818C261.863 33.1922 261.939 33.6513 262.092 34.0589C262.244 34.4666 262.469 34.7898 262.768 35.0284C263.069 35.2637 263.441 35.3814 263.881 35.3814Z" fill="#0094FE"/>
</g>
<defs>
<filter id="filter0_d_507_4008" x="0" y="0.5" width="359" height="74" filterUnits="userSpaceOnUse" color-interpolation-filters="sRGB">
<feFlood flood-opacity="0" result="BackgroundImageFix"/>
<feColorMatrix in="SourceAlpha" type="matrix" values="0 0 0 0 0 0 0 0 0 0 0 0 0 0 0 0 0 0 127 0" result="hardAlpha"/>
<feOffset dy="6"/>
<feGaussianBlur stdDeviation="6"/>
<feComposite in2="hardAlpha" operator="out"/>
<feColorMatrix type="matrix" values="0 0 0 0 0 0 0 0 0 0 0 0 0 0 0 0 0 0 0.06 0"/>
<feBlend mode="normal" in2="BackgroundImageFix" result="effect1_dropShadow_507_4008"/>
<feBlend mode="normal" in="SourceGraphic" in2="effect1_dropShadow_507_4008" result="shape"/>
</filter>
</defs>
</svg>
