<svg width="249" height="53" viewBox="0 0 249 53" fill="none" xmlns="http://www.w3.org/2000/svg">
<rect width="249" height="53" fill="#F5F5F5"/>
<g id="iPhone 13 mini - 10">
<rect width="375" height="812" transform="translate(-63 -380)" fill="#221994"/>
<g id="Group 35057">
<g id="Group 35056">
<path id="Vector" d="M41.1842 22.1377C39.5989 16.9978 35.8279 13.0216 30.6003 11.4503C28.2143 10.7329 25.5668 10.6942 23.1195 11.0936C23.1017 11.0966 23.0834 11.0956 23.066 11.0908C23.0486 11.0861 23.0324 11.0776 23.0186 11.0659C23.0048 11.0543 22.9937 11.0398 22.9861 11.0235C22.9785 11.0072 22.9745 10.9894 22.9744 10.9713V0.881005C22.9744 0.864717 22.9804 0.848995 22.9914 0.836926C23.0023 0.824857 23.0174 0.817319 23.0337 0.815792C29.1145 0.184 34.6696 1.41157 39.699 4.49852C45.897 8.30558 50.4259 14.8151 51.5842 22.0705C51.5874 22.0903 51.5864 22.1106 51.5811 22.13C51.5759 22.1494 51.5665 22.1674 51.5537 22.1827C51.5408 22.198 51.5249 22.2103 51.5068 22.2187C51.4888 22.2272 51.4692 22.2315 51.4494 22.2315L41.3047 22.2274C41.2781 22.2276 41.252 22.219 41.2303 22.2028C41.2086 22.1867 41.1924 22.1639 41.1842 22.1377Z" fill="#13B8FF"/>
<path id="Vector_2" d="M18.7681 37.3231C15.723 35.3979 13.8225 32.5562 13.0666 28.798C12.9291 28.1146 12.8548 26.9258 12.8439 25.2315C12.8017 18.0494 12.769 10.8789 12.7459 3.71998C12.7445 3.63438 12.782 3.5712 12.8582 3.53044C15.3137 2.22337 17.9231 1.38914 20.6863 1.02772C20.8103 1.01142 20.8722 1.06577 20.8722 1.19077C20.8627 9.75189 20.8498 18.3429 20.8334 26.9638C20.8253 30.6955 24.868 33.0575 28.1651 31.1948C31.119 29.5256 31.3274 25.0705 28.3102 23.3116C26.6698 22.3558 24.6944 22.3904 23.0601 23.3911C23.0442 23.401 23.026 23.4064 23.0073 23.4069C22.9885 23.4073 22.9701 23.4027 22.9538 23.3935C22.9374 23.3843 22.9239 23.3709 22.9146 23.3547C22.9053 23.3385 22.9005 23.3201 22.9008 23.3014L22.913 14.3178C22.913 14.2009 22.9716 14.133 23.0887 14.114C27.2915 13.4333 30.9284 14.3123 33.9994 16.7512C39.5886 21.188 40.4813 29.226 35.8625 34.6778C31.6012 39.7097 24.3185 40.8306 18.7681 37.3231Z" fill="#FFB119"/>
<path id="Vector_3" d="M51.4432 31.7143C48.238 46.5023 33.1252 55.6246 18.5496 51.0899C6.19259 47.2442 -1.73969 34.7571 0.756639 21.8441C1.98642 15.4895 5.26311 9.50784 10.219 5.24018C10.23 5.23086 10.2434 5.22486 10.2576 5.22288C10.2719 5.22091 10.2865 5.22305 10.2996 5.22905C10.3127 5.23504 10.3238 5.24464 10.3316 5.25673C10.3394 5.26881 10.3436 5.28287 10.3436 5.29725C10.394 12.4562 10.4505 19.5934 10.5132 26.7089C10.6112 38.1015 22.8334 45.4894 32.9781 40.4758C36.7424 38.6158 39.4198 35.6042 41.0105 31.4412C41.0473 31.3407 41.1194 31.2917 41.227 31.2945L51.3308 31.5716C51.3482 31.5722 51.3652 31.5765 51.3807 31.5843C51.3962 31.5921 51.4097 31.6032 51.4204 31.6168C51.4312 31.6304 51.4388 31.6462 51.4427 31.663C51.4466 31.6799 51.4468 31.6974 51.4432 31.7143Z" fill="#13B8FF"/>
<path id="Vector_4" d="M131.362 21.1206C133.348 18.6057 137.391 17.8047 140.275 18.8889C143.119 19.9569 144.77 22.4555 144.806 25.5024C144.868 30.3869 144.872 35.2693 144.819 40.1498C144.819 40.2449 144.77 40.2924 144.674 40.2924L139.675 40.3046C139.652 40.3047 139.63 40.3001 139.609 40.2914C139.588 40.2826 139.569 40.2698 139.553 40.2537C139.538 40.2375 139.525 40.2184 139.517 40.1974C139.509 40.1764 139.505 40.154 139.505 40.1314C139.599 36.092 139.585 32.0594 139.462 28.0336C139.407 26.234 139.082 24.3427 137.215 23.5561C135.428 22.804 133.072 23.7782 133.009 25.9446C133.008 25.9645 133.002 25.9837 132.992 26.0006C132.981 26.0175 132.966 26.0314 132.949 26.041C132.932 26.0506 132.912 26.0556 132.892 26.0555C132.872 26.0554 132.853 26.0502 132.835 26.0404C132.233 25.698 131.759 25.23 131.412 24.6362C131.405 24.6245 131.394 24.6154 131.382 24.6102C131.369 24.6051 131.356 24.6042 131.343 24.6077C131.329 24.6111 131.318 24.6188 131.31 24.6295C131.302 24.6402 131.297 24.6533 131.297 24.6668L131.299 40.1029C131.299 40.2374 131.232 40.3046 131.097 40.3046L126.088 40.3006C126.072 40.3006 126.056 40.2974 126.041 40.2911C126.026 40.2849 126.013 40.2757 126.001 40.2642C125.99 40.2526 125.981 40.2389 125.975 40.2238C125.969 40.2087 125.965 40.1926 125.965 40.1763C125.965 31.7469 125.971 23.3006 125.984 14.8373C125.988 11.8333 128.715 10.8061 131.195 10.7613C131.209 10.761 131.223 10.7635 131.235 10.7686C131.248 10.7737 131.26 10.7813 131.27 10.791C131.28 10.8006 131.288 10.8122 131.293 10.8249C131.298 10.8377 131.301 10.8514 131.301 10.8652L131.297 21.0982C131.297 21.1688 131.319 21.1763 131.362 21.1206Z" fill="#13B8FF"/>
<path id="Vector_5" d="M154.51 38.1261C154.501 38.1192 154.49 38.1149 154.479 38.1137C154.468 38.1125 154.457 38.1144 154.447 38.1193C154.437 38.1243 154.428 38.1319 154.423 38.1414C154.417 38.1509 154.414 38.1618 154.414 38.173L154.424 40.101C154.424 40.1261 154.419 40.151 154.41 40.1743C154.4 40.1975 154.386 40.2186 154.368 40.2364C154.351 40.2542 154.33 40.2683 154.307 40.278C154.284 40.2876 154.259 40.2925 154.234 40.2925L149.213 40.2844C149.171 40.2844 149.131 40.2678 149.101 40.2384C149.072 40.209 149.055 40.1691 149.055 40.1275C149.06 31.7878 149.068 23.4427 149.08 15.0922C149.082 12.1717 151.809 10.9183 154.297 10.7532C154.314 10.7521 154.33 10.7544 154.345 10.7599C154.36 10.7654 154.374 10.7741 154.386 10.7854C154.398 10.7967 154.408 10.8103 154.414 10.8255C154.421 10.8406 154.424 10.8569 154.424 10.8735C154.416 16.3245 154.417 21.779 154.428 27.2369C154.432 29.5276 154.571 31.0765 155.421 32.9536C156.961 36.3489 161.412 36.94 164.013 34.3863C165.905 32.5276 166.238 29.4196 165.3 27.0147C163.993 23.6621 160.781 22.7817 157.547 23.7437C156.805 23.9651 156.173 24.3748 155.65 24.9726C155.637 24.9872 155.62 24.9982 155.602 25.0044C155.583 25.0106 155.563 25.0118 155.544 25.0078C155.525 25.0039 155.508 24.995 155.493 24.982C155.479 24.969 155.468 24.9524 155.462 24.9339C154.565 22.2253 155.932 19.635 158.622 18.7708C161.551 17.8272 164.928 18.8075 167.247 20.7987C173.661 26.3136 172.096 38.4603 163.331 40.5697C159.956 41.3808 157.192 40.3333 154.51 38.1261Z" fill="#FFB119"/>
<path id="Vector_6" d="M206.267 38.2282L206.295 40.0543C206.296 40.0843 206.29 40.1142 206.279 40.1421C206.268 40.17 206.251 40.1954 206.23 40.2169C206.209 40.2383 206.183 40.2553 206.155 40.267C206.127 40.2786 206.097 40.2846 206.067 40.2846L201.174 40.2825C201.13 40.2825 201.087 40.2649 201.056 40.2336C201.024 40.2022 201.007 40.1597 201.007 40.1154C201.004 31.8057 201.004 23.4646 201.007 15.0924C201.009 12.3451 203.699 10.7799 206.201 10.7901C206.228 10.7906 206.254 10.8016 206.272 10.8206C206.291 10.8397 206.302 10.8653 206.302 10.892C206.291 16.1583 206.29 21.4185 206.3 26.6725C206.306 29.3648 206.461 31.5067 207.648 33.5754C209.229 36.3349 213.255 36.6406 215.566 34.7187C219.206 31.6881 218.199 24.5468 213.18 23.5115C211.699 23.2079 208.796 23.4096 207.754 24.8077C207.52 25.1229 207.36 25.089 207.276 24.7058C206.326 20.4137 209.754 18.1107 213.621 18.449C218.317 18.8607 221.896 22.5598 222.822 27.0129C223.929 32.3281 221.717 38.2669 216.309 40.2499C212.824 41.5278 209.19 40.6494 206.471 38.1365C206.332 38.0074 206.264 38.038 206.267 38.2282Z" fill="#FFB119"/>
<path id="Vector_7" d="M72.8642 23.5724C68.2842 21.6383 62.5704 24.3978 63.0668 30.0268C63.3957 33.7789 66.2741 35.9983 70.1207 35.6478C71.949 35.4827 73.3484 34.6267 74.5332 33.2938C74.589 33.2327 74.6503 33.2266 74.7171 33.2755L78.4615 36.0085C78.4796 36.022 78.4948 36.0388 78.5064 36.058C78.518 36.0772 78.5258 36.0983 78.5292 36.1203C78.5326 36.1422 78.5316 36.1645 78.5263 36.1859C78.521 36.2073 78.5115 36.2273 78.4983 36.2449C76.7987 38.5492 74.5659 39.9405 71.7999 40.4188C68.4292 41.0017 64.7705 40.4005 62.0658 38.285C57.0956 34.3984 56.5298 26.7048 60.5419 21.9216C62.1939 19.9515 64.3627 18.6967 67.0483 18.1573C70.6723 17.4318 76.3963 18.3652 77.3462 22.8367C77.6322 24.1838 77.1317 25.6838 75.9325 26.4582C75.9127 26.4714 75.8901 26.4798 75.8665 26.4828C75.8429 26.4858 75.819 26.4834 75.7965 26.4757C75.774 26.468 75.7535 26.4553 75.7367 26.4385C75.72 26.4217 75.7073 26.4012 75.6996 26.3788C75.2175 24.9868 74.2513 24.1593 72.8642 23.5724Z" fill="#13B8FF"/>
<path id="Vector_8" d="M98.2567 38.0793C98.2563 38.0666 98.2524 38.0542 98.2453 38.0437C98.2382 38.0332 98.2283 38.0249 98.2168 38.0199C98.2053 38.0149 98.1927 38.0135 98.1805 38.0157C98.1684 38.0179 98.1572 38.0237 98.1484 38.0324C92.4019 43.5351 83.7322 40.4658 81.6608 33.1778C80.3145 28.4393 81.4871 23.2464 85.3685 20.1119C87.3337 18.5243 89.7258 17.7111 92.2262 17.8986C95.5315 18.1493 98.4058 21.0066 97.2026 24.5385C97.196 24.5572 97.1845 24.5737 97.1694 24.5865C97.1544 24.5994 97.1361 24.608 97.1166 24.6115C97.0971 24.615 97.077 24.6133 97.0584 24.6066C97.0398 24.5999 97.0233 24.5883 97.0105 24.5732C96.5829 24.0501 96.0347 23.6676 95.3661 23.4258C92.0996 22.2376 88.7759 23.1608 87.2744 26.2974C85.6136 29.7661 87.0395 34.8795 91.2518 35.6825C96.0034 36.5895 98.0891 32.6479 98.1831 28.5942C98.2594 25.3062 98.2839 21.9754 98.2567 18.6017C98.2553 18.4822 98.322 18.4231 98.4569 18.4244L103.674 18.4265C103.693 18.4265 103.711 18.4301 103.728 18.4372C103.745 18.4442 103.761 18.4546 103.774 18.4677C103.787 18.4807 103.797 18.4962 103.804 18.5133C103.812 18.5303 103.815 18.5486 103.815 18.5671L103.813 40.1581C103.813 40.197 103.798 40.2343 103.77 40.2618C103.742 40.2893 103.705 40.3048 103.666 40.3048L98.4671 40.3028C98.3377 40.3028 98.2723 40.2375 98.271 40.1071L98.2567 38.0793Z" fill="#13B8FF"/>
<path id="Vector_9" d="M113.161 24.247C113.165 25.0377 114.021 25.5289 114.642 25.8305C117.612 27.2734 121.218 28.5717 122.311 32.0812C123.297 35.2442 121.739 38.5173 118.658 39.8583C114.662 41.5988 110.044 40.5574 107.31 37.1375C107.208 37.0112 107.212 36.8882 107.323 36.7687L110.456 33.3977C110.465 33.3882 110.476 33.3807 110.488 33.3756C110.5 33.3705 110.513 33.368 110.526 33.3682C110.539 33.3683 110.552 33.3713 110.564 33.3767C110.576 33.3821 110.586 33.39 110.595 33.3998C111.956 34.9466 113.888 36.0472 116.025 35.6335C117.598 35.3298 117.81 33.7442 116.699 32.7619C116.18 32.3026 115.606 31.9249 114.977 31.6287C112.756 30.5771 109.976 29.1464 108.73 27.0268C106.834 23.8067 108.424 19.9283 111.878 18.5608C114.264 17.6165 116.558 17.6716 118.76 18.7259C120.386 19.5044 121.408 21.412 120.754 23.1403C120.467 23.8984 119.925 24.5404 119.13 25.0662C118.994 25.1559 118.886 25.1294 118.805 24.9868C117.995 23.5234 116.694 22.8135 114.901 22.857C114.121 22.8774 113.157 23.3665 113.161 24.247Z" fill="#13B8FF"/>
<path id="Vector_10" d="M191.283 38.0123C191.283 38.0013 191.279 37.9906 191.273 37.9815C191.267 37.9724 191.258 37.9653 191.248 37.961C191.238 37.9567 191.227 37.9554 191.216 37.9572C191.205 37.9591 191.195 37.9641 191.187 37.9716C186.617 42.3798 179.594 41.5606 176.098 36.3269C174.501 33.9342 173.917 30.9342 174.168 28.0891C174.652 22.6231 179.083 17.6218 184.874 17.905C188.531 18.0844 191.254 20.7522 190.239 24.5613C190.232 24.5855 190.219 24.6075 190.2 24.6245C190.182 24.6416 190.159 24.653 190.134 24.6575C190.109 24.662 190.084 24.6594 190.061 24.6499C190.038 24.6404 190.018 24.6245 190.004 24.6041C189.224 23.5137 187.571 23.0878 186.329 22.9655C180.051 22.3459 177.845 29.6849 181.095 33.8792C182.578 35.7929 185.902 36.3717 188.024 35.1998C190.844 33.6428 191.289 29.7277 191.281 26.9111C191.273 24.1611 191.276 21.3677 191.291 18.5307C191.291 18.4573 191.328 18.4207 191.401 18.4207L196.627 18.4186C196.667 18.4186 196.705 18.4345 196.734 18.4628C196.762 18.4911 196.778 18.5294 196.778 18.5694L196.78 40.1482C196.78 40.1803 196.767 40.2111 196.744 40.2339C196.721 40.2568 196.69 40.2699 196.657 40.2705L191.469 40.2949C191.446 40.2952 191.423 40.2909 191.402 40.2823C191.381 40.2737 191.362 40.261 191.346 40.2449C191.33 40.2288 191.317 40.2096 191.308 40.1885C191.3 40.1673 191.295 40.1446 191.295 40.1217L191.283 38.0123Z" fill="#FFB119"/>
<path id="Vector_11" d="M243.219 38.0891C243.22 38.0722 243.215 38.0557 243.206 38.0415C243.197 38.0273 243.183 38.0161 243.168 38.0094C243.152 38.0026 243.135 38.0006 243.119 38.0035C243.102 38.0065 243.087 38.0143 243.074 38.0259C237.81 43.0354 229.543 40.975 226.987 34.3636C225.085 29.4478 225.99 23.7148 230.121 20.24C232.501 18.2366 236.313 17.0708 239.324 18.4424C241.503 19.437 243.103 22.0905 242.116 24.5402C242.11 24.5575 242.099 24.5727 242.084 24.5844C242.07 24.5962 242.053 24.6041 242.035 24.6074C242.016 24.6106 241.998 24.6092 241.98 24.6031C241.963 24.5971 241.947 24.5867 241.935 24.5728C240.39 22.8507 237.124 22.494 235.085 23.4132C229.626 25.8731 230.54 35.4315 237.064 35.778C241.559 36.0185 243.087 31.9322 243.148 28.1842C243.2 24.9451 243.216 21.7305 243.197 18.5402C243.197 18.5243 243.2 18.5084 243.206 18.4936C243.212 18.4788 243.221 18.4653 243.232 18.4539C243.244 18.4425 243.257 18.4335 243.272 18.4273C243.287 18.4211 243.303 18.418 243.32 18.418L248.566 18.4302C248.602 18.4307 248.637 18.4456 248.662 18.4715C248.688 18.4974 248.702 18.5324 248.702 18.5688V40.1536C248.702 40.185 248.69 40.2151 248.668 40.2372C248.645 40.2594 248.615 40.2718 248.584 40.2718L243.36 40.2963C243.338 40.2963 243.316 40.2919 243.296 40.2832C243.275 40.2746 243.257 40.262 243.241 40.246C243.226 40.2301 243.213 40.2112 243.205 40.1905C243.197 40.1697 243.193 40.1475 243.193 40.1251L243.219 38.0891Z" fill="#FFB119"/>
</g>
</g>
</g>
</svg>
