<svg width="273" height="86" viewBox="0 0 273 86" fill="none" xmlns="http://www.w3.org/2000/svg">
<g clip-path="url(#clip0_1608_43793)">
<path d="M66.6736 29.131C66.3737 30.1297 66.3171 31.1856 66.5084 32.2107C66.6997 33.2357 67.1334 34.2001 67.7732 35.0234C68.4131 35.8467 69.2406 36.505 70.1867 36.9434C71.1328 37.3818 72.17 37.5876 73.2118 37.5435C74.3062 37.5914 75.3958 37.3723 76.3868 36.9053C77.3777 36.4383 78.2403 35.7374 78.9 34.8629L83.2588 38.023C82.1543 39.6095 80.665 40.8897 78.9306 41.7435C77.1963 42.5974 75.2735 42.997 73.3425 42.9049C59.8084 42.9049 57.1932 25.7748 67.1312 20.0865C69.6114 18.6876 72.4906 18.1655 75.304 18.6045C82.823 19.6942 83.2588 26.2978 80.2295 27.7362C78.6821 22.7018 68.2427 22.0916 66.6736 29.131Z" fill="#0094FF"/>
<path d="M104.16 40.0231C97.3168 46.8664 85.8532 42.2025 85.8532 30.8042C85.7681 29.2385 85.9985 27.6717 86.5307 26.1968C87.0629 24.7219 87.8861 23.3689 88.9513 22.2183C90.0165 21.0677 91.3021 20.1429 92.7317 19.4988C94.1612 18.8547 95.7057 18.5044 97.2733 18.4688C103.07 18.7085 104.029 23.8737 102.918 25.8351C102.308 25.1597 101.55 24.635 100.702 24.3022C99.8554 23.9694 98.9427 23.8376 98.0361 23.9173C89.6671 23.9173 89.5364 37.7783 98.0361 37.7783C102.831 37.7783 104.16 32.9618 104.16 28.7337V19.0136H110.045V42.5512H104.16V40.0231Z" fill="#0094FF"/>
<path d="M121.136 23.9432C120.047 24.3355 119.654 25.338 120.33 26.1226C121.965 27.9969 130.094 29.0866 130.094 35.7338C130.094 43.536 118.696 45.7372 113.596 38.9375L117.17 35.0146C121.768 40.4195 128.067 36.3222 122.052 33.2493C118.172 31.2878 114.402 29.3263 114.402 25.1201C114.457 24.141 114.713 23.1837 115.154 22.3081C115.596 21.4325 116.214 20.6575 116.968 20.0315C117.723 19.4055 118.599 18.942 119.541 18.6701C120.484 18.3982 121.472 18.3236 122.444 18.4511C129.44 18.8216 129.44 24.7714 126.018 26.188C125.608 25.2915 124.89 24.5719 123.994 24.16C123.098 23.7481 122.084 23.6711 121.136 23.9432Z" fill="#0094FF"/>
<path d="M139.422 22.2173C140.381 20.0379 143.519 19.1226 145.633 19.0136C146.788 18.9237 147.949 19.0922 149.031 19.5069C150.113 19.9216 151.089 20.572 151.888 21.411C152.601 22.2244 153.147 23.1705 153.495 24.1951C153.843 25.2197 153.986 26.3028 153.915 27.3825V42.5076H148.27C148.27 39.5436 148.51 29.2132 147.878 27.0556C147.71 26.263 147.278 25.5509 146.652 25.0362C146.026 24.5214 145.244 24.2344 144.434 24.2224C144.022 24.1712 143.603 24.2107 143.207 24.3381C142.812 24.4655 142.449 24.6777 142.144 24.96C141.839 25.2422 141.599 25.5877 141.441 25.9723C141.283 26.3568 141.211 26.7712 141.231 27.1864C140.39 26.8339 139.718 26.1701 139.356 25.3339V42.5076H133.668V15.3304C133.668 12.41 135.847 10.6447 139.356 10.6883V22.2173H139.422Z" fill="#0094FF"/>
<path d="M158.404 42.5537V15.4419C158.404 13.001 160.584 10.8433 164.093 10.7344V29.1285C164.093 33.2476 165.422 37.8462 170.129 37.8462C178.433 37.8462 178.259 24.3121 170.129 24.3121C169.252 24.2416 168.371 24.3718 167.551 24.6928C166.732 25.0138 165.996 25.5171 165.4 26.1646C164.354 24.2685 164.964 19.2341 170.892 18.9943C172.424 19.03 173.932 19.3729 175.329 20.0025C176.725 20.6321 177.981 21.5357 179.021 22.6597C180.062 23.7837 180.866 25.1051 181.387 26.5458C181.907 27.9864 182.133 29.5169 182.051 31.0464C181.985 42.205 170.849 46.7163 164.049 40.0256V42.5101L158.404 42.5537Z" fill="#FF7000"/>
<path d="M203.539 40.0231C196.696 46.8664 185.232 42.2025 185.232 30.8042C185.147 29.2385 185.377 27.6717 185.91 26.1968C186.442 24.7219 187.265 23.3689 188.33 22.2183C189.395 21.0677 190.681 20.1429 192.111 19.4988C193.54 18.8547 195.085 18.5044 196.652 18.4688C202.449 18.7085 203.408 23.8737 202.297 25.8351C201.687 25.1597 200.928 24.635 200.081 24.3022C199.234 23.9694 198.322 23.8376 197.415 23.9173C189.046 23.9173 188.915 37.7783 197.415 37.7783C202.21 37.7783 203.539 32.9618 203.539 28.7337V19.0136H209.423V42.5512H203.539V40.0231Z" fill="#FF7000"/>
<path d="M213.893 42.5537V15.4419C213.893 13.001 216.072 10.8433 219.581 10.7344V29.1285C219.581 33.2476 220.91 37.8462 225.596 37.8462C233.921 37.8462 233.725 24.3121 225.596 24.3121C224.719 24.24 223.836 24.3694 223.017 24.6905C222.197 25.0116 221.462 25.5158 220.867 26.1646C219.799 24.2685 220.431 19.2341 226.359 18.9943C227.889 19.0299 229.397 19.3729 230.792 20.0027C232.187 20.6326 233.442 21.5366 234.481 22.6609C235.519 23.7852 236.322 25.1069 236.84 26.5474C237.358 27.988 237.581 29.518 237.496 31.0464C237.496 42.1396 226.272 46.6945 219.559 40.0474V42.5319L213.893 42.5537Z" fill="#FF7000"/>
<path d="M258.984 40.0231C252.14 46.8664 240.655 42.2025 240.655 30.8042C240.573 29.2374 240.806 27.6701 241.341 26.1951C241.875 24.7201 242.7 23.3674 243.767 22.2171C244.834 21.0669 246.121 20.1424 247.552 19.4986C248.983 18.8547 250.528 18.5045 252.097 18.4688C257.894 18.7085 258.831 23.8737 257.741 25.8351C257.131 25.1597 256.373 24.635 255.526 24.3022C254.679 23.9694 253.766 23.8376 252.859 23.9173C244.49 23.9173 244.338 37.7783 252.859 37.7783C257.654 37.7783 258.984 32.9618 258.984 28.7337V19.0136H264.868V42.5512H258.984V40.0231Z" fill="#FF7000"/>
<path d="M11.1856 5.48438C8.02392 8.249 5.47256 11.6417 3.69401 15.4465C1.91546 19.2512 0.948677 23.3846 0.855235 27.5835C0.779772 34.219 3.19032 40.6425 7.61258 45.5902C12.0348 50.5378 18.1486 53.6513 24.7509 54.3181C31.3533 54.9849 37.9661 53.1567 43.2884 49.1932C48.6106 45.2297 52.2568 39.4179 53.5096 32.9013L42.7434 32.5962C41.5587 36.2543 39.106 39.3687 35.8276 41.3779C32.5492 43.3872 28.6608 44.159 24.8635 43.5541C21.0662 42.9493 17.61 41.0077 15.118 38.0793C12.6261 35.151 11.2624 31.4287 11.2728 27.5835L11.1856 5.48438Z" fill="#0094FF"/>
<path d="M13.6705 3.84637C16.2701 2.4463 19.1085 1.54452 22.0395 1.1875V1.71056V28.3865C22.079 29.6797 22.6192 30.9071 23.5463 31.8097C24.4733 32.7124 25.7146 33.2197 27.0085 33.2247C27.6668 33.2691 28.3272 33.1777 28.9487 32.9563C29.5702 32.7349 30.1396 32.3881 30.6216 31.9375C31.1036 31.487 31.4878 30.9422 31.7505 30.3369C32.0132 29.7317 32.1488 29.0789 32.1488 28.4192C32.1488 27.7594 32.0132 27.1066 31.7505 26.5014C31.4878 25.8962 31.1036 25.3514 30.6216 24.9008C30.1396 24.4502 29.5702 24.1034 28.9487 23.882C28.3272 23.6606 27.6668 23.5692 27.0085 23.6136C25.9618 23.5972 24.9403 23.9352 24.1099 24.5725V14.8524C25.0621 14.6432 26.0336 14.5336 27.0085 14.5255C30.5463 14.4963 33.9517 15.8695 36.4798 18.3445C39.0079 20.8195 40.453 24.195 40.499 27.7326C40.4819 29.4871 40.1194 31.221 39.4322 32.8353C38.745 34.4497 37.7465 35.9129 36.4937 37.1413C35.241 38.3697 33.7586 39.3394 32.1311 39.9949C30.5036 40.6504 28.7629 40.9789 27.0085 40.9616C25.2656 40.9821 23.5361 40.6539 21.9219 39.9963C20.3076 39.3387 18.8411 38.3651 17.6086 37.1325C16.3761 35.9 15.4024 34.4335 14.7448 32.8193C14.0873 31.205 13.7591 29.4756 13.7795 27.7326L13.627 4.71813V3.84637H13.6705Z" fill="#FF7000"/>
<path d="M24.1973 0.796875V11.6939C25.2674 11.4859 26.3544 11.3764 27.4446 11.367C30.9745 11.3733 34.4051 12.5361 37.2114 14.6772C40.0178 16.8184 42.0453 19.8201 42.9837 23.2229H53.7064C52.6987 16.9781 49.5045 11.2946 44.6942 7.18677C39.8838 3.07899 33.7702 0.81428 27.4446 0.796875C26.3595 0.807925 25.2757 0.873389 24.1973 0.993021" fill="#0094FF"/>
<path d="M207.18 85.2048C223.809 83.0789 240.543 81.8711 257.306 81.587C262.079 81.587 266.917 81.7178 271.69 81.587C272.627 81.587 272.496 79.4076 271.538 79.4076C251.443 78.9281 251.574 78.9281 227.623 80.4537C222.915 80.846 211.647 82.3716 206.94 82.9382C206.003 82.9382 206.155 85.1176 207.071 85.1176" fill="#FF7000"/>
<path d="M170.326 66.9659C169.868 67.3146 169.41 67.6415 168.996 67.9903C168.582 68.339 168.538 67.9903 168.342 67.9903C168.014 67.7351 167.746 67.4116 167.556 67.0422C167.367 66.6727 167.26 66.2663 167.243 65.8513C167.226 65.4363 167.301 65.0227 167.46 64.6393C167.62 64.2559 167.862 63.9119 168.168 63.6314C168.93 63.0447 169.865 62.7266 170.827 62.7266C171.789 62.7266 172.723 63.0447 173.486 63.6314C174.176 64.3013 174.607 65.1939 174.703 66.1511C174.799 67.1084 174.553 68.0687 174.009 68.862C173.313 69.707 172.325 70.2594 171.241 70.4094C171.699 70.6055 172.134 70.7363 172.505 70.9325L175.098 72.4144C175.425 72.6106 175.404 72.7414 175.098 72.9375C174.684 73.3298 174.314 73.9618 173.856 74.049C173.398 74.1362 172.897 73.5477 172.418 73.2644L170.02 71.8696C169.287 71.4074 168.461 71.11 167.601 70.9978C167.318 70.9978 167.231 70.8671 167.209 70.5837C167.209 69.0364 167.209 69.0364 168.669 69.0364C169.575 69.0764 170.476 68.8812 171.284 68.4697C171.711 68.2504 172.053 67.8966 172.258 67.4632C172.463 67.0298 172.519 66.541 172.418 66.0724C172.385 65.8532 172.307 65.6433 172.188 65.4566C172.068 65.2699 171.911 65.1106 171.726 64.9891C171.54 64.8676 171.331 64.7868 171.113 64.7519C170.894 64.717 170.67 64.7288 170.456 64.7865C170.24 64.8205 170.038 64.9191 169.878 65.0694C169.718 65.2198 169.608 65.4149 169.561 65.6292C169.513 65.8435 169.532 66.067 169.614 66.2706C169.696 66.4741 169.838 66.6481 170.02 66.7698L170.304 67.0095" fill="#083E5D"/>
<path d="M132.317 61.8207C131.99 61.8207 131.859 61.6899 131.859 61.3194C131.859 59.881 131.859 59.881 133.298 59.881H143.17C143.559 59.825 143.956 59.8545 144.332 59.9674C144.709 60.0803 145.056 60.274 145.35 60.5349C145.177 59.8202 145.075 59.0902 145.045 58.3555C145.045 57.9414 145.176 57.8324 145.568 57.8542C146.018 57.8869 146.469 57.8869 146.919 57.8542C147.159 57.8542 147.268 57.8542 147.246 58.1811V58.3555C147.246 58.8567 147.028 59.5105 147.355 59.7721C147.682 60.0336 148.292 59.881 148.772 59.7721C149.251 59.6631 149.404 59.9028 149.382 60.4041C149.382 61.6899 149.382 61.6899 148.074 61.6899C147.958 61.7008 147.841 61.7008 147.725 61.6899C147.333 61.6899 147.224 61.6899 147.246 62.1912V72.2818C147.246 72.6959 147.246 72.8703 146.745 72.8267C146.243 72.7831 145.393 73.0664 145.067 72.6959C144.74 72.3254 145.067 71.6062 145.067 71.0396V63.8258C145.067 63.4801 145.023 63.1358 144.936 62.8014C144.887 62.5451 144.752 62.3129 144.554 62.1427C144.357 61.9726 144.107 61.8744 143.846 61.8643H142.103C141.819 61.8643 141.71 61.8643 141.71 62.2566C141.71 65.1334 141.71 68.0102 141.71 70.9742C141.71 71.3883 141.994 71.4973 142.233 71.628C142.473 71.7588 142.604 71.9767 142.233 72.2165C141.863 72.4562 141.514 73.2844 141.013 73.3062C140.512 73.328 140.076 72.8267 139.618 72.5434C137.613 71.3011 135.608 70.0589 133.581 68.8384C133.444 68.7522 133.331 68.6334 133.251 68.4927C133.171 68.352 133.127 68.1937 133.123 68.032C133.044 67.5595 133.115 67.074 133.326 66.6439C133.537 66.2137 133.878 65.8608 134.3 65.6347C135.707 64.5161 137.291 63.6396 138.986 63.0412C139.487 62.8886 139.378 62.5181 139.357 62.1912C139.335 61.8643 138.768 61.8207 138.594 61.8207H132.818H132.317ZM139.117 64.9373C137.787 65.4618 136.551 66.1978 135.455 67.1167C135.303 67.2474 135.455 67.3564 135.455 67.4218L139.291 69.7973C139.11 68.1548 139.037 66.5022 139.073 64.8501" fill="#083E5D"/>
<path d="M151.845 65.7217L151.235 65.5691C150.596 65.4532 150.022 65.1078 149.621 64.598C149.219 64.0881 149.018 63.4491 149.055 62.8013C149.052 62.1589 149.265 61.5341 149.66 61.0279C150.056 60.5217 150.61 60.1637 151.235 60.0117C152.226 59.7599 153.271 59.8286 154.22 60.2078C154.504 60.2078 154.656 60.4258 154.482 60.7309C154.307 61.036 154.482 60.8398 154.482 60.9052C154.403 61.2918 154.256 61.661 154.046 61.9949C153.763 62.3 153.37 61.8424 153.022 61.9949C152.673 62.1475 152.564 61.9949 152.346 61.9949C152.116 61.9995 151.894 62.0815 151.716 62.2278C151.538 62.3741 151.414 62.5762 151.365 62.8013C151.288 63.0517 151.301 63.321 151.4 63.5634C151.499 63.8058 151.68 64.0062 151.91 64.1307C152.291 64.2982 152.703 64.3847 153.12 64.3847C153.536 64.3847 153.948 64.2982 154.329 64.1307C156.073 63.5859 156.116 63.4987 156.116 61.668C156.116 61.2321 156.116 60.7963 156.116 60.3604C156.116 59.9245 156.116 59.9463 156.509 59.9681H160.388C160.97 59.9534 161.539 60.1379 162.001 60.4911C162.001 59.7719 162.001 59.1399 161.805 58.5079C161.608 57.8758 161.805 57.963 162.306 57.9848C162.807 58.0066 163.526 57.8323 163.897 58.0938C164.267 58.3553 164.006 59.0745 164.006 59.5976C164.006 60.1206 164.137 59.9899 164.442 59.9899H171.329C172.091 59.9899 171.677 59.4232 171.721 59.1181C171.765 58.813 171.438 58.8566 171.241 58.9002C169.787 59.2569 168.256 59.1267 166.883 58.5297C166.46 58.3421 166.099 58.037 165.844 57.6507C165.589 57.2644 165.45 56.8131 165.444 56.3503C165.431 55.8719 165.553 55.3995 165.796 54.9871C166.039 54.5747 166.393 54.239 166.817 54.0183C167.779 53.4937 168.861 53.2307 169.956 53.2555C172.486 53.1294 174.979 53.9013 176.995 55.4349C177.658 55.9302 178.214 56.5542 178.629 57.2695C179.045 57.9848 179.312 58.7766 179.414 59.5976C179.414 60.0553 179.676 60.1424 180.068 60.1206C184.645 59.9681 189.222 60.1206 193.798 60.1206C194.321 60.1206 194.452 60.2732 194.43 60.7963C194.43 62.0385 194.43 62.0385 193.21 62.0385C192.36 62.0385 192.36 62.0385 192.36 62.9103C192.36 66.1576 192.36 69.4485 192.36 72.6086C192.36 73.0663 192.229 73.2189 191.793 73.1753C191.358 73.1316 190.92 73.1316 190.486 73.1753C190.093 73.1753 189.984 73.0663 189.984 72.674C189.935 71.1289 189.477 69.6246 188.655 68.3152C188.295 67.7106 187.794 67.2021 187.195 66.8332C186.78 66.5655 186.294 66.4288 185.8 66.4409C185.516 66.401 185.227 66.4511 184.973 66.584C184.719 66.7169 184.512 66.9259 184.383 67.1819C184.269 67.4564 184.234 67.7579 184.285 68.0512C184.335 68.3445 184.467 68.6174 184.667 68.8382L184.906 69.0998C184.274 69.3613 183.664 69.601 183.097 69.8626C182.531 70.1241 182.683 69.8626 182.553 69.6228C182.275 69.2388 182.083 68.8 181.988 68.3358C181.894 67.8716 181.9 67.3926 182.005 66.9306C182.11 66.4687 182.312 66.0345 182.598 65.657C182.885 65.2794 183.248 64.9671 183.664 64.741C184.637 64.2881 185.733 64.1687 186.781 64.4011C187.829 64.6336 188.771 65.205 189.461 66.0268L190.137 66.8768C190.137 66.114 190.137 65.482 190.006 64.8499C189.875 64.2179 190.006 63.2808 190.006 62.4962C190.006 62.2347 190.006 62.1475 189.657 62.1475H181.572C181.063 62.1475 180.562 62.1475 180.068 62.1475C179.589 62.1475 179.458 62.1475 179.458 62.7359C179.458 66.0268 179.458 69.2741 179.458 72.6086C179.458 73.1971 179.305 73.415 178.717 73.3278C178.128 73.2406 177.605 73.524 177.3 73.3278C176.995 73.1317 177.3 72.3907 177.3 71.8894C177.3 68.8818 177.3 65.8525 177.3 62.8231C177.3 62.3436 177.169 62.2347 176.712 62.2347H165.815C165.379 62.2347 164.943 62.2347 164.507 62.2347C164.071 62.2347 164.028 62.3654 164.028 62.7359C164.028 66.0922 164.028 69.4485 164.028 72.783C164.028 73.2624 164.028 73.415 163.439 73.3714C162.851 73.3278 162.175 73.5458 161.87 73.3714C161.565 73.1971 161.87 72.3035 161.87 71.7369C161.87 69.2741 161.87 66.8332 161.87 64.3705C161.878 63.9712 161.819 63.5734 161.696 63.1936C161.634 62.9632 161.498 62.7595 161.309 62.6138C161.12 62.4682 160.888 62.3886 160.65 62.3872C160.061 62.3872 159.473 62.3872 158.906 62.3872C158.339 62.3872 158.514 62.4962 158.514 62.7795C158.514 65.6854 158.514 68.5404 158.514 71.3446C158.514 71.7151 158.732 71.8022 158.971 71.8894C159.211 71.9766 159.451 72.2817 159.102 72.6304C158.753 72.9791 158.557 73.6111 158.1 73.7201C157.642 73.8291 157.184 73.3714 156.727 73.1535L149.97 69.8626C149.806 69.7947 149.664 69.6802 149.564 69.5331C149.463 69.3859 149.407 69.2126 149.404 69.0344C149.283 68.5808 149.346 68.0979 149.578 67.6901C149.811 67.2823 150.194 66.9823 150.646 66.855C151.077 66.6716 151.493 66.4529 151.888 66.2012M173.9 58.8348C173.9 59.2489 173.9 59.663 173.9 60.077C173.9 60.4911 173.9 60.4475 174.271 60.4475C175.121 60.4475 175.993 60.4475 176.843 60.4475C177.191 60.4475 177.322 60.4475 177.257 60.0117C177.15 59.2886 176.879 58.5997 176.463 57.9987C176.047 57.3977 175.498 56.9007 174.859 56.5464C173.296 55.7346 171.537 55.3796 169.781 55.5221C169.212 55.5033 168.651 55.6551 168.168 55.958C168.028 56.032 167.912 56.146 167.836 56.2856C167.76 56.4251 167.727 56.5841 167.741 56.7425C167.755 56.9009 167.815 57.0516 167.915 57.1757C168.014 57.2998 168.148 57.3917 168.299 57.44C168.573 57.5684 168.869 57.6425 169.171 57.6579C170.575 57.7793 171.989 57.6238 173.334 57.2002C173.726 57.0695 173.944 57.2002 173.922 57.6361C173.9 58.072 173.922 58.3989 173.922 58.7694M156.291 65.9614L151.932 68.3588L156.291 70.5382C156.138 69.003 156.073 67.4604 156.095 65.9178" fill="#083E5D"/>
<path d="M256.15 69.5766C255.583 69.8163 255.039 70.0125 254.559 70.274C254.08 70.5355 253.927 70.274 253.731 70.0125C253.439 69.5789 253.253 69.0829 253.188 68.5643C253.124 68.0458 253.181 67.5192 253.357 67.0272C253.533 66.5351 253.823 66.0913 254.202 65.7316C254.581 65.3719 255.039 65.1063 255.54 64.9563C256.553 64.6512 257.638 64.6792 258.634 65.0362C259.631 65.3932 260.486 66.0603 261.076 66.9395C261.076 66.9395 261.076 67.1792 261.337 67.2228C261.337 66.9177 261.337 66.6344 261.337 66.3511C261.337 65.2396 261.337 64.1717 261.337 63.0384C261.337 62.7986 261.337 62.6243 260.988 62.6243H252.816H245.863C245.427 62.6243 245.275 62.6243 245.297 63.1691C245.297 64.455 245.297 65.7626 245.297 67.0485C245.536 67.0485 245.58 66.8959 245.689 66.787C246.704 65.7425 247.891 64.88 249.198 64.237C249.336 64.1424 249.499 64.0917 249.666 64.0917C249.834 64.0917 249.997 64.1424 250.135 64.237C250.527 64.5422 251.159 64.6729 251.377 65.0652C251.595 65.4575 251.203 66.0242 251.094 66.5036C250.757 68.6657 250.633 70.8556 250.723 73.0418C250.723 73.5649 250.593 73.7392 250.091 73.6739C249.59 73.6085 248.827 73.9136 248.522 73.5431C248.217 73.1726 248.522 72.5406 248.522 71.9957C248.386 70.2579 248.555 68.5096 249.023 66.8305C248.697 66.8305 248.566 67.0049 248.413 67.1357C247.293 68.0447 246.315 69.1174 245.515 70.3176C245.34 70.5791 245.188 70.6663 244.883 70.5355C244.577 70.4048 243.531 70.1868 243.161 69.7509C242.79 69.3151 243.161 68.5523 243.161 67.9202C243.161 66.2857 243.161 64.6511 243.161 63.0166C243.161 62.6461 243.161 62.5153 242.681 62.5371H240.589C240.507 62.5303 240.424 62.5472 240.35 62.5858C240.277 62.6244 240.216 62.6831 240.175 62.7551C239.019 64.7258 238.587 67.0382 238.955 69.2933C239.039 69.8888 239.273 70.4532 239.635 70.9335C239.997 71.4138 240.476 71.7943 241.025 72.0393C241.33 72.2137 241.374 72.3444 241.178 72.6277C240.948 72.9564 240.751 73.3068 240.589 73.6739C240.393 74.1097 240.153 74.088 239.805 73.8918C238.804 73.3813 237.967 72.5998 237.389 71.6364C236.811 70.673 236.515 69.5666 236.535 68.4433C236.427 66.5732 236.794 64.706 237.603 63.0166C237.799 62.5589 237.603 62.4717 237.255 62.4935H234.487C234.073 62.4935 233.964 62.4935 233.964 63.0166C233.964 66.3511 233.964 69.6638 233.964 72.9983C233.964 73.4777 233.964 73.6957 233.354 73.6303C232.948 73.5867 232.539 73.5867 232.133 73.6303C231.675 73.6303 231.61 73.4995 231.588 73.0854C231.579 71.3116 230.989 69.5894 229.91 68.1818C229.634 67.771 229.265 67.4307 228.834 67.1885C228.402 66.9462 227.92 66.8087 227.426 66.787C227.144 66.7452 226.856 66.792 226.603 66.9209C226.349 67.0497 226.141 67.2542 226.009 67.5062C225.879 67.7865 225.839 68.1001 225.893 68.4043C225.948 68.7085 226.095 68.9884 226.314 69.2061L226.51 69.4458C225.944 69.6856 225.399 69.9035 224.876 70.165C224.353 70.4266 224.353 70.165 224.135 69.9471C223.838 69.5156 223.646 69.0206 223.574 68.5016C223.503 67.9827 223.554 67.4543 223.724 66.9586C223.893 66.463 224.176 66.0139 224.55 65.6473C224.924 65.2806 225.379 65.0067 225.878 64.8473C226.967 64.5307 228.13 64.586 229.184 65.0043C230.238 65.4227 231.122 66.1803 231.697 67.1574C231.774 66.8498 231.774 66.528 231.697 66.2203C231.697 65.1088 231.697 64.0409 231.697 62.9076C231.697 62.6025 231.697 62.4935 231.283 62.4935H223.11C222.631 62.4935 222.151 62.4935 221.694 62.4935C221.236 62.4935 221.192 62.6243 221.192 63.0166C221.192 66.3511 221.192 69.6638 221.192 72.9983C221.192 73.5431 221.04 73.6957 220.539 73.6303C220.037 73.5649 219.318 73.8046 219.013 73.6303C218.708 73.4559 219.013 72.5842 219.013 72.0393C219.013 70.5355 219.013 69.0317 219.013 67.5279C219.034 67.2163 218.938 66.9079 218.745 66.6624C218.552 66.4169 218.275 66.2517 217.967 66.1985C217.66 66.1306 217.34 66.1665 217.056 66.3006C216.772 66.4348 216.54 66.6595 216.398 66.9395C216.207 67.3318 216.139 67.7721 216.202 68.2036C216.202 68.4869 216.202 68.5959 215.853 68.5741C215.504 68.5523 214.872 68.5741 214.371 68.5741C213.87 68.5741 214.044 68.5741 214.044 68.2472C214.066 68.0225 214.066 67.7962 214.044 67.5715C214.051 67.254 213.939 66.9455 213.729 66.7072C213.519 66.4689 213.227 66.3185 212.911 66.2857C212.563 66.2328 212.207 66.3135 211.916 66.5116C211.625 66.7096 211.42 67.0104 211.342 67.3536C211.225 67.7323 211.214 68.1355 211.309 68.5201C211.405 68.9046 211.603 69.2559 211.883 69.536C212.164 69.8162 212.515 70.0147 212.899 70.1101C213.284 70.2056 213.687 70.1944 214.066 70.0779C214.611 69.9471 214.72 70.0778 214.72 70.5791C214.73 70.8594 214.773 71.1375 214.85 71.4073C214.85 71.8432 214.85 72.0393 214.349 72.1265C213.4 72.373 212.395 72.2919 211.497 71.8964C210.599 71.5009 209.861 70.8141 209.402 69.9471C209.065 69.258 208.915 68.492 208.969 67.7267C209.022 66.9613 209.277 66.2237 209.707 65.5883C210.018 65.1401 210.436 64.7758 210.922 64.5277C211.408 64.2796 211.947 64.1554 212.493 64.1662C213.039 64.177 213.573 64.3224 214.049 64.5895C214.525 64.8566 214.927 65.2371 215.221 65.6972C215.335 65.3299 215.544 64.9992 215.828 64.7389C216.111 64.4786 216.458 64.298 216.834 64.2153C217.21 64.1325 217.6 64.1325 217.976 64.2153C218.352 64.2981 218.706 64.4617 219.013 64.6947V62.864C219.013 62.6025 218.839 62.6025 218.664 62.6025H217.422C214.327 62.6025 211.211 62.6025 208.116 62.6025C207.754 62.5491 207.385 62.6338 207.082 62.8396C206.779 63.0455 206.565 63.3575 206.481 63.714C205.688 65.4284 205.401 67.3339 205.653 69.2061C205.743 69.8393 205.989 70.4402 206.369 70.954C206.75 71.4679 207.253 71.8784 207.833 72.1483C208.181 72.3226 208.225 72.4534 208.007 72.7585C207.789 73.0636 207.702 73.2816 207.549 73.5649C207.135 74.2623 207.135 74.2841 206.416 73.8918C205.611 73.4557 204.923 72.8317 204.411 72.0728C203.899 71.314 203.577 70.4427 203.474 69.533C203.134 66.5631 203.794 63.5647 205.348 61.0115C205.501 60.75 205.675 60.75 205.915 60.75H265.129C265.696 60.75 265.914 60.75 265.892 61.4692C265.892 62.6679 265.892 62.6679 264.693 62.6679C263.495 62.6679 263.8 62.6679 263.8 63.605C263.8 66.8305 263.8 70.0343 263.8 73.2598C263.8 73.7175 263.669 73.8482 263.233 73.8046C262.798 73.7609 262.36 73.7609 261.926 73.8046C261.511 73.8046 261.446 73.6739 261.424 73.3034C261.407 71.6188 260.883 69.9785 259.92 68.5959C259.651 68.1163 259.264 67.714 258.794 67.4277C258.325 67.1414 257.789 66.9808 257.24 66.9613C256.956 66.918 256.665 66.9666 256.41 67.0998C256.155 67.2331 255.95 67.4441 255.823 67.7023C255.709 67.9768 255.674 68.2783 255.724 68.5716C255.775 68.8649 255.907 69.1378 256.106 69.3586L256.346 69.6202" fill="#083E5D"/>
</g>
<defs>
<clipPath id="clip0_1608_43793">
<rect width="271.576" height="84.4083" fill="white" transform="translate(0.855469 0.796875)"/>
</clipPath>
</defs>
</svg>
