<svg width="19" height="24" viewBox="0 0 19 24" fill="none" xmlns="http://www.w3.org/2000/svg">
<path d="M18.5 22.071C18.5 22.5826 18.2968 23.0733 17.935 23.435C17.5733 23.7968 17.0826 24 16.571 24L2.429 24C1.9174 24 1.42675 23.7968 1.06499 23.435C0.703234 23.0733 0.5 22.5826 0.5 22.071L0.5 1.929C0.5 1.4174 0.703234 0.926748 1.06499 0.564991C1.42675 0.203234 1.9174 0 2.429 0L10.692 0V4.913C10.692 5.25063 10.7585 5.58495 10.8877 5.89688C11.0169 6.20881 11.2063 6.49223 11.445 6.73097C11.6838 6.96971 11.9672 7.15909 12.2791 7.28829C12.591 7.4175 12.9254 7.484 13.263 7.484H18.5L18.5 22.071Z" fill="#B4BEC9"/>
<path d="M11.1131 12.7091C10.8762 12.7091 10.6405 12.7428 10.4131 12.8091L10.7101 13.9521C10.8252 13.912 10.9462 13.8911 11.0681 13.8901C11.2022 13.879 11.3371 13.8981 11.4628 13.9461C11.5886 13.9941 11.702 14.0696 11.7947 14.1672C11.8873 14.2648 11.957 14.3819 11.9984 14.5099C12.0398 14.638 12.052 14.7737 12.0341 14.9071C12.0341 16.5141 11.1121 17.8071 9.55207 17.8071C8.82307 17.8071 8.31807 17.4911 8.31807 16.7761L8.31807 12.8681H9.16507V11.8101H8.31807V10.9861C8.35421 10.6949 8.32325 10.3993 8.22756 10.122C8.13187 9.84463 7.97398 9.59286 7.766 9.38593C7.55801 9.179 7.30543 9.02241 7.02759 8.92814C6.74976 8.83387 6.45403 8.80442 6.16307 8.84206C6.01507 8.84206 5.82207 8.85606 5.65707 8.86906V9.99606H5.95707C6.71507 9.99606 6.95707 10.2961 6.95707 11.0271L6.95707 11.8101H5.64307V12.8681H6.95107L6.95107 16.7761C6.95107 18.1911 8.00607 18.9471 9.55107 18.9471C10.0739 18.9577 10.5932 18.8586 11.0753 18.6561C11.5575 18.4537 11.9919 18.1524 12.3504 17.7717C12.7089 17.391 12.9837 16.9394 13.1569 16.446C13.3301 15.9526 13.398 15.4283 13.3561 14.9071C13.3724 14.6101 13.3252 14.313 13.2176 14.0357C13.11 13.7585 12.9445 13.5073 12.7321 13.2991C12.5197 13.0909 12.2653 12.9303 11.986 12.8283C11.7066 12.7262 11.4087 12.6848 11.1121 12.7071" fill="white"/>
<path d="M11.1131 12.7091C10.8762 12.7091 10.6405 12.7428 10.4131 12.8091L10.7101 13.9521C10.8252 13.912 10.9462 13.8911 11.0681 13.8901C11.2022 13.879 11.3371 13.8981 11.4628 13.9461C11.5886 13.9941 11.702 14.0696 11.7947 14.1672C11.8873 14.2648 11.957 14.3819 11.9984 14.5099C12.0398 14.638 12.052 14.7737 12.0341 14.9071C12.0341 16.5141 11.1121 17.8071 9.55207 17.8071C8.82307 17.8071 8.31807 17.4911 8.31807 16.7761L8.31807 12.8681H9.16507V11.8101H8.31807V10.9861C8.35421 10.6949 8.32325 10.3993 8.22756 10.122C8.13187 9.84463 7.97398 9.59286 7.766 9.38593C7.55801 9.179 7.30543 9.02241 7.02759 8.92814C6.74976 8.83387 6.45403 8.80442 6.16307 8.84206C6.01507 8.84206 5.82207 8.85606 5.65707 8.86906V9.99606H5.95707C6.71507 9.99606 6.95707 10.2961 6.95707 11.0271L6.95707 11.8101H5.64307V12.8681H6.95107L6.95107 16.7761C6.95107 18.1911 8.00607 18.9471 9.55107 18.9471C10.0739 18.9577 10.5932 18.8586 11.0753 18.6561C11.5575 18.4537 11.9919 18.1524 12.3504 17.7717C12.7089 17.391 12.9837 16.9394 13.1569 16.446C13.3301 15.9526 13.398 15.4283 13.3561 14.9071C13.3724 14.6101 13.3252 14.313 13.2176 14.0357C13.11 13.7585 12.9445 13.5073 12.7321 13.2991C12.5197 13.0909 12.2653 12.9303 11.986 12.8283C11.7066 12.7262 11.4087 12.6848 11.1121 12.7071" stroke="white" stroke-width="0.514" stroke-miterlimit="10"/>
<path d="M18.5 6.31641L13.357 6.31641C13.1881 6.31641 13.0209 6.28314 12.8649 6.21852C12.7088 6.15389 12.5671 6.05916 12.4477 5.93975C12.3282 5.82033 12.2335 5.67856 12.1689 5.52254C12.1043 5.36651 12.071 5.19929 12.071 5.03041V0.000406265L18.5 6.31641Z" fill="#787F92"/>
</svg>
