<svg width="20" height="21" viewBox="0 0 20 21" fill="none" xmlns="http://www.w3.org/2000/svg">
<g clip-path="url(#clip0_1707_1779)">
<path d="M10.2344 2.5C5.81278 2.5 2.23438 6.078 2.23438 10.5C2.23438 14.9215 5.81238 18.5 10.2344 18.5C14.656 18.5 18.2344 14.922 18.2344 10.5C18.2344 6.07841 14.6564 2.5 10.2344 2.5ZM10.2344 17.3837C6.43869 17.3837 3.35066 14.2957 3.35066 10.5C3.35066 6.70428 6.43869 3.61628 10.2344 3.61628C14.0301 3.61628 17.1181 6.70428 17.1181 10.5C17.1181 14.2957 14.0301 17.3837 10.2344 17.3837Z" fill="black"/>
<path d="M9.99758 12.625C9.5553 12.625 9.19727 12.9936 9.19727 13.4358C9.19727 13.8676 9.54477 14.2467 9.99758 14.2467C10.4504 14.2467 10.8084 13.8676 10.8084 13.4358C10.8084 12.9936 10.4398 12.625 9.99758 12.625Z" fill="black"/>
<path d="M10.1346 6.48438C8.71293 6.48438 8.06006 7.32684 8.06006 7.89547C8.06006 8.30616 8.40756 8.49572 8.69187 8.49572C9.26053 8.49572 9.02887 7.68484 10.103 7.68484C10.6295 7.68484 11.0507 7.91653 11.0507 8.40094C11.0507 8.96956 10.461 9.296 10.1135 9.59084C9.80809 9.85406 9.40796 10.2858 9.40796 11.1915C9.40796 11.739 9.5554 11.897 9.98712 11.897C10.5031 11.897 10.6084 11.6653 10.6084 11.4652C10.6084 10.9177 10.6189 10.6017 11.1981 10.1489C11.4824 9.92781 12.3775 9.21172 12.3775 8.22187C12.3775 7.23203 11.4824 6.48438 10.1346 6.48438Z" fill="black"/>
</g>
<defs>
<clipPath id="clip0_1707_1779">
<rect width="16" height="16" fill="white" transform="translate(2.23438 2.5)"/>
</clipPath>
</defs>
</svg>
