<svg width="20" height="21" viewBox="0 0 20 21" fill="none" xmlns="http://www.w3.org/2000/svg">
<g id="fi_6785298" clip-path="url(#clip0_1794_7846)">
<g id="BRIEF CASE">
<path id="Vector" d="M6.47794 3.91133C5.30099 3.9707 4.24161 4.05586 3.71075 4.12656C1.93692 4.37148 0.425985 5.825 0.207235 7.52227C0.207235 7.52227 0.12911 8.14414 0.101376 8.67812L0.0150476 10.4176C0.00723506 10.8652 0.00762568 11.3473 0.0193444 11.8684C0.0634851 13.7859 0.227157 15.191 0.397469 16.2215C0.691219 17.925 2.21309 19.4402 3.92638 19.7344C4.96388 19.9215 8.07052 20.1488 9.99903 20.1313C11.9275 20.1508 15.0342 19.9234 16.0717 19.7363C17.785 19.4422 19.3068 17.927 19.6006 16.2234C19.7709 15.193 19.9346 13.7879 19.9787 11.8703C19.9904 11.3473 19.9908 10.8633 19.983 10.4145L19.8963 8.67617C19.8858 8.29032 19.8506 7.90555 19.7908 7.52422C19.5721 5.82695 18.0611 4.37344 16.2873 4.12852C15.7565 4.05781 14.6971 3.97227 13.5201 3.91328L11.6842 3.84336C11.0815 3.82773 10.5022 3.82031 9.99981 3.82031C9.49747 3.82031 8.91817 3.82773 8.31544 3.84336L6.47794 3.91133Z" fill="#4193D2"/>
<path id="Vector_2" d="M13.5207 3.91211C13.4957 3.26289 13.4523 2.69688 13.4012 2.3125C13.3267 1.77641 13.0846 1.27761 12.7094 0.8875C12.3355 0.499609 11.8535 0.249219 11.3477 0.183984C11.3477 0.183984 10.9125 0.132812 9.99961 0.132812C9.08672 0.132812 8.65195 0.183984 8.65195 0.183984C8.14414 0.247656 7.66367 0.499609 7.28984 0.887109C6.91467 1.27722 6.67252 1.77601 6.59805 2.31211C6.54687 2.69688 6.50352 3.2625 6.47852 3.91172L8.31445 3.8418C8.33008 3.275 8.36016 2.77344 8.39648 2.46211C8.40921 2.35393 8.45711 2.25293 8.53281 2.17461C8.60729 2.09736 8.70601 2.04799 8.8125 2.03477C8.8125 2.03477 9.33203 2.00508 9.96406 2.00508C10.6559 2.00508 11.1848 2.03477 11.1848 2.03477C11.2914 2.04772 11.3904 2.09712 11.4648 2.17461C11.5406 2.25303 11.5885 2.35418 11.6012 2.4625C11.6371 2.775 11.6676 3.27539 11.6832 3.84219L13.5207 3.91211Z" fill="#4193D2"/>
<path id="Vector_3" d="M11.6844 3.84336C11.0816 3.82773 10.5023 3.82031 10 3.82031C9.49766 3.82031 8.91836 3.82773 8.31563 3.84336L6.47969 3.91328C5.30273 3.97266 4.24336 4.05781 3.7125 4.12852C1.93867 4.37344 0.427734 5.82695 0.208984 7.52422C0.208984 7.52422 0.130859 8.14609 0.103125 8.68008L0.0585938 9.55898V12.9285C0.108845 14.0322 0.222313 15.132 0.398438 16.2227C0.43139 16.4123 0.47906 16.599 0.541016 16.7812C1.87385 17.3404 3.30501 17.6276 4.75039 17.6258C10.7621 17.6258 15.6352 12.7523 15.6352 6.74062C15.6358 5.8256 15.5213 4.91413 15.2941 4.02773C14.7863 3.98594 14.1711 3.94531 13.5211 3.91055L11.6844 3.84336Z" fill="#48A4DF"/>
<path id="Vector_4" d="M9.33164 11.2289C9.63004 11.2829 9.93561 11.2839 10.2344 11.232L19.9406 9.54727L19.8973 8.67617C19.8868 8.29032 19.8516 7.90555 19.7918 7.52422C19.573 5.82695 18.0621 4.37344 16.2883 4.12852C15.7574 4.05781 14.698 3.97227 13.5211 3.91328L11.6852 3.84336C11.0824 3.82773 10.5031 3.82031 10.0008 3.82031C9.49844 3.82031 8.91914 3.82773 8.31641 3.84336L6.48047 3.91328C5.30352 3.97266 4.24414 4.05781 3.71328 4.12852C1.93945 4.37344 0.428516 5.82695 0.209766 7.52422C0.209766 7.52422 0.131641 8.14609 0.103906 8.68008L0.0585938 9.55977L9.33164 11.2289Z" fill="#87D7FC"/>
</g>
</g>
<defs>
<clipPath id="clip0_1794_7846">
<rect width="20" height="20" fill="white" transform="translate(0 0.132812)"/>
</clipPath>
</defs>
</svg>
