<svg width="25" height="25" viewBox="0 0 25 25" fill="none" xmlns="http://www.w3.org/2000/svg">
<g clip-path="url(#clip0_1773_1534)">
<path d="M12.3387 24.5509C19.0276 24.5509 24.4501 19.1284 24.4501 12.4395C24.4501 5.75057 19.0276 0.328125 12.3387 0.328125C5.64974 0.328125 0.227295 5.75057 0.227295 12.4395C0.227295 19.1284 5.64974 24.5509 12.3387 24.5509Z" fill="#2097EF"/>
<path d="M16.1758 11.0066L15.9322 13.1165C15.9221 13.2127 15.877 13.3019 15.8054 13.3671C15.7339 13.4324 15.6409 13.469 15.5441 13.4702H13.342L13.331 19.7254C13.3317 19.7995 13.3033 19.871 13.2518 19.9243C13.2003 19.9776 13.1298 20.0085 13.0557 20.0103H10.8248C10.7877 20.0103 10.7509 20.0029 10.7168 19.9884C10.6827 19.9738 10.6518 19.9526 10.6261 19.9258C10.6004 19.8991 10.5804 19.8674 10.5672 19.8328C10.554 19.7981 10.548 19.7611 10.5495 19.724V13.4702H8.89794C8.84607 13.4696 8.79481 13.4589 8.7471 13.4385C8.69938 13.4182 8.65614 13.3886 8.61984 13.3516C8.58355 13.3145 8.55491 13.2707 8.53556 13.2225C8.51621 13.1744 8.50653 13.1229 8.50708 13.071L8.49882 10.9612C8.49809 10.9091 8.50762 10.8574 8.52687 10.8091C8.54612 10.7607 8.57471 10.7166 8.61101 10.6793C8.64731 10.642 8.6906 10.6122 8.73841 10.5916C8.78623 10.571 8.83763 10.56 8.88969 10.5593H10.5495V8.5224C10.5495 6.15793 11.9533 4.87109 14.0122 4.87109H15.6996C15.7518 4.87163 15.8033 4.88246 15.8513 4.90297C15.8993 4.92348 15.9427 4.95325 15.9792 4.99059C16.0156 5.02792 16.0443 5.07209 16.0636 5.12055C16.083 5.169 16.0926 5.2208 16.0918 5.27297V7.04839C16.0926 7.10056 16.083 7.15236 16.0636 7.20081C16.0443 7.24927 16.0156 7.29344 15.9792 7.33077C15.9427 7.36811 15.8993 7.39788 15.8513 7.41839C15.8033 7.4389 15.7518 7.44973 15.6996 7.45027H14.6646C13.5457 7.45027 13.3282 8.00078 13.3282 8.79628V10.5593H15.7877C15.8436 10.56 15.8987 10.5725 15.9495 10.5961C16.0002 10.6196 16.0454 10.6536 16.0821 10.6959C16.1187 10.7381 16.146 10.7877 16.1622 10.8412C16.1783 10.8948 16.183 10.9511 16.1758 11.0066Z" fill="white"/>
</g>
<defs>
<clipPath id="clip0_1773_1534">
<rect width="24.2228" height="24.2228" fill="white" transform="translate(0.227295 0.328125)"/>
</clipPath>
</defs>
</svg>
