<svg width="26" height="26" viewBox="0 0 26 26" fill="none" xmlns="http://www.w3.org/2000/svg">
<rect x="1.39246" y="1.25" width="23.5" height="23.5" rx="11.75" stroke="white" stroke-width="1.5"/>
<path d="M13.0157 6.81C14.2397 6.81 15.2177 7.146 15.9497 7.818C16.6937 8.49 17.0657 9.408 17.0657 10.572C17.0657 11.784 16.6817 12.696 15.9137 13.308C15.1457 13.92 14.1257 14.226 12.8537 14.226L12.7817 15.648H10.9997L10.9097 12.822H11.5037C12.6677 12.822 13.5557 12.666 14.1677 12.354C14.7917 12.042 15.1037 11.448 15.1037 10.572C15.1037 9.936 14.9177 9.438 14.5457 9.078C14.1857 8.718 13.6817 8.538 13.0337 8.538C12.3857 8.538 11.8757 8.712 11.5037 9.06C11.1317 9.408 10.9457 9.894 10.9457 10.518H9.01968C9.01968 9.798 9.18168 9.156 9.50568 8.592C9.82968 8.028 10.2917 7.59 10.8917 7.278C11.5037 6.966 12.2117 6.81 13.0157 6.81ZM11.8637 19.626C11.4917 19.626 11.1797 19.5 10.9277 19.248C10.6757 18.996 10.5497 18.684 10.5497 18.312C10.5497 17.94 10.6757 17.628 10.9277 17.376C11.1797 17.124 11.4917 16.998 11.8637 16.998C12.2237 16.998 12.5297 17.124 12.7817 17.376C13.0337 17.628 13.1597 17.94 13.1597 18.312C13.1597 18.684 13.0337 18.996 12.7817 19.248C12.5297 19.5 12.2237 19.626 11.8637 19.626Z" fill="white"/>
</svg>
