<svg width="25" height="25" viewBox="0 0 25 25" fill="none" xmlns="http://www.w3.org/2000/svg">
<g clip-path="url(#clip0_1773_1539)">
<path d="M12.71 24.5509C19.3989 24.5509 24.8213 19.1284 24.8213 12.4395C24.8213 5.75057 19.3989 0.328125 12.71 0.328125C6.02102 0.328125 0.598572 5.75057 0.598572 12.4395C0.598572 19.1284 6.02102 24.5509 12.71 24.5509Z" fill="#0B69C7"/>
<path d="M10.0008 8.03929C10.0011 8.36658 9.90435 8.68662 9.72271 8.95889C9.54107 9.23116 9.28274 9.44342 8.98042 9.56882C8.6781 9.69421 8.34537 9.72711 8.02435 9.66333C7.70332 9.59956 7.40843 9.44198 7.177 9.21055C6.94556 8.97911 6.78799 8.68422 6.72421 8.3632C6.66044 8.04217 6.69333 7.70945 6.81873 7.40712C6.94412 7.1048 7.15639 6.84647 7.42866 6.66483C7.70093 6.48319 8.02096 6.3864 8.34826 6.38672C8.78642 6.38714 9.20651 6.56139 9.51633 6.87121C9.82616 7.18104 10.0004 7.60113 10.0008 8.03929Z" fill="white"/>
<path d="M9.21837 10.3828H7.47816C7.25197 10.3828 7.0686 10.5662 7.0686 10.7924V18.0895C7.0686 18.3157 7.25197 18.499 7.47816 18.499H9.21837C9.44456 18.499 9.62793 18.3157 9.62793 18.0895V10.7924C9.62793 10.5662 9.44456 10.3828 9.21837 10.3828Z" fill="white"/>
<path d="M18.7258 14.5884V18.1214C18.7258 18.2211 18.6862 18.3168 18.6156 18.3873C18.5451 18.4578 18.4495 18.4975 18.3497 18.4975H16.482C16.3823 18.4975 16.2866 18.4578 16.2161 18.3873C16.1455 18.3168 16.1059 18.2211 16.1059 18.1214V14.6983C16.1059 14.1868 16.2541 12.4673 14.7705 12.4673C13.6199 12.4673 13.3856 13.6497 13.3362 14.1804V18.1293C13.3342 18.2271 13.2941 18.3203 13.2244 18.389C13.1548 18.4578 13.0612 18.4966 12.9633 18.4975H11.1562C11.1067 18.4977 11.0577 18.4881 11.012 18.4693C10.9663 18.4504 10.9247 18.4227 10.8898 18.3878C10.8548 18.3528 10.8271 18.3113 10.8083 18.2655C10.7895 18.2198 10.7799 18.1708 10.7801 18.1214V10.7589C10.7799 10.7094 10.7895 10.6603 10.8083 10.6145C10.8271 10.5687 10.8547 10.527 10.8897 10.492C10.9246 10.4569 10.9662 10.429 11.0119 10.41C11.0576 10.391 11.1067 10.3812 11.1562 10.3812H12.9633C13.0135 10.3804 13.0633 10.3895 13.1098 10.4081C13.1564 10.4267 13.1988 10.4544 13.2345 10.4896C13.2703 10.5247 13.2987 10.5667 13.318 10.6129C13.3374 10.6591 13.3474 10.7088 13.3474 10.7589V11.3964C13.7745 10.7589 14.4087 10.2617 15.7585 10.2617C18.7433 10.2601 18.7258 13.0537 18.7258 14.5884Z" fill="white"/>
</g>
<defs>
<clipPath id="clip0_1773_1539">
<rect width="24.2228" height="24.2228" fill="white" transform="translate(0.598572 0.328125)"/>
</clipPath>
</defs>
</svg>
