<svg width="27" height="25" viewBox="0 0 27 25" fill="none" xmlns="http://www.w3.org/2000/svg">
<path d="M3.64286 4.47194H16.1897C17.0246 4.47194 17.1129 3.44189 16.4058 3.27188H3.64286C3.46116 3.27188 3.27455 3.28188 3.09285 3.30689C3.3433 1.5018 4.98839 0.246748 6.75625 0.506759C6.80536 0.51176 6.84955 0.52176 6.89866 0.53176L19.3179 2.68686C19.4848 2.71186 19.6567 2.74186 19.8237 2.77686H19.8335C19.8973 2.78686 19.9562 2.80186 20.0201 2.81686C21.9205 3.28188 22.4754 5.02196 22.4754 6.07201V7.28206C22.4902 7.41207 22.5 7.54208 22.5 7.67208V17.2725C22.5 19.0376 21.0906 20.4727 19.3571 20.4727H3.64286C1.90937 20.4727 0.499998 19.0376 0.499998 17.2725V7.67208C0.499998 5.907 1.90937 4.47194 3.64286 4.47194ZM5.97544 14.0724C6.84464 14.0724 7.54687 13.3573 7.54687 12.4723C7.54687 11.5873 6.84464 10.8722 5.97544 10.8722C5.10625 10.8722 4.40402 11.5873 4.40402 12.4723C4.40402 13.3573 5.10625 14.0724 5.97544 14.0724Z" fill="white"/>
<rect x="11.5" y="9.47266" width="14" height="14" rx="7" fill="white"/>
<rect x="11.5" y="9.47266" width="14" height="14" rx="7" stroke="#097AFF" stroke-width="1.5"/>
<path d="M18.4999 13.4453V19.4998" stroke="#097AFF" stroke-width="1.8" stroke-linecap="round"/>
<path d="M21.5272 16.4727H15.4728" stroke="#097AFF" stroke-width="1.8" stroke-linecap="round"/>
</svg>
