<svg width="28" height="24" viewBox="0 0 28 24" fill="none" xmlns="http://www.w3.org/2000/svg">
<path d="M0.530984 8.6205C0.48213 8.44472 0.490899 8.25746 0.555955 8.08723C0.621011 7.91701 0.738792 7.77313 0.891367 7.67752L11.5694 0.971819C11.6988 0.890636 11.8477 0.847656 11.9996 0.847656C12.1515 0.847656 12.3004 0.890636 12.4298 0.971819L23.1078 7.67752C23.2604 7.77302 23.3783 7.91679 23.4435 8.08694C23.5086 8.2571 23.5175 8.44433 23.4688 8.62014C23.4201 8.79594 23.3165 8.95069 23.1736 9.06084C23.0308 9.17098 22.8566 9.23049 22.6776 9.2303H20.2134V18.1712H20.8562C21.0741 18.1712 21.283 18.2595 21.437 18.4167C21.5911 18.5739 21.6776 18.7871 21.6776 19.0094C21.6776 19.2318 21.5911 19.445 21.437 19.6021C21.283 19.7593 21.0741 19.8477 20.8562 19.8477H2.14295C1.92511 19.8477 1.71619 19.7593 1.56215 19.6021C1.40811 19.445 1.32157 19.2318 1.32157 19.0094C1.32157 18.7871 1.40811 18.5739 1.56215 18.4167C1.71619 18.2595 1.92511 18.1712 2.14295 18.1712C2.3608 18.1712 3.78572 18.1712 3.78572 18.1712V9.2303H1.32157C1.1427 9.23037 0.9687 9.17084 0.826006 9.06078C0.683313 8.95072 0.579726 8.79613 0.530984 8.6205ZM13.6424 16.2154C13.6424 16.4377 13.7289 16.6509 13.8829 16.8081C14.037 16.9653 14.2459 17.0536 14.4637 17.0536C14.6816 17.0536 14.8905 16.9653 15.0445 16.8081C15.1986 16.6509 15.2851 16.4377 15.2851 16.2154V10.0685C15.2851 9.84621 15.1986 9.63301 15.0445 9.47581C14.8905 9.31861 14.6816 9.2303 14.4637 9.2303C14.2459 9.2303 14.037 9.31861 13.8829 9.47581C13.7289 9.63301 13.6424 9.84621 13.6424 10.0685V16.2154ZM8.71404 16.2154C8.71404 16.4377 8.80058 16.6509 8.95462 16.8081C9.10865 16.9653 9.31758 17.0536 9.53542 17.0536C9.75327 17.0536 9.96219 16.9653 10.1162 16.8081C10.2703 16.6509 10.3568 16.4377 10.3568 16.2154V10.0685C10.3568 9.84621 10.2703 9.63301 10.1162 9.47581C9.96219 9.31861 9.75327 9.2303 9.53542 9.2303C9.31758 9.2303 9.10865 9.31861 8.95462 9.47581C8.80058 9.63301 8.71404 9.84621 8.71404 10.0685V16.2154Z" fill="white"/>
<path d="M24.4002 15.5977H19.4502H17.2502C15.7314 15.5977 14.5002 16.8289 14.5002 18.3477V18.3477C14.5002 19.8665 15.7314 21.0977 17.2502 21.0977H18.3502" stroke="#097AFF" stroke-width="5.50002" stroke-linecap="round"/>
<path d="M21.6501 12.8477L24.4002 15.5977L21.6501 18.3477" stroke="#097AFF" stroke-width="1.83334" stroke-linecap="round" stroke-linejoin="round"/>
<path d="M25.4998 15.5977H19.4498H17.2498C15.731 15.5977 14.4998 16.8289 14.4998 18.3477V18.3477C14.4998 19.8665 15.731 21.0977 17.2498 21.0977H19.4498" stroke="white" stroke-width="1.8" stroke-linecap="round"/>
<path d="M22.7498 20.6397L18.1665 19.2647V17.8896H23.6665L22.7498 20.6397Z" fill="#097AFF"/>
<path d="M22.7502 12.8477L25.5002 15.5977L22.7502 18.3477" stroke="white" stroke-width="1.8" stroke-linecap="round" stroke-linejoin="round"/>
</svg>
