<svg width="17" height="18" viewBox="0 0 17 18" fill="none" xmlns="http://www.w3.org/2000/svg">
    <g id="Group 35055">
        <g id="Group 35054">
            <path id="Star 1"
                d="M1.36917 7.89723L2.10586 7.53711L1.36917 7.89723L1.88641 8.95535L2.6231 9.31547L1.88641 8.95535L1.36917 10.0135C0.980685 10.8082 1.29249 11.7678 2.07391 12.1824L3.11431 12.7344L3.3178 13.8945C3.47064 14.7658 4.28694 15.3589 5.16282 15.235L6.32898 15.07L7.17548 15.8889C7.81126 16.504 8.82026 16.504 9.45605 15.8889L10.3025 15.07L11.4687 15.235C12.3446 15.3589 13.1609 14.7658 13.3137 13.8945L13.5172 12.7344L14.5576 12.1824C15.339 11.7678 15.6508 10.8082 15.2623 10.0135L14.7451 8.95535L14.0084 9.31546L14.7451 8.95535L15.2624 7.89723C15.6508 7.1025 15.339 6.14288 14.5576 5.72828L13.5172 5.17627L13.3137 4.01621C13.1609 3.14492 12.3446 2.55184 11.4687 2.67573L10.3025 2.84067L9.7324 3.43003L10.3025 2.84067L9.45604 2.02177C8.82026 1.40672 7.81126 1.40672 7.17548 2.02177L6.32898 2.84067L5.16282 2.67573C4.28694 2.55184 3.47064 3.14492 3.3178 4.01621L3.11431 5.17627L2.07391 5.72828C1.29248 6.14288 0.980686 7.1025 1.36917 7.89723Z"
                fill="#23B100" stroke="#ffffff" stroke-width="1.64" />
            <path id="Vector 199"
                d="M5.24285 8.87307L6.87643 10.7383C7.03265 10.9167 7.30713 10.9258 7.47478 10.7581L11.3891 6.84375"
                stroke="white" stroke-width="1.64" stroke-linecap="round" />
        </g>
    </g>
</svg>
