<svg width="26" height="25" viewBox="0 0 26 25" fill="none" xmlns="http://www.w3.org/2000/svg">
<g clip-path="url(#clip0_1773_1547)">
<path d="M13.0812 24.5509C19.7701 24.5509 25.1926 19.1284 25.1926 12.4395C25.1926 5.75057 19.7701 0.328125 13.0812 0.328125C6.39227 0.328125 0.969818 5.75057 0.969818 12.4395C0.969818 19.1284 6.39227 24.5509 13.0812 24.5509Z" fill="#FF0000"/>
<path d="M17.0444 7.88281H9.11785C8.80108 7.88281 8.48742 7.94523 8.19478 8.0665C7.90215 8.18777 7.63628 8.36551 7.41236 8.58958C7.18845 8.81364 7.01088 9.07963 6.8898 9.37234C6.76873 9.66506 6.70652 9.97876 6.70673 10.2955V14.5823C6.70652 14.8991 6.76873 15.2128 6.8898 15.5055C7.01088 15.7982 7.18845 16.0642 7.41236 16.2883C7.63628 16.5123 7.90215 16.6901 8.19478 16.8113C8.48742 16.9326 8.80108 16.995 9.11785 16.995H17.0444C17.3612 16.995 17.6749 16.9326 17.9675 16.8113C18.2601 16.6901 18.526 16.5123 18.7499 16.2883C18.9738 16.0642 19.1514 15.7982 19.2725 15.5055C19.3935 15.2128 19.4558 14.8991 19.4555 14.5823V10.2955C19.4558 9.97876 19.3935 9.66506 19.2725 9.37234C19.1514 9.07963 18.9738 8.81364 18.7499 8.58958C18.526 8.36551 18.2601 8.18777 17.9675 8.0665C17.6749 7.94523 17.3612 7.88281 17.0444 7.88281ZM11.4015 14.3927V10.4852L14.7608 12.4389L11.4015 14.3927Z" fill="white"/>
</g>
<defs>
<clipPath id="clip0_1773_1547">
<rect width="24.2228" height="24.2228" fill="white" transform="translate(0.969818 0.328125)"/>
</clipPath>
</defs>
</svg>
