<svg width="19" height="19" viewBox="0 0 19 19" fill="none" xmlns="http://www.w3.org/2000/svg">
<g clip-path="url(#clip0_65_2345)">
<path d="M14.4961 18.9375H4.49608C3.42771 18.9375 2.42324 18.5214 1.66769 17.7659C0.912172 17.0104 0.496094 16.0059 0.496094 14.9375V13.9374C0.496094 13.3851 0.943786 12.9374 1.4961 12.9374C2.04841 12.9374 2.49611 13.3851 2.49611 13.9374V14.9375C2.49611 15.4717 2.70416 15.9739 3.08185 16.3516C3.45964 16.7294 3.96186 16.9375 4.49608 16.9375H14.4961C15.0303 16.9375 15.5325 16.7294 15.9102 16.3516C16.288 15.9738 16.4961 15.4716 16.4961 14.9375V13.9374C16.4961 13.3851 16.9438 12.9374 17.4961 12.9374C18.0483 12.9374 18.4961 13.3851 18.4961 13.9374V14.9375C18.4961 16.0058 18.08 17.0103 17.3245 17.7659C16.5689 18.5214 15.5644 18.9375 14.4961 18.9375ZM9.49608 14.9374C9.35774 14.9374 9.22605 14.9094 9.10623 14.8586C8.99445 14.8114 8.88941 14.7428 8.7975 14.653L8.79544 14.651L8.79331 14.6489L8.7923 14.6479L8.79118 14.6468L8.78901 14.6446L4.78899 10.6446C4.39848 10.2541 4.39848 9.62089 4.78899 9.23035C5.1795 8.83984 5.81271 8.83981 6.20322 9.23035L8.49611 11.5232V3.93751C8.49607 3.38519 8.94376 2.9375 9.49608 2.9375C10.0484 2.9375 10.4961 3.38519 10.4961 3.93751V11.5232L12.789 9.23035C13.1794 8.83984 13.8127 8.83984 14.2032 9.23035C14.5937 9.62086 14.5937 10.2541 14.2032 10.6446L10.2032 14.6446L10.201 14.6467L10.1999 14.6478L10.1989 14.6488L10.1973 14.6504L10.1948 14.6529C10.1838 14.6636 10.1726 14.6741 10.1612 14.6842C10.0775 14.7589 9.98418 14.8171 9.88557 14.8587L9.88459 14.8591L9.88351 14.8596C9.76432 14.9098 9.63346 14.9374 9.49608 14.9374Z" fill="#3870E1" stroke="white" stroke-width="0.5625"/>
</g>
<defs>
<clipPath id="clip0_65_2345">
<rect width="18" height="18" fill="white" transform="translate(0.5 0.945312)"/>
</clipPath>
</defs>
</svg>
