<svg width="17" height="17" viewBox="0 0 17 17" fill="none" xmlns="http://www.w3.org/2000/svg">
<path fill-rule="evenodd" clip-rule="evenodd" d="M8.91398 3.15562C9.09312 3.07475 9.30298 3.10633 9.45038 3.23633L14.931 8.06966C15.4577 8.53413 15.4577 9.35519 14.931 9.81966L9.45038 14.653C9.30298 14.783 9.09312 14.8146 8.91398 14.7337C8.73485 14.6529 8.61972 14.4745 8.61972 14.278V11.7785C7.32125 11.7828 6.21092 11.8185 5.20286 12.1074C4.12963 12.4149 3.15509 13.0165 2.23398 14.2447C2.10486 14.4169 1.88004 14.4871 1.67587 14.419C1.4717 14.351 1.33398 14.1599 1.33398 13.9447C1.33398 10.8655 2.35328 8.88206 3.87845 7.67946C5.27445 6.57871 7.02658 6.18642 8.61972 6.12143V3.61133C8.61972 3.41479 8.73485 3.23648 8.91398 3.15562ZM9.61972 4.71894V6.478C9.61972 6.82693 9.33865 7.10821 8.99238 7.11203C7.41805 7.1294 5.75664 7.47197 4.49763 8.46473C3.47925 9.26773 2.67055 10.5389 2.41706 12.5495C3.19526 11.8368 4.02944 11.4034 4.92739 11.1461C6.18704 10.7851 7.55445 10.7783 8.98578 10.778C9.33352 10.7779 9.61972 11.0594 9.61972 11.4113V13.1704L14.2697 9.06966C14.3448 9.00333 14.3448 8.88599 14.2697 8.81966L9.61972 4.71894Z" fill="#3870E1" stroke="#3870E1" stroke-width="0.2"/>
</svg>
