<svg width="123" height="84" viewBox="0 0 123 84" fill="none" xmlns="http://www.w3.org/2000/svg">
<rect x="1.5" y="2" width="120" height="80" rx="12" stroke="#E2E3E8" stroke-width="3"/>
<g filter="url(#filter0_d_67_4947)">
<path d="M105.45 12H17.194C14.0493 12 11.5 14.6863 11.5 18V66C11.5 69.3137 14.0493 72 17.194 72H105.45C108.595 72 111.144 69.3137 111.144 66V18C111.144 14.6863 108.595 12 105.45 12Z" fill="white"/>
<path d="M11.8559 33.375H111.5" stroke="#E2E3E8" stroke-width="0.731661"/>
<path d="M80.5392 16.5H42.105C40.9258 16.5 39.9698 17.5074 39.9698 18.75C39.9698 19.9926 40.9258 21 42.105 21H80.5392C81.7184 21 82.6744 19.9926 82.6744 18.75C82.6744 17.5074 81.7184 16.5 80.5392 16.5Z" fill="#E2E3E8"/>
<path d="M91.2153 24H31.4288C30.2496 24 29.2936 25.0074 29.2936 26.25C29.2936 27.4926 30.2496 28.5 31.4288 28.5H91.2153C92.3945 28.5 93.3505 27.4926 93.3505 26.25C93.3505 25.0074 92.3945 24 91.2153 24Z" fill="#E2E3E8"/>
<path d="M20.7527 50.2505H18.6174C18.2244 50.2505 17.9057 50.5863 17.9057 51.0005V66.0005C17.9057 66.4147 18.2244 66.7505 18.6174 66.7505H20.7527C21.1458 66.7505 21.4644 66.4147 21.4644 66.0005V51.0005C21.4644 50.5863 21.1458 50.2505 20.7527 50.2505Z" fill="#E2E3E8"/>
<path d="M25.7349 50.2505H23.5996C23.2065 50.2505 22.8879 50.5863 22.8879 51.0005V66.0005C22.8879 66.4147 23.2065 66.7505 23.5996 66.7505H25.7349C26.1279 66.7505 26.4466 66.4147 26.4466 66.0005V51.0005C26.4466 50.5863 26.1279 50.2505 25.7349 50.2505Z" fill="#E2E3E8"/>
<path d="M39.258 50.2505H37.1228C36.7297 50.2505 36.4111 50.5863 36.4111 51.0005V66.0005C36.4111 66.4147 36.7297 66.7505 37.1228 66.7505H39.258C39.6511 66.7505 39.9698 66.4147 39.9698 66.0005V51.0005C39.9698 50.5863 39.6511 50.2505 39.258 50.2505Z" fill="#E2E3E8"/>
<path d="M47.0872 50.2505H42.105C41.7119 50.2505 41.3932 50.5863 41.3932 51.0005V66.0005C41.3932 66.4147 41.7119 66.7505 42.105 66.7505H47.0872C47.4803 66.7505 47.7989 66.4147 47.7989 66.0005V51.0005C47.7989 50.5863 47.4803 50.2505 47.0872 50.2505Z" fill="#E2E3E8"/>
<path d="M100.468 50.2505H49.9342C49.5411 50.2505 49.2225 50.5863 49.2225 51.0005V66.0005C49.2225 66.4147 49.5411 66.7505 49.9342 66.7505H100.468C100.861 66.7505 101.18 66.4147 101.18 66.0005V51.0005C101.18 50.5863 100.861 50.2505 100.468 50.2505Z" fill="#E2E3E8"/>
<path d="M29.2937 51.0005C29.2937 50.5863 28.975 50.2505 28.5819 50.2505C28.1888 50.2505 27.8702 50.5863 27.8702 51.0005V66.0005C27.8702 66.4147 28.1888 66.7505 28.5819 66.7505C28.975 66.7505 29.2937 66.4147 29.2937 66.0005V51.0005Z" fill="#E2E3E8"/>
<path d="M34.9876 51.0005C34.9876 50.5863 34.6689 50.2505 34.2758 50.2505C33.8827 50.2505 33.5641 50.5863 33.5641 51.0005V66.0005C33.5641 66.4147 33.8827 66.7505 34.2758 66.7505C34.6689 66.7505 34.9876 66.4147 34.9876 66.0005V51.0005Z" fill="#E2E3E8"/>
<path d="M32.1406 51.0005C32.1406 50.5863 31.8219 50.2505 31.4288 50.2505C31.0358 50.2505 30.7171 50.5863 30.7171 51.0005V66.0005C30.7171 66.4147 31.0358 66.7505 31.4288 66.7505C31.8219 66.7505 32.1406 66.4147 32.1406 66.0005V51.0005Z" fill="#E2E3E8"/>
<path d="M104.027 50.2505H103.315C102.922 50.2505 102.603 50.5863 102.603 51.0005V66.0005C102.603 66.4147 102.922 66.7505 103.315 66.7505H104.027C104.42 66.7505 104.738 66.4147 104.738 66.0005V51.0005C104.738 50.5863 104.42 50.2505 104.027 50.2505Z" fill="#E2E3E8"/>
<path d="M36.411 40.5H20.0409C18.8617 40.5 17.9057 41.5074 17.9057 42.75C17.9057 43.9926 18.8617 45 20.0409 45H36.411C37.5903 45 38.5463 43.9926 38.5463 42.75C38.5463 41.5074 37.5903 40.5 36.411 40.5Z" fill="#E2E3E8"/>
<path d="M102.603 40.5H86.2331C85.0538 40.5 84.0978 41.5074 84.0978 42.75C84.0978 43.9926 85.0538 45 86.2331 45H102.603C103.782 45 104.738 43.9926 104.738 42.75C104.738 41.5074 103.782 40.5 102.603 40.5Z" fill="#E2E3E8"/>
</g>
<defs>
<filter id="filter0_d_67_4947" x="1.5" y="4" width="120" height="80" filterUnits="userSpaceOnUse" color-interpolation-filters="sRGB">
<feFlood flood-opacity="0" result="BackgroundImageFix"/>
<feColorMatrix in="SourceAlpha" type="matrix" values="0 0 0 0 0 0 0 0 0 0 0 0 0 0 0 0 0 0 127 0" result="hardAlpha"/>
<feOffset dy="2"/>
<feGaussianBlur stdDeviation="5"/>
<feComposite in2="hardAlpha" operator="out"/>
<feColorMatrix type="matrix" values="0 0 0 0 0 0 0 0 0 0 0 0 0 0 0 0 0 0 0.16 0"/>
<feBlend mode="normal" in2="BackgroundImageFix" result="effect1_dropShadow_67_4947"/>
<feBlend mode="normal" in="SourceGraphic" in2="effect1_dropShadow_67_4947" result="shape"/>
</filter>
</defs>
</svg>
