<svg width="123" height="84" viewBox="0 0 123 84" fill="none" xmlns="http://www.w3.org/2000/svg">
<rect x="1.49994" y="2" width="120" height="80" rx="12" stroke="#23B100" stroke-width="3"/>
<g filter="url(#filter0_d_67_5023)">
<rect x="11.4999" y="12" width="100" height="60" rx="5.85329" fill="white"/>
<path d="M11.8658 30.6572H110.824" stroke="#E2E3E8" stroke-width="0.731661"/>
<path d="M92.7143 18.585H51.0097C49.7974 18.585 48.8147 19.5677 48.8147 20.7799C48.8147 21.9922 49.7974 22.9749 51.0097 22.9749H92.7143C93.9266 22.9749 94.9093 21.9922 94.9093 20.7799C94.9093 19.5677 93.9266 18.585 92.7143 18.585Z" fill="#E2E3E8"/>
<path d="M39.3031 18.585H21.7432C20.5309 18.585 19.5482 19.5677 19.5482 20.7799C19.5482 21.9922 20.5309 22.9749 21.7432 22.9749H39.3031C40.5153 22.9749 41.498 21.9922 41.498 20.7799C41.498 19.5677 40.5153 18.585 39.3031 18.585Z" fill="#E2E3E8"/>
<path d="M92.7143 39.0713H51.0097C49.7974 39.0713 48.8147 40.054 48.8147 41.2663C48.8147 42.4785 49.7974 43.4613 51.0097 43.4613H92.7143C93.9266 43.4613 94.9093 42.4785 94.9093 41.2663C94.9093 40.054 93.9266 39.0713 92.7143 39.0713Z" fill="#E2E3E8"/>
<path d="M98.5676 47.1196H51.0097C49.7974 47.1196 48.8147 48.1024 48.8147 49.3146C48.8147 50.5269 49.7974 51.5096 51.0097 51.5096H98.5676C99.7799 51.5096 100.763 50.5269 100.763 49.3146C100.763 48.1024 99.7799 47.1196 98.5676 47.1196Z" fill="#E2E3E8"/>
<path d="M72.9595 55.168H51.0097C49.7974 55.168 48.8147 56.1507 48.8147 57.363C48.8147 58.5752 49.7974 59.5579 51.0097 59.5579H72.9595C74.1718 59.5579 75.1545 58.5752 75.1545 57.363C75.1545 56.1507 74.1718 55.168 72.9595 55.168Z" fill="#E2E3E8"/>
<path d="M35.6447 39.0713H23.2065C20.782 39.0713 18.8165 41.0367 18.8165 43.4613V55.8995C18.8165 58.324 20.782 60.2895 23.2065 60.2895H35.6447C38.0692 60.2895 40.0347 58.324 40.0347 55.8995V43.4613C40.0347 41.0367 38.0692 39.0713 35.6447 39.0713Z" fill="#E2E3E8"/>
<path d="M29.2785 52.7923C30.129 52.7923 30.9604 52.5401 31.6675 52.0676C32.3746 51.5951 32.9258 50.9235 33.2512 50.1377C33.5766 49.352 33.6618 48.4873 33.4958 47.6532C33.3298 46.8191 32.9202 46.0529 32.3188 45.4516C31.7173 44.8502 30.9511 44.4408 30.1169 44.2749C29.2828 44.1091 28.4182 44.1943 27.6325 44.5199C26.8467 44.8455 26.1752 45.3967 25.7028 46.104C25.2304 46.8112 24.9784 47.6426 24.9785 48.4931C24.9785 49.6335 25.4315 50.7272 26.2379 51.5336C27.0443 52.34 28.1381 52.7923 29.2785 52.7923ZM29.2785 45.6264C29.8455 45.6264 30.3997 45.7946 30.8711 46.1096C31.3425 46.4245 31.71 46.8723 31.9269 47.3961C32.1439 47.9199 32.2007 48.4963 32.0901 49.0523C31.9794 49.6084 31.7064 50.1192 31.3055 50.5201C30.9046 50.921 30.3938 51.194 29.8377 51.3047C29.2817 51.4153 28.7053 51.3585 28.1815 51.1415C27.6577 50.9246 27.2099 50.5571 26.895 50.0857C26.58 49.6143 26.4118 49.0601 26.4118 48.4931C26.4118 47.7328 26.7139 47.0037 27.2515 46.4661C27.7891 45.9285 28.5182 45.6264 29.2785 45.6264Z" fill="white"/>
<path d="M29.2788 54.2256C27.5689 54.2275 25.9295 54.9077 24.7204 56.1168C23.5113 57.3259 22.8312 58.9652 22.8292 60.6752C22.8292 60.8652 22.9047 61.0475 23.0391 61.1819C23.1735 61.3163 23.3558 61.3918 23.5459 61.3918C23.736 61.3918 23.9182 61.3163 24.0526 61.1819C24.187 61.0475 24.2625 60.8652 24.2625 60.6752C24.2625 59.3448 24.791 58.0689 25.7318 57.1281C26.6725 56.1874 27.9484 55.6589 29.2788 55.6589C30.6092 55.6589 31.8851 56.1874 32.8258 57.1281C33.7666 58.0689 34.2951 59.3448 34.2951 60.6752C34.2951 60.8652 34.3706 61.0475 34.505 61.1819C34.6394 61.3163 34.8217 61.3918 35.0117 61.3918C35.2018 61.3918 35.3841 61.3163 35.5185 61.1819C35.6529 61.0475 35.7284 60.8652 35.7284 60.6752C35.7265 58.9652 35.0463 57.3259 33.8372 56.1168C32.6281 54.9077 30.9888 54.2275 29.2788 54.2256Z" fill="white"/>
</g>
<defs>
<filter id="filter0_d_67_5023" x="1.49994" y="4" width="120" height="80" filterUnits="userSpaceOnUse" color-interpolation-filters="sRGB">
<feFlood flood-opacity="0" result="BackgroundImageFix"/>
<feColorMatrix in="SourceAlpha" type="matrix" values="0 0 0 0 0 0 0 0 0 0 0 0 0 0 0 0 0 0 127 0" result="hardAlpha"/>
<feOffset dy="2"/>
<feGaussianBlur stdDeviation="5"/>
<feComposite in2="hardAlpha" operator="out"/>
<feColorMatrix type="matrix" values="0 0 0 0 0 0 0 0 0 0 0 0 0 0 0 0 0 0 0.16 0"/>
<feBlend mode="normal" in2="BackgroundImageFix" result="effect1_dropShadow_67_5023"/>
<feBlend mode="normal" in="SourceGraphic" in2="effect1_dropShadow_67_5023" result="shape"/>
</filter>
</defs>
</svg>
