<svg width="20" height="21" viewBox="0 0 20 21" fill="none" xmlns="http://www.w3.org/2000/svg">
<path d="M13.9716 18.1759H7.8883C7.57424 18.1759 7.3133 17.915 7.3133 17.6009C7.3133 17.2869 7.57424 17.0259 7.8883 17.0259H13.9716C15.1706 17.0259 16.0712 16.7345 16.6716 16.1342C17.2719 15.5338 17.5633 14.6333 17.5633 13.4342V8.43425C17.5633 7.23523 17.2719 6.33467 16.6716 5.73431C16.0712 5.13394 15.1706 4.84258 13.9716 4.84258H5.6383C4.43928 4.84258 3.53872 5.13394 2.93836 5.73431C2.33799 6.33467 2.04663 7.23523 2.04663 8.43425V13.6009C2.04663 13.915 1.78568 14.1759 1.47163 14.1759C1.36683 14.1759 1.27309 14.237 1.1956 14.3096C1.11708 14.3832 1.04716 14.4765 0.990299 14.5557C0.980327 14.5696 0.970836 14.5829 0.961768 14.5956C0.94446 14.62 0.928693 14.6421 0.914055 14.6618C0.907695 14.6703 0.901829 14.678 0.896436 14.6848L0.896628 8.43425C0.896628 6.9229 1.33123 5.73911 2.13719 4.93314C2.94316 4.12718 4.12695 3.69258 5.6383 3.69258H13.9716C15.483 3.69258 16.6668 4.12718 17.4727 4.93314C18.2787 5.73911 18.7133 6.9229 18.7133 8.43425V13.4342C18.7133 14.9456 18.2787 16.1294 17.4727 16.9353C16.6668 17.7413 15.483 18.1759 13.9716 18.1759Z" fill="black" stroke="white" stroke-width="0.1"/>
<path d="M10.0001 13.1577C8.53603 13.1577 7.34175 11.9634 7.34175 10.4993C7.34175 9.0353 8.53603 7.84102 10.0001 7.84102C11.4641 7.84102 12.6584 9.0353 12.6584 10.4993C12.6584 11.9634 11.4641 13.1577 10.0001 13.1577ZM10.0001 8.99102C9.17247 8.99102 8.49175 9.67173 8.49175 10.4993C8.49175 11.327 9.17247 12.0077 10.0001 12.0077C10.8277 12.0077 11.5084 11.327 11.5084 10.4993C11.5084 9.67173 10.8277 8.99102 10.0001 8.99102Z" fill="black" stroke="white" stroke-width="0.1"/>
<path d="M15.4167 13.1577C15.1027 13.1577 14.8417 12.8967 14.8417 12.5827V8.41602C14.8417 8.10196 15.1027 7.84102 15.4167 7.84102C15.7308 7.84102 15.9917 8.10196 15.9917 8.41602V12.5827C15.9917 12.8967 15.7308 13.1577 15.4167 13.1577Z" fill="black" stroke="white" stroke-width="0.1"/>
<path d="M7.81567 15.7324C7.81567 17.6417 6.26791 19.1895 4.35864 19.1895C2.44938 19.1895 0.901611 17.6417 0.901611 15.7324C0.901611 13.8232 2.44938 12.2754 4.35864 12.2754C6.26791 12.2754 7.81567 13.8232 7.81567 15.7324Z" stroke="black"/>
<path d="M1.9126 18.1777L6.80493 13.2852" stroke="black"/>
</svg>
