<svg width="20" height="20" viewBox="0 0 20 20" fill="none" xmlns="http://www.w3.org/2000/svg">
<path d="M17.0833 16.9421C16.8858 16.9421 16.6883 16.8863 16.5158 16.7738L15.4174 16.0613C14.9774 15.7763 14.4674 15.6263 13.9433 15.6263H7.49992C6.23575 15.6263 5.20825 14.5988 5.20825 13.3346V11.668C5.20825 11.323 5.48825 11.043 5.83325 11.043C6.17825 11.043 6.45825 11.323 6.45825 11.668V13.3346C6.45825 13.9088 6.92575 14.3763 7.49992 14.3763H13.9433C14.7091 14.3763 15.4533 14.5971 16.0966 15.013L16.8749 15.5171V8.33464C16.8749 7.76047 16.4074 7.29297 15.8333 7.29297H14.1666C13.8216 7.29297 13.5416 7.01297 13.5416 6.66797C13.5416 6.32297 13.8216 6.04297 14.1666 6.04297H15.8333C17.0974 6.04297 18.1249 7.07047 18.1249 8.33464V15.9013C18.1249 16.283 17.9166 16.6338 17.5816 16.8163C17.4249 16.9013 17.2541 16.9421 17.0833 16.9421Z" fill="black"/>
<path d="M2.91667 13.609C2.74583 13.609 2.575 13.5665 2.41833 13.4823C2.08333 13.2998 1.875 12.949 1.875 12.5673V5.00065C1.875 3.73648 2.9025 2.70898 4.16667 2.70898H12.5C13.7642 2.70898 14.7917 3.73648 14.7917 5.00065V10.0007C14.7917 11.2648 13.7642 12.2923 12.5 12.2923H5.56333C5.36167 12.2923 5.16583 12.3498 4.9975 12.4598L3.48417 13.4407C3.31167 13.5532 3.115 13.609 2.91667 13.609ZM4.16667 3.95898C3.5925 3.95898 3.125 4.42648 3.125 5.00065V12.184L4.31667 11.4115C4.6875 11.1698 5.11917 11.0423 5.56333 11.0423H12.5C13.0742 11.0423 13.5417 10.5748 13.5417 10.0007V5.00065C13.5417 4.42648 13.0742 3.95898 12.5 3.95898H4.16667Z" fill="black"/>
</svg>
