<svg width="116" height="25" viewBox="0 0 116 25" fill="none" xmlns="http://www.w3.org/2000/svg">
<path d="M19.7936 10.647C19.0639 8.28121 17.3282 6.45103 14.922 5.72777C13.8238 5.39757 12.6052 5.37974 11.4787 5.56361C11.4705 5.56497 11.4621 5.56453 11.4541 5.56233C11.4461 5.56013 11.4386 5.55622 11.4323 5.55087C11.4259 5.54551 11.4208 5.53885 11.4173 5.53133C11.4138 5.52381 11.412 5.51562 11.4119 5.50732V0.862914C11.4119 0.855417 11.4147 0.848181 11.4197 0.842626C11.4248 0.83707 11.4317 0.833601 11.4392 0.832898C14.2381 0.542095 16.795 1.10713 19.11 2.528C21.9628 4.28032 24.0474 7.27653 24.5805 10.6161C24.582 10.6252 24.5815 10.6346 24.5791 10.6435C24.5767 10.6524 24.5724 10.6607 24.5665 10.6677C24.5606 10.6748 24.5532 10.6804 24.5449 10.6843C24.5366 10.6882 24.5276 10.6902 24.5185 10.6902L19.8491 10.6883C19.8368 10.6884 19.8248 10.6844 19.8148 10.677C19.8048 10.6696 19.7974 10.6591 19.7936 10.647Z" fill="white"/>
<path d="M9.4759 17.6367C8.07426 16.7505 7.19949 15.4425 6.85159 13.7127C6.78828 13.3981 6.75411 12.8509 6.7491 12.0711C6.72967 8.7653 6.71462 5.46484 6.70397 2.1697C6.70334 2.1303 6.72058 2.10122 6.75568 2.08245C7.88589 1.48084 9.08694 1.09685 10.3588 0.930498C10.4159 0.922993 10.4444 0.94801 10.4444 1.00555C10.44 4.94608 10.434 8.90038 10.4265 12.8684C10.4228 14.5861 12.2836 15.6733 13.8012 14.8159C15.1608 14.0476 15.2567 11.997 13.8679 11.1874C13.1129 10.7474 12.2036 10.7634 11.4514 11.224C11.4441 11.2285 11.4357 11.231 11.4271 11.2312C11.4185 11.2314 11.41 11.2293 11.4025 11.2251C11.395 11.2209 11.3887 11.2147 11.3845 11.2072C11.3802 11.1998 11.378 11.1913 11.3781 11.1827L11.3837 7.04769C11.3837 6.9939 11.4107 6.96263 11.4646 6.95388C13.3991 6.64056 15.0731 7.04518 16.4866 8.16775C19.0592 10.2099 19.4701 13.9097 17.3441 16.4191C15.3827 18.7352 12.0306 19.2511 9.4759 17.6367Z" fill="white"/>
<path d="M24.5156 15.0552C23.0404 21.8619 16.0842 26.0607 9.3753 23.9735C3.68756 22.2033 0.0364627 16.4558 1.18548 10.5121C1.75153 7.5872 3.25973 4.83395 5.54085 2.86962C5.5459 2.86533 5.55207 2.86257 5.55864 2.86166C5.56521 2.86075 5.5719 2.86173 5.57793 2.86449C5.58396 2.86725 5.58907 2.87167 5.59266 2.87724C5.59625 2.8828 5.59818 2.88927 5.5982 2.89589C5.6214 6.19103 5.64741 9.47617 5.67625 12.7513C5.72138 17.9951 11.3471 21.3957 16.0165 19.088C17.7491 18.2318 18.9815 16.8457 19.7137 14.9295C19.7306 14.8832 19.7638 14.8607 19.8133 14.862L24.4639 14.9895C24.4719 14.9898 24.4797 14.9918 24.4869 14.9954C24.494 14.9989 24.5002 15.0041 24.5052 15.0103C24.5101 15.0166 24.5136 15.0238 24.5154 15.0316C24.5172 15.0394 24.5173 15.0474 24.5156 15.0552Z" fill="white"/>
<path d="M61.3012 10.1789C62.2151 9.0213 64.0759 8.65264 65.4036 9.1517C66.7125 9.64325 67.4722 10.7933 67.4892 12.1957C67.5174 14.444 67.5192 16.6913 67.4948 18.9377C67.4948 18.9815 67.4725 19.0034 67.428 19.0034L65.1272 19.009C65.1168 19.009 65.1065 19.0069 65.0969 19.0029C65.0873 18.9988 65.0786 18.9929 65.0713 18.9855C65.064 18.9781 65.0583 18.9693 65.0545 18.9596C65.0507 18.95 65.0489 18.9396 65.0491 18.9292C65.0924 17.07 65.0858 15.2138 65.0294 13.3608C65.004 12.5325 64.8545 11.662 63.9951 11.2999C63.1723 10.9537 62.0882 11.4021 62.0591 12.3993C62.0586 12.4084 62.0559 12.4173 62.051 12.4251C62.0462 12.4328 62.0395 12.4392 62.0314 12.4437C62.0234 12.4481 62.0144 12.4504 62.0053 12.4503C61.9961 12.4503 61.9871 12.4479 61.9791 12.4434C61.7021 12.2858 61.4836 12.0704 61.3238 11.7971C61.3207 11.7917 61.3159 11.7875 61.3101 11.7851C61.3044 11.7827 61.298 11.7823 61.292 11.7839C61.286 11.7855 61.2807 11.7891 61.2769 11.794C61.2731 11.7989 61.2711 11.8049 61.2711 11.8111L61.272 18.9161C61.272 18.978 61.241 19.009 61.179 19.009L58.8734 19.0071C58.866 19.0071 58.8586 19.0056 58.8518 19.0027C58.845 18.9999 58.8387 18.9957 58.8335 18.9903C58.8283 18.985 58.8241 18.9787 58.8213 18.9718C58.8184 18.9648 58.817 18.9574 58.817 18.9499C58.817 15.07 58.8198 11.1823 58.8254 7.2868C58.8273 5.90408 60.0826 5.43129 61.2241 5.41065C61.2305 5.41053 61.2368 5.41167 61.2427 5.41402C61.2487 5.41637 61.2541 5.41987 61.2586 5.42433C61.2632 5.42878 61.2668 5.4341 61.2692 5.43997C61.2717 5.44583 61.273 5.45213 61.273 5.4585L61.2711 10.1686C61.2711 10.2011 61.2811 10.2045 61.3012 10.1789Z" fill="white"/>
<path d="M71.9555 18.0061C71.9514 18.003 71.9466 18.001 71.9414 18.0004C71.9363 17.9999 71.9312 18.0008 71.9265 18.003C71.9219 18.0053 71.918 18.0088 71.9153 18.0132C71.9126 18.0175 71.9112 18.0226 71.9113 18.0277L71.916 18.9151C71.916 18.9267 71.9137 18.9382 71.9093 18.9489C71.9049 18.9596 71.8985 18.9693 71.8904 18.9775C71.8822 18.9857 71.8726 18.9922 71.862 18.9966C71.8514 19.001 71.84 19.0033 71.8285 19.0033L69.5173 18.9996C69.4981 18.9996 69.4797 18.992 69.4661 18.9784C69.4525 18.9649 69.4449 18.9465 69.4449 18.9273C69.4468 15.0887 69.4506 11.2476 69.4562 7.40403C69.4571 6.05977 70.7124 5.48285 71.8577 5.40687C71.8651 5.40635 71.8726 5.4074 71.8797 5.40995C71.8867 5.4125 71.8932 5.41649 71.8987 5.42169C71.9041 5.42688 71.9085 5.43316 71.9115 5.44013C71.9144 5.4471 71.916 5.45462 71.916 5.46221C71.9122 7.97125 71.9128 10.4819 71.9178 12.994C71.9197 14.0484 71.9837 14.7613 72.3748 15.6253C73.0838 17.1881 75.1327 17.4602 76.3296 16.2848C77.2003 15.4293 77.3536 13.9987 76.922 12.8918C76.3202 11.3486 74.8421 10.9434 73.3537 11.3862C73.012 11.4881 72.7208 11.6766 72.4801 11.9518C72.4742 11.9586 72.4666 11.9636 72.4581 11.9665C72.4496 11.9693 72.4405 11.9698 72.4317 11.968C72.4229 11.9662 72.4147 11.9621 72.408 11.9561C72.4014 11.9502 72.3964 11.9425 72.3936 11.934C71.9808 10.6873 72.6099 9.495 73.8482 9.09725C75.1966 8.66292 76.7509 9.11414 77.8181 10.0306C80.7706 12.5691 80.0503 18.16 76.0156 19.1309C74.4622 19.5043 73.19 19.0221 71.9555 18.0061Z" fill="white"/>
<path d="M95.7783 18.0531L95.7915 18.8937C95.7917 18.9075 95.7892 18.9212 95.784 18.9341C95.7788 18.9469 95.7711 18.9586 95.7613 18.9685C95.7515 18.9784 95.7398 18.9862 95.7269 18.9916C95.714 18.9969 95.7002 18.9997 95.6862 18.9997L93.4342 18.9987C93.4138 18.9987 93.3941 18.9906 93.3797 18.9762C93.3652 18.9618 93.3571 18.9422 93.3571 18.9218C93.3559 15.097 93.3559 11.2577 93.3571 7.40413C93.3581 6.1396 94.5964 5.41916 95.7482 5.42385C95.7605 5.4241 95.7723 5.42915 95.7809 5.43792C95.7895 5.44669 95.7943 5.45848 95.7943 5.47075C95.7893 7.89474 95.789 10.3159 95.7934 12.7343C95.7962 13.9735 95.8677 14.9594 96.414 15.9115C97.1417 17.1817 98.995 17.3224 100.058 16.4378C101.734 15.0429 101.27 11.7559 98.9602 11.2793C98.2785 11.1395 96.9424 11.2324 96.4629 11.8759C96.355 12.021 96.2817 12.0054 96.2428 11.829C95.8056 9.85344 97.3834 8.79341 99.1633 8.94913C101.325 9.13863 102.972 10.8412 103.398 12.8909C103.908 15.3374 102.89 18.071 100.401 18.9837C98.7966 19.5719 97.1239 19.1676 95.8724 18.0109C95.8084 17.9515 95.7771 17.9656 95.7783 18.0531Z" fill="white"/>
<path d="M34.3754 11.3072C32.2673 10.417 29.6373 11.6871 29.8658 14.2781C30.0172 16.0051 31.342 17.0266 33.1126 16.8653C33.9541 16.7893 34.5982 16.3953 35.1436 15.7818C35.1693 15.7537 35.1975 15.7509 35.2282 15.7734L36.9517 17.0313C36.96 17.0375 36.9671 17.0453 36.9724 17.0541C36.9777 17.0629 36.9813 17.0727 36.9829 17.0828C36.9845 17.0929 36.984 17.1032 36.9816 17.113C36.9791 17.1228 36.9747 17.1321 36.9687 17.1402C36.1864 18.2008 35.1586 18.8412 33.8855 19.0613C32.334 19.3296 30.65 19.0529 29.4051 18.0792C27.1174 16.2903 26.8569 12.749 28.7036 10.5474C29.464 9.64056 30.4623 9.06302 31.6984 8.81474C33.3665 8.48079 36.0011 8.91043 36.4384 10.9686C36.57 11.5886 36.3396 12.2791 35.7877 12.6355C35.7786 12.6416 35.7682 12.6454 35.7573 12.6468C35.7464 12.6482 35.7354 12.6471 35.7251 12.6436C35.7147 12.64 35.7053 12.6342 35.6976 12.6264C35.6898 12.6187 35.684 12.6093 35.6805 12.5989C35.4586 11.9582 35.0138 11.5774 34.3754 11.3072Z" fill="white"/>
<path d="M46.0631 17.9851C46.0629 17.9793 46.0611 17.9736 46.0578 17.9687C46.0546 17.9639 46.05 17.9601 46.0447 17.9578C46.0394 17.9555 46.0336 17.9548 46.028 17.9558C46.0224 17.9569 46.0173 17.9595 46.0132 17.9635C43.3682 20.4963 39.3777 19.0836 38.4242 15.729C37.8046 13.548 38.3443 11.1578 40.1308 9.71505C41.0354 8.98429 42.1365 8.60999 43.2874 8.6963C44.8087 8.81168 46.1317 10.1269 45.5779 11.7525C45.5748 11.7611 45.5696 11.7687 45.5626 11.7746C45.5557 11.7805 45.5473 11.7845 45.5383 11.7861C45.5293 11.7877 45.5201 11.787 45.5115 11.7839C45.503 11.7808 45.4953 11.7755 45.4895 11.7685C45.2927 11.5277 45.0404 11.3517 44.7326 11.2404C43.2291 10.6935 41.6992 11.1184 41.0081 12.5621C40.2437 14.1587 40.9 16.5123 42.8388 16.8819C45.0259 17.2994 45.986 15.4851 46.0292 13.6193C46.0643 12.1059 46.0756 10.5728 46.0631 9.01993C46.0624 8.9649 46.0932 8.9377 46.1552 8.93832L48.5567 8.93926C48.5652 8.93926 48.5736 8.94093 48.5815 8.94419C48.5894 8.94744 48.5965 8.95221 48.6026 8.95822C48.6086 8.96423 48.6134 8.97136 48.6166 8.97922C48.6199 8.98707 48.6216 8.99549 48.6216 9.00399L48.6206 18.9419C48.6206 18.9599 48.6135 18.977 48.6008 18.9897C48.5881 19.0024 48.5709 19.0095 48.5529 19.0095L46.1599 19.0086C46.1004 19.0086 46.0703 18.9785 46.0696 18.9185L46.0631 17.9851Z" fill="white"/>
<path d="M52.9233 11.6181C52.9252 11.9821 53.3192 12.2082 53.605 12.347C54.9722 13.0112 56.6318 13.6087 57.1348 15.2241C57.589 16.68 56.8715 18.1865 55.4536 18.8038C53.6144 19.6049 51.4885 19.1255 50.2304 17.5515C50.1833 17.4933 50.1852 17.4367 50.236 17.3817L51.6784 15.8301C51.6825 15.8257 51.6875 15.8222 51.693 15.8199C51.6986 15.8175 51.7045 15.8164 51.7106 15.8165C51.7166 15.8166 51.7225 15.8179 51.728 15.8204C51.7335 15.8229 51.7383 15.8265 51.7423 15.831C52.3685 16.543 53.2581 17.0496 54.2416 16.8592C54.9656 16.7194 55.0634 15.9896 54.5519 15.5374C54.313 15.326 54.0488 15.1522 53.7592 15.0158C52.7371 14.5318 51.4574 13.8733 50.8838 12.8977C50.0113 11.4155 50.7428 9.63035 52.3328 9.0009C53.4311 8.56626 54.487 8.59159 55.5006 9.07689C56.2491 9.43523 56.7192 10.3133 56.4183 11.1088C56.2861 11.4577 56.0369 11.7532 55.6708 11.9952C55.6081 12.0365 55.5583 12.0243 55.5213 11.9587C55.1483 11.2851 54.5494 10.9584 53.7244 10.9784C53.3652 10.9877 52.9214 11.2129 52.9233 11.6181Z" fill="white"/>
<path d="M88.8814 17.9537C88.8813 17.9486 88.8797 17.9437 88.8769 17.9395C88.874 17.9353 88.8701 17.932 88.8654 17.93C88.8607 17.9281 88.8556 17.9275 88.8506 17.9283C88.8456 17.9292 88.8409 17.9315 88.8372 17.9349C86.7338 19.964 83.5011 19.5869 81.8923 17.1779C81.157 16.0766 80.8881 14.6958 81.0037 13.3862C81.2266 10.8703 83.2661 8.56825 85.9317 8.69865C87.6148 8.7812 88.8682 10.0091 88.4009 11.7624C88.3978 11.7736 88.3916 11.7837 88.3831 11.7915C88.3745 11.7994 88.364 11.8046 88.3526 11.8067C88.3412 11.8088 88.3296 11.8076 88.319 11.8032C88.3084 11.7988 88.2993 11.7915 88.2928 11.7821C87.9336 11.2802 87.1729 11.0842 86.6012 11.0279C83.7118 10.7427 82.6963 14.1207 84.1922 16.0513C84.8749 16.9321 86.4047 17.1985 87.3817 16.6591C88.6792 15.9425 88.8842 14.1404 88.8805 12.844C88.8767 11.5782 88.8783 10.2924 88.8852 8.98663C88.8852 8.95286 88.9021 8.93598 88.9359 8.93598L91.3412 8.93504C91.3596 8.93504 91.3773 8.94236 91.3904 8.95537C91.4034 8.96839 91.4107 8.98605 91.4107 9.00446L91.4117 18.9368C91.4117 18.9516 91.4058 18.9657 91.3952 18.9763C91.3847 18.9868 91.3703 18.9928 91.3553 18.9931L88.967 19.0043C88.9565 19.0045 88.9461 19.0025 88.9364 18.9985C88.9268 18.9946 88.9179 18.9887 88.9105 18.9813C88.9031 18.9739 88.8972 18.9651 88.8931 18.9553C88.8891 18.9456 88.887 18.9351 88.887 18.9246L88.8814 17.9537Z" fill="white"/>
<path d="M112.787 17.9894C112.787 17.9816 112.785 17.974 112.781 17.9675C112.777 17.9609 112.77 17.9558 112.763 17.9527C112.756 17.9496 112.748 17.9486 112.741 17.95C112.733 17.9514 112.726 17.9549 112.72 17.9603C110.297 20.2661 106.492 19.3177 105.316 16.2746C104.44 14.0119 104.857 11.3731 106.758 9.77373C107.853 8.8516 109.608 8.31502 110.994 8.94635C111.997 9.40413 112.733 10.6255 112.279 11.7531C112.276 11.761 112.271 11.768 112.264 11.7734C112.258 11.7788 112.25 11.7825 112.242 11.784C112.233 11.7855 112.225 11.7848 112.217 11.782C112.208 11.7792 112.201 11.7744 112.196 11.7681C111.485 10.9754 109.981 10.8112 109.043 11.2343C106.53 12.3666 106.951 16.7661 109.954 16.9256C112.023 17.0363 112.726 15.1555 112.754 13.4303C112.778 11.9394 112.785 10.4598 112.777 8.99137C112.777 8.98403 112.778 8.97673 112.781 8.96991C112.783 8.96309 112.788 8.95687 112.793 8.95164C112.798 8.9464 112.804 8.94224 112.811 8.93939C112.818 8.93655 112.826 8.93509 112.833 8.93509L115.248 8.94072C115.265 8.94096 115.281 8.94779 115.292 8.95973C115.304 8.97167 115.311 8.98775 115.311 9.00451V18.9397C115.311 18.9541 115.305 18.9679 115.295 18.9781C115.285 18.9883 115.271 18.9941 115.256 18.9941L112.852 19.0053C112.842 19.0053 112.832 19.0033 112.822 18.9993C112.813 18.9953 112.804 18.9895 112.797 18.9822C112.79 18.9749 112.784 18.9662 112.78 18.9566C112.777 18.9471 112.775 18.9368 112.775 18.9265L112.787 17.9894Z" fill="white"/>
</svg>
