<svg width="121" height="80" viewBox="0 0 121 80" fill="none" xmlns="http://www.w3.org/2000/svg">
<g filter="url(#filter0_d_67_5024)">
<rect x="10.4999" y="8" width="100" height="60" rx="5.85329" fill="white"/>
<path d="M10.8658 26.6572H109.824" stroke="#E2E3E8" stroke-width="0.731661"/>
<path d="M91.7143 14.585H50.0097C48.7974 14.585 47.8147 15.5677 47.8147 16.7799C47.8147 17.9922 48.7974 18.9749 50.0097 18.9749H91.7143C92.9266 18.9749 93.9093 17.9922 93.9093 16.7799C93.9093 15.5677 92.9266 14.585 91.7143 14.585Z" fill="#E2E3E8"/>
<path d="M38.3031 14.585H20.7432C19.5309 14.585 18.5482 15.5677 18.5482 16.7799C18.5482 17.9922 19.5309 18.9749 20.7432 18.9749H38.3031C39.5153 18.9749 40.498 17.9922 40.498 16.7799C40.498 15.5677 39.5153 14.585 38.3031 14.585Z" fill="#E2E3E8"/>
<path d="M91.7143 35.0713H50.0097C48.7974 35.0713 47.8147 36.054 47.8147 37.2663C47.8147 38.4785 48.7974 39.4613 50.0097 39.4613H91.7143C92.9266 39.4613 93.9093 38.4785 93.9093 37.2663C93.9093 36.054 92.9266 35.0713 91.7143 35.0713Z" fill="#E2E3E8"/>
<path d="M97.5676 43.1196H50.0097C48.7974 43.1196 47.8147 44.1024 47.8147 45.3146C47.8147 46.5269 48.7974 47.5096 50.0097 47.5096H97.5676C98.7799 47.5096 99.7626 46.5269 99.7626 45.3146C99.7626 44.1024 98.7799 43.1196 97.5676 43.1196Z" fill="#E2E3E8"/>
<path d="M71.9595 51.168H50.0097C48.7974 51.168 47.8147 52.1507 47.8147 53.363C47.8147 54.5752 48.7974 55.5579 50.0097 55.5579H71.9595C73.1718 55.5579 74.1545 54.5752 74.1545 53.363C74.1545 52.1507 73.1718 51.168 71.9595 51.168Z" fill="#E2E3E8"/>
<path d="M34.6447 35.0713H22.2065C19.782 35.0713 17.8165 37.0367 17.8165 39.4613V51.8995C17.8165 54.324 19.782 56.2895 22.2065 56.2895H34.6447C37.0692 56.2895 39.0347 54.324 39.0347 51.8995V39.4613C39.0347 37.0367 37.0692 35.0713 34.6447 35.0713Z" fill="#E2E3E8"/>
<path d="M28.2785 48.7923C29.129 48.7923 29.9604 48.5401 30.6675 48.0676C31.3746 47.5951 31.9258 46.9235 32.2512 46.1377C32.5766 45.352 32.6618 44.4873 32.4958 43.6532C32.3298 42.8191 31.9202 42.0529 31.3188 41.4516C30.7173 40.8502 29.9511 40.4408 29.1169 40.2749C28.2828 40.1091 27.4182 40.1943 26.6325 40.5199C25.8467 40.8455 25.1752 41.3967 24.7028 42.104C24.2304 42.8112 23.9784 43.6426 23.9785 44.4931C23.9785 45.6335 24.4315 46.7272 25.2379 47.5336C26.0443 48.34 27.1381 48.7923 28.2785 48.7923ZM28.2785 41.6264C28.8455 41.6264 29.3997 41.7946 29.8711 42.1096C30.3425 42.4245 30.71 42.8723 30.9269 43.3961C31.1439 43.9199 31.2007 44.4963 31.0901 45.0523C30.9794 45.6084 30.7064 46.1192 30.3055 46.5201C29.9046 46.921 29.3938 47.194 28.8377 47.3047C28.2817 47.4153 27.7053 47.3585 27.1815 47.1415C26.6577 46.9246 26.2099 46.5571 25.895 46.0857C25.58 45.6143 25.4118 45.0601 25.4118 44.4931C25.4118 43.7328 25.7139 43.0037 26.2515 42.4661C26.7891 41.9285 27.5182 41.6264 28.2785 41.6264Z" fill="white"/>
<path d="M28.2788 50.2256C26.5689 50.2275 24.9295 50.9077 23.7204 52.1168C22.5113 53.3259 21.8312 54.9652 21.8292 56.6752C21.8292 56.8652 21.9047 57.0475 22.0391 57.1819C22.1735 57.3163 22.3558 57.3918 22.5459 57.3918C22.736 57.3918 22.9182 57.3163 23.0526 57.1819C23.187 57.0475 23.2625 56.8652 23.2625 56.6752C23.2625 55.3448 23.791 54.0689 24.7318 53.1281C25.6725 52.1874 26.9484 51.6589 28.2788 51.6589C29.6092 51.6589 30.8851 52.1874 31.8258 53.1281C32.7666 54.0689 33.2951 55.3448 33.2951 56.6752C33.2951 56.8652 33.3706 57.0475 33.505 57.1819C33.6394 57.3163 33.8217 57.3918 34.0117 57.3918C34.2018 57.3918 34.3841 57.3163 34.5185 57.1819C34.6529 57.0475 34.7284 56.8652 34.7284 56.6752C34.7265 54.9652 34.0463 53.3259 32.8372 52.1168C31.6281 50.9077 29.9888 50.2275 28.2788 50.2256Z" fill="white"/>
</g>
<defs>
<filter id="filter0_d_67_5024" x="0.499939" y="0" width="120" height="80" filterUnits="userSpaceOnUse" color-interpolation-filters="sRGB">
<feFlood flood-opacity="0" result="BackgroundImageFix"/>
<feColorMatrix in="SourceAlpha" type="matrix" values="0 0 0 0 0 0 0 0 0 0 0 0 0 0 0 0 0 0 127 0" result="hardAlpha"/>
<feOffset dy="2"/>
<feGaussianBlur stdDeviation="5"/>
<feComposite in2="hardAlpha" operator="out"/>
<feColorMatrix type="matrix" values="0 0 0 0 0 0 0 0 0 0 0 0 0 0 0 0 0 0 0.16 0"/>
<feBlend mode="normal" in2="BackgroundImageFix" result="effect1_dropShadow_67_5024"/>
<feBlend mode="normal" in="SourceGraphic" in2="effect1_dropShadow_67_5024" result="shape"/>
</filter>
</defs>
</svg>
