<svg width="40" height="41" viewBox="0 0 40 41" fill="none" xmlns="http://www.w3.org/2000/svg">
<rect x="0.25" y="0.867188" width="39.5" height="39.5" rx="19.75" fill="#E1EFFF"/>
<rect x="0.25" y="0.867188" width="39.5" height="39.5" rx="19.75" stroke="#E1EFFF" stroke-width="0.5"/>
<path d="M22.2008 27.6676C22.2006 28.3645 21.9938 29.0457 21.6065 29.625C21.2192 30.2044 20.6688 30.6559 20.0249 30.9225C19.3811 31.1891 18.6726 31.2588 17.9891 31.1228C17.3056 30.9868 16.6778 30.6512 16.185 30.1584C15.6922 29.6656 15.3566 29.0378 15.2206 28.3543C15.0846 27.6708 15.1543 26.9623 15.4209 26.3185C15.6875 25.6746 16.139 25.1242 16.7184 24.7369C17.2977 24.3496 17.9789 24.1428 18.6758 24.1426C19.1388 24.1424 19.5972 24.2335 20.0249 24.4106C20.4527 24.5877 20.8413 24.8474 21.1687 25.1747C21.496 25.5021 21.7557 25.8907 21.9328 26.3185C22.1099 26.7462 22.201 27.2046 22.2008 27.6676Z" fill="#0094FE"/>
<path d="M24.8509 20.5498C23.9096 20.417 23.0118 20.0679 22.2281 19.5299C21.4444 18.9919 20.7959 18.2797 20.3337 17.449C19.8715 16.6183 19.608 15.6918 19.564 14.7422C19.5199 13.7926 19.6965 12.8457 20.0799 11.9758C19.1751 11.7604 18.2333 11.753 17.3253 11.9543C16.4173 12.1556 15.5668 12.5604 14.8379 13.138C14.109 13.7157 13.5207 14.4512 13.1173 15.2892C12.7138 16.1272 12.5058 17.0458 12.5089 17.9758V20.4328C12.5097 21.2942 12.3222 22.1454 11.9595 22.9267C11.5967 23.7081 11.0675 24.4006 10.4089 24.9558C10.1698 25.1606 9.99913 25.4337 9.91984 25.7384C9.84054 26.0431 9.85639 26.3647 9.96527 26.6601C10.0742 26.9555 10.2708 27.2105 10.5289 27.3908C10.787 27.5711 11.094 27.6682 11.4089 27.6688H25.9449C26.261 27.6688 26.5696 27.5717 26.8287 27.3905C27.0878 27.2093 27.2849 26.9529 27.3934 26.6559C27.5019 26.359 27.5165 26.0358 27.4352 25.7303C27.3539 25.4247 27.1806 25.1516 26.9389 24.9478C26.2977 24.4053 25.7798 23.7321 25.4197 22.9733C25.0596 22.2145 24.8657 21.3876 24.8509 20.5478V20.5498Z" fill="#0094FE"/>
<path d="M30.1299 14.4509C30.1299 15.3224 29.8714 16.1743 29.3873 16.8989C28.9031 17.6235 28.2149 18.1882 27.4098 18.5216C26.6046 18.8551 25.7187 18.9423 24.864 18.7722C24.0092 18.6021 23.2242 18.1824 22.608 17.5661C21.9919 16.9498 21.5723 16.1646 21.4024 15.3099C21.2325 14.4551 21.3199 13.5692 21.6536 12.7641C21.9872 11.9591 22.5521 11.271 23.2768 10.787C24.0015 10.303 24.8534 10.0447 25.7249 10.0449C26.8933 10.0452 28.0137 10.5095 28.8398 11.3358C29.6658 12.162 30.1299 13.2826 30.1299 14.4509Z" fill="#0094FE"/>
</svg>
