<svg width="80" height="81" viewBox="0 0 80 81" fill="none" xmlns="http://www.w3.org/2000/svg">
<path d="M40 80.5C62.0914 80.5 80 62.5914 80 40.5C80 18.4086 62.0914 0.5 40 0.5C17.9086 0.5 0 18.4086 0 40.5C0 62.5914 17.9086 80.5 40 80.5Z" fill="#FFC12F"/>
<path d="M79.999 40.5001C79.9983 38.9391 79.9071 37.3795 79.726 35.8291L59.592 15.6951L56.531 19.9191L47.838 11.2261L47.159 18.3841L39.999 11.2261L40.082 19.1461L32.162 11.2261L33.112 20.0141L24.324 11.2261L20.405 69.7751L29.823 79.1931C35.7421 80.7446 41.9381 80.9184 47.9348 79.7011C53.9316 78.4838 59.5694 75.9078 64.415 72.1711C69.2606 68.4344 73.185 63.6366 75.8866 58.1462C78.5882 52.6558 79.995 46.6191 79.999 40.5001Z" fill="#E3A91F"/>
<path d="M20.407 15.6941L24.326 11.2261L28.245 15.6941L32.164 11.2261L36.083 15.6941L40.002 11.2261L43.921 15.6941L47.839 11.2261L51.757 15.6941L55.675 11.2261L59.593 15.6941V69.7741L55.675 65.3061L51.757 69.7741L47.839 65.3061L43.921 69.7741L40.002 65.3061L36.083 69.7741L32.164 65.3061L28.245 69.7741L24.326 65.3061L20.407 69.7741V15.6941Z" fill="white"/>
<path d="M40.002 65.3061L43.921 69.7741L47.839 65.3061L51.757 69.7741L55.675 65.3061L59.593 69.7741V15.6941L55.675 11.2261L51.757 15.6941L47.839 11.2261L43.921 15.6941L40.002 11.2261V65.3061Z" fill="#FFF5DE"/>
<path d="M43.022 46.0411C42.48 46.0428 41.9412 46.1227 41.422 46.2781L41.004 46.4011L41.848 49.7771L42.329 49.6061C42.5216 49.537 42.7244 49.5008 42.929 49.4991C44.229 49.4991 44.501 50.4531 44.501 51.2511C44.501 54.1511 43.028 57.0761 39.738 57.0761C38.322 57.0761 37.604 56.4761 37.604 55.2951V47.2881H39.385V44.0971H37.604V42.7651C37.604 39.4801 35.83 37.6731 32.609 37.6731C32.284 37.6731 31.864 37.7051 31.505 37.7351L31.085 37.7731V41.0731H32.171C33.455 41.0731 33.806 41.4551 33.806 42.8521V44.0971H31.055V47.2881H33.806V55.2941C33.806 58.4711 36.08 60.4431 39.738 60.4431C45.556 60.4431 48.204 55.6791 48.204 51.2501C48.2461 50.5575 48.1412 49.8638 47.8961 49.2146C47.651 48.5654 47.2713 47.9754 46.782 47.4834C46.2926 46.9914 45.7047 46.6085 45.0568 46.36C44.409 46.1114 43.7158 46.0027 43.023 46.0411" fill="#FFD448"/>
<path d="M43.022 46.0411C42.48 46.0428 41.9412 46.1227 41.422 46.2781L41.004 46.4011L41.848 49.7771L42.329 49.6061C42.5216 49.537 42.7244 49.5008 42.929 49.4991C44.229 49.4991 44.501 50.4531 44.501 51.2511C44.501 54.1511 43.028 57.0761 39.738 57.0761C38.322 57.0761 37.604 56.4761 37.604 55.2951V47.2881H39.385V44.0971H37.604V42.7651C37.604 39.4801 35.83 37.6731 32.609 37.6731C32.284 37.6731 31.864 37.7051 31.505 37.7351L31.085 37.7731V41.0731H32.171C33.455 41.0731 33.806 41.4551 33.806 42.8521V44.0971H31.055V47.2881H33.806V55.2941C33.806 58.4711 36.08 60.4431 39.738 60.4431C45.556 60.4431 48.204 55.6791 48.204 51.2501C48.2461 50.5575 48.1412 49.8638 47.8961 49.2146C47.651 48.5654 47.2713 47.9754 46.782 47.4834C46.2926 46.9914 45.7047 46.6085 45.0568 46.36C44.409 46.1114 43.7158 46.0027 43.023 46.0411" stroke="#FFD448" stroke-width="0.6"/>
<path d="M54.634 22.114H25.364V26.281H54.634V22.114Z" fill="#CDD2E1"/>
<path d="M54.635 22.114H40.002V26.281H54.635V22.114Z" fill="#C6C0AF"/>
<path d="M54.634 29.823H25.364V33.99H54.634V29.823Z" fill="#CDD2E1"/>
<path d="M54.636 29.823H40V33.99H54.636V29.823Z" fill="#C6C0AF"/>
</svg>
