<svg width="35" height="35" viewBox="0 0 35 35" fill="none" xmlns="http://www.w3.org/2000/svg">
<path d="M8.55212 4.04892C11.2603 2.23937 14.4443 1.27349 17.7014 1.27344C22.0677 1.27846 26.2537 3.0152 29.3412 6.10265C32.4287 9.19018 34.1655 13.3764 34.1704 17.7428C34.1703 20.9998 33.2044 24.1836 31.3949 26.8917C29.5853 29.6 27.0133 31.7108 24.004 32.9573C20.9947 34.2038 17.6834 34.5299 14.4888 33.8945C11.2941 33.259 8.3597 31.6905 6.0565 29.3873C3.75331 27.0842 2.18481 24.1497 1.54936 20.9551C0.91391 17.7605 1.24005 14.4491 2.48653 11.4399C3.73301 8.4306 5.84385 5.85853 8.55212 4.04892Z" fill="white" stroke="#B7BBC1" stroke-width="1.0625"/>
<path d="M11.7559 24.5308L11.7525 24.5308C11.6478 24.5314 11.5441 24.5099 11.4483 24.4677C11.3525 24.4255 11.2667 24.3635 11.1964 24.2859C11.1262 24.2083 11.0731 24.1167 11.0406 24.0172C11.0084 23.9183 10.9972 23.8138 11.0078 23.7104L11.3178 20.9892C11.3178 20.9891 11.3178 20.989 11.3178 20.989C11.3481 20.7256 11.4664 20.4802 11.6537 20.2926L18.9999 12.9464L22.6098 16.5441L15.2676 23.8934C15.0772 24.0776 14.8313 24.194 14.5681 24.2246C14.568 24.2246 14.5678 24.2246 14.5677 24.2246L11.8794 24.5308L11.7559 24.5308Z" fill="#888B92" stroke="white" stroke-width="1.25106"/>
<path d="M24.2467 13.2635L24.2476 13.2643C24.3551 13.3715 24.4405 13.4988 24.4987 13.639C24.5569 13.7792 24.5869 13.9295 24.5869 14.0813C24.5869 14.2331 24.5569 14.3835 24.4987 14.5237C24.4405 14.6639 24.3551 14.7912 24.2476 14.8983L24.2467 14.8992L22.8574 16.2885L19.2462 12.6773L20.6355 11.288L20.6364 11.2872C20.7435 11.1796 20.8708 11.0942 21.011 11.036C21.1512 10.9778 21.3016 10.9478 21.4534 10.9478C21.6052 10.9478 21.7555 10.9778 21.8957 11.036C22.0359 11.0942 22.1632 11.1796 22.2704 11.2872L22.2713 11.288L24.2467 13.2635ZM22.7135 10.8458L22.7136 10.8457L22.7135 10.8458Z" fill="#888B92" stroke="white" stroke-width="1.25106"/>
</svg>
