<svg width="22" height="23" viewBox="0 0 22 23" fill="none" xmlns="http://www.w3.org/2000/svg">
<path d="M21 11.1328C21 5.60996 16.5228 1.13281 11 1.13281C5.47715 1.13281 1 5.60996 1 11.1328C1 16.6557 5.47715 21.1328 11 21.1328C16.5228 21.1328 21 16.6557 21 11.1328Z" fill="#00A751" fill-opacity="0.14"/>
<path d="M21.1723 11.134C21.1723 5.51558 16.6177 0.960938 10.9992 0.960938C5.38081 0.960938 0.826172 5.51558 0.826172 11.134C0.826172 16.7524 5.38081 21.3071 10.9992 21.3071C16.6177 21.3071 21.1723 16.7524 21.1723 11.134Z" fill="#EB762F" stroke="#EB762F" stroke-width="1.5" stroke-miterlimit="10"/>
<path d="M9.54521 14.9486C9.39368 14.9046 9.25597 14.8225 9.14521 14.7101L6.6429 12.1693C6.55909 12.0845 6.49309 11.9838 6.44878 11.8732C6.40448 11.7625 6.38276 11.644 6.38491 11.5248C6.38706 11.4056 6.41304 11.2881 6.46131 11.1791C6.50957 11.0701 6.57916 10.9718 6.66598 10.8901L6.67367 10.8824C6.84942 10.7165 7.08322 10.6262 7.32485 10.6308C7.56648 10.6354 7.79667 10.7346 7.96598 10.907L9.82444 12.7939L14.3991 8.31856C14.5716 8.14942 14.8036 8.05469 15.0452 8.05469C15.2868 8.05469 15.5188 8.14942 15.6914 8.31856L15.6983 8.32548C15.7834 8.40878 15.851 8.50823 15.8971 8.618C15.9433 8.72776 15.967 8.84564 15.967 8.96471C15.967 9.08378 15.9433 9.20166 15.8971 9.31142C15.851 9.42119 15.7834 9.52064 15.6983 9.60394L10.4621 14.7255C10.3434 14.842 10.1953 14.9242 10.0336 14.9635C9.87194 15.0028 9.70265 14.9976 9.54367 14.9486H9.54521Z" fill="white"/>
</svg>
