<svg width="20" height="20" viewBox="0 0 20 20" fill="none" xmlns="http://www.w3.org/2000/svg">
<path d="M11.6162 17.4129L11.59 17.3939H11.5576H4.21979C3.0303 17.3939 2.06338 16.427 2.06338 15.2375V4.57086C2.06338 3.38137 3.0303 2.41445 4.21979 2.41445H11.6044C12.7939 2.41445 13.7608 3.38137 13.7608 4.57086V9.71958V9.8244L13.8655 9.81947C13.9017 9.81777 13.9367 9.81281 13.9665 9.8086C13.97 9.8081 13.9735 9.80761 13.9769 9.80713C14.0105 9.80244 14.0383 9.79907 14.0659 9.79907C16.3861 9.79907 18.2736 11.6866 18.2736 14.0068C18.2736 16.3269 16.3861 18.2145 14.0659 18.2145C13.1506 18.2145 12.3085 17.9126 11.6162 17.4129ZM10.413 16.3632H10.5926L10.498 16.2105C10.0991 15.5668 9.85825 14.816 9.85825 14.0068C9.85825 12.182 11.0341 10.6389 12.6636 10.0583L12.73 10.0346V9.96409V4.57086C12.73 3.9503 12.225 3.44522 11.6044 3.44522H4.21979C3.59923 3.44522 3.09415 3.9503 3.09415 4.57086V15.2375C3.09415 15.8581 3.59923 16.3632 4.21979 16.3632H10.413ZM4.52492 6.21189C4.52492 5.92743 4.75584 5.6965 5.0403 5.6965H10.7839C11.0684 5.6965 11.2993 5.92743 11.2993 6.21189C11.2993 6.49635 11.0684 6.72727 10.7839 6.72727H5.0403C4.75584 6.72727 4.52492 6.49635 4.52492 6.21189ZM5.0403 10.6196H7.50184C7.7863 10.6196 8.01723 10.8505 8.01723 11.135C8.01723 11.4194 7.7863 11.6504 7.50184 11.6504H5.0403C4.75584 11.6504 4.52492 11.4194 4.52492 11.135C4.52492 10.8505 4.75584 10.6196 5.0403 10.6196ZM10.7839 9.18881H5.0403C4.75584 9.18881 4.52492 8.95789 4.52492 8.67343C4.52492 8.38896 4.75584 8.15804 5.0403 8.15804H10.7839C11.0684 8.15804 11.2993 8.38896 11.2993 8.67343C11.2993 8.95789 11.0684 9.18881 10.7839 9.18881ZM13.5506 12.4683C13.5506 12.1838 13.7815 11.9529 14.0659 11.9529C14.3504 11.9529 14.5813 12.1838 14.5813 12.4683V14.1093C14.5813 14.3938 14.3504 14.6247 14.0659 14.6247C13.7815 14.6247 13.5506 14.3938 13.5506 14.1093V12.4683ZM17.2429 14.0068C17.2429 12.2555 15.8172 10.8298 14.0659 10.8298C12.3147 10.8298 10.889 12.2555 10.889 14.0068C10.889 15.758 12.3147 17.1837 14.0659 17.1837C15.8172 17.1837 17.2429 15.758 17.2429 14.0068ZM13.5506 15.7504C13.5506 15.4659 13.7815 15.235 14.0659 15.235C14.3504 15.235 14.5813 15.4659 14.5813 15.7504C14.5813 16.0348 14.3504 16.2657 14.0659 16.2657C13.7815 16.2657 13.5506 16.0348 13.5506 15.7504Z" fill="black" stroke="#F7F7F7" stroke-width="0.2"/>
</svg>
