<svg width="60" height="60" viewBox="0 0 60 60" fill="none" xmlns="http://www.w3.org/2000/svg">
<g clip-path="url(#clip0_2303_2811)">
<path d="M43.2221 26.197V15.1475C43.2221 14.8312 43.076 14.539 42.8694 14.3078L30.4813 1.29918C30.2501 1.05596 29.9213 0.921875 29.593 0.921875H9.95203C6.32603 0.921875 3.42969 3.8788 3.42969 7.50525V44.645C3.42969 48.2715 6.32603 51.1799 9.95203 51.1799H25.4556C28.3881 56.0473 33.7184 59.3085 39.7904 59.3085C49.0144 59.3085 56.547 51.8124 56.547 42.5763C56.5595 34.5083 50.7668 27.7668 43.2221 26.197ZM30.81 5.19334L39.1213 13.9425H33.7304C32.1241 13.9425 30.81 12.6164 30.81 11.0101V5.19334ZM9.95203 48.7459C7.67665 48.7459 5.86365 46.9204 5.86365 44.645V7.50525C5.86365 5.21739 7.67665 3.35584 9.95203 3.35584H28.376V11.0101C28.376 13.967 30.7735 16.3765 33.7304 16.3765H40.7882V25.8803C40.4234 25.8682 40.1311 25.8317 39.8149 25.8317C35.5679 25.8317 31.6617 27.4625 28.7168 30.0181H13.2622C12.5927 30.0181 12.0452 30.5655 12.0452 31.2346C12.0452 31.9041 12.5927 32.4516 13.2622 32.4516H26.4535C25.5893 33.6686 24.8712 34.8856 24.3117 36.2242H13.2622C12.5927 36.2242 12.0452 36.7716 12.0452 37.4411C12.0452 38.1102 12.5927 38.6581 13.2622 38.6581H23.5206C23.2163 39.8751 23.0582 41.2257 23.0582 42.5763C23.0582 44.7666 23.4841 46.9329 24.2507 48.7584H9.95203V48.7459ZM39.8028 56.887C31.9174 56.887 25.5042 50.4738 25.5042 42.5884C25.5042 34.7029 31.9049 28.2897 39.8028 28.2897C47.7003 28.2897 54.101 34.7029 54.101 42.5884C54.101 50.4738 47.6883 56.887 39.8028 56.887Z" fill="white"/>
<path d="M13.2619 26.3637H25.589C26.2585 26.3637 26.806 25.8157 26.806 25.1467C26.806 24.4772 26.2585 23.9297 25.589 23.9297H13.2619C12.5924 23.9297 12.0449 24.4772 12.0449 25.1467C12.0449 25.8157 12.5924 26.3637 13.2619 26.3637Z" fill="white"/>
<path d="M40.6677 33.6081C40.4366 33.3649 40.1203 33.2188 39.7795 33.2188C39.4387 33.2188 39.1225 33.3649 38.8913 33.6081L31.76 41.2623C31.2976 41.7492 31.3341 42.5279 31.821 42.9782C32.3079 43.4406 33.0986 43.4041 33.561 42.9176L38.5991 37.5267V50.8151C38.5991 51.4846 39.1465 52.0321 39.816 52.0321C40.4851 52.0321 41.033 51.4846 41.033 50.8151V37.5267L46.0341 42.9176C46.2778 43.1729 46.5941 43.307 46.9228 43.307C47.2146 43.307 47.5068 43.1974 47.75 42.9782C48.2369 42.5158 48.2734 41.7492 47.8111 41.2623L40.6677 33.6081Z" fill="white"/>
</g>
<defs>
<clipPath id="clip0_2303_2811">
<rect width="58.3867" height="58.3867" fill="white" transform="translate(0.806641 0.921875)"/>
</clipPath>
</defs>
</svg>
