<svg width="26" height="27" viewBox="0 0 26 27" fill="none" xmlns="http://www.w3.org/2000/svg">
<path d="M23.5418 14.4189L22.9597 14.8918L23.5418 14.4189C23.1687 13.9596 23.1687 13.3017 23.5418 12.8425L23.8076 12.5153C25.0654 10.9672 24.3082 8.63699 22.3808 8.12382L21.9734 8.01537C21.4016 7.86314 21.0149 7.33087 21.0468 6.74003L21.0696 6.3191C21.1771 4.32737 19.1949 2.88723 17.3339 3.60502L16.9406 3.75672C16.3886 3.96964 15.7629 3.76633 15.4414 3.26958L15.2124 2.91568C14.1287 1.2411 11.6786 1.2411 10.5949 2.91568L10.3659 3.26958C10.0444 3.76633 9.41867 3.96964 8.86661 3.75671L8.47332 3.60502C6.61231 2.88723 4.63012 4.32737 4.7377 6.3191L4.76044 6.74003C4.79235 7.33087 4.40563 7.86314 3.83385 8.01537L3.4265 8.12382C1.499 8.63699 0.741876 10.9672 1.99962 12.5153L2.26543 12.8425C2.63853 13.3017 2.63853 13.9596 2.26542 14.4189L1.99962 14.7461C0.741874 16.2942 1.499 18.6244 3.4265 19.1375L3.83385 19.246C4.40563 19.3982 4.79235 19.9305 4.76044 20.5213L4.7377 20.9422C4.63012 22.934 6.61231 24.3741 8.47332 23.6563L8.86661 23.5046C9.41867 23.2917 10.0444 23.495 10.3659 23.9918L10.5949 24.3457C11.6786 26.0203 14.1287 26.0202 15.2124 24.3457L15.4414 23.9918C15.7629 23.495 16.3886 23.2917 16.9406 23.5046L17.3339 23.6563C19.1949 24.3741 21.1771 22.934 21.0696 20.9422L21.0468 20.5213C21.0149 19.9305 21.4016 19.3982 21.9734 19.246L22.3808 19.1375C24.3083 18.6244 25.0654 16.2942 23.8076 14.7461L23.5418 14.4189Z" fill="#23B100" stroke="white" stroke-width="1.5"/>
<path d="M8.17007 13.5046L10.7788 16.4832C10.9693 16.7007 11.304 16.7118 11.5085 16.5074L17.6369 10.3789" stroke="white" stroke-width="2" stroke-linecap="round"/>
</svg>
